<svg version="1.1" viewBox="70.0 130.0 660.0 230.0" fill="none" stroke="none" stroke-linecap="square" stroke-miterlimit="10" xmlns:xlink="http://www.w3.org/1999/xlink" xmlns="http://www.w3.org/2000/svg"><clipPath id="gf8932d7e54_0_60.0"><path d="m0 0l1280.0 0l0 720.0l-1280.0 0l0 -720.0z" clip-rule="nonzero"/></clipPath><g clip-path="url(#gf8932d7e54_0_60.0)"><path fill="#ffff00" d="m139.42781 205.3412l307.02362 0l0 98.89763l-307.02362 0z" fill-rule="evenodd"/><path stroke="#12a5d6" stroke-width="2.0" stroke-miterlimit="800.0" stroke-linecap="butt" d="m139.42781 205.3412l307.02362 0l0 98.89763l-307.02362 0z" fill-rule="evenodd"/><path fill="#000000" d="m185.08406 263.33002l0 -8.453125q0 -0.546875 -0.046875 -0.890625q-0.03125 -0.359375 -0.125 -0.5625q-0.078125 -0.203125 -0.21875 -0.28125q-0.140625 -0.09375 -0.328125 -0.09375q-0.234375 0 -0.4375 0.140625q-0.203125 0.140625 -0.4375 0.46875q-0.21875 0.3125 -0.5 0.828125q-0.265625 0.515625 -0.640625 1.28125l0 7.5625l-1.875 0l0 -8.234375q0 -0.640625 -0.046875 -1.03125q-0.03125 -0.40625 -0.125 -0.625q-0.078125 -0.21875 -0.21875 -0.296875q-0.140625 -0.09375 -0.34375 -0.09375q-0.203125 0 -0.390625 0.125q-0.1875 0.109375 -0.421875 0.421875q-0.234375 0.296875 -0.515625 0.828125q-0.28125 0.53125 -0.65625 1.34375l0 7.5625l-1.875 0l0 -11.765625l1.546875 0l0.09375 2.234375q0.3125 -0.671875 0.59375 -1.140625q0.296875 -0.46875 0.59375 -0.75q0.3125 -0.28125 0.65625 -0.421875q0.34375 -0.140625 0.765625 -0.140625q0.953125 0 1.4375 0.625q0.5 0.625 0.5 1.921875q0.28125 -0.609375 0.546875 -1.078125q0.265625 -0.484375 0.578125 -0.796875q0.3125 -0.328125 0.6875 -0.5q0.375 -0.171875 0.859375 -0.171875q2.21875 0 2.21875 3.421875l0 8.5625l-1.875 0zm14.1171875 -3.21875q0 0.625 -0.21875 1.125q-0.203125 0.484375 -0.5625 0.875q-0.359375 0.375 -0.84375 0.640625q-0.484375 0.265625 -1.03125 0.453125q-0.53125 0.171875 -1.109375 0.25q-0.578125 0.09375 -1.125 0.09375q-1.203125 0 -2.203125 -0.109375q-1.0 -0.109375 -1.953125 -0.34375l0 -1.875q1.03125 0.296875 2.046875 0.453125q1.015625 0.140625 2.03125 0.140625q1.453125 0 2.15625 -0.390625q0.703125 -0.40625 0.703125 -1.140625q0 -0.3125 -0.109375 -0.5625q-0.109375 -0.265625 -0.40625 -0.484375q-0.28125 -0.234375 -0.90625 -0.46875q-0.609375 -0.25 -1.671875 -0.578125q-0.796875 -0.234375 -1.484375 -0.53125q-0.671875 -0.296875 -1.171875 -0.703125q-0.484375 -0.40625 -0.765625 -0.953125q-0.28125 -0.5625 -0.28125 -1.3125q0 -0.484375 0.234375 -1.0625q0.234375 -0.59375 0.78125 -1.09375q0.546875 -0.515625 1.484375 -0.84375q0.9375 -0.34375 2.34375 -0.34375q0.6875 0 1.53125 0.078125q0.84375 0.078125 1.765625 0.265625l0 1.8125q-0.96875 -0.234375 -1.828125 -0.34375q-0.859375 -0.109375 -1.484375 -0.109375q-0.765625 0 -1.296875 0.125q-0.515625 0.109375 -0.84375 0.3125q-0.3125 0.203125 -0.453125 0.484375q-0.140625 0.28125 -0.140625 0.59375q0 0.3125 0.125 0.578125q0.125 0.25 0.453125 0.5q0.328125 0.234375 0.921875 0.484375q0.609375 0.234375 1.5625 0.515625q1.046875 0.296875 1.765625 0.640625q0.71875 0.328125 1.15625 0.734375q0.453125 0.40625 0.640625 0.921875q0.1875 0.515625 0.1875 1.171875zm12.3515625 -6.890625q0.328125 0.421875 0.515625 0.96875q0.1875 0.53125 0.1875 1.171875q0 0.90625 -0.34375 1.671875q-0.328125 0.75 -0.9375 1.296875q-0.609375 0.53125 -1.46875 0.828125q-0.84375 0.296875 -1.859375 0.296875q-0.734375 0 -1.390625 -0.15625q-0.640625 -0.15625 -1.015625 -0.390625q-0.21875 0.328125 -0.375 0.625q-0.15625 0.296875 -0.15625 0.65625q0 0.4375 0.421875 0.734375q0.4375 0.296875 1.140625 0.3125l3.09375 0.125q0.875 0.015625 1.625 0.21875q0.75 0.203125 1.28125 0.578125q0.53125 0.375 0.828125 0.9375q0.296875 0.546875 0.296875 1.265625q0 0.78125 -0.34375 1.484375q-0.328125 0.703125 -1.046875 1.234375q-0.703125 0.546875 -1.796875 0.859375q-1.09375 0.3125 -2.59375 0.3125q-1.421875 0 -2.421875 -0.234375q-1.0 -0.21875 -1.65625 -0.625q-0.640625 -0.40625 -0.9375 -0.96875q-0.28125 -0.546875 -0.28125 -1.21875q0 -0.859375 0.390625 -1.5q0.40625 -0.640625 1.234375 -1.25q-0.3125 -0.140625 -0.53125 -0.34375q-0.21875 -0.21875 -0.359375 -0.46875q-0.140625 -0.25 -0.21875 -0.53125q-0.0625 -0.28125 -0.0625 -0.546875q0 -0.765625 0.359375 -1.390625q0.359375 -0.640625 0.84375 -1.203125q-0.21875 -0.265625 -0.390625 -0.515625q-0.171875 -0.265625 -0.296875 -0.5625q-0.125 -0.296875 -0.1875 -0.640625q-0.0625 -0.359375 -0.0625 -0.796875q0 -0.921875 0.328125 -1.671875q0.34375 -0.75 0.9375 -1.28125q0.609375 -0.546875 1.453125 -0.84375q0.859375 -0.3125 1.890625 -0.3125q0.4375 0 0.828125 0.0625q0.40625 0.0625 0.703125 0.15625l4.265625 0l0 1.65625l-1.890625 0zm-7.078125 11.8125q0 0.828125 0.859375 1.203125q0.875 0.390625 2.421875 0.390625q0.984375 0 1.640625 -0.1875q0.65625 -0.171875 1.0625 -0.453125q0.40625 -0.28125 0.578125 -0.65625q0.1875 -0.375 0.1875 -0.75q0 -0.71875 -0.59375 -1.0625q-0.578125 -0.34375 -1.796875 -0.40625l-3.0625 -0.09375q-0.390625 0.25 -0.640625 0.5q-0.25 0.25 -0.390625 0.5q-0.140625 0.25 -0.203125 0.5q-0.0625 0.25 -0.0625 0.515625zm0.625 -9.625q0 0.5625 0.1875 1.03125q0.1875 0.46875 0.53125 0.796875q0.34375 0.328125 0.796875 0.515625q0.46875 0.171875 1.03125 0.171875q0.609375 0 1.078125 -0.203125q0.484375 -0.203125 0.796875 -0.546875q0.328125 -0.359375 0.5 -0.8125q0.171875 -0.46875 0.171875 -0.953125q0 -0.5625 -0.1875 -1.03125q-0.1875 -0.46875 -0.53125 -0.796875q-0.34375 -0.328125 -0.8125 -0.5q-0.453125 -0.1875 -1.015625 -0.1875q-0.609375 0 -1.09375 0.21875q-0.46875 0.203125 -0.796875 0.546875q-0.3125 0.34375 -0.484375 0.796875q-0.171875 0.453125 -0.171875 0.953125z" fill-rule="nonzero"/><path fill="#ed7d31" d="m259.28873 205.3412l152.22046 0l0 98.89763l-152.22046 0z" fill-rule="evenodd"/><path stroke="#12a5d6" stroke-width="2.0" stroke-miterlimit="800.0" stroke-linecap="butt" d="m259.28873 205.3412l152.22046 0l0 98.89763l-152.22046 0z" fill-rule="evenodd"/><path fill="#000000" d="m327.5435 227.05309q0 1.265625 -0.359375 2.296875q-0.359375 1.015625 -1.0625 1.734375q-0.6875 0.71875 -1.6875 1.125q-1.0 0.390625 -2.296875 0.390625q-1.4375 0 -2.4375 -0.375q-0.984375 -0.390625 -1.609375 -1.0625q-0.625 -0.6875 -0.921875 -1.640625q-0.28125 -0.96875 -0.28125 -2.15625l0 -10.296875l2.078125 0l0 10.125q0 0.90625 0.171875 1.59375q0.171875 0.671875 0.5625 1.140625q0.390625 0.453125 1.0 0.6875q0.609375 0.234375 1.5 0.234375q1.671875 0 2.453125 -0.953125q0.796875 -0.96875 0.796875 -2.71875l0 -10.109375l2.09375 0l0 9.984375zm14.3359375 5.328125l-2.265625 0l-1.078125 -3.34375l-6.375 0l-1.078125 3.34375l-2.15625 0l5.078125 -15.3125l2.859375 0l5.015625 15.3125zm-3.9375 -5.203125l-2.59375 -8.1875l-2.578125 8.1875l5.171875 0zm15.1015625 -8.328125l-6.515625 0l0 4.96875l6.171875 0l0 1.734375l-6.171875 0l0 6.828125l-2.125 0l0 -15.3125l8.640625 0l0 1.78125z" fill-rule="nonzero"/><path fill="#000000" fill-opacity="0.0" d="m299.69815 201.10498l0 107.37009l-40.409424 0l0 -107.37009z" fill-rule="evenodd"/><path fill="#c00000" d="m274.05817 217.35498l5.859375 0q0.3125 0 0.546875 -0.03125q0.25 -0.015625 0.40625 -0.0625q0.171875 -0.046875 0.25 -0.15625q0.078125 -0.09375 0.078125 -0.25q0 -0.265625 -0.359375 -0.53125q-0.34375 -0.25 -1.203125 -0.5625l-5.578125 0l0 -1.765625l5.859375 0q0.3125 0 0.546875 -0.03125q0.25 -0.015625 0.40625 -0.0625q0.171875 -0.046875 0.25 -0.15625q0.078125 -0.09375 0.078125 -0.265625q0 -0.21875 -0.359375 -0.5q-0.34375 -0.265625 -1.203125 -0.59375l-5.578125 0l0 -1.78125l8.59375 0l0 1.53125l-1.25 0.03125q0.375 0.1875 0.640625 0.375q0.28125 0.1875 0.453125 0.390625q0.171875 0.21875 0.25 0.453125q0.078125 0.25 0.078125 0.546875q0 0.71875 -0.375 1.09375q-0.375 0.390625 -1.046875 0.4375q0.375 0.203125 0.640625 0.390625q0.28125 0.203125 0.453125 0.421875q0.171875 0.21875 0.25 0.46875q0.078125 0.25 0.078125 0.546875q0 0.9375 -0.65625 1.390625q-0.65625 0.453125 -1.9375 0.453125l-6.171875 0l0 -1.78125zm2.53125 10.542709q-0.734375 0 -1.265625 -0.328125q-0.515625 -0.328125 -0.84375 -0.859375q-0.328125 -0.53125 -0.46875 -1.21875q-0.140625 -0.6875 -0.140625 -1.390625q0 -0.953125 0.09375 -1.71875q0.078125 -0.75 0.25 -1.4375l1.859375 0q-0.328125 0.796875 -0.484375 1.59375q-0.140625 0.796875 -0.140625 1.5q0 0.8125 0.25 1.203125q0.265625 0.40625 0.671875 0.40625q0.203125 0 0.359375 -0.09375q0.15625 -0.078125 0.296875 -0.3125q0.15625 -0.234375 0.3125 -0.65625q0.15625 -0.421875 0.359375 -1.109375q0.171875 -0.625 0.390625 -1.109375q0.234375 -0.46875 0.53125 -0.78125q0.3125 -0.3125 0.703125 -0.484375q0.40625 -0.15625 0.953125 -0.15625q0.53125 0 0.984375 0.234375q0.46875 0.25 0.8125 0.71875q0.359375 0.46875 0.5625 1.171875q0.203125 0.703125 0.203125 1.640625q0 0.8125 -0.09375 1.4375q-0.078125 0.625 -0.171875 1.109375l-1.6875 0q0.234375 -0.734375 0.328125 -1.390625q0.109375 -0.640625 0.109375 -1.28125q0 -0.625 -0.234375 -1.015625q-0.234375 -0.390625 -0.640625 -0.390625q-0.1875 0 -0.34375 0.078125q-0.15625 0.078125 -0.296875 0.296875q-0.140625 0.234375 -0.296875 0.625q-0.15625 0.40625 -0.34375 1.078125q-0.203125 0.734375 -0.453125 1.234375q-0.234375 0.515625 -0.546875 0.828125q-0.296875 0.3125 -0.6875 0.4375q-0.390625 0.140625 -0.890625 0.140625zm4.5625 8.886459q-0.296875 0.234375 -0.625 0.328125q-0.328125 0.109375 -0.671875 0.109375q-0.71875 0 -1.265625 -0.25q-0.546875 -0.25 -0.921875 -0.703125q-0.375 -0.453125 -0.5625 -1.09375q-0.1875 -0.625 -0.1875 -1.390625q0 -0.4375 0.078125 -0.828125q0.09375 -0.375 0.21875 -0.578125q-0.140625 -0.140625 -0.3125 -0.25q-0.171875 -0.09375 -0.40625 -0.09375q-0.125 0 -0.265625 0.0625q-0.125 0.078125 -0.234375 0.203125q-0.109375 0.140625 -0.1875 0.3125q-0.0625 0.1875 -0.0625 0.40625l-0.078125 2.046875q-0.015625 0.6875 -0.171875 1.234375q-0.15625 0.5625 -0.453125 0.953125q-0.28125 0.40625 -0.703125 0.609375q-0.40625 0.21875 -0.921875 0.21875q-0.609375 0 -1.140625 -0.265625q-0.53125 -0.265625 -0.921875 -0.8125q-0.390625 -0.546875 -0.609375 -1.359375q-0.234375 -0.8125 -0.234375 -1.890625q0 -1.046875 0.171875 -1.796875q0.15625 -0.734375 0.453125 -1.21875q0.296875 -0.484375 0.703125 -0.71875q0.40625 -0.21875 0.90625 -0.21875q0.28125 0 0.546875 0.078125q0.25 0.078125 0.484375 0.21875q0.234375 0.15625 0.453125 0.390625q0.21875 0.234375 0.4375 0.546875q0.234375 -0.421875 0.609375 -0.640625q0.375 -0.203125 0.796875 -0.203125q0.28125 0 0.53125 0.0625q0.25 0.078125 0.46875 0.203125q0.234375 0.125 0.453125 0.28125q0.21875 0.171875 0.421875 0.34375q0.3125 -0.3125 0.75 -0.53125q0.4375 -0.203125 1.109375 -0.203125q0.71875 0 1.28125 0.25q0.5625 0.265625 0.953125 0.71875q0.390625 0.46875 0.578125 1.09375q0.203125 0.640625 0.203125 1.375q0 0.390625 -0.046875 0.734375q-0.03125 0.359375 -0.125 0.640625l0 2.984375l-1.5 0l0 -1.359375zm-8.234375 -4.859375q-0.5 0 -0.734375 0.5q-0.234375 0.5 -0.234375 1.40625q0 0.59375 0.109375 0.984375q0.109375 0.40625 0.28125 0.65625q0.171875 0.265625 0.421875 0.375q0.234375 0.109375 0.484375 0.109375q0.234375 0 0.390625 -0.109375q0.15625 -0.109375 0.265625 -0.296875q0.09375 -0.1875 0.15625 -0.453125q0.046875 -0.25 0.0625 -0.5625l0.03125 -1.828125q-0.15625 -0.234375 -0.3125 -0.390625q-0.15625 -0.15625 -0.296875 -0.25q-0.15625 -0.09375 -0.296875 -0.125q-0.15625 -0.015625 -0.328125 -0.015625zm6.890625 0.34375q-0.6875 0 -1.09375 0.390625q-0.390625 0.40625 -0.390625 1.125q0 0.390625 0.125 0.671875q0.125 0.28125 0.328125 0.46875q0.21875 0.1875 0.5 0.28125q0.28125 0.09375 0.578125 0.09375q0.71875 0 1.125 -0.40625q0.40625 -0.40625 0.40625 -1.125q0 -0.375 -0.125 -0.671875q-0.125 -0.28125 -0.34375 -0.46875q-0.21875 -0.171875 -0.515625 -0.265625q-0.28125 -0.09375 -0.59375 -0.09375zm-5.75 12.714584l5.59375 0q1.421875 0 1.421875 -1.046875q0 -0.515625 -0.421875 -1.0q-0.421875 -0.46875 -1.15625 -1.015625l-5.4375 0l0 -2.0625l11.953125 0l0 2.0625l-2.9375 0l-1.5625 -0.09375q0.3125 0.265625 0.5625 0.53125q0.25 0.265625 0.421875 0.578125q0.171875 0.3125 0.25 0.671875q0.09375 0.375 0.09375 0.8125q0 0.65625 -0.21875 1.140625q-0.21875 0.5 -0.609375 0.828125q-0.390625 0.328125 -0.953125 0.5q-0.546875 0.171875 -1.234375 0.171875l-5.765625 0l0 -2.078125zm-3.46875 3.2302094l1.625 0l0 9.53125l-1.625 0l0 -9.53125zm6.0 17.792725q-0.734375 0 -1.265625 -0.328125q-0.515625 -0.328125 -0.84375 -0.859375q-0.328125 -0.53125 -0.46875 -1.21875q-0.140625 -0.6875 -0.140625 -1.390625q0 -0.953125 0.09375 -1.71875q0.078125 -0.75 0.25 -1.4375l1.859375 0q-0.328125 0.796875 -0.484375 1.59375q-0.140625 0.796875 -0.140625 1.5q0 0.8125 0.25 1.203125q0.265625 0.40625 0.671875 0.40625q0.203125 0 0.359375 -0.09375q0.15625 -0.078125 0.296875 -0.3125q0.15625 -0.234375 0.3125 -0.65625q0.15625 -0.421875 0.359375 -1.109375q0.171875 -0.625 0.390625 -1.109375q0.234375 -0.46875 0.53125 -0.78125q0.3125 -0.3125 0.703125 -0.484375q0.40625 -0.15625 0.953125 -0.15625q0.53125 0 0.984375 0.234375q0.46875 0.25 0.8125 0.71875q0.359375 0.46875 0.5625 1.171875q0.203125 0.703125 0.203125 1.640625q0 0.8125 -0.09375 1.4375q-0.078125 0.625 -0.171875 1.109375l-1.6875 0q0.234375 -0.734375 0.328125 -1.390625q0.109375 -0.640625 0.109375 -1.28125q0 -0.625 -0.234375 -1.015625q-0.234375 -0.390625 -0.640625 -0.390625q-0.1875 0 -0.34375 0.078125q-0.15625 0.078125 -0.296875 0.296875q-0.140625 0.234375 -0.296875 0.625q-0.15625 0.40625 -0.34375 1.078125q-0.203125 0.734375 -0.453125 1.234375q-0.234375 0.515625 -0.546875 0.828125q-0.296875 0.3125 -0.6875 0.4375q-0.390625 0.140625 -0.890625 0.140625zm8.421875 7.495819q-0.28125 0 -0.53125 -0.109375q-0.25 -0.09375 -0.4375 -0.28125q-0.171875 -0.171875 -0.28125 -0.421875q-0.09375 -0.25 -0.09375 -0.53125q0 -0.28125 0.09375 -0.53125q0.109375 -0.25 0.28125 -0.4375q0.1875 -0.1875 0.4375 -0.296875q0.25 -0.09375 0.53125 -0.09375q0.28125 0 0.515625 0.09375q0.25 0.109375 0.4375 0.296875q0.1875 0.1875 0.28125 0.4375q0.109375 0.25 0.109375 0.53125q0 0.28125 -0.109375 0.53125q-0.09375 0.25 -0.28125 0.421875q-0.1875 0.1875 -0.4375 0.28125q-0.234375 0.109375 -0.515625 0.109375zm-3.96875 -2.28125l0 -2.4375l1.609375 0l0 4.546875l-6.984375 0l0 2.484375l-1.609375 0l0 -7.3125l1.609375 0l0 2.71875l5.375 0zm-6.984375 6.8395996l1.4375 0l5.390625 4.203125l0 -4.09375l1.765625 0l0 6.828125l-1.453125 0l-5.328125 -4.109375l0 4.171875l-1.8125 0l0 -7.0zm4.953125 16.93332q-0.203125 0 -0.546875 -0.015625q-0.34375 -0.015625 -0.625 -0.046875l0 -5.640625q-0.578125 0 -1.015625 0.171875q-0.421875 0.171875 -0.71875 0.484375q-0.28125 0.3125 -0.4375 0.75q-0.15625 0.453125 -0.15625 1.0q0 0.625 0.09375 1.328125q0.109375 0.71875 0.328125 1.5l-1.640625 0q-0.09375 -0.328125 -0.171875 -0.71875q-0.078125 -0.390625 -0.140625 -0.796875q-0.0625 -0.40625 -0.078125 -0.828125q-0.03125 -0.40625 -0.03125 -0.796875q0 -0.984375 0.265625 -1.765625q0.28125 -0.78125 0.828125 -1.328125q0.546875 -0.53125 1.34375 -0.828125q0.8125 -0.28125 1.875 -0.28125q1.046875 0 1.90625 0.28125q0.859375 0.296875 1.46875 0.8125q0.609375 0.53125 0.9375 1.28125q0.34375 0.75 0.34375 1.671875q0 0.921875 -0.28125 1.609375q-0.28125 0.703125 -0.796875 1.171875q-0.5 0.484375 -1.203125 0.734375q-0.703125 0.25 -1.546875 0.25zm0.296875 -2.109375q0.515625 0.015625 0.890625 -0.125q0.375 -0.140625 0.609375 -0.375q0.25 -0.21875 0.375 -0.53125q0.125 -0.3125 0.125 -0.671875q0 -0.765625 -0.53125 -1.265625q-0.515625 -0.5 -1.46875 -0.59375l0 3.5625z" fill-rule="nonzero"/><path fill="#674ea7" d="m446.45145 205.3412l200.189 0l0 98.89763l-200.189 0z" fill-rule="evenodd"/><path stroke="#12a5d6" stroke-width="2.0" stroke-miterlimit="800.0" stroke-linecap="butt" d="m446.45145 205.3412l200.189 0l0 98.89763l-200.189 0z" fill-rule="evenodd"/><path fill="#ffffff" d="m479.86234 248.43939l-3.484375 0l0 -1.671875l5.546875 0l0 14.859375l3.5 0l0 1.703125l-9.4375 0l0 -1.703125l3.875 0l0 -13.1875zm19.117188 8.390625q0 0.421875 -0.015625 0.71875q0 0.296875 -0.03125 0.546875l-8.265625 0q0 1.8125 1.0 2.78125q1.015625 0.96875 2.921875 0.96875q0.515625 0 1.03125 -0.046875q0.515625 -0.046875 0.984375 -0.109375q0.484375 -0.078125 0.921875 -0.15625q0.453125 -0.09375 0.828125 -0.203125l0 1.6875q-0.84375 0.234375 -1.890625 0.375q-1.046875 0.15625 -2.171875 0.15625q-1.515625 0 -2.609375 -0.40625q-1.078125 -0.421875 -1.78125 -1.203125q-0.6875 -0.78125 -1.03125 -1.90625q-0.328125 -1.140625 -0.328125 -2.5625q0 -1.25 0.359375 -2.34375q0.359375 -1.109375 1.03125 -1.953125q0.6875 -0.84375 1.6875 -1.328125q1.0 -0.5 2.265625 -0.5q1.234375 0 2.171875 0.390625q0.953125 0.390625 1.59375 1.109375q0.65625 0.703125 0.984375 1.71875q0.34375 1.0 0.34375 2.265625zm-2.125 -0.296875q0.046875 -0.78125 -0.140625 -1.4375q-0.1875 -0.65625 -0.59375 -1.125q-0.390625 -0.46875 -0.984375 -0.71875q-0.578125 -0.265625 -1.34375 -0.265625q-0.671875 0 -1.21875 0.265625q-0.546875 0.25 -0.953125 0.71875q-0.390625 0.46875 -0.640625 1.125q-0.25 0.65625 -0.3125 1.4375l6.1875 0zm12.9453125 6.796875l-0.046875 -1.578125q-0.96875 0.9375 -1.953125 1.375q-0.984375 0.421875 -2.078125 0.421875q-1.015625 0 -1.734375 -0.265625q-0.703125 -0.265625 -1.171875 -0.703125q-0.453125 -0.453125 -0.671875 -1.0625q-0.21875 -0.609375 -0.21875 -1.328125q0 -1.765625 1.3125 -2.765625q1.328125 -1.015625 3.90625 -1.015625l2.4375 0l0 -1.03125q0 -1.03125 -0.671875 -1.65625q-0.671875 -0.640625 -2.046875 -0.640625q-0.984375 0 -1.953125 0.234375q-0.96875 0.21875 -2.0 0.625l0 -1.84375q0.390625 -0.140625 0.859375 -0.265625q0.46875 -0.140625 1.0 -0.234375q0.53125 -0.109375 1.09375 -0.171875q0.578125 -0.078125 1.171875 -0.078125q1.0625 0 1.921875 0.234375q0.859375 0.234375 1.4375 0.71875q0.59375 0.484375 0.90625 1.21875q0.328125 0.71875 0.328125 1.703125l0 8.109375l-1.828125 0zm-0.21875 -5.359375l-2.59375 0q-0.765625 0 -1.3125 0.15625q-0.546875 0.15625 -0.90625 0.4375q-0.34375 0.28125 -0.515625 0.671875q-0.171875 0.390625 -0.171875 0.875q0 0.34375 0.09375 0.65625q0.109375 0.3125 0.34375 0.5625q0.234375 0.234375 0.609375 0.375q0.375 0.140625 0.921875 0.140625q0.703125 0 1.609375 -0.421875q0.90625 -0.4375 1.921875 -1.359375l0 -2.09375zm16.429718 5.359375l-2.796875 0l-5.484375 -6.3125l0 6.3125l-2.03125 0l0 -16.5625l2.03125 0l0 10.171875l5.28125 -5.375l2.703125 0l-5.515625 5.421875l5.8125 6.34375zm25.296875 -0.171875q-0.6875 0.1875 -1.4375 0.265625q-0.734375 0.078125 -1.5 0.078125q-2.203125 0 -3.296875 -1.0q-1.09375 -1.015625 -1.09375 -3.09375l0 -6.140625l-3.296875 0l0 -1.703125l3.296875 0l0 -3.234375l2.046875 -0.53125l0 3.765625l5.28125 0l0 1.703125l-5.28125 0l0 5.984375q0 1.265625 0.671875 1.890625q0.671875 0.625 1.984375 0.625q0.5625 0 1.21875 -0.078125q0.671875 -0.09375 1.40625 -0.28125l0 1.75zm11.2734375 0.171875l-0.046875 -1.578125q-0.96875 0.9375 -1.953125 1.375q-0.984375 0.421875 -2.078125 0.421875q-1.015625 0 -1.734375 -0.265625q-0.703125 -0.265625 -1.171875 -0.703125q-0.453125 -0.453125 -0.671875 -1.0625q-0.21875 -0.609375 -0.21875 -1.328125q0 -1.765625 1.3125 -2.765625q1.328125 -1.015625 3.90625 -1.015625l2.4375 0l0 -1.03125q0 -1.03125 -0.671875 -1.65625q-0.671875 -0.640625 -2.046875 -0.640625q-0.984375 0 -1.953125 0.234375q-0.96875 0.21875 -2.0 0.625l0 -1.84375q0.390625 -0.140625 0.859375 -0.265625q0.46875 -0.140625 1.0 -0.234375q0.53125 -0.109375 1.09375 -0.171875q0.578125 -0.078125 1.171875 -0.078125q1.0625 0 1.921875 0.234375q0.859375 0.234375 1.4375 0.71875q0.59375 0.484375 0.90625 1.21875q0.328125 0.71875 0.328125 1.703125l0 8.109375l-1.828125 0zm-0.21875 -5.359375l-2.59375 0q-0.765625 0 -1.3125 0.15625q-0.546875 0.15625 -0.90625 0.4375q-0.34375 0.28125 -0.515625 0.671875q-0.171875 0.390625 -0.171875 0.875q0 0.34375 0.09375 0.65625q0.109375 0.3125 0.34375 0.5625q0.234375 0.234375 0.609375 0.375q0.375 0.140625 0.921875 0.140625q0.703125 0 1.609375 -0.421875q0.90625 -0.4375 1.921875 -1.359375l0 -2.09375zm6.3359375 -6.40625l1.859375 0l0.0625 2.171875q1.046875 -1.265625 2.046875 -1.828125q1.015625 -0.5625 2.046814 -0.5625q1.828125 0 2.765625 1.1875q0.953125 1.1875 0.890625 3.515625l-2.0625 0q0.03125 -1.546875 -0.453125 -2.234375q-0.484375 -0.703125 -1.421814 -0.703125q-0.421875 0 -0.84375 0.15625q-0.40625 0.140625 -0.84375 0.46875q-0.4375 0.3125 -0.9375 0.8125q-0.484375 0.5 -1.046875 1.21875l0 7.5625l-2.0625 0l0 -11.765625zm21.179626 1.65625q0.328125 0.421875 0.515625 0.96875q0.1875 0.53125 0.1875 1.171875q0 0.90625 -0.34375 1.671875q-0.328125 0.75 -0.9375 1.296875q-0.609375 0.53125 -1.46875 0.828125q-0.84375 0.296875 -1.859375 0.296875q-0.734375 0 -1.390625 -0.15625q-0.640625 -0.15625 -1.015625 -0.390625q-0.21875 0.328125 -0.375 0.625q-0.15625 0.296875 -0.15625 0.65625q0 0.4375 0.421875 0.734375q0.4375 0.296875 1.140625 0.3125l3.09375 0.125q0.875 0.015625 1.625 0.21875q0.75 0.203125 1.28125 0.578125q0.53125 0.375 0.828125 0.9375q0.296875 0.546875 0.296875 1.265625q0 0.78125 -0.34375 1.484375q-0.328125 0.703125 -1.046875 1.234375q-0.703125 0.546875 -1.796875 0.859375q-1.09375 0.3125 -2.59375 0.3125q-1.421875 0 -2.421875 -0.234375q-1.0 -0.21875 -1.65625 -0.625q-0.640625 -0.40625 -0.9375 -0.96875q-0.28125 -0.546875 -0.28125 -1.21875q0 -0.859375 0.390625 -1.5q0.40625 -0.640625 1.234375 -1.25q-0.3125 -0.140625 -0.53125 -0.34375q-0.21875 -0.21875 -0.359375 -0.46875q-0.140625 -0.25 -0.21875 -0.53125q-0.0625 -0.28125 -0.0625 -0.546875q0 -0.765625 0.359375 -1.390625q0.359375 -0.640625 0.84375 -1.203125q-0.21875 -0.265625 -0.390625 -0.515625q-0.171875 -0.265625 -0.296875 -0.5625q-0.125 -0.296875 -0.1875 -0.640625q-0.0625 -0.359375 -0.0625 -0.796875q0 -0.921875 0.328125 -1.671875q0.34375 -0.75 0.9375 -1.28125q0.609375 -0.546875 1.453125 -0.84375q0.859375 -0.3125 1.890625 -0.3125q0.4375 0 0.828125 0.0625q0.40625 0.0625 0.703125 0.15625l4.265625 0l0 1.65625l-1.890625 0zm-7.078125 11.8125q0 0.828125 0.859375 1.203125q0.875 0.390625 2.421875 0.390625q0.984375 0 1.640625 -0.1875q0.65625 -0.171875 1.0625 -0.453125q0.40625 -0.28125 0.578125 -0.65625q0.1875 -0.375 0.1875 -0.75q0 -0.71875 -0.59375 -1.0625q-0.578125 -0.34375 -1.796875 -0.40625l-3.0625 -0.09375q-0.390625 0.25 -0.640625 0.5q-0.25 0.25 -0.390625 0.5q-0.140625 0.25 -0.203125 0.5q-0.0625 0.25 -0.0625 0.515625zm0.625 -9.625q0 0.5625 0.1875 1.03125q0.1875 0.46875 0.53125 0.796875q0.34375 0.328125 0.796875 0.515625q0.46875 0.171875 1.03125 0.171875q0.609375 0 1.078125 -0.203125q0.484375 -0.203125 0.796875 -0.546875q0.328125 -0.359375 0.5 -0.8125q0.171875 -0.46875 0.171875 -0.953125q0 -0.5625 -0.1875 -1.03125q-0.1875 -0.46875 -0.53125 -0.796875q-0.34375 -0.328125 -0.8125 -0.5q-0.453125 -0.1875 -1.015625 -0.1875q-0.609375 0 -1.09375 0.21875q-0.46875 0.203125 -0.796875 0.546875q-0.3125 0.34375 -0.484375 0.796875q-0.171875 0.453125 -0.171875 0.953125zm21.117188 1.421875q0 0.421875 -0.015625 0.71875q0 0.296875 -0.03125 0.546875l-8.265625 0q0 1.8125 1.0 2.78125q1.015625 0.96875 2.921875 0.96875q0.515625 0 1.03125 -0.046875q0.515625 -0.046875 0.984375 -0.109375q0.484375 -0.078125 0.921875 -0.15625q0.453125 -0.09375 0.828125 -0.203125l0 1.6875q-0.84375 0.234375 -1.890625 0.375q-1.046875 0.15625 -2.171875 0.15625q-1.515625 0 -2.609375 -0.40625q-1.078125 -0.421875 -1.78125 -1.203125q-0.6875 -0.78125 -1.03125 -1.90625q-0.328125 -1.140625 -0.328125 -2.5625q0 -1.25 0.359375 -2.34375q0.359375 -1.109375 1.03125 -1.953125q0.6875 -0.84375 1.6875 -1.328125q1.0 -0.5 2.265625 -0.5q1.234375 0 2.171875 0.390625q0.953125 0.390625 1.59375 1.109375q0.65625 0.703125 0.984375 1.71875q0.34375 1.0 0.34375 2.265625zm-2.125 -0.296875q0.046875 -0.78125 -0.140625 -1.4375q-0.1875 -0.65625 -0.59375 -1.125q-0.390625 -0.46875 -0.984375 -0.71875q-0.578125 -0.265625 -1.34375 -0.265625q-0.671875 0 -1.21875 0.265625q-0.546875 0.25 -0.953125 0.71875q-0.390625 0.46875 -0.640625 1.125q-0.25 0.65625 -0.3125 1.4375l6.1875 0zm14.8671875 6.625q-0.6875 0.1875 -1.4375 0.265625q-0.734375 0.078125 -1.5 0.078125q-2.203125 0 -3.296875 -1.0q-1.09375 -1.015625 -1.09375 -3.09375l0 -6.140625l-3.296875 0l0 -1.703125l3.296875 0l0 -3.234375l2.046875 -0.53125l0 3.765625l5.28125 0l0 1.703125l-5.28125 0l0 5.984375q0 1.265625 0.671875 1.890625q0.671875 0.625 1.984375 0.625q0.5625 0 1.21875 -0.078125q0.671875 -0.09375 1.40625 -0.28125l0 1.75z" fill-rule="nonzero"/><path fill="#000000" fill-opacity="0.0" d="m276.78217 298.72964l0 22.551208" fill-rule="evenodd"/><path stroke="#c00000" stroke-width="2.0" stroke-linejoin="round" stroke-linecap="butt" d="m276.78217 298.72964l0 22.551208" fill-rule="evenodd"/><path fill="#000000" fill-opacity="0.0" d="m276.78217 320.06824l193.25983 0" fill-rule="evenodd"/><path stroke="#c00000" stroke-width="2.0" stroke-linejoin="round" stroke-linecap="butt" d="m276.78217 320.06824l193.25983 0" fill-rule="evenodd"/><path fill="#000000" fill-opacity="0.0" d="m469.44095 298.72964l0 22.551208" fill-rule="evenodd"/><path stroke="#c00000" stroke-width="2.0" stroke-linejoin="round" stroke-linecap="butt" d="m469.44095 310.72964l0 10.5512085" fill-rule="evenodd"/><path fill="#c00000" stroke="#c00000" stroke-width="2.0" stroke-linecap="butt" d="m472.74442 310.72964l-3.3034668 -9.076172l-3.3034668 9.076172z" fill-rule="evenodd"/><path fill="#000000" fill-opacity="0.0" d="m139.42783 157.72441l261.10236 0l0 46.866135l-261.10236 0z" fill-rule="evenodd"/><path fill="#ffffff" d="m160.77158 188.4844l-2.140625 0l-1.015625 -3.15625l-6.015625 0l-1.015625 3.15625l-2.046875 0l4.796875 -14.453125l2.703125 0l4.734375 14.453125zm-3.71875 -4.90625l-2.4375 -7.734375l-2.453125 7.734375l4.890625 0zm15.456512 -8.9375q-1.515625 -0.3125 -2.609375 -0.3125q-2.59375 0 -2.59375 2.71875l0 1.953125l4.859375 0l0 1.59375l-4.859375 0l0 7.890625l-1.96875 0l0 -7.890625l-3.5625 0l0 -1.59375l3.5625 0l0 -1.84375q0 -4.4375 4.625 -4.4375q1.15625 0 2.546875 0.265625l0 1.65625zm-11.625 2.734375l0 0zm23.175262 10.953125q-0.65625 0.171875 -1.359375 0.234375q-0.6875 0.078125 -1.40625 0.078125q-2.09375 0 -3.125 -0.9375q-1.015625 -0.953125 -1.015625 -2.90625l0 -5.796875l-3.109375 0l0 -1.625l3.109375 0l0 -3.046875l1.921875 -0.5l0 3.546875l4.984375 0l0 1.625l-4.984375 0l0 5.640625q0 1.1875 0.625 1.78125q0.640625 0.59375 1.875 0.59375q0.53125 0 1.15625 -0.078125q0.640625 -0.09375 1.328125 -0.265625l0 1.65625zm12.894012 -5.984375q0 0.40625 -0.015625 0.6875q-0.015625 0.28125 -0.03125 0.515625l-7.796875 0q0 1.703125 0.9375 2.625q0.953125 0.90625 2.75 0.90625q0.484375 0 0.96875 -0.03125q0.5 -0.046875 0.953125 -0.109375q0.453125 -0.0625 0.859375 -0.140625q0.421875 -0.09375 0.765625 -0.1875l0 1.578125q-0.78125 0.21875 -1.78125 0.359375q-0.984375 0.140625 -2.046875 0.140625q-1.421875 0 -2.453125 -0.390625q-1.03125 -0.390625 -1.6875 -1.125q-0.65625 -0.734375 -0.96875 -1.796875q-0.3125 -1.078125 -0.3125 -2.421875q0 -1.171875 0.328125 -2.21875q0.34375 -1.046875 0.984375 -1.828125q0.65625 -0.796875 1.59375 -1.265625q0.9375 -0.46875 2.140625 -0.46875q1.15625 0 2.046875 0.375q0.90625 0.359375 1.515625 1.03125q0.609375 0.671875 0.921875 1.625q0.328125 0.953125 0.328125 2.140625zm-2.0 -0.28125q0.03125 -0.734375 -0.15625 -1.34375q-0.171875 -0.625 -0.546875 -1.0625q-0.359375 -0.4375 -0.921875 -0.6875q-0.546875 -0.25 -1.28125 -0.25q-0.625 0 -1.15625 0.25q-0.515625 0.234375 -0.890625 0.6875q-0.375 0.4375 -0.609375 1.0625q-0.234375 0.609375 -0.28125 1.34375l5.84375 0zm5.5190125 -4.6875l1.765625 0l0.046875 2.046875q0.984375 -1.1875 1.9375 -1.71875q0.96875 -0.53125 1.9375 -0.53125q1.734375 0 2.625 1.125q0.890625 1.109375 0.8125 3.3125l-1.9375 0q0.03125 -1.453125 -0.4375 -2.109375q-0.453125 -0.65625 -1.328125 -0.65625q-0.390625 0 -0.796875 0.140625q-0.390625 0.125 -0.8125 0.4375q-0.40625 0.296875 -0.875 0.78125q-0.453125 0.46875 -0.984375 1.140625l0 7.140625l-1.953125 0l0 -11.109375zm33.694275 10.5625q-1.734375 0.71875 -3.625 0.71875q-3.078125 0 -4.71875 -1.828125q-1.640625 -1.828125 -1.640625 -5.40625q0 -1.75 0.453125 -3.140625q0.453125 -1.40625 1.296875 -2.390625q0.84375 -0.984375 2.03125 -1.515625q1.203125 -0.53125 2.6875 -0.53125q1.0 0 1.859375 0.171875q0.859375 0.171875 1.65625 0.53125l0 1.9375q-0.78125 -0.4375 -1.625 -0.65625q-0.828125 -0.234375 -1.828125 -0.234375q-1.015625 0 -1.84375 0.390625q-0.828125 0.375 -1.40625 1.109375q-0.5625 0.71875 -0.875 1.765625q-0.3125 1.046875 -0.3125 2.375q0 2.8125 1.140625 4.25q1.140625 1.421875 3.34375 1.421875q0.921875 0 1.765625 -0.21875q0.859375 -0.21875 1.640625 -0.609375l0 1.859375zm12.894012 -5.09375q0 1.296875 -0.375 2.375q-0.359375 1.078125 -1.046875 1.84375q-0.671875 0.765625 -1.65625 1.203125q-0.984375 0.421875 -2.234375 0.421875q-1.203125 0 -2.15625 -0.375q-0.9375 -0.375 -1.59375 -1.09375q-0.65625 -0.71875 -1.015625 -1.78125q-0.34375 -1.0625 -0.34375 -2.4375q0 -1.296875 0.359375 -2.359375q0.375 -1.078125 1.0625 -1.84375q0.6875 -0.765625 1.671875 -1.1875q0.984375 -0.4375 2.234375 -0.4375q1.1875 0 2.125 0.375q0.953125 0.375 1.609375 1.09375q0.65625 0.703125 1.0 1.765625q0.359375 1.0625 0.359375 2.4375zm-1.96875 0.09375q0 -1.03125 -0.234375 -1.796875q-0.21875 -0.78125 -0.640625 -1.296875q-0.421875 -0.515625 -1.03125 -0.765625q-0.59375 -0.265625 -1.328125 -0.265625q-0.875 0 -1.484375 0.34375q-0.609375 0.328125 -1.0 0.90625q-0.390625 0.5625 -0.578125 1.3125q-0.1875 0.734375 -0.1875 1.5625q0 1.015625 0.21875 1.796875q0.234375 0.78125 0.65625 1.296875q0.421875 0.5 1.015625 0.765625q0.59375 0.265625 1.359375 0.265625q0.859375 0 1.46875 -0.34375q0.609375 -0.34375 1.0 -0.90625q0.40625 -0.5625 0.578125 -1.296875q0.1875 -0.75 0.1875 -1.578125zm5.2065125 -5.5625l1.765625 0l0.046875 2.046875q0.984375 -1.1875 1.9375 -1.71875q0.96875 -0.53125 1.9375 -0.53125q1.734375 0 2.625 1.125q0.890625 1.109375 0.8125 3.3125l-1.9375 0q0.03125 -1.453125 -0.4375 -2.109375q-0.453125 -0.65625 -1.328125 -0.65625q-0.390625 0 -0.796875 0.140625q-0.390625 0.125 -0.8125 0.4375q-0.40625 0.296875 -0.875 0.78125q-0.453125 0.46875 -0.984375 1.140625l0 7.140625l-1.953125 0l0 -11.109375zm12.456512 0l1.765625 0l0.046875 2.046875q0.984375 -1.1875 1.9375 -1.71875q0.96875 -0.53125 1.9375 -0.53125q1.734375 0 2.625 1.125q0.890625 1.109375 0.8125 3.3125l-1.9375 0q0.03125 -1.453125 -0.4375 -2.109375q-0.453125 -0.65625 -1.328125 -0.65625q-0.390625 0 -0.796875 0.140625q-0.390625 0.125 -0.8125 0.4375q-0.40625 0.296875 -0.875 0.78125q-0.453125 0.46875 -0.984375 1.140625l0 7.140625l-1.953125 0l0 -11.109375zm20.940887 11.109375l-1.734375 0l-0.0625 -1.796875q-0.5 0.578125 -0.953125 0.96875q-0.4375 0.375 -0.890625 0.609375q-0.4375 0.234375 -0.890625 0.328125q-0.4375 0.09375 -0.9375 0.09375q-1.71875 0 -2.59375 -1.0q-0.875 -1.015625 -0.875 -3.046875l0 -7.265625l1.921875 0l0 7.109375q0 2.546875 1.9375 2.546875q0.34375 0 0.6875 -0.09375q0.34375 -0.109375 0.703125 -0.359375q0.375 -0.265625 0.796875 -0.703125q0.421875 -0.453125 0.953125 -1.125l0 -7.375l1.9375 0l0 11.109375zm13.019012 -5.75q0 1.484375 -0.421875 2.59375q-0.40625 1.09375 -1.140625 1.828125q-0.734375 0.734375 -1.734375 1.09375q-0.984375 0.359375 -2.15625 0.359375q-0.53125 0 -1.0625 -0.0625q-0.515625 -0.046875 -1.0625 -0.171875l0 4.640625l-1.921875 0l0 -15.640625l1.71875 0l0.125 1.859375q0.828125 -1.140625 1.765625 -1.59375q0.9375 -0.46875 2.03125 -0.46875q0.953125 0 1.671875 0.40625q0.71875 0.390625 1.203125 1.125q0.5 0.71875 0.734375 1.75q0.25 1.015625 0.25 2.28125zm-1.96875 0.078125q0 -0.859375 -0.140625 -1.59375q-0.125 -0.734375 -0.40625 -1.25q-0.265625 -0.515625 -0.703125 -0.8125q-0.421875 -0.296875 -1.015625 -0.296875q-0.375 0 -0.75 0.125q-0.375 0.109375 -0.78125 0.390625q-0.40625 0.265625 -0.859375 0.71875q-0.4375 0.4375 -0.953125 1.09375l0 5.390625q0.53125 0.21875 1.125 0.359375q0.59375 0.125 1.15625 0.125q1.546875 0 2.4375 -1.0625q0.890625 -1.0625 0.890625 -3.1875zm13.878387 5.515625q-0.65625 0.171875 -1.359375 0.234375q-0.6875 0.078125 -1.40625 0.078125q-2.09375 0 -3.125 -0.9375q-1.015625 -0.953125 -1.015625 -2.90625l0 -5.796875l-3.109375 0l0 -1.625l3.109375 0l0 -3.046875l1.921875 -0.5l0 3.546875l4.984375 0l0 1.625l-4.984375 0l0 5.640625q0 1.1875 0.625 1.78125q0.640625 0.59375 1.875 0.59375q0.53125 0 1.15625 -0.078125q0.640625 -0.09375 1.328125 -0.265625l0 1.65625zm7.2846375 -9.359375l-3.28125 0l0 -1.59375l5.234375 0l0 9.5l3.3125 0l0 1.609375l-8.90625 0l0 -1.609375l3.640625 0l0 -7.90625zm0.6875 -6.25q0.3125 0 0.59375 0.125q0.28125 0.109375 0.484375 0.328125q0.203125 0.203125 0.3125 0.484375q0.125 0.265625 0.125 0.578125q0 0.3125 -0.125 0.59375q-0.109375 0.265625 -0.3125 0.484375q-0.203125 0.203125 -0.484375 0.328125q-0.28125 0.109375 -0.59375 0.109375q-0.328125 0 -0.609375 -0.109375q-0.265625 -0.125 -0.484375 -0.328125q-0.203125 -0.21875 -0.3125 -0.484375q-0.109375 -0.28125 -0.109375 -0.59375q0 -0.3125 0.109375 -0.578125q0.109375 -0.28125 0.3125 -0.484375q0.21875 -0.21875 0.484375 -0.328125q0.28125 -0.125 0.609375 -0.125zm17.659637 10.125q0 1.296875 -0.375 2.375q-0.359375 1.078125 -1.046875 1.84375q-0.671875 0.765625 -1.65625 1.203125q-0.984375 0.421875 -2.234375 0.421875q-1.203125 0 -2.15625 -0.375q-0.9375 -0.375 -1.59375 -1.09375q-0.65625 -0.71875 -1.015625 -1.78125q-0.34375 -1.0625 -0.34375 -2.4375q0 -1.296875 0.359375 -2.359375q0.375 -1.078125 1.0625 -1.84375q0.6875 -0.765625 1.671875 -1.1875q0.984375 -0.4375 2.234375 -0.4375q1.1875 0 2.125 0.375q0.953125 0.375 1.609375 1.09375q0.65625 0.703125 1.0 1.765625q0.359375 1.0625 0.359375 2.4375zm-1.96875 0.09375q0 -1.03125 -0.234375 -1.796875q-0.21875 -0.78125 -0.640625 -1.296875q-0.421875 -0.515625 -1.03125 -0.765625q-0.59375 -0.265625 -1.328125 -0.265625q-0.875 0 -1.484375 0.34375q-0.609375 0.328125 -1.0 0.90625q-0.390625 0.5625 -0.578125 1.3125q-0.1875 0.734375 -0.1875 1.5625q0 1.015625 0.21875 1.796875q0.234375 0.78125 0.65625 1.296875q0.421875 0.5 1.015625 0.765625q0.59375 0.265625 1.359375 0.265625q0.859375 0 1.46875 -0.34375q0.609375 -0.34375 1.0 -0.90625q0.40625 -0.5625 0.578125 -1.296875q0.1875 -0.75 0.1875 -1.578125zm4.7533875 -5.5625l1.71875 0l0.078125 1.796875q0.484375 -0.578125 0.9375 -0.953125q0.453125 -0.390625 0.890625 -0.625q0.4375 -0.234375 0.890625 -0.328125q0.453125 -0.09375 0.9375 -0.09375q1.71875 0 2.59375 1.015625q0.890625 1.015625 0.890625 3.046875l0 7.25l-1.9375 0l0 -7.09375q0 -1.296875 -0.484375 -1.921875q-0.484375 -0.625 -1.4375 -0.625q-0.359375 0 -0.703125 0.109375q-0.328125 0.09375 -0.703125 0.359375q-0.359375 0.25 -0.796875 0.703125q-0.421875 0.4375 -0.953125 1.09375l0 7.375l-1.921875 0l0 -11.109375zm16.925262 -0.203125q0.34375 0 0.640625 0.140625q0.3125 0.140625 0.546875 0.375q0.234375 0.234375 0.375 0.546875q0.140625 0.3125 0.140625 0.640625q0 0.359375 -0.140625 0.671875q-0.140625 0.296875 -0.375 0.53125q-0.234375 0.234375 -0.546875 0.375q-0.296875 0.125 -0.640625 0.125q-0.359375 0 -0.671875 -0.125q-0.296875 -0.140625 -0.53125 -0.375q-0.234375 -0.234375 -0.375 -0.53125q-0.125 -0.3125 -0.125 -0.671875q0 -0.328125 0.125 -0.640625q0.140625 -0.3125 0.375 -0.546875q0.234375 -0.234375 0.53125 -0.375q0.3125 -0.140625 0.671875 -0.140625zm0 8.109375q0.34375 0 0.640625 0.140625q0.3125 0.140625 0.546875 0.375q0.234375 0.234375 0.375 0.546875q0.140625 0.296875 0.140625 0.640625q0 0.359375 -0.140625 0.671875q-0.140625 0.296875 -0.375 0.53125q-0.234375 0.234375 -0.546875 0.359375q-0.296875 0.140625 -0.640625 0.140625q-0.359375 0 -0.671875 -0.140625q-0.296875 -0.125 -0.53125 -0.359375q-0.234375 -0.234375 -0.375 -0.53125q-0.125 -0.3125 -0.125 -0.671875q0 -0.34375 0.125 -0.640625q0.140625 -0.3125 0.375 -0.546875q0.234375 -0.234375 0.53125 -0.375q0.3125 -0.140625 0.671875 -0.140625z" fill-rule="nonzero"/></g></svg>
