<svg version="1.1" viewBox="210.0 80.0 850.0 600.0" fill="none" stroke="none" stroke-linecap="square" stroke-miterlimit="10" xmlns:xlink="http://www.w3.org/1999/xlink" xmlns="http://www.w3.org/2000/svg"><clipPath id="gf8932d7e54_0_0.0"><path d="m0 0l1280.0 0l0 720.0l-1280.0 0l0 -720.0z" clip-rule="nonzero"/></clipPath><g clip-path="url(#gf8932d7e54_0_0.0)"><path fill="#674ea7" d="m428.6929 100.83466l211.3071 0l0 67.1811l-211.3071 0z" fill-rule="evenodd"/><path stroke="#000000" stroke-width="1.3333333333333333" stroke-miterlimit="800.0" stroke-linecap="butt" d="m428.6929 100.83466l211.3071 0l0 67.1811l-211.3071 0z" fill-rule="evenodd"/><path fill="#ffffff" d="m466.50272 142.96521l-1.828125 0l-0.0625 -1.90625q-0.53125 0.609375 -1.015625 1.015625q-0.46875 0.40625 -0.9375 0.65625q-0.46875 0.25 -0.9375 0.34375q-0.46875 0.109375 -1.0 0.109375q-1.8125 0 -2.75 -1.0625q-0.921875 -1.078125 -0.921875 -3.234375l0 -7.6875l2.046875 0l0 7.515625q0 2.71875 2.03125 2.71875q0.375 0 0.734375 -0.109375q0.359375 -0.125 0.75 -0.390625q0.390625 -0.28125 0.84375 -0.75q0.453125 -0.46875 1.015625 -1.1875l0 -7.796875l2.03125 0l0 11.765625zm13.5546875 0l-9.625 0l0 -1.90625l3.9375 0l0 -11.171875l-3.671875 1.984375l-0.75 -1.734375l4.875 -2.5624924l1.8125 0l0 13.484367l3.421875 0l0 1.90625zm13.5078125 -4.859375q0 1.0625 -0.390625 1.984375q-0.375 0.921875 -1.078125 1.609375q-0.703125 0.6875 -1.6875 1.09375q-0.984375 0.390625 -2.203125 0.390625q-1.265625 0 -2.234375 -0.40625q-0.96875 -0.40625 -1.625 -1.25q-0.65625 -0.84375 -1.0 -2.109375q-0.34375 -1.28125 -0.34375 -3.03125q0 -1.171875 0.15625 -2.265625q0.15625 -1.109375 0.5 -2.078125q0.359375 -0.96875 0.9375 -1.78125q0.59375 -0.8125 1.46875 -1.390625q0.875 -0.578125 2.046875 -0.8906174q1.1875 -0.328125 2.75 -0.328125l1.515625 0l0 1.7812424l-1.640625 0q-1.375 0 -2.390625 0.328125q-1.0 0.328125 -1.6875 0.921875q-0.671875 0.59375 -1.046875 1.4375q-0.359375 0.84375 -0.453125 1.890625l-0.046875 0.484375q0.75 -0.4375 1.703125 -0.703125q0.96875 -0.265625 2.09375 -0.265625q1.171875 0 2.03125 0.34375q0.875 0.34375 1.453125 0.953125q0.59375 0.59375 0.875 1.4375q0.296875 0.84375 0.296875 1.84375zm-2.125 0.140625q0 -0.703125 -0.171875 -1.265625q-0.171875 -0.578125 -0.546875 -0.96875q-0.359375 -0.390625 -0.921875 -0.609375q-0.546875 -0.21875 -1.3125 -0.21875q-0.453125 0 -0.90625 0.078125q-0.453125 0.078125 -0.90625 0.234375q-0.4375 0.140625 -0.84375 0.328125q-0.390625 0.1875 -0.71875 0.40625q0 1.5 0.203125 2.515625q0.21875 1.015625 0.640625 1.625q0.421875 0.609375 1.03125 0.875q0.609375 0.25 1.40625 0.25q0.65625 0 1.21875 -0.21875q0.5625 -0.21875 0.953125 -0.640625q0.40625 -0.421875 0.640625 -1.015625q0.234375 -0.609375 0.234375 -1.375zm27.87497 4.546875q-0.6875 0.1875 -1.4375 0.265625q-0.734375 0.078125 -1.5 0.078125q-2.203125 0 -3.296875 -1.0q-1.0937195 -1.015625 -1.0937195 -3.09375l0 -6.140625l-3.296875 0l0 -1.703125l3.296875 0l0 -3.2343674l2.0468445 -0.53125l0 3.7656174l5.28125 0l0 1.703125l-5.28125 0l0 5.984375q0 1.265625 0.671875 1.890625q0.671875 0.625 1.984375 0.625q0.5625 0 1.21875 -0.078125q0.671875 -0.09375 1.40625 -0.28125l0 1.75zm13.9609375 -5.8125q0 1.375 -0.390625 2.515625q-0.390625 1.140625 -1.125 1.96875q-0.71875 0.8125 -1.765625 1.265625q-1.03125 0.453125 -2.359375 0.453125q-1.265625 0 -2.265625 -0.390625q-1.0 -0.40625 -1.703125 -1.15625q-0.703125 -0.765625 -1.078125 -1.890625q-0.359375 -1.125 -0.359375 -2.59375q0 -1.375 0.390625 -2.5q0.390625 -1.140625 1.109375 -1.953125q0.734375 -0.8125 1.765625 -1.265625q1.046875 -0.453125 2.375 -0.453125q1.265625 0 2.265625 0.40625q1.0 0.390625 1.6875 1.140625q0.703125 0.75 1.078125 1.875q0.375 1.125 0.375 2.578125zm-2.09375 0.09375q0 -1.078125 -0.25 -1.890625q-0.234375 -0.828125 -0.6875 -1.359375q-0.4375 -0.546875 -1.078125 -0.828125q-0.625 -0.28125 -1.421875 -0.28125q-0.90625 0 -1.5625 0.359375q-0.640625 0.359375 -1.0625 0.96875q-0.421875 0.59375 -0.609375 1.390625q-0.1875 0.78125 -0.1875 1.640625q0 1.09375 0.234375 1.921875q0.234375 0.8125 0.671875 1.359375q0.453125 0.546875 1.078125 0.828125q0.640625 0.265625 1.4375 0.265625q0.921875 0 1.5625 -0.359375q0.65625 -0.359375 1.0625 -0.953125q0.421875 -0.59375 0.609375 -1.375q0.203125 -0.796875 0.203125 -1.6875zm15.6171875 5.890625l-2.796875 0l-5.484375 -6.3125l0 6.3125l-2.03125 0l0 -16.562492l2.03125 0l0 10.171867l5.28125 -5.375l2.703125 0l-5.515625 5.421875l5.8125 6.34375zm12.5546875 -6.5q0 0.421875 -0.015625 0.71875q0 0.296875 -0.03125 0.546875l-8.265625 0q0 1.8125 1.0 2.78125q1.015625 0.96875 2.921875 0.96875q0.515625 0 1.03125 -0.046875q0.515625 -0.046875 0.984375 -0.109375q0.484375 -0.078125 0.921875 -0.15625q0.453125 -0.09375 0.828125 -0.203125l0 1.6875q-0.84375 0.234375 -1.890625 0.375q-1.046875 0.15625 -2.171875 0.15625q-1.515625 0 -2.609375 -0.40625q-1.078125 -0.421875 -1.78125 -1.203125q-0.6875 -0.78125 -1.03125 -1.90625q-0.328125 -1.140625 -0.328125 -2.5625q0 -1.25 0.359375 -2.34375q0.359375 -1.109375 1.03125 -1.953125q0.6875 -0.84375 1.6875 -1.328125q1.0 -0.5 2.265625 -0.5q1.234375 0 2.171875 0.390625q0.953125 0.390625 1.59375 1.109375q0.65625 0.703125 0.984375 1.71875q0.34375 1.0 0.34375 2.265625zm-2.125 -0.296875q0.046875 -0.78125 -0.140625 -1.4375q-0.1875 -0.65625 -0.59375 -1.125q-0.390625 -0.46875 -0.984375 -0.71875q-0.578125 -0.265625 -1.34375 -0.265625q-0.671875 0 -1.21875 0.265625q-0.546875 0.25 -0.953125 0.71875q-0.390625 0.46875 -0.640625 1.125q-0.25 0.65625 -0.3125 1.4375l6.1875 0zm5.3828125 -4.96875l1.8125 0l0.09375 1.890625q0.515625 -0.609375 0.984375 -1.0q0.484375 -0.40625 0.9375 -0.65625q0.46875 -0.25 0.953125 -0.34375q0.484375 -0.109375 1.0 -0.109375q1.8125 0 2.734375 1.078125q0.9375 1.078125 0.9375 3.234375l0 7.671875l-2.03125 0l0 -7.515625q0 -1.375 -0.515625 -2.03125q-0.515625 -0.671875 -1.53125 -0.671875q-0.375 0 -0.734375 0.109375q-0.359375 0.109375 -0.75 0.390625q-0.390625 0.265625 -0.84375 0.734375q-0.4375 0.46875 -1.0 1.171875l0 7.8125l-2.046875 0l0 -11.765625zm24.523438 16.578125l-13.203125 0l0 -1.6875l13.203125 0l0 1.6875zm5.8828125 -14.890625l-3.484375 0l0 -1.6875l5.546875 0l0 10.0625l3.5 0l0 1.703125l-9.4375 0l0 -1.703125l3.875 0l0 -8.375zm0.703125 -6.6249924q0.34375 0 0.640625 0.125q0.296875 0.125 0.5 0.34375q0.21875 0.21875 0.34375 0.515625q0.125 0.28125 0.125 0.625q0 0.32811737 -0.125 0.6249924q-0.125 0.28125 -0.34375 0.515625q-0.203125 0.21875 -0.5 0.34375q-0.296875 0.125 -0.640625 0.125q-0.328125 0 -0.625 -0.125q-0.296875 -0.125 -0.515625 -0.34375q-0.21875 -0.234375 -0.34375 -0.515625q-0.109375 -0.296875 -0.109375 -0.6249924q0 -0.34375 0.109375 -0.625q0.125 -0.296875 0.34375 -0.515625q0.21875 -0.21875 0.515625 -0.34375q0.296875 -0.125 0.625 -0.125zm7.8828125 11.062492q0 -1.5 0.40625 -2.65625q0.40625 -1.171875 1.15625 -1.96875q0.765625 -0.8125 1.828125 -1.21875q1.0625 -0.421875 2.359375 -0.421875q0.5625 0 1.109375 0.078125q0.546875 0.0625 1.078125 0.21875l0 -4.9531174l2.046875 0l0 16.562492l-1.828125 0l-0.078125 -2.234375q-0.84375 1.25 -1.84375 1.859375q-1.0 0.59375 -2.15625 0.59375q-1.015625 0 -1.78125 -0.421875q-0.765625 -0.4375 -1.28125 -1.203125q-0.5 -0.765625 -0.765625 -1.84375q-0.25 -1.078125 -0.25 -2.390625zm2.078125 -0.125q0 2.125 0.625 3.1875q0.640625 1.046875 1.78125 1.046875q0.78125 0 1.640625 -0.6875q0.859375 -0.703125 1.8125 -2.0625l0 -5.453125q-0.515625 -0.234375 -1.125 -0.359375q-0.609375 -0.125 -1.203125 -0.125q-1.65625 0 -2.59375 1.078125q-0.9375 1.078125 -0.9375 3.375z" fill-rule="nonzero"/><path fill="#0070c0" d="m640.0 100.83466l211.30707 0l0 67.1811l-211.30707 0z" fill-rule="evenodd"/><path stroke="#000000" stroke-width="1.3333333333333333" stroke-miterlimit="800.0" stroke-linecap="butt" d="m640.0 100.83466l211.30707 0l0 67.1811l-211.30707 0z" fill-rule="evenodd"/><path fill="#ffffff" d="m664.6145 142.96521l-1.828125 0l-0.0625 -1.90625q-0.53125 0.609375 -1.015625 1.015625q-0.46875 0.40625 -0.9375 0.65625q-0.46875 0.25 -0.9375 0.34375q-0.46875 0.109375 -1.0 0.109375q-1.8125 0 -2.75 -1.0625q-0.921875 -1.078125 -0.921875 -3.234375l0 -7.6875l2.046875 0l0 7.515625q0 2.71875 2.03125 2.71875q0.375 0 0.734375 -0.109375q0.359375 -0.125 0.75 -0.390625q0.390625 -0.28125 0.84375 -0.75q0.453125 -0.46875 1.015625 -1.1875l0 -7.796875l2.03125 0l0 11.765625zm13.5546875 0l-9.625 0l0 -1.90625l3.9375 0l0 -11.171875l-3.671875 1.984375l-0.75 -1.734375l4.875 -2.5624924l1.8125 0l0 13.484367l3.421875 0l0 1.90625zm13.5078125 -4.859375q0 1.0625 -0.390625 1.984375q-0.375 0.921875 -1.078125 1.609375q-0.703125 0.6875 -1.6875 1.09375q-0.984375 0.390625 -2.203125 0.390625q-1.265625 0 -2.234375 -0.40625q-0.96875 -0.40625 -1.625 -1.25q-0.65625 -0.84375 -1.0 -2.109375q-0.34375 -1.28125 -0.34375 -3.03125q0 -1.171875 0.15625 -2.265625q0.15625 -1.109375 0.5 -2.078125q0.359375 -0.96875 0.9375 -1.78125q0.59375 -0.8125 1.46875 -1.390625q0.875 -0.578125 2.046875 -0.8906174q1.1875 -0.328125 2.75 -0.328125l1.515625 0l0 1.7812424l-1.640625 0q-1.375 0 -2.390625 0.328125q-1.0 0.328125 -1.6875 0.921875q-0.671875 0.59375 -1.046875 1.4375q-0.359375 0.84375 -0.453125 1.890625l-0.046875 0.484375q0.75 -0.4375 1.703125 -0.703125q0.96875 -0.265625 2.09375 -0.265625q1.171875 0 2.03125 0.34375q0.875 0.34375 1.453125 0.953125q0.59375 0.59375 0.875 1.4375q0.296875 0.84375 0.296875 1.84375zm-2.125 0.140625q0 -0.703125 -0.171875 -1.265625q-0.171875 -0.578125 -0.546875 -0.96875q-0.359375 -0.390625 -0.921875 -0.609375q-0.546875 -0.21875 -1.3125 -0.21875q-0.453125 0 -0.90625 0.078125q-0.453125 0.078125 -0.90625 0.234375q-0.4375 0.140625 -0.84375 0.328125q-0.390625 0.1875 -0.71875 0.40625q0 1.5 0.203125 2.515625q0.21875 1.015625 0.640625 1.625q0.421875 0.609375 1.03125 0.875q0.609375 0.25 1.40625 0.25q0.65625 0 1.21875 -0.21875q0.5625 -0.21875 0.953125 -0.640625q0.40625 -0.421875 0.640625 -1.015625q0.234375 -0.609375 0.234375 -1.375zm27.875 4.546875q-0.6875 0.1875 -1.4375 0.265625q-0.734375 0.078125 -1.5 0.078125q-2.203125 0 -3.296875 -1.0q-1.09375 -1.015625 -1.09375 -3.09375l0 -6.140625l-3.296875 0l0 -1.703125l3.296875 0l0 -3.2343674l2.046875 -0.53125l0 3.7656174l5.28125 0l0 1.703125l-5.28125 0l0 5.984375q0 1.265625 0.671875 1.890625q0.671875 0.625 1.984375 0.625q0.5625 0 1.21875 -0.078125q0.671875 -0.09375 1.40625 -0.28125l0 1.75zm13.9609375 -5.8125q0 1.375 -0.390625 2.515625q-0.390625 1.140625 -1.125 1.96875q-0.71875 0.8125 -1.765625 1.265625q-1.03125 0.453125 -2.359375 0.453125q-1.265625 0 -2.265625 -0.390625q-1.0 -0.40625 -1.703125 -1.15625q-0.703125 -0.765625 -1.078125 -1.890625q-0.359375 -1.125 -0.359375 -2.59375q0 -1.375 0.390625 -2.5q0.390625 -1.140625 1.109375 -1.953125q0.734375 -0.8125 1.765625 -1.265625q1.046875 -0.453125 2.375 -0.453125q1.265625 0 2.265625 0.40625q1.0 0.390625 1.6875 1.140625q0.703125 0.75 1.078125 1.875q0.375 1.125 0.375 2.578125zm-2.09375 0.09375q0 -1.078125 -0.25 -1.890625q-0.234375 -0.828125 -0.6875 -1.359375q-0.4375 -0.546875 -1.078125 -0.828125q-0.625 -0.28125 -1.421875 -0.28125q-0.90625 0 -1.5625 0.359375q-0.640625 0.359375 -1.0625 0.96875q-0.421875 0.59375 -0.609375 1.390625q-0.1875 0.78125 -0.1875 1.640625q0 1.09375 0.234375 1.921875q0.234375 0.8125 0.671875 1.359375q0.453125 0.546875 1.078125 0.828125q0.640625 0.265625 1.4375 0.265625q0.921875 0 1.5625 -0.359375q0.65625 -0.359375 1.0625 -0.953125q0.421875 -0.59375 0.609375 -1.375q0.203125 -0.796875 0.203125 -1.6875zm15.6171875 5.890625l-2.796875 0l-5.484375 -6.3125l0 6.3125l-2.03125 0l0 -16.562492l2.03125 0l0 10.171867l5.28125 -5.375l2.703125 0l-5.515625 5.421875l5.8125 6.34375zm12.5546875 -6.5q0 0.421875 -0.015625 0.71875q0 0.296875 -0.03125 0.546875l-8.265625 0q0 1.8125 1.0 2.78125q1.015625 0.96875 2.921875 0.96875q0.515625 0 1.03125 -0.046875q0.515625 -0.046875 0.984375 -0.109375q0.484375 -0.078125 0.921875 -0.15625q0.453125 -0.09375 0.828125 -0.203125l0 1.6875q-0.84375 0.234375 -1.890625 0.375q-1.046875 0.15625 -2.171875 0.15625q-1.515625 0 -2.609375 -0.40625q-1.078125 -0.421875 -1.78125 -1.203125q-0.6875 -0.78125 -1.03125 -1.90625q-0.328125 -1.140625 -0.328125 -2.5625q0 -1.25 0.359375 -2.34375q0.359375 -1.109375 1.03125 -1.953125q0.6875 -0.84375 1.6875 -1.328125q1.0 -0.5 2.265625 -0.5q1.234375 0 2.171875 0.390625q0.953125 0.390625 1.59375 1.109375q0.65625 0.703125 0.984375 1.71875q0.34375 1.0 0.34375 2.265625zm-2.125 -0.296875q0.046875 -0.78125 -0.140625 -1.4375q-0.1875 -0.65625 -0.59375 -1.125q-0.390625 -0.46875 -0.984375 -0.71875q-0.578125 -0.265625 -1.34375 -0.265625q-0.671875 0 -1.21875 0.265625q-0.546875 0.25 -0.953125 0.71875q-0.390625 0.46875 -0.640625 1.125q-0.25 0.65625 -0.3125 1.4375l6.1875 0zm5.3828125 -4.96875l1.8125 0l0.09375 1.890625q0.515625 -0.609375 0.984375 -1.0q0.484375 -0.40625 0.9375 -0.65625q0.46875 -0.25 0.953125 -0.34375q0.484375 -0.109375 1.0 -0.109375q1.8125 0 2.734375 1.078125q0.9375 1.078125 0.9375 3.234375l0 7.671875l-2.03125 0l0 -7.515625q0 -1.375 -0.515625 -2.03125q-0.515625 -0.671875 -1.53125 -0.671875q-0.375 0 -0.734375 0.109375q-0.359375 0.109375 -0.75 0.390625q-0.390625 0.265625 -0.84375 0.734375q-0.4375 0.46875 -1.0 1.171875l0 7.8125l-2.046875 0l0 -11.765625zm24.523438 16.578125l-13.203125 0l0 -1.6875l13.203125 0l0 1.6875zm11.1796875 -8.03125q0 0.625 -0.21875 1.125q-0.203125 0.484375 -0.5625 0.875q-0.359375 0.375 -0.84375 0.640625q-0.484375 0.265625 -1.03125 0.453125q-0.53125 0.171875 -1.109375 0.25q-0.578125 0.09375 -1.125 0.09375q-1.203125 0 -2.203125 -0.109375q-1.0 -0.109375 -1.953125 -0.34375l0 -1.875q1.03125 0.296875 2.046875 0.453125q1.015625 0.140625 2.03125 0.140625q1.453125 0 2.15625 -0.390625q0.703125 -0.40625 0.703125 -1.140625q0 -0.3125 -0.109375 -0.5625q-0.109375 -0.265625 -0.40625 -0.484375q-0.28125 -0.234375 -0.90625 -0.46875q-0.609375 -0.25 -1.671875 -0.578125q-0.796875 -0.234375 -1.484375 -0.53125q-0.671875 -0.296875 -1.171875 -0.703125q-0.484375 -0.40625 -0.765625 -0.953125q-0.28125 -0.5625 -0.28125 -1.3125q0 -0.484375 0.234375 -1.0625q0.234375 -0.59375 0.78125 -1.09375q0.546875 -0.515625 1.484375 -0.84375q0.9375 -0.34375 2.34375 -0.34375q0.6875 0 1.53125 0.078125q0.84375 0.078125 1.765625 0.265625l0 1.8125q-0.96875 -0.234375 -1.828125 -0.34375q-0.859375 -0.109375 -1.484375 -0.109375q-0.765625 0 -1.296875 0.125q-0.515625 0.109375 -0.84375 0.3125q-0.3125 0.203125 -0.453125 0.484375q-0.140625 0.28125 -0.140625 0.59375q0 0.3125 0.125 0.578125q0.125 0.25 0.453125 0.5q0.328125 0.234375 0.921875 0.484375q0.609375 0.234375 1.5625 0.515625q1.046875 0.296875 1.765625 0.640625q0.71875 0.328125 1.15625 0.734375q0.453125 0.40625 0.640625 0.921875q0.1875 0.515625 0.1875 1.171875zm7.8984375 -6.859375l-3.484375 0l0 -1.6875l5.546875 0l0 10.0625l3.5 0l0 1.703125l-9.4375 0l0 -1.703125l3.875 0l0 -8.375zm0.703125 -6.6249924q0.34375 0 0.640625 0.125q0.296875 0.125 0.5 0.34375q0.21875 0.21875 0.34375 0.515625q0.125 0.28125 0.125 0.625q0 0.32811737 -0.125 0.6249924q-0.125 0.28125 -0.34375 0.515625q-0.203125 0.21875 -0.5 0.34375q-0.296875 0.125 -0.640625 0.125q-0.328125 0 -0.625 -0.125q-0.296875 -0.125 -0.515625 -0.34375q-0.21875 -0.234375 -0.34375 -0.515625q-0.109375 -0.296875 -0.109375 -0.6249924q0 -0.34375 0.109375 -0.625q0.125 -0.296875 0.34375 -0.515625q0.21875 -0.21875 0.515625 -0.34375q0.296875 -0.125 0.625 -0.125zm18.007812 16.703117l-9.484375 0l0 -1.46875l6.640625 -8.59375l-6.46875 0l0 -1.703125l8.921875 0l0 1.59375l-6.53125 8.453125l6.921875 0l0 1.71875zm13.6015625 -6.5q0 0.421875 -0.015625 0.71875q0 0.296875 -0.03125 0.546875l-8.265625 0q0 1.8125 1.0 2.78125q1.015625 0.96875 2.921875 0.96875q0.515625 0 1.03125 -0.046875q0.515625 -0.046875 0.984375 -0.109375q0.484375 -0.078125 0.921875 -0.15625q0.453125 -0.09375 0.828125 -0.203125l0 1.6875q-0.84375 0.234375 -1.890625 0.375q-1.046875 0.15625 -2.171875 0.15625q-1.515625 0 -2.609375 -0.40625q-1.078125 -0.421875 -1.78125 -1.203125q-0.6875 -0.78125 -1.03125 -1.90625q-0.328125 -1.140625 -0.328125 -2.5625q0 -1.25 0.359375 -2.34375q0.359375 -1.109375 1.03125 -1.953125q0.6875 -0.84375 1.6875 -1.328125q1.0 -0.5 2.265625 -0.5q1.234375 0 2.171875 0.390625q0.953125 0.390625 1.59375 1.109375q0.65625 0.703125 0.984375 1.71875q0.34375 1.0 0.34375 2.265625zm-2.125 -0.296875q0.046875 -0.78125 -0.140625 -1.4375q-0.1875 -0.65625 -0.59375 -1.125q-0.390625 -0.46875 -0.984375 -0.71875q-0.578125 -0.265625 -1.34375 -0.265625q-0.671875 0 -1.21875 0.265625q-0.546875 0.25 -0.953125 0.71875q-0.390625 0.46875 -0.640625 1.125q-0.25 0.65625 -0.3125 1.4375l6.1875 0z" fill-rule="nonzero"/><path fill="#85200c" d="m428.6929 168.01575l422.61417 0l0 67.18111l-422.61417 0z" fill-rule="evenodd"/><path stroke="#000000" stroke-width="1.3333333333333333" stroke-miterlimit="800.0" stroke-linecap="butt" d="m428.6929 168.01575l422.61417 0l0 67.18111l-422.61417 0z" fill-rule="evenodd"/><path fill="#ffffff" d="m578.7539 210.1463l-1.828125 0l-0.0625 -1.90625q-0.53125 0.609375 -1.015625 1.015625q-0.46875 0.40625 -0.9375 0.65625q-0.46875 0.25 -0.9375 0.34375q-0.46875 0.109375 -1.0 0.109375q-1.8125 0 -2.75 -1.0625q-0.921875 -1.078125 -0.921875 -3.234375l0 -7.6875l2.046875 0l0 7.515625q0 2.71875 2.03125 2.71875q0.375 0 0.734375 -0.109375q0.359375 -0.125 0.75 -0.390625q0.390625 -0.28125 0.84375 -0.75q0.453125 -0.46875 1.015625 -1.1875l0 -7.796875l2.03125 0l0 11.765625zm13.3828125 -4.65625q0 1.015625 -0.40625 1.90625q-0.40625 0.875 -1.234375 1.546875q-0.8125 0.65625 -2.0625 1.046875q-1.234375 0.375 -2.890625 0.375q-0.90625 0 -1.640625 -0.0625q-0.71875 -0.0625 -1.359375 -0.15625l0 -1.828125q0.734375 0.125 1.53125 0.203125q0.8125 0.0625 1.65625 0.0625q1.15625 0 1.96875 -0.203125q0.8125 -0.203125 1.328125 -0.59375q0.515625 -0.390625 0.75 -0.9375q0.234375 -0.546875 0.234375 -1.234375q0 -0.640625 -0.28125 -1.109375q-0.28125 -0.46875 -0.796875 -0.78125q-0.5 -0.3125 -1.21875 -0.46875q-0.703125 -0.171875 -1.546875 -0.171875l-1.75 0l0 -1.671875l1.765625 0q0.703125 0 1.265625 -0.171875q0.5625 -0.1875 0.96875 -0.53125q0.40625 -0.34375 0.625 -0.828125q0.21875 -0.5 0.21875 -1.140625q0 -1.234375 -0.75 -1.796875q-0.75 -0.5625 -2.203125 -0.5625q-0.78125 0 -1.609375 0.15625q-0.8125 0.15625 -1.75 0.453125l0 -1.78125q0.40625 -0.140625 0.859375 -0.25q0.453125 -0.109375 0.890625 -0.1875q0.453125 -0.078125 0.890625 -0.109375q0.453125 -0.046875 0.875 -0.046875q1.21875 0 2.140625 0.265625q0.921875 0.265625 1.546875 0.765625q0.625 0.484375 0.9375 1.1875q0.3125 0.703125 0.3125 1.578125q0 1.3125 -0.671875 2.203125q-0.671875 0.890625 -1.84375 1.421875q0.59375 0.09375 1.171875 0.375q0.578125 0.28125 1.046875 0.71875q0.46875 0.4375 0.75 1.046875q0.28125 0.59375 0.28125 1.3125zm13.4921875 4.65625l-10.09375 0l0 -1.828125l3.96875 -3.9375q0.96875 -0.96875 1.578125 -1.671875q0.609375 -0.703125 0.953125 -1.28125q0.34375 -0.578125 0.453125 -1.09375q0.125 -0.515625 0.125 -1.109375q0 -0.5625 -0.15625 -1.0625q-0.15625 -0.515625 -0.46875 -0.90625q-0.3125 -0.390625 -0.828125 -0.609375q-0.5 -0.21875 -1.203125 -0.21875q-0.96875 0 -1.765625 0.4375q-0.796875 0.421875 -1.46875 1.109375l-1.125 -1.34375q0.875 -0.90625 2.0 -1.453125q1.125 -0.5625 2.625 -0.5625q1.03125 0 1.859375 0.3125q0.84375 0.296875 1.453125 0.875q0.609375 0.578125 0.9375 1.40625q0.34375 0.828125 0.34375 1.875q0 0.875 -0.234375 1.625q-0.234375 0.75 -0.71875 1.5q-0.46875 0.734375 -1.1875 1.53125q-0.71875 0.796875 -1.703125 1.75l-2.78125 2.703125l7.4375 0l0 1.953125zm15.859375 -5.640625q0 -1.5 0.40625 -2.65625q0.40625 -1.171875 1.15625 -1.96875q0.765625 -0.8125 1.828125 -1.21875q1.0625 -0.421875 2.359375 -0.421875q0.5625 0 1.109375 0.078125q0.546875 0.0625 1.078125 0.21875l0 -4.953125l2.046875 0l0 16.5625l-1.828125 0l-0.078125 -2.234375q-0.84375 1.25 -1.84375 1.859375q-1.0 0.59375 -2.15625 0.59375q-1.015625 0 -1.78125 -0.421875q-0.765625 -0.4375 -1.28125 -1.203125q-0.5 -0.765625 -0.765625 -1.84375q-0.25 -1.078125 -0.25 -2.390625zm2.078125 -0.125q0 2.125 0.625 3.1875q0.640625 1.046875 1.78125 1.046875q0.78125 0 1.640625 -0.6875q0.859375 -0.703125 1.8125 -2.0625l0 -5.453125q-0.515625 -0.234375 -1.125 -0.359375q-0.609375 -0.125 -1.203125 -0.125q-1.65625 0 -2.59375 1.078125q-0.9375 1.078125 -0.9375 3.375zm21.773438 -0.328125q0 1.46875 -0.40625 2.625q-0.40625 1.140625 -1.15625 1.953125q-0.734375 0.796875 -1.8125 1.234375q-1.0625 0.421875 -2.390625 0.421875q-1.046875 0 -2.140625 -0.203125q-1.09375 -0.203125 -2.15625 -0.625l0 -15.875l2.046875 0l0 4.5625l-0.09375 2.171875q0.875 -1.171875 1.875 -1.65625q1.0 -0.5 2.15625 -0.5q1.0 0 1.765625 0.421875q0.765625 0.421875 1.28125 1.203125q0.515625 0.765625 0.765625 1.84375q0.265625 1.078125 0.265625 2.421875zm-2.09375 0.09375q0 -0.921875 -0.140625 -1.6875q-0.125 -0.78125 -0.421875 -1.328125q-0.296875 -0.5625 -0.75 -0.875q-0.453125 -0.3125 -1.09375 -0.3125q-0.375 0 -0.78125 0.125q-0.390625 0.125 -0.828125 0.421875q-0.421875 0.28125 -0.90625 0.765625q-0.46875 0.46875 -1.0 1.171875l0 5.703125q0.59375 0.234375 1.203125 0.375q0.625 0.125 1.1875 0.125q0.703125 0 1.34375 -0.21875q0.640625 -0.21875 1.125 -0.734375q0.484375 -0.53125 0.765625 -1.390625q0.296875 -0.859375 0.296875 -2.140625zm15.5234375 -1.65625q0 1.765625 -0.359375 3.21875q-0.34375 1.4375 -1.0625 2.484375q-0.71875 1.03125 -1.78125 1.609375q-1.0625 0.5625 -2.484375 0.5625q-1.234375 0 -2.25 -0.46875q-1.0 -0.46875 -1.71875 -1.421875q-0.703125 -0.96875 -1.09375 -2.453125q-0.390625 -1.484375 -0.390625 -3.53125q0 -1.75 0.359375 -3.203125q0.359375 -1.453125 1.0625 -2.484375q0.71875 -1.046875 1.78125 -1.609375q1.0625 -0.578125 2.484375 -0.578125q1.234375 0 2.234375 0.46875q1.015625 0.453125 1.71875 1.421875q0.71875 0.96875 1.109375 2.46875q0.390625 1.484375 0.390625 3.515625zm-2.0625 0.078125q0 -0.40625 -0.03125 -0.796875q-0.03125 -0.390625 -0.0625 -0.765625l-6.484375 4.8125q0.171875 0.609375 0.4375 1.125q0.28125 0.515625 0.65625 0.890625q0.375 0.359375 0.859375 0.578125q0.5 0.203125 1.109375 0.203125q0.796875 0 1.453125 -0.390625q0.65625 -0.390625 1.109375 -1.140625q0.453125 -0.765625 0.703125 -1.890625q0.25 -1.140625 0.25 -2.625zm-7.015625 -0.140625q0 0.359375 0 0.71875q0.015625 0.359375 0.046875 0.703125l6.484375 -4.796875q-0.171875 -0.59375 -0.453125 -1.078125q-0.265625 -0.5 -0.640625 -0.859375q-0.375 -0.359375 -0.859375 -0.546875q-0.46875 -0.203125 -1.078125 -0.203125q-0.796875 0 -1.453125 0.390625q-0.640625 0.375 -1.09375 1.15625q-0.453125 0.765625 -0.703125 1.890625q-0.25 1.125 -0.25 2.625zm23.304688 12.53125l-13.203125 0l0 -1.6875l13.203125 0l0 1.6875zm12.1171875 -10.796875q0 1.375 -0.390625 2.515625q-0.390625 1.140625 -1.125 1.96875q-0.71875 0.8125 -1.765625 1.265625q-1.03125 0.453125 -2.359375 0.453125q-1.265625 0 -2.265625 -0.390625q-1.0 -0.40625 -1.703125 -1.15625q-0.703125 -0.765625 -1.078125 -1.890625q-0.359375 -1.125 -0.359375 -2.59375q0 -1.375 0.390625 -2.5q0.390625 -1.140625 1.109375 -1.953125q0.734375 -0.8125 1.765625 -1.265625q1.046875 -0.453125 2.375 -0.453125q1.265625 0 2.265625 0.40625q1.0 0.390625 1.6875 1.140625q0.703125 0.75 1.078125 1.875q0.375 1.125 0.375 2.578125zm-2.09375 0.09375q0 -1.078125 -0.25 -1.890625q-0.234375 -0.828125 -0.6875 -1.359375q-0.4375 -0.546875 -1.078125 -0.828125q-0.625 -0.28125 -1.421875 -0.28125q-0.90625 0 -1.5625 0.359375q-0.640625 0.359375 -1.0625 0.96875q-0.421875 0.59375 -0.609375 1.390625q-0.1875 0.78125 -0.1875 1.640625q0 1.09375 0.234375 1.921875q0.234375 0.8125 0.671875 1.359375q0.453125 0.546875 1.078125 0.828125q0.640625 0.265625 1.4375 0.265625q0.921875 0 1.5625 -0.359375q0.65625 -0.359375 1.0625 -0.953125q0.421875 -0.59375 0.609375 -1.375q0.203125 -0.796875 0.203125 -1.6875zm15.4765625 -8.765625q-1.59375 -0.34375 -2.765625 -0.34375q-2.75 0 -2.75 2.875l0 2.0625l5.15625 0l0 1.703125l-5.15625 0l0 8.359375l-2.078125 0l0 -8.359375l-3.78125 0l0 -1.703125l3.78125 0l0 -1.9375q0 -4.703125 4.90625 -4.703125q1.21875 0 2.6875 0.28125l0 1.765625zm-12.3125 2.890625l0 0zm25.507812 -2.890625q-1.59375 -0.34375 -2.765625 -0.34375q-2.75 0 -2.75 2.875l0 2.0625l5.15625 0l0 1.703125l-5.15625 0l0 8.359375l-2.078125 0l0 -8.359375l-3.78125 0l0 -1.703125l3.78125 0l0 -1.9375q0 -4.703125 4.90625 -4.703125q1.21875 0 2.6875 0.28125l0 1.765625zm-12.3125 2.890625l0 0z" fill-rule="nonzero"/><path fill="#888888" d="m428.6929 235.19685l422.61417 0l0 187.0236l-422.61417 0z" fill-rule="evenodd"/><path stroke="#000000" stroke-width="1.3333333333333333" stroke-miterlimit="800.0" stroke-linecap="butt" d="m428.6929 235.19685l422.61417 0l0 187.0236l-422.61417 0z" fill-rule="evenodd"/><path fill="#ffffff" d="m569.75 327.67053q-5.40625 -5.0 -5.40625 -11.0625q0 -1.421875 0.28125 -2.828125q0.296875 -1.421875 0.9375 -2.828125q0.640625 -1.421875 1.6875 -2.84375q1.046875 -1.421875 2.546875 -2.8125l1.1875 1.203125q-4.546875 4.5 -4.546875 9.953125q0 2.71875 1.140625 5.234375q1.15625 2.5 3.40625 4.734375l-1.234375 1.25zm15.6328125 -5.09375q-0.6875 0.1875 -1.4375 0.265625q-0.734375 0.078125 -1.5 0.078125q-2.203125 0 -3.296875 -1.0q-1.09375 -1.015625 -1.09375 -3.09375l0 -6.140625l-3.296875 0l0 -1.703125l3.296875 0l0 -3.234375l2.046875 -0.53125l0 3.765625l5.28125 0l0 1.703125l-5.28125 0l0 5.984375q0 1.265625 0.671875 1.890625q0.671875 0.625 1.984375 0.625q0.5625 0 1.21875 -0.078125q0.671875 -0.09375 1.40625 -0.28125l0 1.75zm13.9609375 -5.8125q0 1.375 -0.390625 2.515625q-0.390625 1.140625 -1.125 1.96875q-0.71875 0.8125 -1.765625 1.265625q-1.03125 0.453125 -2.359375 0.453125q-1.265625 0 -2.265625 -0.390625q-1.0 -0.40625 -1.703125 -1.15625q-0.703125 -0.765625 -1.078125 -1.890625q-0.359375 -1.125 -0.359375 -2.59375q0 -1.375 0.390625 -2.5q0.390625 -1.140625 1.109375 -1.953125q0.734375 -0.8125 1.765625 -1.265625q1.046875 -0.453125 2.375 -0.453125q1.265625 0 2.265625 0.40625q1.0 0.390625 1.6875 1.140625q0.703125 0.75 1.078125 1.875q0.375 1.125 0.375 2.578125zm-2.09375 0.09375q0 -1.078125 -0.25 -1.890625q-0.234375 -0.828125 -0.6875 -1.359375q-0.4375 -0.546875 -1.078125 -0.828125q-0.625 -0.28125 -1.421875 -0.28125q-0.90625 0 -1.5625 0.359375q-0.640625 0.359375 -1.0625 0.96875q-0.421875 0.59375 -0.609375 1.390625q-0.1875 0.78125 -0.1875 1.640625q0 1.09375 0.234375 1.921875q0.234375 0.8125 0.671875 1.359375q0.453125 0.546875 1.078125 0.828125q0.640625 0.265625 1.4375 0.265625q0.921875 0 1.5625 -0.359375q0.65625 -0.359375 1.0625 -0.953125q0.421875 -0.59375 0.609375 -1.375q0.203125 -0.796875 0.203125 -1.6875zm15.6171875 5.890625l-2.796875 0l-5.484375 -6.3125l0 6.3125l-2.03125 0l0 -16.5625l2.03125 0l0 10.171875l5.28125 -5.375l2.703125 0l-5.515625 5.421875l5.8125 6.34375zm12.5546875 -6.5q0 0.421875 -0.015625 0.71875q0 0.296875 -0.03125 0.546875l-8.265625 0q0 1.8125 1.0 2.78125q1.015625 0.96875 2.921875 0.96875q0.515625 0 1.03125 -0.046875q0.515625 -0.046875 0.984375 -0.109375q0.484375 -0.078125 0.921875 -0.15625q0.453125 -0.09375 0.828125 -0.203125l0 1.6875q-0.84375 0.234375 -1.890625 0.375q-1.046875 0.15625 -2.171875 0.15625q-1.515625 0 -2.609375 -0.40625q-1.078125 -0.421875 -1.78125 -1.203125q-0.6875 -0.78125 -1.03125 -1.90625q-0.328125 -1.140625 -0.328125 -2.5625q0 -1.25 0.359375 -2.34375q0.359375 -1.109375 1.03125 -1.953125q0.6875 -0.84375 1.6875 -1.328125q1.0 -0.5 2.265625 -0.5q1.234375 0 2.171875 0.390625q0.953125 0.390625 1.59375 1.109375q0.65625 0.703125 0.984375 1.71875q0.34375 1.0 0.34375 2.265625zm-2.125 -0.296875q0.046875 -0.78125 -0.140625 -1.4375q-0.1875 -0.65625 -0.59375 -1.125q-0.390625 -0.46875 -0.984375 -0.71875q-0.578125 -0.265625 -1.34375 -0.265625q-0.671875 0 -1.21875 0.265625q-0.546875 0.25 -0.953125 0.71875q-0.390625 0.46875 -0.640625 1.125q-0.25 0.65625 -0.3125 1.4375l6.1875 0zm5.3828125 -4.96875l1.8125 0l0.09375 1.890625q0.515625 -0.609375 0.984375 -1.0q0.484375 -0.40625 0.9375 -0.65625q0.46875 -0.25 0.953125 -0.34375q0.484375 -0.109375 1.0 -0.109375q1.8125 0 2.734375 1.078125q0.9375 1.078125 0.9375 3.234375l0 7.671875l-2.03125 0l0 -7.515625q0 -1.375 -0.515625 -2.03125q-0.515625 -0.671875 -1.53125 -0.671875q-0.375 0 -0.734375 0.109375q-0.359375 0.109375 -0.75 0.390625q-0.390625 0.265625 -0.84375 0.734375q-0.4375 0.46875 -1.0 1.171875l0 7.8125l-2.046875 0l0 -11.765625zm36.453125 5.671875q0 1.46875 -0.40625 2.625q-0.40625 1.140625 -1.15625 1.953125q-0.734375 0.796875 -1.8125 1.234375q-1.0625 0.421875 -2.390625 0.421875q-1.046875 0 -2.140625 -0.203125q-1.09375 -0.203125 -2.15625 -0.625l0 -15.875l2.046875 0l0 4.5625l-0.09375 2.171875q0.875 -1.171875 1.875 -1.65625q1.0 -0.5 2.15625 -0.5q1.0 0 1.765625 0.421875q0.765625 0.421875 1.28125 1.203125q0.515625 0.765625 0.765625 1.84375q0.265625 1.078125 0.265625 2.421875zm-2.09375 0.09375q0 -0.921875 -0.140625 -1.6875q-0.125 -0.78125 -0.421875 -1.328125q-0.296875 -0.5625 -0.75 -0.875q-0.453125 -0.3125 -1.09375 -0.3125q-0.375 0 -0.78125 0.125q-0.390625 0.125 -0.828125 0.421875q-0.421875 0.28125 -0.90625 0.765625q-0.46875 0.46875 -1.0 1.171875l0 5.703125q0.59375 0.234375 1.203125 0.375q0.625 0.125 1.1875 0.125q0.703125 0 1.34375 -0.21875q0.640625 -0.21875 1.125 -0.734375q0.484375 -0.53125 0.765625 -1.390625q0.296875 -0.859375 0.296875 -2.140625zm15.4765625 0.015625q0 1.375 -0.390625 2.515625q-0.390625 1.140625 -1.125 1.96875q-0.71875 0.8125 -1.765625 1.265625q-1.03125 0.453125 -2.359375 0.453125q-1.265625 0 -2.265625 -0.390625q-1.0 -0.40625 -1.703125 -1.15625q-0.703125 -0.765625 -1.078125 -1.890625q-0.359375 -1.125 -0.359375 -2.59375q0 -1.375 0.390625 -2.5q0.390625 -1.140625 1.109375 -1.953125q0.734375 -0.8125 1.765625 -1.265625q1.046875 -0.453125 2.375 -0.453125q1.265625 0 2.265625 0.40625q1.0 0.390625 1.6875 1.140625q0.703125 0.75 1.078125 1.875q0.375 1.125 0.375 2.578125zm-2.09375 0.09375q0 -1.078125 -0.25 -1.890625q-0.234375 -0.828125 -0.6875 -1.359375q-0.4375 -0.546875 -1.078125 -0.828125q-0.625 -0.28125 -1.421875 -0.28125q-0.90625 0 -1.5625 0.359375q-0.640625 0.359375 -1.0625 0.96875q-0.421875 0.59375 -0.609375 1.390625q-0.1875 0.78125 -0.1875 1.640625q0 1.09375 0.234375 1.921875q0.234375 0.8125 0.671875 1.359375q0.453125 0.546875 1.078125 0.828125q0.640625 0.265625 1.4375 0.265625q0.921875 0 1.5625 -0.359375q0.65625 -0.359375 1.0625 -0.953125q0.421875 -0.59375 0.609375 -1.375q0.203125 -0.796875 0.203125 -1.6875zm4.4453125 0.25q0 -1.5 0.40625 -2.65625q0.40625 -1.171875 1.15625 -1.96875q0.765625 -0.8125 1.828125 -1.21875q1.0625 -0.421875 2.359375 -0.421875q0.5625 0 1.109375 0.078125q0.546875 0.0625 1.078125 0.21875l0 -4.953125l2.046875 0l0 16.5625l-1.828125 0l-0.078125 -2.234375q-0.84375 1.25 -1.84375 1.859375q-1.0 0.59375 -2.15625 0.59375q-1.015625 0 -1.78125 -0.421875q-0.765625 -0.4375 -1.28125 -1.203125q-0.5 -0.765625 -0.765625 -1.84375q-0.25 -1.078125 -0.25 -2.390625zm2.078125 -0.125q0 2.125 0.625 3.1875q0.640625 1.046875 1.78125 1.046875q0.78125 0 1.640625 -0.6875q0.859375 -0.703125 1.8125 -2.0625l0 -5.453125q-0.515625 -0.234375 -1.125 -0.359375q-0.609375 -0.125 -1.203125 -0.125q-1.65625 0 -2.59375 1.078125q-0.9375 1.078125 -0.9375 3.375zm22.179688 -6.0l-4.015625 10.515625q-0.609375 1.609375 -1.28125 2.765625q-0.65625 1.171875 -1.453125 1.90625q-0.78125 0.75 -1.71875 1.09375q-0.9375 0.359375 -2.09375 0.359375q-0.296875 0 -0.546875 -0.015625q-0.25 0 -0.546875 -0.03125l0 -1.84375q0.265625 0.03125 0.5625 0.0625q0.3125 0.03125 0.65625 0.03125q0.5625 0 1.046875 -0.171875q0.484375 -0.15625 0.90625 -0.53125q0.4375 -0.375 0.828125 -0.96875q0.40625 -0.578125 0.78125 -1.40625l-4.6875 -11.765625l2.3125 0l2.984375 7.78125l0.59375 1.828125l0.671875 -1.875l2.765625 -7.734375l2.234375 0zm5.1328125 -5.6875q5.40625 5.0 5.40625 11.140625q0 1.265625 -0.265625 2.625q-0.25 1.359375 -0.875 2.78125q-0.625 1.421875 -1.671875 2.890625q-1.046875 1.46875 -2.640625 2.9375l-1.1875 -1.203125q2.28125 -2.265625 3.40625 -4.71875q1.125 -2.46875 1.125 -5.171875q0 -5.578125 -4.53125 -10.03125l1.234375 -1.25z" fill-rule="nonzero"/><path fill="#ffffff" d="m626.70703 348.06116q0.40625 0 0.765625 0.15625q0.359375 0.140625 0.609375 0.421875q0.265625 0.265625 0.421875 0.625q0.15625 0.34375 0.15625 0.765625q0 0.390625 -0.15625 0.75q-0.15625 0.34375 -0.421875 0.609375q-0.25 0.265625 -0.609375 0.421875q-0.359375 0.15625 -0.765625 0.15625q-0.40625 0 -0.765625 -0.15625q-0.34375 -0.15625 -0.609375 -0.421875q-0.265625 -0.265625 -0.421875 -0.609375q-0.140625 -0.359375 -0.140625 -0.75q0 -0.421875 0.140625 -0.765625q0.15625 -0.359375 0.421875 -0.625q0.265625 -0.28125 0.609375 -0.421875q0.359375 -0.15625 0.765625 -0.15625zm13.1953125 0q0.40625 0 0.765625 0.15625q0.359375 0.140625 0.609375 0.421875q0.265625 0.265625 0.421875 0.625q0.15625 0.34375 0.15625 0.765625q0 0.390625 -0.15625 0.75q-0.15625 0.34375 -0.421875 0.609375q-0.25 0.265625 -0.609375 0.421875q-0.359375 0.15625 -0.765625 0.15625q-0.40625 0 -0.765625 -0.15625q-0.34375 -0.15625 -0.609375 -0.421875q-0.265625 -0.265625 -0.421875 -0.609375q-0.140625 -0.359375 -0.140625 -0.75q0 -0.421875 0.140625 -0.765625q0.15625 -0.359375 0.421875 -0.625q0.265625 -0.28125 0.609375 -0.421875q0.359375 -0.15625 0.765625 -0.15625zm13.1953125 0q0.40625 0 0.765625 0.15625q0.359375 0.140625 0.609375 0.421875q0.265625 0.265625 0.421875 0.625q0.15625 0.34375 0.15625 0.765625q0 0.390625 -0.15625 0.75q-0.15625 0.34375 -0.421875 0.609375q-0.25 0.265625 -0.609375 0.421875q-0.359375 0.15625 -0.765625 0.15625q-0.40625 0 -0.765625 -0.15625q-0.34375 -0.15625 -0.609375 -0.421875q-0.265625 -0.265625 -0.421875 -0.609375q-0.140625 -0.359375 -0.140625 -0.75q0 -0.421875 0.140625 -0.765625q0.15625 -0.359375 0.421875 -0.625q0.265625 -0.28125 0.609375 -0.421875q0.359375 -0.15625 0.765625 -0.15625z" fill-rule="nonzero"/><path fill="#674ea7" d="m428.6929 422.2205l211.3071 0l0 67.18109l-211.3071 0z" fill-rule="evenodd"/><path stroke="#000000" stroke-width="1.3333333333333333" stroke-miterlimit="800.0" stroke-linecap="butt" d="m428.6929 422.2205l211.3071 0l0 67.18109l-211.3071 0z" fill-rule="evenodd"/><path fill="#ffffff" d="m466.50272 464.35104l-1.828125 0l-0.0625 -1.90625q-0.53125 0.609375 -1.015625 1.015625q-0.46875 0.40625 -0.9375 0.65625q-0.46875 0.25 -0.9375 0.34375q-0.46875 0.109375 -1.0 0.109375q-1.8125 0 -2.75 -1.0625q-0.921875 -1.078125 -0.921875 -3.234375l0 -7.6875l2.046875 0l0 7.515625q0 2.71875 2.03125 2.71875q0.375 0 0.734375 -0.109375q0.359375 -0.125 0.75 -0.390625q0.390625 -0.28125 0.84375 -0.75q0.453125 -0.46875 1.015625 -1.1875l0 -7.796875l2.03125 0l0 11.765625zm13.5546875 0l-9.625 0l0 -1.90625l3.9375 0l0 -11.171875l-3.671875 1.984375l-0.75 -1.734375l4.875 -2.5625l1.8125 0l0 13.484375l3.421875 0l0 1.90625zm13.5078125 -4.859375q0 1.0625 -0.390625 1.984375q-0.375 0.921875 -1.078125 1.609375q-0.703125 0.6875 -1.6875 1.09375q-0.984375 0.390625 -2.203125 0.390625q-1.265625 0 -2.234375 -0.40625q-0.96875 -0.40625 -1.625 -1.25q-0.65625 -0.84375 -1.0 -2.109375q-0.34375 -1.28125 -0.34375 -3.03125q0 -1.171875 0.15625 -2.265625q0.15625 -1.109375 0.5 -2.078125q0.359375 -0.96875 0.9375 -1.78125q0.59375 -0.8125 1.46875 -1.390625q0.875 -0.578125 2.046875 -0.890625q1.1875 -0.328125 2.75 -0.328125l1.515625 0l0 1.78125l-1.640625 0q-1.375 0 -2.390625 0.328125q-1.0 0.328125 -1.6875 0.921875q-0.671875 0.59375 -1.046875 1.4375q-0.359375 0.84375 -0.453125 1.890625l-0.046875 0.484375q0.75 -0.4375 1.703125 -0.703125q0.96875 -0.265625 2.09375 -0.265625q1.171875 0 2.03125 0.34375q0.875 0.34375 1.453125 0.953125q0.59375 0.59375 0.875 1.4375q0.296875 0.84375 0.296875 1.84375zm-2.125 0.140625q0 -0.703125 -0.171875 -1.265625q-0.171875 -0.578125 -0.546875 -0.96875q-0.359375 -0.390625 -0.921875 -0.609375q-0.546875 -0.21875 -1.3125 -0.21875q-0.453125 0 -0.90625 0.078125q-0.453125 0.078125 -0.90625 0.234375q-0.4375 0.140625 -0.84375 0.328125q-0.390625 0.1875 -0.71875 0.40625q0 1.5 0.203125 2.515625q0.21875 1.015625 0.640625 1.625q0.421875 0.609375 1.03125 0.875q0.609375 0.25 1.40625 0.25q0.65625 0 1.21875 -0.21875q0.5625 -0.21875 0.953125 -0.640625q0.40625 -0.421875 0.640625 -1.015625q0.234375 -0.609375 0.234375 -1.375zm27.87497 4.546875q-0.6875 0.1875 -1.4375 0.265625q-0.734375 0.078125 -1.5 0.078125q-2.203125 0 -3.296875 -1.0q-1.0937195 -1.015625 -1.0937195 -3.09375l0 -6.140625l-3.296875 0l0 -1.703125l3.296875 0l0 -3.234375l2.0468445 -0.53125l0 3.765625l5.28125 0l0 1.703125l-5.28125 0l0 5.984375q0 1.265625 0.671875 1.890625q0.671875 0.625 1.984375 0.625q0.5625 0 1.21875 -0.078125q0.671875 -0.09375 1.40625 -0.28125l0 1.75zm13.9609375 -5.8125q0 1.375 -0.390625 2.515625q-0.390625 1.140625 -1.125 1.96875q-0.71875 0.8125 -1.765625 1.265625q-1.03125 0.453125 -2.359375 0.453125q-1.265625 0 -2.265625 -0.390625q-1.0 -0.40625 -1.703125 -1.15625q-0.703125 -0.765625 -1.078125 -1.890625q-0.359375 -1.125 -0.359375 -2.59375q0 -1.375 0.390625 -2.5q0.390625 -1.140625 1.109375 -1.953125q0.734375 -0.8125 1.765625 -1.265625q1.046875 -0.453125 2.375 -0.453125q1.265625 0 2.265625 0.40625q1.0 0.390625 1.6875 1.140625q0.703125 0.75 1.078125 1.875q0.375 1.125 0.375 2.578125zm-2.09375 0.09375q0 -1.078125 -0.25 -1.890625q-0.234375 -0.828125 -0.6875 -1.359375q-0.4375 -0.546875 -1.078125 -0.828125q-0.625 -0.28125 -1.421875 -0.28125q-0.90625 0 -1.5625 0.359375q-0.640625 0.359375 -1.0625 0.96875q-0.421875 0.59375 -0.609375 1.390625q-0.1875 0.78125 -0.1875 1.640625q0 1.09375 0.234375 1.921875q0.234375 0.8125 0.671875 1.359375q0.453125 0.546875 1.078125 0.828125q0.640625 0.265625 1.4375 0.265625q0.921875 0 1.5625 -0.359375q0.65625 -0.359375 1.0625 -0.953125q0.421875 -0.59375 0.609375 -1.375q0.203125 -0.796875 0.203125 -1.6875zm15.6171875 5.890625l-2.796875 0l-5.484375 -6.3125l0 6.3125l-2.03125 0l0 -16.5625l2.03125 0l0 10.171875l5.28125 -5.375l2.703125 0l-5.515625 5.421875l5.8125 6.34375zm12.5546875 -6.5q0 0.421875 -0.015625 0.71875q0 0.296875 -0.03125 0.546875l-8.265625 0q0 1.8125 1.0 2.78125q1.015625 0.96875 2.921875 0.96875q0.515625 0 1.03125 -0.046875q0.515625 -0.046875 0.984375 -0.109375q0.484375 -0.078125 0.921875 -0.15625q0.453125 -0.09375 0.828125 -0.203125l0 1.6875q-0.84375 0.234375 -1.890625 0.375q-1.046875 0.15625 -2.171875 0.15625q-1.515625 0 -2.609375 -0.40625q-1.078125 -0.421875 -1.78125 -1.203125q-0.6875 -0.78125 -1.03125 -1.90625q-0.328125 -1.140625 -0.328125 -2.5625q0 -1.25 0.359375 -2.34375q0.359375 -1.109375 1.03125 -1.953125q0.6875 -0.84375 1.6875 -1.328125q1.0 -0.5 2.265625 -0.5q1.234375 0 2.171875 0.390625q0.953125 0.390625 1.59375 1.109375q0.65625 0.703125 0.984375 1.71875q0.34375 1.0 0.34375 2.265625zm-2.125 -0.296875q0.046875 -0.78125 -0.140625 -1.4375q-0.1875 -0.65625 -0.59375 -1.125q-0.390625 -0.46875 -0.984375 -0.71875q-0.578125 -0.265625 -1.34375 -0.265625q-0.671875 0 -1.21875 0.265625q-0.546875 0.25 -0.953125 0.71875q-0.390625 0.46875 -0.640625 1.125q-0.25 0.65625 -0.3125 1.4375l6.1875 0zm5.3828125 -4.96875l1.8125 0l0.09375 1.890625q0.515625 -0.609375 0.984375 -1.0q0.484375 -0.40625 0.9375 -0.65625q0.46875 -0.25 0.953125 -0.34375q0.484375 -0.109375 1.0 -0.109375q1.8125 0 2.734375 1.078125q0.9375 1.078125 0.9375 3.234375l0 7.671875l-2.03125 0l0 -7.515625q0 -1.375 -0.515625 -2.03125q-0.515625 -0.671875 -1.53125 -0.671875q-0.375 0 -0.734375 0.109375q-0.359375 0.109375 -0.75 0.390625q-0.390625 0.265625 -0.84375 0.734375q-0.4375 0.46875 -1.0 1.171875l0 7.8125l-2.046875 0l0 -11.765625zm24.523438 16.578125l-13.203125 0l0 -1.6875l13.203125 0l0 1.6875zm5.8828125 -14.890625l-3.484375 0l0 -1.6875l5.546875 0l0 10.0625l3.5 0l0 1.703125l-9.4375 0l0 -1.703125l3.875 0l0 -8.375zm0.703125 -6.625q0.34375 0 0.640625 0.125q0.296875 0.125 0.5 0.34375q0.21875 0.21875 0.34375 0.515625q0.125 0.28125 0.125 0.625q0 0.328125 -0.125 0.625q-0.125 0.28125 -0.34375 0.515625q-0.203125 0.21875 -0.5 0.34375q-0.296875 0.125 -0.640625 0.125q-0.328125 0 -0.625 -0.125q-0.296875 -0.125 -0.515625 -0.34375q-0.21875 -0.234375 -0.34375 -0.515625q-0.109375 -0.296875 -0.109375 -0.625q0 -0.34375 0.109375 -0.625q0.125 -0.296875 0.34375 -0.515625q0.21875 -0.21875 0.515625 -0.34375q0.296875 -0.125 0.625 -0.125zm7.8828125 11.0625q0 -1.5 0.40625 -2.65625q0.40625 -1.171875 1.15625 -1.96875q0.765625 -0.8125 1.828125 -1.21875q1.0625 -0.421875 2.359375 -0.421875q0.5625 0 1.109375 0.078125q0.546875 0.0625 1.078125 0.21875l0 -4.953125l2.046875 0l0 16.5625l-1.828125 0l-0.078125 -2.234375q-0.84375 1.25 -1.84375 1.859375q-1.0 0.59375 -2.15625 0.59375q-1.015625 0 -1.78125 -0.421875q-0.765625 -0.4375 -1.28125 -1.203125q-0.5 -0.765625 -0.765625 -1.84375q-0.25 -1.078125 -0.25 -2.390625zm2.078125 -0.125q0 2.125 0.625 3.1875q0.640625 1.046875 1.78125 1.046875q0.78125 0 1.640625 -0.6875q0.859375 -0.703125 1.8125 -2.0625l0 -5.453125q-0.515625 -0.234375 -1.125 -0.359375q-0.609375 -0.125 -1.203125 -0.125q-1.65625 0 -2.59375 1.078125q-0.9375 1.078125 -0.9375 3.375z" fill-rule="nonzero"/><path fill="#0070c0" d="m640.0 422.2205l211.30707 0l0 67.18109l-211.30707 0z" fill-rule="evenodd"/><path stroke="#000000" stroke-width="1.3333333333333333" stroke-miterlimit="800.0" stroke-linecap="butt" d="m640.0 422.2205l211.30707 0l0 67.18109l-211.30707 0z" fill-rule="evenodd"/><path fill="#ffffff" d="m664.6145 464.35104l-1.828125 0l-0.0625 -1.90625q-0.53125 0.609375 -1.015625 1.015625q-0.46875 0.40625 -0.9375 0.65625q-0.46875 0.25 -0.9375 0.34375q-0.46875 0.109375 -1.0 0.109375q-1.8125 0 -2.75 -1.0625q-0.921875 -1.078125 -0.921875 -3.234375l0 -7.6875l2.046875 0l0 7.515625q0 2.71875 2.03125 2.71875q0.375 0 0.734375 -0.109375q0.359375 -0.125 0.75 -0.390625q0.390625 -0.28125 0.84375 -0.75q0.453125 -0.46875 1.015625 -1.1875l0 -7.796875l2.03125 0l0 11.765625zm13.5546875 0l-9.625 0l0 -1.90625l3.9375 0l0 -11.171875l-3.671875 1.984375l-0.75 -1.734375l4.875 -2.5625l1.8125 0l0 13.484375l3.421875 0l0 1.90625zm13.5078125 -4.859375q0 1.0625 -0.390625 1.984375q-0.375 0.921875 -1.078125 1.609375q-0.703125 0.6875 -1.6875 1.09375q-0.984375 0.390625 -2.203125 0.390625q-1.265625 0 -2.234375 -0.40625q-0.96875 -0.40625 -1.625 -1.25q-0.65625 -0.84375 -1.0 -2.109375q-0.34375 -1.28125 -0.34375 -3.03125q0 -1.171875 0.15625 -2.265625q0.15625 -1.109375 0.5 -2.078125q0.359375 -0.96875 0.9375 -1.78125q0.59375 -0.8125 1.46875 -1.390625q0.875 -0.578125 2.046875 -0.890625q1.1875 -0.328125 2.75 -0.328125l1.515625 0l0 1.78125l-1.640625 0q-1.375 0 -2.390625 0.328125q-1.0 0.328125 -1.6875 0.921875q-0.671875 0.59375 -1.046875 1.4375q-0.359375 0.84375 -0.453125 1.890625l-0.046875 0.484375q0.75 -0.4375 1.703125 -0.703125q0.96875 -0.265625 2.09375 -0.265625q1.171875 0 2.03125 0.34375q0.875 0.34375 1.453125 0.953125q0.59375 0.59375 0.875 1.4375q0.296875 0.84375 0.296875 1.84375zm-2.125 0.140625q0 -0.703125 -0.171875 -1.265625q-0.171875 -0.578125 -0.546875 -0.96875q-0.359375 -0.390625 -0.921875 -0.609375q-0.546875 -0.21875 -1.3125 -0.21875q-0.453125 0 -0.90625 0.078125q-0.453125 0.078125 -0.90625 0.234375q-0.4375 0.140625 -0.84375 0.328125q-0.390625 0.1875 -0.71875 0.40625q0 1.5 0.203125 2.515625q0.21875 1.015625 0.640625 1.625q0.421875 0.609375 1.03125 0.875q0.609375 0.25 1.40625 0.25q0.65625 0 1.21875 -0.21875q0.5625 -0.21875 0.953125 -0.640625q0.40625 -0.421875 0.640625 -1.015625q0.234375 -0.609375 0.234375 -1.375zm27.875 4.546875q-0.6875 0.1875 -1.4375 0.265625q-0.734375 0.078125 -1.5 0.078125q-2.203125 0 -3.296875 -1.0q-1.09375 -1.015625 -1.09375 -3.09375l0 -6.140625l-3.296875 0l0 -1.703125l3.296875 0l0 -3.234375l2.046875 -0.53125l0 3.765625l5.28125 0l0 1.703125l-5.28125 0l0 5.984375q0 1.265625 0.671875 1.890625q0.671875 0.625 1.984375 0.625q0.5625 0 1.21875 -0.078125q0.671875 -0.09375 1.40625 -0.28125l0 1.75zm13.9609375 -5.8125q0 1.375 -0.390625 2.515625q-0.390625 1.140625 -1.125 1.96875q-0.71875 0.8125 -1.765625 1.265625q-1.03125 0.453125 -2.359375 0.453125q-1.265625 0 -2.265625 -0.390625q-1.0 -0.40625 -1.703125 -1.15625q-0.703125 -0.765625 -1.078125 -1.890625q-0.359375 -1.125 -0.359375 -2.59375q0 -1.375 0.390625 -2.5q0.390625 -1.140625 1.109375 -1.953125q0.734375 -0.8125 1.765625 -1.265625q1.046875 -0.453125 2.375 -0.453125q1.265625 0 2.265625 0.40625q1.0 0.390625 1.6875 1.140625q0.703125 0.75 1.078125 1.875q0.375 1.125 0.375 2.578125zm-2.09375 0.09375q0 -1.078125 -0.25 -1.890625q-0.234375 -0.828125 -0.6875 -1.359375q-0.4375 -0.546875 -1.078125 -0.828125q-0.625 -0.28125 -1.421875 -0.28125q-0.90625 0 -1.5625 0.359375q-0.640625 0.359375 -1.0625 0.96875q-0.421875 0.59375 -0.609375 1.390625q-0.1875 0.78125 -0.1875 1.640625q0 1.09375 0.234375 1.921875q0.234375 0.8125 0.671875 1.359375q0.453125 0.546875 1.078125 0.828125q0.640625 0.265625 1.4375 0.265625q0.921875 0 1.5625 -0.359375q0.65625 -0.359375 1.0625 -0.953125q0.421875 -0.59375 0.609375 -1.375q0.203125 -0.796875 0.203125 -1.6875zm15.6171875 5.890625l-2.796875 0l-5.484375 -6.3125l0 6.3125l-2.03125 0l0 -16.5625l2.03125 0l0 10.171875l5.28125 -5.375l2.703125 0l-5.515625 5.421875l5.8125 6.34375zm12.5546875 -6.5q0 0.421875 -0.015625 0.71875q0 0.296875 -0.03125 0.546875l-8.265625 0q0 1.8125 1.0 2.78125q1.015625 0.96875 2.921875 0.96875q0.515625 0 1.03125 -0.046875q0.515625 -0.046875 0.984375 -0.109375q0.484375 -0.078125 0.921875 -0.15625q0.453125 -0.09375 0.828125 -0.203125l0 1.6875q-0.84375 0.234375 -1.890625 0.375q-1.046875 0.15625 -2.171875 0.15625q-1.515625 0 -2.609375 -0.40625q-1.078125 -0.421875 -1.78125 -1.203125q-0.6875 -0.78125 -1.03125 -1.90625q-0.328125 -1.140625 -0.328125 -2.5625q0 -1.25 0.359375 -2.34375q0.359375 -1.109375 1.03125 -1.953125q0.6875 -0.84375 1.6875 -1.328125q1.0 -0.5 2.265625 -0.5q1.234375 0 2.171875 0.390625q0.953125 0.390625 1.59375 1.109375q0.65625 0.703125 0.984375 1.71875q0.34375 1.0 0.34375 2.265625zm-2.125 -0.296875q0.046875 -0.78125 -0.140625 -1.4375q-0.1875 -0.65625 -0.59375 -1.125q-0.390625 -0.46875 -0.984375 -0.71875q-0.578125 -0.265625 -1.34375 -0.265625q-0.671875 0 -1.21875 0.265625q-0.546875 0.25 -0.953125 0.71875q-0.390625 0.46875 -0.640625 1.125q-0.25 0.65625 -0.3125 1.4375l6.1875 0zm5.3828125 -4.96875l1.8125 0l0.09375 1.890625q0.515625 -0.609375 0.984375 -1.0q0.484375 -0.40625 0.9375 -0.65625q0.46875 -0.25 0.953125 -0.34375q0.484375 -0.109375 1.0 -0.109375q1.8125 0 2.734375 1.078125q0.9375 1.078125 0.9375 3.234375l0 7.671875l-2.03125 0l0 -7.515625q0 -1.375 -0.515625 -2.03125q-0.515625 -0.671875 -1.53125 -0.671875q-0.375 0 -0.734375 0.109375q-0.359375 0.109375 -0.75 0.390625q-0.390625 0.265625 -0.84375 0.734375q-0.4375 0.46875 -1.0 1.171875l0 7.8125l-2.046875 0l0 -11.765625zm24.523438 16.578125l-13.203125 0l0 -1.6875l13.203125 0l0 1.6875zm11.1796875 -8.03125q0 0.625 -0.21875 1.125q-0.203125 0.484375 -0.5625 0.875q-0.359375 0.375 -0.84375 0.640625q-0.484375 0.265625 -1.03125 0.453125q-0.53125 0.171875 -1.109375 0.25q-0.578125 0.09375 -1.125 0.09375q-1.203125 0 -2.203125 -0.109375q-1.0 -0.109375 -1.953125 -0.34375l0 -1.875q1.03125 0.296875 2.046875 0.453125q1.015625 0.140625 2.03125 0.140625q1.453125 0 2.15625 -0.390625q0.703125 -0.40625 0.703125 -1.140625q0 -0.3125 -0.109375 -0.5625q-0.109375 -0.265625 -0.40625 -0.484375q-0.28125 -0.234375 -0.90625 -0.46875q-0.609375 -0.25 -1.671875 -0.578125q-0.796875 -0.234375 -1.484375 -0.53125q-0.671875 -0.296875 -1.171875 -0.703125q-0.484375 -0.40625 -0.765625 -0.953125q-0.28125 -0.5625 -0.28125 -1.3125q0 -0.484375 0.234375 -1.0625q0.234375 -0.59375 0.78125 -1.09375q0.546875 -0.515625 1.484375 -0.84375q0.9375 -0.34375 2.34375 -0.34375q0.6875 0 1.53125 0.078125q0.84375 0.078125 1.765625 0.265625l0 1.8125q-0.96875 -0.234375 -1.828125 -0.34375q-0.859375 -0.109375 -1.484375 -0.109375q-0.765625 0 -1.296875 0.125q-0.515625 0.109375 -0.84375 0.3125q-0.3125 0.203125 -0.453125 0.484375q-0.140625 0.28125 -0.140625 0.59375q0 0.3125 0.125 0.578125q0.125 0.25 0.453125 0.5q0.328125 0.234375 0.921875 0.484375q0.609375 0.234375 1.5625 0.515625q1.046875 0.296875 1.765625 0.640625q0.71875 0.328125 1.15625 0.734375q0.453125 0.40625 0.640625 0.921875q0.1875 0.515625 0.1875 1.171875zm7.8984375 -6.859375l-3.484375 0l0 -1.6875l5.546875 0l0 10.0625l3.5 0l0 1.703125l-9.4375 0l0 -1.703125l3.875 0l0 -8.375zm0.703125 -6.625q0.34375 0 0.640625 0.125q0.296875 0.125 0.5 0.34375q0.21875 0.21875 0.34375 0.515625q0.125 0.28125 0.125 0.625q0 0.328125 -0.125 0.625q-0.125 0.28125 -0.34375 0.515625q-0.203125 0.21875 -0.5 0.34375q-0.296875 0.125 -0.640625 0.125q-0.328125 0 -0.625 -0.125q-0.296875 -0.125 -0.515625 -0.34375q-0.21875 -0.234375 -0.34375 -0.515625q-0.109375 -0.296875 -0.109375 -0.625q0 -0.34375 0.109375 -0.625q0.125 -0.296875 0.34375 -0.515625q0.21875 -0.21875 0.515625 -0.34375q0.296875 -0.125 0.625 -0.125zm18.007812 16.703125l-9.484375 0l0 -1.46875l6.640625 -8.59375l-6.46875 0l0 -1.703125l8.921875 0l0 1.59375l-6.53125 8.453125l6.921875 0l0 1.71875zm13.6015625 -6.5q0 0.421875 -0.015625 0.71875q0 0.296875 -0.03125 0.546875l-8.265625 0q0 1.8125 1.0 2.78125q1.015625 0.96875 2.921875 0.96875q0.515625 0 1.03125 -0.046875q0.515625 -0.046875 0.984375 -0.109375q0.484375 -0.078125 0.921875 -0.15625q0.453125 -0.09375 0.828125 -0.203125l0 1.6875q-0.84375 0.234375 -1.890625 0.375q-1.046875 0.15625 -2.171875 0.15625q-1.515625 0 -2.609375 -0.40625q-1.078125 -0.421875 -1.78125 -1.203125q-0.6875 -0.78125 -1.03125 -1.90625q-0.328125 -1.140625 -0.328125 -2.5625q0 -1.25 0.359375 -2.34375q0.359375 -1.109375 1.03125 -1.953125q0.6875 -0.84375 1.6875 -1.328125q1.0 -0.5 2.265625 -0.5q1.234375 0 2.171875 0.390625q0.953125 0.390625 1.59375 1.109375q0.65625 0.703125 0.984375 1.71875q0.34375 1.0 0.34375 2.265625zm-2.125 -0.296875q0.046875 -0.78125 -0.140625 -1.4375q-0.1875 -0.65625 -0.59375 -1.125q-0.390625 -0.46875 -0.984375 -0.71875q-0.578125 -0.265625 -1.34375 -0.265625q-0.671875 0 -1.21875 0.265625q-0.546875 0.25 -0.953125 0.71875q-0.390625 0.46875 -0.640625 1.125q-0.25 0.65625 -0.3125 1.4375l6.1875 0z" fill-rule="nonzero"/><path fill="#85200c" d="m428.6929 489.40158l422.61417 0l0 67.18112l-422.61417 0z" fill-rule="evenodd"/><path stroke="#000000" stroke-width="1.3333333333333333" stroke-miterlimit="800.0" stroke-linecap="butt" d="m428.6929 489.40158l422.61417 0l0 67.18112l-422.61417 0z" fill-rule="evenodd"/><path fill="#ffffff" d="m578.7539 531.5321l-1.828125 0l-0.0625 -1.90625q-0.53125 0.609375 -1.015625 1.015625q-0.46875 0.40625 -0.9375 0.65625q-0.46875 0.25 -0.9375 0.34375q-0.46875 0.109375 -1.0 0.109375q-1.8125 0 -2.75 -1.0625q-0.921875 -1.078125 -0.921875 -3.234375l0 -7.6875l2.046875 0l0 7.515625q0 2.71875 2.03125 2.71875q0.375 0 0.734375 -0.109375q0.359375 -0.125 0.75 -0.390625q0.390625 -0.28125 0.84375 -0.75q0.453125 -0.46875 1.015625 -1.1875l0 -7.796875l2.03125 0l0 11.765625zm13.3828125 -4.65625q0 1.015625 -0.40625 1.90625q-0.40625 0.875 -1.234375 1.546875q-0.8125 0.65625 -2.0625 1.046875q-1.234375 0.375 -2.890625 0.375q-0.90625 0 -1.640625 -0.0625q-0.71875 -0.0625 -1.359375 -0.15625l0 -1.828125q0.734375 0.125 1.53125 0.203125q0.8125 0.0625 1.65625 0.0625q1.15625 0 1.96875 -0.203125q0.8125 -0.203125 1.328125 -0.59375q0.515625 -0.390625 0.75 -0.9375q0.234375 -0.546875 0.234375 -1.234375q0 -0.640625 -0.28125 -1.109375q-0.28125 -0.46875 -0.796875 -0.78125q-0.5 -0.3125 -1.21875 -0.46875q-0.703125 -0.171875 -1.546875 -0.171875l-1.75 0l0 -1.671875l1.765625 0q0.703125 0 1.265625 -0.171875q0.5625 -0.1875 0.96875 -0.53125q0.40625 -0.34375 0.625 -0.828125q0.21875 -0.5 0.21875 -1.140625q0 -1.234375 -0.75 -1.796875q-0.75 -0.5625 -2.203125 -0.5625q-0.78125 0 -1.609375 0.15625q-0.8125 0.15625 -1.75 0.453125l0 -1.78125q0.40625 -0.140625 0.859375 -0.25q0.453125 -0.109375 0.890625 -0.1875q0.453125 -0.078125 0.890625 -0.109375q0.453125 -0.046875 0.875 -0.046875q1.21875 0 2.140625 0.265625q0.921875 0.265625 1.546875 0.765625q0.625 0.484375 0.9375 1.1875q0.3125 0.703125 0.3125 1.578125q0 1.3125 -0.671875 2.203125q-0.671875 0.890625 -1.84375 1.421875q0.59375 0.09375 1.171875 0.375q0.578125 0.28125 1.046875 0.71875q0.46875 0.4375 0.75 1.046875q0.28125 0.59375 0.28125 1.3125zm13.4921875 4.65625l-10.09375 0l0 -1.828125l3.96875 -3.9375q0.96875 -0.96875 1.578125 -1.671875q0.609375 -0.703125 0.953125 -1.28125q0.34375 -0.578125 0.453125 -1.09375q0.125 -0.515625 0.125 -1.109375q0 -0.5625 -0.15625 -1.0625q-0.15625 -0.515625 -0.46875 -0.90625q-0.3125 -0.390625 -0.828125 -0.609375q-0.5 -0.21875 -1.203125 -0.21875q-0.96875 0 -1.765625 0.4375q-0.796875 0.421875 -1.46875 1.109375l-1.125 -1.34375q0.875 -0.90625 2.0 -1.453125q1.125 -0.5625 2.625 -0.5625q1.03125 0 1.859375 0.3125q0.84375 0.296875 1.453125 0.875q0.609375 0.578125 0.9375 1.40625q0.34375 0.828125 0.34375 1.875q0 0.875 -0.234375 1.625q-0.234375 0.75 -0.71875 1.5q-0.46875 0.734375 -1.1875 1.53125q-0.71875 0.796875 -1.703125 1.75l-2.78125 2.703125l7.4375 0l0 1.953125zm15.859375 -5.640625q0 -1.5 0.40625 -2.65625q0.40625 -1.171875 1.15625 -1.96875q0.765625 -0.8125 1.828125 -1.21875q1.0625 -0.421875 2.359375 -0.421875q0.5625 0 1.109375 0.078125q0.546875 0.0625 1.078125 0.21875l0 -4.953125l2.046875 0l0 16.5625l-1.828125 0l-0.078125 -2.234375q-0.84375 1.25 -1.84375 1.859375q-1.0 0.59375 -2.15625 0.59375q-1.015625 0 -1.78125 -0.421875q-0.765625 -0.4375 -1.28125 -1.203125q-0.5 -0.765625 -0.765625 -1.84375q-0.25 -1.078125 -0.25 -2.390625zm2.078125 -0.125q0 2.125 0.625 3.1875q0.640625 1.046875 1.78125 1.046875q0.78125 0 1.640625 -0.6875q0.859375 -0.703125 1.8125 -2.0625l0 -5.453125q-0.515625 -0.234375 -1.125 -0.359375q-0.609375 -0.125 -1.203125 -0.125q-1.65625 0 -2.59375 1.078125q-0.9375 1.078125 -0.9375 3.375zm21.773438 -0.328125q0 1.46875 -0.40625 2.625q-0.40625 1.140625 -1.15625 1.953125q-0.734375 0.796875 -1.8125 1.234375q-1.0625 0.421875 -2.390625 0.421875q-1.046875 0 -2.140625 -0.203125q-1.09375 -0.203125 -2.15625 -0.625l0 -15.875l2.046875 0l0 4.5625l-0.09375 2.171875q0.875 -1.171875 1.875 -1.65625q1.0 -0.5 2.15625 -0.5q1.0 0 1.765625 0.421875q0.765625 0.421875 1.28125 1.203125q0.515625 0.765625 0.765625 1.84375q0.265625 1.078125 0.265625 2.421875zm-2.09375 0.09375q0 -0.921875 -0.140625 -1.6875q-0.125 -0.78125 -0.421875 -1.328125q-0.296875 -0.5625 -0.75 -0.875q-0.453125 -0.3125 -1.09375 -0.3125q-0.375 0 -0.78125 0.125q-0.390625 0.125 -0.828125 0.421875q-0.421875 0.28125 -0.90625 0.765625q-0.46875 0.46875 -1.0 1.171875l0 5.703125q0.59375 0.234375 1.203125 0.375q0.625 0.125 1.1875 0.125q0.703125 0 1.34375 -0.21875q0.640625 -0.21875 1.125 -0.734375q0.484375 -0.53125 0.765625 -1.390625q0.296875 -0.859375 0.296875 -2.140625zm15.5234375 -1.65625q0 1.765625 -0.359375 3.21875q-0.34375 1.4375 -1.0625 2.484375q-0.71875 1.03125 -1.78125 1.609375q-1.0625 0.5625 -2.484375 0.5625q-1.234375 0 -2.25 -0.46875q-1.0 -0.46875 -1.71875 -1.421875q-0.703125 -0.96875 -1.09375 -2.453125q-0.390625 -1.484375 -0.390625 -3.53125q0 -1.75 0.359375 -3.203125q0.359375 -1.453125 1.0625 -2.484375q0.71875 -1.046875 1.78125 -1.609375q1.0625 -0.578125 2.484375 -0.578125q1.234375 0 2.234375 0.46875q1.015625 0.453125 1.71875 1.421875q0.71875 0.96875 1.109375 2.46875q0.390625 1.484375 0.390625 3.515625zm-2.0625 0.078125q0 -0.40625 -0.03125 -0.796875q-0.03125 -0.390625 -0.0625 -0.765625l-6.484375 4.8125q0.171875 0.609375 0.4375 1.125q0.28125 0.515625 0.65625 0.890625q0.375 0.359375 0.859375 0.578125q0.5 0.203125 1.109375 0.203125q0.796875 0 1.453125 -0.390625q0.65625 -0.390625 1.109375 -1.140625q0.453125 -0.765625 0.703125 -1.890625q0.25 -1.140625 0.25 -2.625zm-7.015625 -0.140625q0 0.359375 0 0.71875q0.015625 0.359375 0.046875 0.703125l6.484375 -4.796875q-0.171875 -0.59375 -0.453125 -1.078125q-0.265625 -0.5 -0.640625 -0.859375q-0.375 -0.359375 -0.859375 -0.546875q-0.46875 -0.203125 -1.078125 -0.203125q-0.796875 0 -1.453125 0.390625q-0.640625 0.375 -1.09375 1.15625q-0.453125 0.765625 -0.703125 1.890625q-0.25 1.125 -0.25 2.625zm23.304688 12.53125l-13.203125 0l0 -1.6875l13.203125 0l0 1.6875zm12.1171875 -10.796875q0 1.375 -0.390625 2.515625q-0.390625 1.140625 -1.125 1.96875q-0.71875 0.8125 -1.765625 1.265625q-1.03125 0.453125 -2.359375 0.453125q-1.265625 0 -2.265625 -0.390625q-1.0 -0.40625 -1.703125 -1.15625q-0.703125 -0.765625 -1.078125 -1.890625q-0.359375 -1.125 -0.359375 -2.59375q0 -1.375 0.390625 -2.5q0.390625 -1.140625 1.109375 -1.953125q0.734375 -0.8125 1.765625 -1.265625q1.046875 -0.453125 2.375 -0.453125q1.265625 0 2.265625 0.40625q1.0 0.390625 1.6875 1.140625q0.703125 0.75 1.078125 1.875q0.375 1.125 0.375 2.578125zm-2.09375 0.09375q0 -1.078125 -0.25 -1.890625q-0.234375 -0.828125 -0.6875 -1.359375q-0.4375 -0.546875 -1.078125 -0.828125q-0.625 -0.28125 -1.421875 -0.28125q-0.90625 0 -1.5625 0.359375q-0.640625 0.359375 -1.0625 0.96875q-0.421875 0.59375 -0.609375 1.390625q-0.1875 0.78125 -0.1875 1.640625q0 1.09375 0.234375 1.921875q0.234375 0.8125 0.671875 1.359375q0.453125 0.546875 1.078125 0.828125q0.640625 0.265625 1.4375 0.265625q0.921875 0 1.5625 -0.359375q0.65625 -0.359375 1.0625 -0.953125q0.421875 -0.59375 0.609375 -1.375q0.203125 -0.796875 0.203125 -1.6875zm15.4765625 -8.765625q-1.59375 -0.34375 -2.765625 -0.34375q-2.75 0 -2.75 2.875l0 2.0625l5.15625 0l0 1.703125l-5.15625 0l0 8.359375l-2.078125 0l0 -8.359375l-3.78125 0l0 -1.703125l3.78125 0l0 -1.9375q0 -4.703125 4.90625 -4.703125q1.21875 0 2.6875 0.28125l0 1.765625zm-12.3125 2.890625l0 0zm25.507812 -2.890625q-1.59375 -0.34375 -2.765625 -0.34375q-2.75 0 -2.75 2.875l0 2.0625l5.15625 0l0 1.703125l-5.15625 0l0 8.359375l-2.078125 0l0 -8.359375l-3.78125 0l0 -1.703125l3.78125 0l0 -1.9375q0 -4.703125 4.90625 -4.703125q1.21875 0 2.6875 0.28125l0 1.765625zm-12.3125 2.890625l0 0z" fill-rule="nonzero"/><path fill="#888888" d="m428.6929 556.5827l422.61417 0l0 62.58264l-422.61417 0z" fill-rule="evenodd"/><path stroke="#000000" stroke-width="1.3333333333333333" stroke-miterlimit="800.0" stroke-linecap="butt" d="m428.6929 556.5827l422.61417 0l0 62.58264l-422.61417 0z" fill-rule="evenodd"/><path fill="#ffffff" d="m626.70703 592.7265q0.40625 0 0.765625 0.15625q0.359375 0.140625 0.609375 0.421875q0.265625 0.265625 0.421875 0.625q0.15625 0.34375 0.15625 0.765625q0 0.390625 -0.15625 0.75q-0.15625 0.34375 -0.421875 0.609375q-0.25 0.265625 -0.609375 0.421875q-0.359375 0.15625 -0.765625 0.15625q-0.40625 0 -0.765625 -0.15625q-0.34375 -0.15625 -0.609375 -0.421875q-0.265625 -0.265625 -0.421875 -0.609375q-0.140625 -0.359375 -0.140625 -0.75q0 -0.421875 0.140625 -0.765625q0.15625 -0.359375 0.421875 -0.625q0.265625 -0.28125 0.609375 -0.421875q0.359375 -0.15625 0.765625 -0.15625zm13.1953125 0q0.40625 0 0.765625 0.15625q0.359375 0.140625 0.609375 0.421875q0.265625 0.265625 0.421875 0.625q0.15625 0.34375 0.15625 0.765625q0 0.390625 -0.15625 0.75q-0.15625 0.34375 -0.421875 0.609375q-0.25 0.265625 -0.609375 0.421875q-0.359375 0.15625 -0.765625 0.15625q-0.40625 0 -0.765625 -0.15625q-0.34375 -0.15625 -0.609375 -0.421875q-0.265625 -0.265625 -0.421875 -0.609375q-0.140625 -0.359375 -0.140625 -0.75q0 -0.421875 0.140625 -0.765625q0.15625 -0.359375 0.421875 -0.625q0.265625 -0.28125 0.609375 -0.421875q0.359375 -0.15625 0.765625 -0.15625zm13.1953125 0q0.40625 0 0.765625 0.15625q0.359375 0.140625 0.609375 0.421875q0.265625 0.265625 0.421875 0.625q0.15625 0.34375 0.15625 0.765625q0 0.390625 -0.15625 0.75q-0.15625 0.34375 -0.421875 0.609375q-0.25 0.265625 -0.609375 0.421875q-0.359375 0.15625 -0.765625 0.15625q-0.40625 0 -0.765625 -0.15625q-0.34375 -0.15625 -0.609375 -0.421875q-0.265625 -0.265625 -0.421875 -0.609375q-0.140625 -0.359375 -0.140625 -0.75q0 -0.421875 0.140625 -0.765625q0.15625 -0.359375 0.421875 -0.625q0.265625 -0.28125 0.609375 -0.421875q0.359375 -0.15625 0.765625 -0.15625z" fill-rule="nonzero"/></g></svg>
