<svg version="1.1" viewBox="110.0 160.0 1050.0 420.0" fill="none" stroke="none" stroke-linecap="square" stroke-miterlimit="10" xmlns:xlink="http://www.w3.org/1999/xlink" xmlns="http://www.w3.org/2000/svg"><clipPath id="gf8932d7e54_0_81.0"><path d="m0 0l1280.0 0l0 720.0l-1280.0 0l0 -720.0z" clip-rule="nonzero"/></clipPath><g clip-path="url(#gf8932d7e54_0_81.0)"><path fill="#000000" fill-opacity="0.0" d="m177.22572 245.31233l102.61418 0l0 46.866135l-102.61418 0z" fill-rule="evenodd"/><path fill="#ffffff" d="m197.4601 266.04108q0 0.875 -0.328125 1.75q-0.328125 0.875 -1.03125 1.5625q-0.6875 0.671875 -1.78125 1.109375q-1.078125 0.421875 -2.578125 0.421875l-1.796875 0l0 5.1875l-1.96875 0l0 -14.453125l4.0625 0q1.078125 0 2.0625 0.234375q0.984375 0.234375 1.734375 0.765625q0.75 0.53125 1.1875 1.375q0.4375 0.84375 0.4375 2.046875zm-2.046875 0.09375q0 -1.40625 -0.90625 -2.140625q-0.90625 -0.75 -2.546875 -0.75l-2.015625 0l0 5.953125l1.828125 0q1.75 0 2.6875 -0.75q0.953125 -0.765625 0.953125 -2.3125zm14.706512 4.296875q0 1.296875 -0.375 2.375q-0.359375 1.078125 -1.046875 1.84375q-0.671875 0.765625 -1.65625 1.203125q-0.984375 0.421875 -2.234375 0.421875q-1.203125 0 -2.15625 -0.375q-0.9375 -0.375 -1.59375 -1.09375q-0.65625 -0.71875 -1.015625 -1.78125q-0.34375 -1.0625 -0.34375 -2.4375q0 -1.296875 0.359375 -2.359375q0.375 -1.078125 1.0625 -1.84375q0.6875 -0.765625 1.671875 -1.1875q0.984375 -0.4375 2.234375 -0.4375q1.1875 0 2.125 0.375q0.953125 0.375 1.609375 1.09375q0.65625 0.703125 1.0 1.765625q0.359375 1.0625 0.359375 2.4375zm-1.96875 0.09375q0 -1.03125 -0.234375 -1.796875q-0.21875 -0.78125 -0.640625 -1.296875q-0.421875 -0.515625 -1.03125 -0.765625q-0.59375 -0.265625 -1.328125 -0.265625q-0.875 0 -1.484375 0.34375q-0.609375 0.328125 -1.0 0.90625q-0.390625 0.5625 -0.578125 1.3125q-0.1875 0.734375 -0.1875 1.5625q0 1.015625 0.21875 1.796875q0.234375 0.78125 0.65625 1.296875q0.421875 0.5 1.015625 0.765625q0.59375 0.265625 1.359375 0.265625q0.859375 0 1.46875 -0.34375q0.609375 -0.34375 1.0 -0.90625q0.40625 -0.5625 0.578125 -1.296875q0.1875 -0.75 0.1875 -1.578125zm5.2065125 -5.5625l1.765625 0l0.046875 2.046875q0.984375 -1.1875 1.9375 -1.71875q0.96875 -0.53125 1.9375 -0.53125q1.734375 0 2.625 1.125q0.890625 1.109375 0.8125 3.3125l-1.9375 0q0.03125 -1.453125 -0.4375 -2.109375q-0.453125 -0.65625 -1.328125 -0.65625q-0.390625 0 -0.796875 0.140625q-0.390625 0.125 -0.8125 0.4375q-0.40625 0.296875 -0.875 0.78125q-0.453125 0.46875 -0.984375 1.140625l0 7.140625l-1.953125 0l0 -11.109375zm20.956512 10.953125q-0.65625 0.171875 -1.359375 0.234375q-0.6875 0.078125 -1.40625 0.078125q-2.09375 0 -3.125 -0.9375q-1.015625 -0.953125 -1.015625 -2.90625l0 -5.796875l-3.109375 0l0 -1.625l3.109375 0l0 -3.046875l1.921875 -0.5l0 3.546875l4.984375 0l0 1.625l-4.984375 0l0 5.640625q0 1.1875 0.625 1.78125q0.640625 0.59375 1.875 0.59375q0.53125 0 1.15625 -0.078125q0.640625 -0.09375 1.328125 -0.265625l0 1.65625zm25.428635 -4.171875q0 1.046875 -0.40625 1.84375q-0.390625 0.796875 -1.140625 1.359375q-0.75 0.546875 -1.8125 0.84375q-1.0468597 0.28125 -2.3437347 0.28125l-3.78125 0l0 -14.453125l4.140625 0q4.8281097 0 4.8281097 3.515625q0 1.171875 -0.5625 2.015625q-0.546875 0.828125 -1.8125 1.25q0.578125 0.109375 1.109375 0.375q0.53125 0.265625 0.921875 0.6875q0.40625 0.421875 0.625 1.0q0.234375 0.5625 0.234375 1.28125zm-2.5625 -6.34375q0 -0.453125 -0.140625 -0.84375q-0.125 -0.390625 -0.453125 -0.671875q-0.328125 -0.28125 -0.90623474 -0.4375q-0.5625 -0.171875 -1.421875 -0.171875l-2.03125 0l0 4.515625l1.96875 0q0.671875 0 1.21875 -0.140625q0.546875 -0.140625 0.93748474 -0.4375q0.390625 -0.296875 0.609375 -0.75q0.21875 -0.453125 0.21875 -1.0625zm0.484375 6.40625q0 -0.546875 -0.234375 -0.984375q-0.234375 -0.453125 -0.6875 -0.75q-0.4375 -0.3125 -1.0781097 -0.46875q-0.625 -0.171875 -1.421875 -0.171875l-2.015625 0l0 4.984375l2.078125 0q1.6875 0 2.5156097 -0.625q0.84375 -0.640625 0.84375 -1.984375z" fill-rule="nonzero"/><path fill="#70ad47" d="m177.22572 289.47507l330.01575 0l0 108.031494l-330.01575 0z" fill-rule="evenodd"/><path fill="#000000" d="m192.00697 321.68958q0.359375 0 0.671875 0.140625q0.3125 0.125 0.546875 0.375q0.234375 0.234375 0.375 0.5625q0.140625 0.3125 0.140625 0.671875q0 0.359375 -0.140625 0.671875q-0.140625 0.3125 -0.375 0.546875q-0.234375 0.234375 -0.546875 0.359375q-0.3125 0.140625 -0.671875 0.140625q-0.359375 0 -0.671875 -0.140625q-0.3125 -0.125 -0.546875 -0.359375q-0.234375 -0.234375 -0.375 -0.546875q-0.140625 -0.3125 -0.140625 -0.671875q0 -0.359375 0.140625 -0.671875q0.140625 -0.328125 0.375 -0.5625q0.234375 -0.25 0.546875 -0.375q0.3125 -0.140625 0.671875 -0.140625zm11.726303 0q0.359375 0 0.671875 0.140625q0.3125 0.125 0.546875 0.375q0.234375 0.234375 0.375 0.5625q0.140625 0.3125 0.140625 0.671875q0 0.359375 -0.140625 0.671875q-0.140625 0.3125 -0.375 0.546875q-0.234375 0.234375 -0.546875 0.359375q-0.3125 0.140625 -0.671875 0.140625q-0.359375 0 -0.671875 -0.140625q-0.3125 -0.125 -0.546875 -0.359375q-0.234375 -0.234375 -0.375 -0.546875q-0.140625 -0.3125 -0.140625 -0.671875q0 -0.359375 0.140625 -0.671875q0.140625 -0.328125 0.375 -0.5625q0.234375 -0.25 0.546875 -0.375q0.3125 -0.140625 0.671875 -0.140625zm11.726303 0q0.359375 0 0.671875 0.140625q0.3125 0.125 0.546875 0.375q0.234375 0.234375 0.375 0.5625q0.140625 0.3125 0.140625 0.671875q0 0.359375 -0.140625 0.671875q-0.140625 0.3125 -0.375 0.546875q-0.234375 0.234375 -0.546875 0.359375q-0.3125 0.140625 -0.671875 0.140625q-0.359375 0 -0.671875 -0.140625q-0.3125 -0.125 -0.546875 -0.359375q-0.234375 -0.234375 -0.375 -0.546875q-0.140625 -0.3125 -0.140625 -0.671875q0 -0.359375 0.140625 -0.671875q0.140625 -0.328125 0.375 -0.5625q0.234375 -0.25 0.546875 -0.375q0.3125 -0.140625 0.671875 -0.140625z" fill-rule="nonzero"/><path fill="#000000" d="m196.17885 348.11145q0 0.5625 -0.1875 1.0q-0.1875 0.4375 -0.515625 0.78125q-0.328125 0.328125 -0.75 0.578125q-0.421875 0.234375 -0.90625 0.390625q-0.484375 0.15625 -1.0 0.21875q-0.515625 0.078125 -1.0 0.078125q-1.0625 0 -1.953125 -0.09375q-0.890625 -0.09375 -1.75 -0.296875l0 -1.671875q0.921875 0.265625 1.828125 0.40625q0.90625 0.125 1.796875 0.125q1.3125 0 1.9375 -0.34375q0.625 -0.359375 0.625 -1.015625q0 -0.28125 -0.109375 -0.5q-0.09375 -0.234375 -0.359375 -0.4375q-0.25 -0.203125 -0.796875 -0.421875q-0.546875 -0.21875 -1.5 -0.5q-0.703125 -0.203125 -1.3125 -0.46875q-0.59375 -0.265625 -1.03125 -0.625q-0.4375 -0.375 -0.6875 -0.859375q-0.25 -0.5 -0.25 -1.15625q0 -0.4375 0.203125 -0.953125q0.203125 -0.53125 0.6875 -0.96875q0.5 -0.453125 1.328125 -0.75q0.828125 -0.296875 2.078125 -0.296875q0.625 0 1.375 0.0625q0.75 0.0625 1.5625 0.234375l0 1.609375q-0.859375 -0.203125 -1.625 -0.296875q-0.765625 -0.109375 -1.328125 -0.109375q-0.671875 0 -1.140625 0.109375q-0.46875 0.109375 -0.75 0.296875q-0.28125 0.171875 -0.40625 0.421875q-0.125 0.234375 -0.125 0.515625q0 0.28125 0.109375 0.515625q0.109375 0.234375 0.40625 0.453125q0.296875 0.203125 0.828125 0.421875q0.53125 0.203125 1.375 0.453125q0.9375 0.28125 1.5625 0.578125q0.640625 0.296875 1.03125 0.65625q0.40625 0.359375 0.578125 0.828125q0.171875 0.453125 0.171875 1.03125zm11.866928 2.71875q-0.609375 0.15625 -1.265625 0.21875q-0.65625 0.0625 -1.34375 0.0625q-1.96875 0 -2.9375 -0.890625q-0.96875 -0.890625 -0.96875 -2.734375l0 -5.453125l-2.921875 0l0 -1.515625l2.921875 0l0 -2.875l1.8125 -0.46875l0 3.34375l4.703125 0l0 1.515625l-4.703125 0l0 5.3125q0 1.125 0.59375 1.6875q0.609375 0.546875 1.78125 0.546875q0.5 0 1.09375 -0.078125q0.59375 -0.078125 1.234375 -0.234375l0 1.5625zm3.726303 -10.3125l1.65625 0l0.046875 1.921875q0.9375 -1.109375 1.828125 -1.609375q0.90625 -0.5 1.828125 -0.5q1.625 0 2.453125 1.046875q0.84375 1.046875 0.78125 3.125l-1.828125 0q0.03125 -1.375 -0.40625 -1.984375q-0.4375 -0.625 -1.265625 -0.625q-0.359375 0 -0.734375 0.125q-0.375 0.125 -0.765625 0.421875q-0.390625 0.28125 -0.828125 0.734375q-0.4375 0.4375 -0.9375 1.078125l0 6.71875l-1.828125 0l0 -10.453125zm19.710678 10.453125l-1.625 0l-0.0625 -1.6875q-0.46875 0.546875 -0.890625 0.90625q-0.421875 0.359375 -0.84375 0.578125q-0.421875 0.21875 -0.84375 0.296875q-0.421875 0.09375 -0.890625 0.09375q-1.609375 0 -2.4375 -0.9375q-0.8125 -0.953125 -0.8125 -2.875l0 -6.828125l1.8125 0l0 6.6875q0 2.40625 1.8125 2.40625q0.328125 0 0.640625 -0.09375q0.328125 -0.109375 0.671875 -0.34375q0.34375 -0.25 0.75 -0.671875q0.40625 -0.421875 0.90625 -1.046875l0 -6.9375l1.8125 0l0 10.453125zm11.445053 -0.390625q-0.71875 0.28125 -1.46875 0.40625q-0.734375 0.125 -1.53125 0.125q-2.46875 0 -3.8125 -1.34375q-1.34375 -1.34375 -1.34375 -3.921875q0 -1.234375 0.390625 -2.25q0.390625 -1.015625 1.078125 -1.734375q0.703125 -0.71875 1.671875 -1.109375q0.96875 -0.390625 2.140625 -0.390625q0.8125 0 1.515625 0.125q0.703125 0.109375 1.359375 0.375l0 1.71875q-0.6875 -0.34375 -1.390625 -0.5q-0.703125 -0.171875 -1.453125 -0.171875q-0.6875 0 -1.3125 0.265625q-0.625 0.265625 -1.09375 0.765625q-0.46875 0.5 -0.734375 1.21875q-0.265625 0.71875 -0.265625 1.625q0 1.890625 0.921875 2.84375q0.921875 0.9375 2.546875 0.9375q0.75 0 1.4375 -0.15625q0.6875 -0.171875 1.34375 -0.515625l0 1.6875zm12.023178 0.25q-0.609375 0.15625 -1.265625 0.21875q-0.65625 0.0625 -1.34375 0.0625q-1.96875 0 -2.9375 -0.890625q-0.96875 -0.890625 -0.96875 -2.734375l0 -5.453125l-2.921875 0l0 -1.515625l2.921875 0l0 -2.875l1.8125 -0.46875l0 3.34375l4.703125 0l0 1.515625l-4.703125 0l0 5.3125q0 1.125 0.59375 1.6875q0.609375 0.546875 1.78125 0.546875q0.5 0 1.09375 -0.078125q0.59375 -0.078125 1.234375 -0.234375l0 1.5625zm18.593231 -8.8125l-3.09375 0l0 -1.5l4.921875 0l0 8.9375l3.109375 0l0 1.515625l-8.375 0l0 -1.515625l3.4375 0l0 -7.4375zm0.625 -5.890625q0.3125 0 0.5625 0.109375q0.265625 0.109375 0.453125 0.3125q0.203125 0.203125 0.3125 0.453125q0.109375 0.25 0.109375 0.5625q0 0.28125 -0.109375 0.546875q-0.109375 0.265625 -0.3125 0.46875q-0.1875 0.1875 -0.453125 0.296875q-0.25 0.109375 -0.5625 0.109375q-0.296875 0 -0.5625 -0.109375q-0.25 -0.109375 -0.453125 -0.296875q-0.1875 -0.203125 -0.296875 -0.46875q-0.109375 -0.265625 -0.109375 -0.546875q0 -0.3125 0.109375 -0.5625q0.109375 -0.25 0.296875 -0.453125q0.203125 -0.203125 0.453125 -0.3125q0.265625 -0.109375 0.5625 -0.109375zm16.476288 9.421875q0 1.40625 -0.390625 2.453125q-0.390625 1.03125 -1.078125 1.71875q-0.6875 0.6875 -1.625 1.03125q-0.9375 0.34375 -2.03125 0.34375q-0.5 0 -1.0 -0.0625q-0.5 -0.046875 -1.0 -0.171875l0 4.3749695l-1.8125 0l0 -14.7187195l1.609375 0l0.109375 1.75q0.78125 -1.078125 1.671875 -1.5q0.890625 -0.4375 1.921875 -0.4375q0.890625 0 1.5625 0.375q0.6875 0.375 1.140625 1.0625q0.453125 0.671875 0.6875 1.640625q0.234375 0.953125 0.234375 2.140625zm-1.859375 0.09375q0 -0.828125 -0.125 -1.515625q-0.109375 -0.6875 -0.375 -1.171875q-0.265625 -0.5 -0.671875 -0.765625q-0.40625 -0.28125 -0.96875 -0.28125q-0.34375 0 -0.703125 0.109375q-0.34375 0.109375 -0.734375 0.375q-0.375 0.25 -0.796875 0.671875q-0.421875 0.421875 -0.890625 1.046875l0 5.0625q0.5 0.21875 1.046875 0.34375q0.546875 0.109375 1.078125 0.109375q1.46875 0 2.296875 -0.984375q0.84375 -1.0 0.84375 -3.0zm12.773193 4.9375q-0.71875 0.28125 -1.46875 0.40625q-0.734375 0.125 -1.53125 0.125q-2.46875 0 -3.8125 -1.34375q-1.34375 -1.34375 -1.34375 -3.921875q0 -1.234375 0.390625 -2.25q0.390625 -1.015625 1.078125 -1.734375q0.703125 -0.71875 1.671875 -1.109375q0.96875 -0.390625 2.140625 -0.390625q0.8125 0 1.515625 0.125q0.703125 0.109375 1.359375 0.375l0 1.71875q-0.6875 -0.34375 -1.390625 -0.5q-0.703125 -0.171875 -1.453125 -0.171875q-0.6875 0 -1.3125 0.265625q-0.625 0.265625 -1.09375 0.765625q-0.46875 0.5 -0.734375 1.21875q-0.265625 0.71875 -0.265625 1.625q0 1.890625 0.921875 2.84375q0.921875 0.9375 2.546875 0.9375q0.75 0 1.4375 -0.15625q0.6875 -0.171875 1.34375 -0.515625l0 1.6875zm13.648163 4.6562195l-11.71875 0l0 -1.5l11.71875 0l0 1.5zm11.070068 -4.2655945l-2.484375 0l-4.875 -5.609375l0 5.609375l-1.8125 0l0 -14.71875l1.8125 0l0 9.046875l4.703125 -4.78125l2.390625 0l-4.90625 4.8125l5.171875 5.640625zm9.788788 0l0 -7.515625q0 -0.484375 -0.046875 -0.796875q-0.03125 -0.3125 -0.109375 -0.484375q-0.078125 -0.1875 -0.203125 -0.265625q-0.109375 -0.078125 -0.28125 -0.078125q-0.21875 0 -0.390625 0.125q-0.171875 0.125 -0.375 0.40625q-0.203125 0.28125 -0.453125 0.75q-0.25 0.46875 -0.578125 1.140625l0 6.71875l-1.65625 0l0 -7.3125q0 -0.578125 -0.046875 -0.921875q-0.03125 -0.359375 -0.109375 -0.546875q-0.078125 -0.203125 -0.203125 -0.28125q-0.125 -0.078125 -0.296875 -0.078125q-0.1875 0 -0.359375 0.109375q-0.15625 0.109375 -0.359375 0.375q-0.203125 0.265625 -0.453125 0.734375q-0.25 0.46875 -0.59375 1.203125l0 6.71875l-1.671875 0l0 -10.453125l1.390625 0l0.078125 1.984375q0.265625 -0.59375 0.515625 -1.0q0.265625 -0.421875 0.53125 -0.671875q0.28125 -0.265625 0.578125 -0.375q0.3125 -0.125 0.6875 -0.125q0.84375 0 1.28125 0.546875q0.4375 0.546875 0.4375 1.703125q0.25 -0.53125 0.484375 -0.953125q0.25 -0.421875 0.515625 -0.703125q0.28125 -0.296875 0.609375 -0.4375q0.34375 -0.15625 0.78125 -0.15625q1.953125 0 1.953125 3.03125l0 7.609375l-1.65625 0zm12.554443 -2.859375q0 0.5625 -0.1875 1.0q-0.1875 0.4375 -0.515625 0.78125q-0.328125 0.328125 -0.75 0.578125q-0.421875 0.234375 -0.90625 0.390625q-0.484375 0.15625 -1.0 0.21875q-0.515625 0.078125 -1.0 0.078125q-1.0625 0 -1.953125 -0.09375q-0.890625 -0.09375 -1.75 -0.296875l0 -1.671875q0.921875 0.265625 1.828125 0.40625q0.90625 0.125 1.796875 0.125q1.3125 0 1.9375 -0.34375q0.625 -0.359375 0.625 -1.015625q0 -0.28125 -0.109375 -0.5q-0.09375 -0.234375 -0.359375 -0.4375q-0.25 -0.203125 -0.796875 -0.421875q-0.546875 -0.21875 -1.5 -0.5q-0.703125 -0.203125 -1.3125 -0.46875q-0.59375 -0.265625 -1.03125 -0.625q-0.4375 -0.375 -0.6875 -0.859375q-0.25 -0.5 -0.25 -1.15625q0 -0.4375 0.203125 -0.953125q0.203125 -0.53125 0.6875 -0.96875q0.5 -0.453125 1.328125 -0.75q0.828125 -0.296875 2.078125 -0.296875q0.625 0 1.375 0.0625q0.75 0.0625 1.5625 0.234375l0 1.609375q-0.859375 -0.203125 -1.625 -0.296875q-0.765625 -0.109375 -1.328125 -0.109375q-0.671875 0 -1.140625 0.109375q-0.46875 0.109375 -0.75 0.296875q-0.28125 0.171875 -0.40625 0.421875q-0.125 0.234375 -0.125 0.515625q0 0.28125 0.109375 0.515625q0.109375 0.234375 0.40625 0.453125q0.296875 0.203125 0.828125 0.421875q0.53125 0.203125 1.375 0.453125q0.9375 0.28125 1.5625 0.578125q0.640625 0.296875 1.03125 0.65625q0.40625 0.359375 0.578125 0.828125q0.171875 0.453125 0.171875 1.03125zm10.976288 -6.125q0.28125 0.375 0.4375 0.859375q0.171875 0.484375 0.171875 1.046875q0 0.8125 -0.296875 1.484375q-0.296875 0.671875 -0.84375 1.15625q-0.53125 0.46875 -1.296875 0.734375q-0.75 0.265625 -1.65625 0.265625q-0.65625 0 -1.234375 -0.140625q-0.5625 -0.140625 -0.90625 -0.34375q-0.1875 0.28125 -0.328125 0.546875q-0.140625 0.265625 -0.140625 0.578125q0 0.40625 0.375 0.671875q0.390625 0.25 1.015625 0.265625l2.75 0.109375q0.78125 0.015625 1.4375 0.203125q0.671875 0.171875 1.140625 0.515625q0.46875 0.328125 0.734375 0.8125q0.265625 0.484375 0.265625 1.140625q0 0.6875 -0.296875 1.3125q-0.296875 0.6249695 -0.9375 1.0937195q-0.625 0.484375 -1.59375 0.765625q-0.96875 0.28125 -2.296875 0.28125q-1.28125 0 -2.171875 -0.203125q-0.890625 -0.203125 -1.46875 -0.5625q-0.5625 -0.359375 -0.828125 -0.859375q-0.25 -0.48434448 -0.25 -1.0780945q0 -0.765625 0.34375 -1.34375q0.359375 -0.5625 1.09375 -1.09375q-0.265625 -0.125 -0.46875 -0.3125q-0.1875 -0.1875 -0.3125 -0.40625q-0.125 -0.234375 -0.1875 -0.484375q-0.0625 -0.25 -0.0625 -0.484375q0 -0.6875 0.3125 -1.25q0.3125 -0.5625 0.75 -1.0625q-0.1875 -0.234375 -0.34375 -0.453125q-0.15625 -0.234375 -0.265625 -0.5q-0.109375 -0.265625 -0.171875 -0.578125q-0.046875 -0.3125 -0.046875 -0.703125q0 -0.8125 0.296875 -1.484375q0.296875 -0.671875 0.828125 -1.140625q0.546875 -0.484375 1.296875 -0.75q0.75 -0.265625 1.671875 -0.265625q0.390625 0 0.734375 0.046875q0.359375 0.046875 0.625 0.140625l3.796875 0l0 1.46875l-1.671875 0zm-6.296875 10.5q0 0.734375 0.765625 1.0624695q0.78125 0.34375 2.15625 0.34375q0.859375 0 1.4375 -0.15625q0.59375 -0.15625 0.953125 -0.40621948q0.359375 -0.25 0.515625 -0.578125q0.15625 -0.328125 0.15625 -0.671875q0 -0.640625 -0.515625 -0.953125q-0.515625 -0.296875 -1.59375 -0.34375l-2.734375 -0.09375q-0.34375 0.234375 -0.5625 0.453125q-0.21875 0.21875 -0.34375 0.4375q-0.125 0.21875 -0.1875 0.4375q-0.046875 0.234375 -0.046875 0.46875zm0.546875 -8.5625q0 0.5 0.171875 0.921875q0.171875 0.421875 0.46875 0.71875q0.296875 0.28125 0.703125 0.453125q0.421875 0.15625 0.921875 0.15625q0.546875 0 0.96875 -0.1875q0.421875 -0.1875 0.703125 -0.5q0.28125 -0.3125 0.4375 -0.71875q0.15625 -0.40625 0.15625 -0.84375q0 -0.5 -0.171875 -0.90625q-0.171875 -0.421875 -0.46875 -0.703125q-0.296875 -0.296875 -0.71875 -0.453125q-0.40625 -0.171875 -0.90625 -0.171875q-0.546875 0 -0.96875 0.1875q-0.421875 0.1875 -0.703125 0.5q-0.28125 0.296875 -0.4375 0.703125q-0.15625 0.40625 -0.15625 0.84375zm18.288818 -1.703125l-0.71875 1.234375l-2.921875 -1.9375l0.234375 3.5625l-1.484375 0l0.234375 -3.5625l-3.0 1.9375l-0.65625 -1.21875l3.203125 -1.5625l-3.203125 -1.609375l0.71875 -1.21875l2.953125 1.96875l-0.25 -3.5625l1.484375 0l-0.25 3.5625l2.9375 -1.984375l0.734375 1.28125l-3.203125 1.578125l3.1875 1.53125zm18.671356 -0.203125l-3.09375 0l0 -1.5l4.921875 0l0 8.9375l3.109375 0l0 1.515625l-8.375 0l0 -1.515625l3.4375 0l0 -7.4375zm0.625 -5.890625q0.3125 0 0.5625 0.109375q0.265625 0.109375 0.453125 0.3125q0.203125 0.203125 0.3125 0.453125q0.109375 0.25 0.109375 0.5625q0 0.28125 -0.109375 0.546875q-0.109375 0.265625 -0.3125 0.46875q-0.1875 0.1875 -0.453125 0.296875q-0.25 0.109375 -0.5625 0.109375q-0.296875 0 -0.5625 -0.109375q-0.25 -0.109375 -0.453125 -0.296875q-0.1875 -0.203125 -0.296875 -0.46875q-0.109375 -0.265625 -0.109375 -0.546875q0 -0.3125 0.109375 -0.5625q0.109375 -0.25 0.296875 -0.453125q0.203125 -0.203125 0.453125 -0.3125q0.265625 -0.109375 0.5625 -0.109375zm16.929413 14.84375l-2.484375 0l-4.875 -5.609375l0 5.609375l-1.8125 0l0 -14.71875l1.8125 0l0 9.046875l4.703125 -4.78125l2.390625 0l-4.90625 4.8125l5.171875 5.640625zm9.788818 0l0 -7.515625q0 -0.484375 -0.046875 -0.796875q-0.03125 -0.3125 -0.109375 -0.484375q-0.078125 -0.1875 -0.203125 -0.265625q-0.109375 -0.078125 -0.28125 -0.078125q-0.21875 0 -0.390625 0.125q-0.171875 0.125 -0.375 0.40625q-0.203125 0.28125 -0.453125 0.75q-0.25 0.46875 -0.578125 1.140625l0 6.71875l-1.65625 0l0 -7.3125q0 -0.578125 -0.046875 -0.921875q-0.03125 -0.359375 -0.109375 -0.546875q-0.078125 -0.203125 -0.203125 -0.28125q-0.125 -0.078125 -0.296875 -0.078125q-0.1875 0 -0.359375 0.109375q-0.15625 0.109375 -0.359375 0.375q-0.203125 0.265625 -0.453125 0.734375q-0.25 0.46875 -0.59375 1.203125l0 6.71875l-1.671875 0l0 -10.453125l1.390625 0l0.078125 1.984375q0.265625 -0.59375 0.515625 -1.0q0.265625 -0.421875 0.53125 -0.671875q0.28125 -0.265625 0.578125 -0.375q0.3125 -0.125 0.6875 -0.125q0.84375 0 1.28125 0.546875q0.4375 0.546875 0.4375 1.703125q0.25 -0.53125 0.484375 -0.953125q0.25 -0.421875 0.515625 -0.703125q0.28125 -0.296875 0.609375 -0.4375q0.34375 -0.15625 0.78125 -0.15625q1.953125 0 1.953125 3.03125l0 7.609375l-1.65625 0zm3.7419128 -5.015625q0 -1.125 0.296875 -2.125q0.296875 -1.015625 0.90625 -1.78125q0.625 -0.765625 1.59375 -1.203125q0.96875 -0.453125 2.3125 -0.453125q0.53125 0 1.046875 0.078125q0.53125 0.078125 1.109375 0.265625l1.609375 -0.40625l0 14.9062195l-1.828125 0l0 -3.9374695l0.09375 -2.25q-1.484375 2.109375 -3.515625 2.109375q-0.921875 0 -1.609375 -0.375q-0.671875 -0.375 -1.125 -1.0625q-0.453125 -0.6875 -0.671875 -1.640625q-0.21875 -0.96875 -0.21875 -2.125zm1.84375 -0.109375q0 0.875 0.125 1.578125q0.140625 0.6875 0.40625 1.171875q0.265625 0.484375 0.65625 0.75q0.40625 0.265625 0.953125 0.265625q0.6875 0 1.453125 -0.609375q0.765625 -0.625 1.609375 -1.828125l0 -4.859375q-0.421875 -0.203125 -0.953125 -0.328125q-0.515625 -0.125 -1.109375 -0.125q-1.53125 0 -2.34375 1.015625q-0.796875 1.015625 -0.796875 2.96875zm20.460693 9.3905945l-11.71875 0l0 -1.5l11.71875 0l0 1.5zm10.616913 -9.6874695q0 1.3125 -0.359375 2.34375q-0.359375 1.015625 -1.03125 1.734375q-0.65625 0.703125 -1.609375 1.09375q-0.9375 0.375 -2.125 0.375q-0.9375 0 -1.90625 -0.171875q-0.96875 -0.1875 -1.90625 -0.5625l0 -14.109375l1.8125 0l0 4.046875l-0.09375 1.9375q0.78125 -1.046875 1.671875 -1.46875q0.890625 -0.4375 1.921875 -0.4375q0.890625 0 1.5625 0.375q0.6875 0.375 1.140625 1.0625q0.453125 0.671875 0.6875 1.640625q0.234375 0.953125 0.234375 2.140625zm-1.859375 0.09375q0 -0.828125 -0.125 -1.515625q-0.109375 -0.6875 -0.375 -1.171875q-0.265625 -0.5 -0.671875 -0.765625q-0.40625 -0.28125 -0.96875 -0.28125q-0.34375 0 -0.703125 0.109375q-0.34375 0.109375 -0.734375 0.375q-0.375 0.25 -0.796875 0.671875q-0.421875 0.421875 -0.890625 1.046875l0 5.0625q0.53125 0.21875 1.078125 0.34375q0.546875 0.109375 1.046875 0.109375q0.625 0 1.1875 -0.1875q0.578125 -0.203125 1.0 -0.671875q0.4375 -0.46875 0.6875 -1.234375q0.265625 -0.765625 0.265625 -1.890625zm11.366913 5.328125l-0.046875 -1.40625q-0.859375 0.84375 -1.734375 1.21875q-0.875 0.375 -1.84375 0.375q-0.90625 0 -1.546875 -0.21875q-0.625 -0.234375 -1.046875 -0.640625q-0.40625 -0.40625 -0.59375 -0.9375q-0.1875 -0.546875 -0.1875 -1.1875q0 -1.5625 1.171875 -2.453125q1.171875 -0.890625 3.453125 -0.890625l2.171875 0l0 -0.921875q0 -0.921875 -0.59375 -1.484375q-0.59375 -0.5625 -1.8125 -0.5625q-0.890625 0 -1.75 0.203125q-0.859375 0.203125 -1.765625 0.5625l0 -1.640625q0.34375 -0.125 0.765625 -0.234375q0.421875 -0.125 0.890625 -0.21875q0.46875 -0.09375 0.96875 -0.140625q0.515625 -0.0625 1.03125 -0.0625q0.953125 0 1.703125 0.203125q0.765625 0.203125 1.296875 0.640625q0.53125 0.421875 0.8125 1.078125q0.28125 0.640625 0.28125 1.515625l0 7.203125l-1.625 0zm-0.203125 -4.765625l-2.296875 0q-0.6875 0 -1.171875 0.140625q-0.484375 0.140625 -0.796875 0.390625q-0.3125 0.25 -0.46875 0.59375q-0.15625 0.34375 -0.15625 0.78125q0 0.3125 0.09375 0.59375q0.09375 0.265625 0.296875 0.484375q0.21875 0.203125 0.546875 0.328125q0.34375 0.125 0.8125 0.125q0.625 0 1.4375 -0.375q0.8125 -0.375 1.703125 -1.203125l0 -1.859375zm13.491943 1.90625q0 0.5625 -0.1875 1.0q-0.1875 0.4375 -0.515625 0.78125q-0.328125 0.328125 -0.75 0.578125q-0.421875 0.234375 -0.90625 0.390625q-0.484375 0.15625 -1.0 0.21875q-0.515625 0.078125 -1.0 0.078125q-1.0625 0 -1.953125 -0.09375q-0.890625 -0.09375 -1.75 -0.296875l0 -1.671875q0.921875 0.265625 1.828125 0.40625q0.90625 0.125 1.796875 0.125q1.3125 0 1.9375 -0.34375q0.625 -0.359375 0.625 -1.015625q0 -0.28125 -0.109375 -0.5q-0.09375 -0.234375 -0.359375 -0.4375q-0.25 -0.203125 -0.796875 -0.421875q-0.546875 -0.21875 -1.5 -0.5q-0.703125 -0.203125 -1.3125 -0.46875q-0.59375 -0.265625 -1.03125 -0.625q-0.4375 -0.375 -0.6875 -0.859375q-0.25 -0.5 -0.25 -1.15625q0 -0.4375 0.203125 -0.953125q0.203125 -0.53125 0.6875 -0.96875q0.5 -0.453125 1.328125 -0.75q0.828125 -0.296875 2.078125 -0.296875q0.625 0 1.375 0.0625q0.75 0.0625 1.5625 0.234375l0 1.609375q-0.859375 -0.203125 -1.625 -0.296875q-0.765625 -0.109375 -1.328125 -0.109375q-0.671875 0 -1.140625 0.109375q-0.46875 0.109375 -0.75 0.296875q-0.28125 0.171875 -0.40625 0.421875q-0.125 0.234375 -0.125 0.515625q0 0.28125 0.109375 0.515625q0.109375 0.234375 0.40625 0.453125q0.296875 0.203125 0.828125 0.421875q0.53125 0.203125 1.375 0.453125q0.9375 0.28125 1.5625 0.578125q0.640625 0.296875 1.03125 0.65625q0.40625 0.359375 0.578125 0.828125q0.171875 0.453125 0.171875 1.03125zm12.273193 -2.921875q0 0.390625 -0.015625 0.65625q0 0.25 -0.03125 0.484375l-7.34375 0q0 1.59375 0.890625 2.453125q0.90625 0.859375 2.59375 0.859375q0.453125 0 0.90625 -0.03125q0.46875 -0.03125 0.890625 -0.09375q0.4375 -0.0625 0.828125 -0.140625q0.390625 -0.078125 0.71875 -0.171875l0 1.484375q-0.734375 0.203125 -1.671875 0.328125q-0.9375 0.140625 -1.9375 0.140625q-1.34375 0 -2.3125 -0.359375q-0.96875 -0.375 -1.59375 -1.0625q-0.609375 -0.6875 -0.90625 -1.6875q-0.296875 -1.015625 -0.296875 -2.28125q0 -1.109375 0.3125 -2.09375q0.328125 -0.984375 0.9375 -1.71875q0.609375 -0.75 1.484375 -1.1875q0.890625 -0.4375 2.015625 -0.4375q1.09375 0 1.9375 0.34375q0.84375 0.34375 1.421875 0.96875q0.578125 0.625 0.875 1.53125q0.296875 0.90625 0.296875 2.015625zm-1.890625 -0.265625q0.03125 -0.6875 -0.140625 -1.265625q-0.15625 -0.578125 -0.515625 -1.0q-0.34375 -0.421875 -0.859375 -0.65625q-0.515625 -0.234375 -1.203125 -0.234375q-0.59375 0 -1.09375 0.234375q-0.484375 0.234375 -0.84375 0.65625q-0.34375 0.40625 -0.5625 1.0q-0.21875 0.578125 -0.28125 1.265625l5.5 0z" fill-rule="nonzero"/><path fill="#000000" d="m192.00697 373.68954q0.359375 0 0.671875 0.140625q0.3125 0.125 0.546875 0.375q0.234375 0.234375 0.375 0.5625q0.140625 0.3125 0.140625 0.671875q0 0.359375 -0.140625 0.671875q-0.140625 0.3125 -0.375 0.546875q-0.234375 0.234375 -0.546875 0.359375q-0.3125 0.140625 -0.671875 0.140625q-0.359375 0 -0.671875 -0.140625q-0.3125 -0.125 -0.546875 -0.359375q-0.234375 -0.234375 -0.375 -0.546875q-0.140625 -0.3125 -0.140625 -0.671875q0 -0.359375 0.140625 -0.671875q0.140625 -0.328125 0.375 -0.5625q0.234375 -0.25 0.546875 -0.375q0.3125 -0.140625 0.671875 -0.140625zm11.726303 0q0.359375 0 0.671875 0.140625q0.3125 0.125 0.546875 0.375q0.234375 0.234375 0.375 0.5625q0.140625 0.3125 0.140625 0.671875q0 0.359375 -0.140625 0.671875q-0.140625 0.3125 -0.375 0.546875q-0.234375 0.234375 -0.546875 0.359375q-0.3125 0.140625 -0.671875 0.140625q-0.359375 0 -0.671875 -0.140625q-0.3125 -0.125 -0.546875 -0.359375q-0.234375 -0.234375 -0.375 -0.546875q-0.140625 -0.3125 -0.140625 -0.671875q0 -0.359375 0.140625 -0.671875q0.140625 -0.328125 0.375 -0.5625q0.234375 -0.25 0.546875 -0.375q0.3125 -0.140625 0.671875 -0.140625zm11.726303 0q0.359375 0 0.671875 0.140625q0.3125 0.125 0.546875 0.375q0.234375 0.234375 0.375 0.5625q0.140625 0.3125 0.140625 0.671875q0 0.359375 -0.140625 0.671875q-0.140625 0.3125 -0.375 0.546875q-0.234375 0.234375 -0.546875 0.359375q-0.3125 0.140625 -0.671875 0.140625q-0.359375 0 -0.671875 -0.140625q-0.3125 -0.125 -0.546875 -0.359375q-0.234375 -0.234375 -0.375 -0.546875q-0.140625 -0.3125 -0.140625 -0.671875q0 -0.359375 0.140625 -0.671875q0.140625 -0.328125 0.375 -0.5625q0.234375 -0.25 0.546875 -0.375q0.3125 -0.140625 0.671875 -0.140625z" fill-rule="nonzero"/><path fill="#6fa8dc" d="m662.66406 214.31496l360.9449 0l0 291.37006l-360.9449 0z" fill-rule="evenodd"/><path fill="#000000" d="m677.4453 235.51372q0.359375 0 0.671875 0.140625q0.3125 0.125 0.546875 0.375q0.234375 0.234375 0.375 0.5625q0.140625 0.3125 0.140625 0.671875q0 0.359375 -0.140625 0.671875q-0.140625 0.3125 -0.375 0.546875q-0.234375 0.234375 -0.546875 0.359375q-0.3125 0.140625 -0.671875 0.140625q-0.359375 0 -0.671875 -0.140625q-0.3125 -0.125 -0.546875 -0.359375q-0.234375 -0.234375 -0.375 -0.546875q-0.140625 -0.3125 -0.140625 -0.671875q0 -0.359375 0.140625 -0.671875q0.140625 -0.328125 0.375 -0.5625q0.234375 -0.25 0.546875 -0.375q0.3125 -0.140625 0.671875 -0.140625zm11.726257 0q0.359375 0 0.671875 0.140625q0.3125 0.125 0.546875 0.375q0.234375 0.234375 0.375 0.5625q0.140625 0.3125 0.140625 0.671875q0 0.359375 -0.140625 0.671875q-0.140625 0.3125 -0.375 0.546875q-0.234375 0.234375 -0.546875 0.359375q-0.3125 0.140625 -0.671875 0.140625q-0.359375 0 -0.671875 -0.140625q-0.3125 -0.125 -0.546875 -0.359375q-0.234375 -0.234375 -0.375 -0.546875q-0.140625 -0.3125 -0.140625 -0.671875q0 -0.359375 0.140625 -0.671875q0.140625 -0.328125 0.375 -0.5625q0.234375 -0.25 0.546875 -0.375q0.3125 -0.140625 0.671875 -0.140625zm11.726318 0q0.359375 0 0.671875 0.140625q0.3125 0.125 0.546875 0.375q0.234375 0.234375 0.375 0.5625q0.140625 0.3125 0.140625 0.671875q0 0.359375 -0.140625 0.671875q-0.140625 0.3125 -0.375 0.546875q-0.234375 0.234375 -0.546875 0.359375q-0.3125 0.140625 -0.671875 0.140625q-0.359375 0 -0.671875 -0.140625q-0.3125 -0.125 -0.546875 -0.359375q-0.234375 -0.234375 -0.375 -0.546875q-0.140625 -0.3125 -0.140625 -0.671875q0 -0.359375 0.140625 -0.671875q0.140625 -0.328125 0.375 -0.5625q0.234375 -0.25 0.546875 -0.375q0.3125 -0.140625 0.671875 -0.140625z" fill-rule="nonzero"/><path fill="#000000" d="m680.78906 264.79495l0 -7.515625q0 -0.484375 -0.046875 -0.796875q-0.03125 -0.3125 -0.109375 -0.48435974q-0.078125 -0.1875 -0.203125 -0.265625q-0.109375 -0.078125 -0.28125 -0.078125q-0.21875 0 -0.390625 0.125q-0.171875 0.125 -0.375 0.40623474q-0.203125 0.28125 -0.453125 0.75q-0.25 0.46875 -0.578125 1.140625l0 6.71875l-1.65625 0l0 -7.3125q0 -0.578125 -0.046875 -0.921875q-0.03125 -0.359375 -0.109375 -0.546875q-0.078125 -0.20310974 -0.203125 -0.28123474q-0.125 -0.078125 -0.296875 -0.078125q-0.1875 0 -0.359375 0.109375q-0.15625 0.109375 -0.359375 0.37498474q-0.203125 0.265625 -0.453125 0.734375q-0.25 0.46875 -0.59375 1.203125l0 6.71875l-1.671875 0l0 -10.45311l1.390625 0l0.078125 1.9843597q0.265625 -0.59373474 0.515625 -0.99998474q0.265625 -0.421875 0.53125 -0.671875q0.28125 -0.265625 0.578125 -0.375q0.3125 -0.125 0.6875 -0.125q0.84375 0 1.28125 0.546875q0.4375 0.546875 0.4375 1.7031097q0.25 -0.53123474 0.484375 -0.95310974q0.25 -0.421875 0.515625 -0.703125q0.28125 -0.296875 0.609375 -0.4375q0.34375 -0.15625 0.78125 -0.15625q1.953125 0 1.953125 3.0312347l0 7.609375l-1.65625 0zm10.991882 0l-0.046875 -1.40625q-0.859375 0.84375 -1.734375 1.21875q-0.875 0.375 -1.84375 0.375q-0.90625 0 -1.546875 -0.21875q-0.625 -0.234375 -1.046875 -0.640625q-0.40625 -0.40625 -0.59375 -0.9375q-0.1875 -0.546875 -0.1875 -1.1875q0 -1.5625 1.171875 -2.453125q1.171875 -0.890625 3.453125 -0.890625l2.171875 0l0 -0.921875q0 -0.921875 -0.59375 -1.484375q-0.59375 -0.56248474 -1.8125 -0.56248474q-0.890625 0 -1.75 0.203125q-0.859375 0.20310974 -1.765625 0.56248474l0 -1.6406097q0.34375 -0.125 0.765625 -0.234375q0.421875 -0.125 0.890625 -0.21875q0.46875 -0.09375 0.96875 -0.140625q0.515625 -0.0625 1.03125 -0.0625q0.953125 0 1.703125 0.203125q0.765625 0.203125 1.296875 0.640625q0.53125 0.421875 0.8125 1.0781097q0.28125 0.640625 0.28125 1.515625l0 7.203125l-1.625 0zm-0.203125 -4.765625l-2.296875 0q-0.6875 0 -1.171875 0.140625q-0.484375 0.140625 -0.796875 0.390625q-0.3125 0.25 -0.46875 0.59375q-0.15625 0.34375 -0.15625 0.78125q0 0.3125 0.09375 0.59375q0.09375 0.265625 0.296875 0.484375q0.21875 0.203125 0.546875 0.328125q0.34375 0.125 0.8125 0.125q0.625 0 1.4375 -0.375q0.8125 -0.375 1.703125 -1.203125l0 -1.859375zm13.335693 4.375q-0.71875 0.28125 -1.46875 0.40625q-0.734375 0.125 -1.53125 0.125q-2.46875 0 -3.8125 -1.34375q-1.34375 -1.34375 -1.34375 -3.921875q0 -1.234375 0.390625 -2.25q0.390625 -1.015625 1.078125 -1.7343597q0.703125 -0.71875 1.671875 -1.109375q0.96875 -0.390625 2.140625 -0.390625q0.8125 0 1.515625 0.125q0.703125 0.109375 1.359375 0.375l0 1.7187347q-0.6875 -0.34375 -1.390625 -0.49998474q-0.703125 -0.171875 -1.453125 -0.171875q-0.6875 0 -1.3125 0.265625q-0.625 0.26560974 -1.09375 0.76560974q-0.46875 0.5 -0.734375 1.21875q-0.265625 0.71875 -0.265625 1.625q0 1.890625 0.921875 2.84375q0.921875 0.9375 2.546875 0.9375q0.75 0 1.4375 -0.15625q0.6875 -0.171875 1.34375 -0.515625l0 1.6875zm12.007568 0.390625l-1.8125 0l0 -6.671875q0 -1.21875 -0.453125 -1.8125q-0.453125 -0.59373474 -1.296875 -0.59373474q-0.375 0 -0.6875 0.09375q-0.3125 0.09375 -0.65625 0.34373474q-0.34375 0.25 -0.75 0.671875q-0.40625 0.40625 -0.9375 1.03125l0 6.9375l-1.8125 0l0 -14.718735l1.8125 0l0 4.265625l-0.0625 1.640625q0.421875 -0.515625 0.828125 -0.859375q0.421875 -0.34375 0.828125 -0.5625q0.40625 -0.21875 0.828125 -0.3125q0.4375 -0.09375 0.890625 -0.09375q1.5625 0 2.421875 0.953125q0.859375 0.95310974 0.859375 2.8593597l0 6.828125zm13.366943 4.265625l-11.71875 0l0 -1.5l11.71875 0l0 1.5zm9.132507 -4.265625l0 -7.515625q0 -0.484375 -0.046875 -0.796875q-0.03125 -0.3125 -0.109375 -0.48435974q-0.078125 -0.1875 -0.203125 -0.265625q-0.109375 -0.078125 -0.28125 -0.078125q-0.21875 0 -0.390625 0.125q-0.171875 0.125 -0.375 0.40623474q-0.203125 0.28125 -0.453125 0.75q-0.25 0.46875 -0.578125 1.140625l0 6.71875l-1.65625 0l0 -7.3125q0 -0.578125 -0.046875 -0.921875q-0.03125 -0.359375 -0.109375 -0.546875q-0.078125 -0.20310974 -0.203125 -0.28123474q-0.125 -0.078125 -0.296875 -0.078125q-0.1875 0 -0.359375 0.109375q-0.15625 0.109375 -0.359375 0.37498474q-0.203125 0.265625 -0.453125 0.734375q-0.25 0.46875 -0.59375 1.203125l0 6.71875l-1.671875 0l0 -10.45311l1.390625 0l0.078125 1.9843597q0.265625 -0.59373474 0.515625 -0.99998474q0.265625 -0.421875 0.53125 -0.671875q0.28125 -0.265625 0.578125 -0.375q0.3125 -0.125 0.6875 -0.125q0.84375 0 1.28125 0.546875q0.4375 0.546875 0.4375 1.7031097q0.25 -0.53123474 0.484375 -0.95310974q0.25 -0.421875 0.515625 -0.703125q0.28125 -0.296875 0.609375 -0.4375q0.34375 -0.15625 0.78125 -0.15625q1.953125 0 1.953125 3.0312347l0 7.609375l-1.65625 0zm12.554443 -2.859375q0 0.5625 -0.1875 1.0q-0.1875 0.4375 -0.515625 0.78125q-0.328125 0.328125 -0.75 0.578125q-0.421875 0.234375 -0.90625 0.390625q-0.484375 0.15625 -1.0 0.21875q-0.515625 0.078125 -1.0 0.078125q-1.0625 0 -1.953125 -0.09375q-0.890625 -0.09375 -1.75 -0.296875l0 -1.671875q0.921875 0.265625 1.828125 0.40625q0.90625 0.125 1.796875 0.125q1.3125 0 1.9375 -0.34375q0.625 -0.359375 0.625 -1.015625q0 -0.28125 -0.109375 -0.5q-0.09375 -0.234375 -0.359375 -0.4375q-0.25 -0.203125 -0.796875 -0.421875q-0.546875 -0.21875 -1.5 -0.5q-0.703125 -0.203125 -1.3125 -0.46875q-0.59375 -0.265625 -1.03125 -0.625q-0.4375 -0.375 -0.6875 -0.859375q-0.25 -0.5 -0.25 -1.15625q0 -0.4375 0.203125 -0.953125q0.203125 -0.53123474 0.6875 -0.96873474q0.5 -0.453125 1.328125 -0.75q0.828125 -0.296875 2.078125 -0.296875q0.625 0 1.375 0.0625q0.75 0.0625 1.5625 0.234375l0 1.6093597q-0.859375 -0.20310974 -1.625 -0.29685974q-0.765625 -0.109375 -1.328125 -0.109375q-0.671875 0 -1.140625 0.109375q-0.46875 0.109375 -0.75 0.29685974q-0.28125 0.171875 -0.40625 0.421875q-0.125 0.234375 -0.125 0.515625q0 0.28125 0.109375 0.515625q0.109375 0.234375 0.40625 0.453125q0.296875 0.203125 0.828125 0.421875q0.53125 0.203125 1.375 0.453125q0.9375 0.28125 1.5625 0.578125q0.640625 0.296875 1.03125 0.65625q0.40625 0.359375 0.578125 0.828125q0.171875 0.453125 0.171875 1.03125zm10.976318 -6.1249847q0.28125 0.37498474 0.4375 0.85935974q0.171875 0.484375 0.171875 1.046875q0 0.8125 -0.296875 1.484375q-0.296875 0.671875 -0.84375 1.15625q-0.53125 0.46875 -1.296875 0.734375q-0.75 0.265625 -1.65625 0.265625q-0.65625 0 -1.234375 -0.140625q-0.5625 -0.140625 -0.90625 -0.34375q-0.1875 0.28125 -0.328125 0.546875q-0.140625 0.265625 -0.140625 0.578125q0 0.40625 0.375 0.671875q0.390625 0.25 1.015625 0.265625l2.75 0.109375q0.78125 0.015625 1.4375 0.203125q0.671875 0.171875 1.140625 0.515625q0.46875 0.328125 0.734375 0.8125q0.265625 0.484375 0.265625 1.140625q0 0.6875 -0.296875 1.3125q-0.296875 0.625 -0.9375 1.09375q-0.625 0.484375 -1.59375 0.765625q-0.96875 0.28125 -2.296875 0.28125q-1.28125 0 -2.171875 -0.203125q-0.890625 -0.203125 -1.46875 -0.5625q-0.5625 -0.359375 -0.828125 -0.859375q-0.25 -0.484375 -0.25 -1.078125q0 -0.765625 0.34375 -1.34375q0.359375 -0.5625 1.09375 -1.09375q-0.265625 -0.125 -0.46875 -0.3125q-0.1875 -0.1875 -0.3125 -0.40625q-0.125 -0.234375 -0.1875 -0.484375q-0.0625 -0.25 -0.0625 -0.484375q0 -0.6875 0.3125 -1.25q0.3125 -0.5625 0.75 -1.0625q-0.1875 -0.234375 -0.34375 -0.453125q-0.15625 -0.234375 -0.265625 -0.5q-0.109375 -0.265625 -0.171875 -0.578125q-0.046875 -0.3125 -0.046875 -0.703125q0 -0.8125 0.296875 -1.484375q0.296875 -0.67185974 0.828125 -1.1406097q0.546875 -0.484375 1.296875 -0.75q0.75 -0.265625 1.671875 -0.265625q0.390625 0 0.734375 0.046875q0.359375 0.046875 0.625 0.140625l3.796875 0l0 1.46875l-1.671875 0zm-6.296875 10.499985q0 0.734375 0.765625 1.0625q0.78125 0.34375 2.15625 0.34375q0.859375 0 1.4375 -0.15625q0.59375 -0.15625 0.953125 -0.40625q0.359375 -0.25 0.515625 -0.578125q0.15625 -0.328125 0.15625 -0.671875q0 -0.640625 -0.515625 -0.953125q-0.515625 -0.296875 -1.59375 -0.34375l-2.734375 -0.09375q-0.34375 0.234375 -0.5625 0.453125q-0.21875 0.21875 -0.34375 0.4375q-0.125 0.21875 -0.1875 0.4375q-0.046875 0.234375 -0.046875 0.46875zm0.546875 -8.5625q0 0.5 0.171875 0.921875q0.171875 0.421875 0.46875 0.71875q0.296875 0.28125 0.703125 0.453125q0.421875 0.15625 0.921875 0.15625q0.546875 0 0.96875 -0.1875q0.421875 -0.1875 0.703125 -0.5q0.28125 -0.3125 0.4375 -0.71875q0.15625 -0.40625 0.15625 -0.84375q0 -0.5 -0.171875 -0.90625q-0.171875 -0.421875 -0.46875 -0.703125q-0.296875 -0.29685974 -0.71875 -0.45310974q-0.40625 -0.171875 -0.90625 -0.171875q-0.546875 0 -0.96875 0.1875q-0.421875 0.1875 -0.703125 0.49998474q-0.28125 0.296875 -0.4375 0.703125q-0.15625 0.40625 -0.15625 0.84375zm19.991943 11.3125l-11.71875 0l0 -1.5l11.71875 0l0 1.5zm10.085632 -4.265625l-1.8125 0l0 -6.671875q0 -1.21875 -0.453125 -1.8125q-0.453125 -0.59373474 -1.296875 -0.59373474q-0.375 0 -0.6875 0.09375q-0.3125 0.09375 -0.65625 0.34373474q-0.34375 0.25 -0.75 0.671875q-0.40625 0.40625 -0.9375 1.03125l0 6.9375l-1.8125 0l0 -14.718735l1.8125 0l0 4.265625l-0.0625 1.640625q0.421875 -0.515625 0.828125 -0.859375q0.421875 -0.34375 0.828125 -0.5625q0.40625 -0.21875 0.828125 -0.3125q0.4375 -0.09375 0.890625 -0.09375q1.5625 0 2.421875 0.953125q0.859375 0.95310974 0.859375 2.8593597l0 6.828125zm12.148193 -5.78125q0 0.390625 -0.015625 0.65625q0 0.25 -0.03125 0.484375l-7.34375 0q0 1.59375 0.890625 2.453125q0.90625 0.859375 2.59375 0.859375q0.453125 0 0.90625 -0.03125q0.46875 -0.03125 0.890625 -0.09375q0.4375 -0.0625 0.828125 -0.140625q0.390625 -0.078125 0.71875 -0.171875l0 1.484375q-0.734375 0.203125 -1.671875 0.328125q-0.9375 0.140625 -1.9375 0.140625q-1.34375 0 -2.3125 -0.359375q-0.96875 -0.375 -1.59375 -1.0625q-0.609375 -0.6875 -0.90625 -1.6875q-0.296875 -1.015625 -0.296875 -2.28125q0 -1.109375 0.3125 -2.09375q0.328125 -0.984375 0.9375 -1.7187347q0.609375 -0.75 1.484375 -1.1875q0.890625 -0.4375 2.015625 -0.4375q1.09375 0 1.9375 0.34375q0.84375 0.34375 1.421875 0.96875q0.578125 0.62498474 0.875 1.5312347q0.296875 0.90625 0.296875 2.015625zm-1.890625 -0.265625q0.03125 -0.6875 -0.140625 -1.265625q-0.15625 -0.578125 -0.515625 -1.0q-0.34375 -0.421875 -0.859375 -0.65623474q-0.515625 -0.234375 -1.203125 -0.234375q-0.59375 0 -1.09375 0.234375q-0.484375 0.23435974 -0.84375 0.65623474q-0.34375 0.40625 -0.5625 1.0q-0.21875 0.578125 -0.28125 1.265625l5.5 0zm11.507568 6.046875l-0.046875 -1.40625q-0.859375 0.84375 -1.734375 1.21875q-0.875 0.375 -1.84375 0.375q-0.90625 0 -1.546875 -0.21875q-0.625 -0.234375 -1.046875 -0.640625q-0.40625 -0.40625 -0.59375 -0.9375q-0.1875 -0.546875 -0.1875 -1.1875q0 -1.5625 1.171875 -2.453125q1.171875 -0.890625 3.453125 -0.890625l2.171875 0l0 -0.921875q0 -0.921875 -0.59375 -1.484375q-0.59375 -0.56248474 -1.8125 -0.56248474q-0.890625 0 -1.75 0.203125q-0.859375 0.20310974 -1.765625 0.56248474l0 -1.6406097q0.34375 -0.125 0.765625 -0.234375q0.421875 -0.125 0.890625 -0.21875q0.46875 -0.09375 0.96875 -0.140625q0.515625 -0.0625 1.03125 -0.0625q0.953125 0 1.703125 0.203125q0.765625 0.203125 1.296875 0.640625q0.53125 0.421875 0.8125 1.0781097q0.28125 0.640625 0.28125 1.515625l0 7.203125l-1.625 0zm-0.203125 -4.765625l-2.296875 0q-0.6875 0 -1.171875 0.140625q-0.484375 0.140625 -0.796875 0.390625q-0.3125 0.25 -0.46875 0.59375q-0.15625 0.34375 -0.15625 0.78125q0 0.3125 0.09375 0.59375q0.09375 0.265625 0.296875 0.484375q0.21875 0.203125 0.546875 0.328125q0.34375 0.125 0.8125 0.125q0.625 0 1.4375 -0.375q0.8125 -0.375 1.703125 -1.203125l0 -1.859375zm4.6794434 -0.25q0 -1.328125 0.359375 -2.359375q0.359375 -1.046875 1.03125 -1.7499847q0.671875 -0.71875 1.609375 -1.078125q0.953125 -0.375 2.109375 -0.375q0.5 0 0.984375 0.0625q0.484375 0.0625 0.953125 0.1875l0 -4.390625l1.828125 0l0 14.718735l-1.625 0l-0.0625 -1.984375q-0.765625 1.109375 -1.65625 1.640625q-0.875 0.53125 -1.90625 0.53125q-0.90625 0 -1.59375 -0.375q-0.671875 -0.375 -1.125 -1.046875q-0.453125 -0.6875 -0.6875 -1.640625q-0.21875 -0.96875 -0.21875 -2.140625zm1.84375 -0.109375q0 1.890625 0.5625 2.828125q0.5625 0.9375 1.578125 0.9375q0.6875 0 1.453125 -0.609375q0.765625 -0.625 1.609375 -1.828125l0 -4.859375q-0.453125 -0.20310974 -1.0 -0.31248474q-0.53125 -0.109375 -1.0625 -0.109375q-1.484375 0 -2.3125 0.95310974q-0.828125 0.953125 -0.828125 3.0zm19.241882 -0.65625q0 0.390625 -0.015625 0.65625q0 0.25 -0.03125 0.484375l-7.34375 0q0 1.59375 0.890625 2.453125q0.90625 0.859375 2.59375 0.859375q0.453125 0 0.90625 -0.03125q0.46875 -0.03125 0.890625 -0.09375q0.4375 -0.0625 0.828125 -0.140625q0.390625 -0.078125 0.71875 -0.171875l0 1.484375q-0.734375 0.203125 -1.671875 0.328125q-0.9375 0.140625 -1.9375 0.140625q-1.34375 0 -2.3125 -0.359375q-0.96875 -0.375 -1.59375 -1.0625q-0.609375 -0.6875 -0.90625 -1.6875q-0.296875 -1.015625 -0.296875 -2.28125q0 -1.109375 0.3125 -2.09375q0.328125 -0.984375 0.9375 -1.7187347q0.609375 -0.75 1.484375 -1.1875q0.890625 -0.4375 2.015625 -0.4375q1.09375 0 1.9375 0.34375q0.84375 0.34375 1.421875 0.96875q0.578125 0.62498474 0.875 1.5312347q0.296875 0.90625 0.296875 2.015625zm-1.890625 -0.265625q0.03125 -0.6875 -0.140625 -1.265625q-0.15625 -0.578125 -0.515625 -1.0q-0.34375 -0.421875 -0.859375 -0.65623474q-0.515625 -0.234375 -1.203125 -0.234375q-0.59375 0 -1.09375 0.234375q-0.484375 0.23435974 -0.84375 0.65623474q-0.34375 0.40625 -0.5625 1.0q-0.21875 0.578125 -0.28125 1.265625l5.5 0zm5.2106934 -4.4062347l1.65625 0l0.046875 1.9218597q0.9375 -1.1093597 1.828125 -1.6093597q0.90625 -0.5 1.828125 -0.5q1.625 0 2.453125 1.046875q0.84375 1.0468597 0.78125 3.1249847l-1.828125 0q0.03125 -1.375 -0.40625 -1.984375q-0.4375 -0.62498474 -1.265625 -0.62498474q-0.359375 0 -0.734375 0.125q-0.375 0.125 -0.765625 0.42185974q-0.390625 0.28125 -0.828125 0.734375q-0.4375 0.4375 -0.9375 1.078125l0 6.71875l-1.828125 0l0 -10.45311zm21.351318 14.718735l-11.71875 0l0 -1.5l11.71875 0l0 1.5zm10.101318 -4.40625q-0.609375 0.15625 -1.265625 0.21875q-0.65625 0.0625 -1.34375 0.0625q-1.96875 0 -2.9375 -0.890625q-0.96875 -0.890625 -0.96875 -2.734375l0 -5.4531097l-2.921875 0l0 -1.515625l2.921875 0l0 -2.875l1.8125 -0.46875l0 3.34375l4.703125 0l0 1.515625l-4.703125 0l0 5.3124847q0 1.125 0.59375 1.6875q0.609375 0.546875 1.78125 0.546875q0.5 0 1.09375 -0.078125q0.59375 -0.078125 1.234375 -0.234375l0 1.5625zm11.648132 -8.609375l-0.71875 1.234375l-2.921875 -1.9374847l0.234375 3.5624847l-1.484375 0l0.234375 -3.5624847l-3.0 1.9374847l-0.65625 -1.21875l3.203125 -1.5624847l-3.203125 -1.609375l0.71875 -1.21875l2.953125 1.96875l-0.25 -3.5625l1.484375 0l-0.25 3.5625l2.9375 -1.984375l0.734375 1.28125l-3.203125 1.578125l3.1875 1.5312347zm18.671387 -0.20310974l-3.09375 0l0 -1.5l4.921875 0l0 8.937485l3.109375 0l0 1.515625l-8.375 0l0 -1.515625l3.4375 0l0 -7.4374847zm0.625 -5.890625q0.3125 0 0.5625 0.109375q0.265625 0.109375 0.453125 0.3125q0.203125 0.203125 0.3125 0.453125q0.109375 0.25 0.109375 0.5625q0 0.28125 -0.109375 0.546875q-0.109375 0.265625 -0.3125 0.46875q-0.1875 0.1875 -0.453125 0.296875q-0.25 0.109375 -0.5625 0.109375q-0.296875 0 -0.5625 -0.109375q-0.25 -0.109375 -0.453125 -0.296875q-0.1875 -0.203125 -0.296875 -0.46875q-0.109375 -0.265625 -0.109375 -0.546875q0 -0.3125 0.109375 -0.5625q0.109375 -0.25 0.296875 -0.453125q0.203125 -0.203125 0.453125 -0.3125q0.265625 -0.109375 0.5625 -0.109375zm16.929443 14.843735l-2.484375 0l-4.875 -5.609375l0 5.609375l-1.8125 0l0 -14.718735l1.8125 0l0 9.04686l4.703125 -4.7812347l2.390625 0l-4.90625 4.8124847l5.171875 5.640625zm9.788818 0l0 -7.515625q0 -0.484375 -0.046875 -0.796875q-0.03125 -0.3125 -0.109375 -0.48435974q-0.078125 -0.1875 -0.203125 -0.265625q-0.109375 -0.078125 -0.28125 -0.078125q-0.21875 0 -0.390625 0.125q-0.171875 0.125 -0.375 0.40623474q-0.203125 0.28125 -0.453125 0.75q-0.25 0.46875 -0.578125 1.140625l0 6.71875l-1.65625 0l0 -7.3125q0 -0.578125 -0.046875 -0.921875q-0.03125 -0.359375 -0.109375 -0.546875q-0.078125 -0.20310974 -0.203125 -0.28123474q-0.125 -0.078125 -0.296875 -0.078125q-0.1875 0 -0.359375 0.109375q-0.15625 0.109375 -0.359375 0.37498474q-0.203125 0.265625 -0.453125 0.734375q-0.25 0.46875 -0.59375 1.203125l0 6.71875l-1.671875 0l0 -10.45311l1.390625 0l0.078125 1.9843597q0.265625 -0.59373474 0.515625 -0.99998474q0.265625 -0.421875 0.53125 -0.671875q0.28125 -0.265625 0.578125 -0.375q0.3125 -0.125 0.6875 -0.125q0.84375 0 1.28125 0.546875q0.4375 0.546875 0.4375 1.7031097q0.25 -0.53123474 0.484375 -0.95310974q0.25 -0.421875 0.515625 -0.703125q0.28125 -0.296875 0.609375 -0.4375q0.34375 -0.15625 0.78125 -0.15625q1.953125 0 1.953125 3.0312347l0 7.609375l-1.65625 0zm14.320007 4.265625l-11.71875 0l0 -1.5l11.71875 0l0 1.5zm10.085693 -4.265625l-1.8125 0l0 -6.671875q0 -1.21875 -0.453125 -1.8125q-0.453125 -0.59373474 -1.296875 -0.59373474q-0.375 0 -0.6875 0.09375q-0.3125 0.09375 -0.65625 0.34373474q-0.34375 0.25 -0.75 0.671875q-0.40625 0.40625 -0.9375 1.03125l0 6.9375l-1.8125 0l0 -14.718735l1.8125 0l0 4.265625l-0.0625 1.640625q0.421875 -0.515625 0.828125 -0.859375q0.421875 -0.34375 0.828125 -0.5625q0.40625 -0.21875 0.828125 -0.3125q0.4375 -0.09375 0.890625 -0.09375q1.5625 0 2.421875 0.953125q0.859375 0.95310974 0.859375 2.8593597l0 6.828125zm12.148193 -5.78125q0 0.390625 -0.015625 0.65625q0 0.25 -0.03125 0.484375l-7.34375 0q0 1.59375 0.890625 2.453125q0.90625 0.859375 2.59375 0.859375q0.453125 0 0.90625 -0.03125q0.46875 -0.03125 0.890625 -0.09375q0.4375 -0.0625 0.828125 -0.140625q0.390625 -0.078125 0.71875 -0.171875l0 1.484375q-0.734375 0.203125 -1.671875 0.328125q-0.9375 0.140625 -1.9375 0.140625q-1.34375 0 -2.3125 -0.359375q-0.96875 -0.375 -1.59375 -1.0625q-0.609375 -0.6875 -0.90625 -1.6875q-0.296875 -1.015625 -0.296875 -2.28125q0 -1.109375 0.3125 -2.09375q0.328125 -0.984375 0.9375 -1.7187347q0.609375 -0.75 1.484375 -1.1875q0.890625 -0.4375 2.015625 -0.4375q1.09375 0 1.9375 0.34375q0.84375 0.34375 1.421875 0.96875q0.578125 0.62498474 0.875 1.5312347q0.296875 0.90625 0.296875 2.015625zm-1.890625 -0.265625q0.03125 -0.6875 -0.140625 -1.265625q-0.15625 -0.578125 -0.515625 -1.0q-0.34375 -0.421875 -0.859375 -0.65623474q-0.515625 -0.234375 -1.203125 -0.234375q-0.59375 0 -1.09375 0.234375q-0.484375 0.23435974 -0.84375 0.65623474q-0.34375 0.40625 -0.5625 1.0q-0.21875 0.578125 -0.28125 1.265625l5.5 0zm11.507568 6.046875l-0.046875 -1.40625q-0.859375 0.84375 -1.734375 1.21875q-0.875 0.375 -1.84375 0.375q-0.90625 0 -1.546875 -0.21875q-0.625 -0.234375 -1.046875 -0.640625q-0.40625 -0.40625 -0.59375 -0.9375q-0.1875 -0.546875 -0.1875 -1.1875q0 -1.5625 1.171875 -2.453125q1.171875 -0.890625 3.453125 -0.890625l2.171875 0l0 -0.921875q0 -0.921875 -0.59375 -1.484375q-0.59375 -0.56248474 -1.8125 -0.56248474q-0.890625 0 -1.75 0.203125q-0.859375 0.20310974 -1.765625 0.56248474l0 -1.6406097q0.34375 -0.125 0.765625 -0.234375q0.421875 -0.125 0.890625 -0.21875q0.46875 -0.09375 0.96875 -0.140625q0.515625 -0.0625 1.03125 -0.0625q0.953125 0 1.703125 0.203125q0.765625 0.203125 1.296875 0.640625q0.53125 0.421875 0.8125 1.0781097q0.28125 0.640625 0.28125 1.515625l0 7.203125l-1.625 0zm-0.203125 -4.765625l-2.296875 0q-0.6875 0 -1.171875 0.140625q-0.484375 0.140625 -0.796875 0.390625q-0.3125 0.25 -0.46875 0.59375q-0.15625 0.34375 -0.15625 0.78125q0 0.3125 0.09375 0.59375q0.09375 0.265625 0.296875 0.484375q0.21875 0.203125 0.546875 0.328125q0.34375 0.125 0.8125 0.125q0.625 0 1.4375 -0.375q0.8125 -0.375 1.703125 -1.203125l0 -1.859375zm4.6794434 -0.25q0 -1.328125 0.359375 -2.359375q0.359375 -1.046875 1.03125 -1.7499847q0.671875 -0.71875 1.609375 -1.078125q0.953125 -0.375 2.109375 -0.375q0.5 0 0.984375 0.0625q0.484375 0.0625 0.953125 0.1875l0 -4.390625l1.828125 0l0 14.718735l-1.625 0l-0.0625 -1.984375q-0.765625 1.109375 -1.65625 1.640625q-0.875 0.53125 -1.90625 0.53125q-0.90625 0 -1.59375 -0.375q-0.671875 -0.375 -1.125 -1.046875q-0.453125 -0.6875 -0.6875 -1.640625q-0.21875 -0.96875 -0.21875 -2.140625zm1.84375 -0.109375q0 1.890625 0.5625 2.828125q0.5625 0.9375 1.578125 0.9375q0.6875 0 1.453125 -0.609375q0.765625 -0.625 1.609375 -1.828125l0 -4.859375q-0.453125 -0.20310974 -1.0 -0.31248474q-0.53125 -0.109375 -1.0625 -0.109375q-1.484375 0 -2.3125 0.95310974q-0.828125 0.953125 -0.828125 3.0zm19.241943 -0.65625q0 0.390625 -0.015625 0.65625q0 0.25 -0.03125 0.484375l-7.34375 0q0 1.59375 0.890625 2.453125q0.90625 0.859375 2.59375 0.859375q0.453125 0 0.90625 -0.03125q0.46875 -0.03125 0.890625 -0.09375q0.4375 -0.0625 0.828125 -0.140625q0.390625 -0.078125 0.71875 -0.171875l0 1.484375q-0.734375 0.203125 -1.671875 0.328125q-0.9375 0.140625 -1.9375 0.140625q-1.34375 0 -2.3125 -0.359375q-0.96875 -0.375 -1.59375 -1.0625q-0.609375 -0.6875 -0.90625 -1.6875q-0.296875 -1.015625 -0.296875 -2.28125q0 -1.109375 0.3125 -2.09375q0.328125 -0.984375 0.9375 -1.7187347q0.609375 -0.75 1.484375 -1.1875q0.890625 -0.4375 2.015625 -0.4375q1.09375 0 1.9375 0.34375q0.84375 0.34375 1.421875 0.96875q0.578125 0.62498474 0.875 1.5312347q0.296875 0.90625 0.296875 2.015625zm-1.890625 -0.265625q0.03125 -0.6875 -0.140625 -1.265625q-0.15625 -0.578125 -0.515625 -1.0q-0.34375 -0.421875 -0.859375 -0.65623474q-0.515625 -0.234375 -1.203125 -0.234375q-0.59375 0 -1.09375 0.234375q-0.484375 0.23435974 -0.84375 0.65623474q-0.34375 0.40625 -0.5625 1.0q-0.21875 0.578125 -0.28125 1.265625l5.5 0zm5.2106934 -4.4062347l1.65625 0l0.046875 1.9218597q0.9375 -1.1093597 1.828125 -1.6093597q0.90625 -0.5 1.828125 -0.5q1.625 0 2.453125 1.046875q0.84375 1.0468597 0.78125 3.1249847l-1.828125 0q0.03125 -1.375 -0.40625 -1.984375q-0.4375 -0.62498474 -1.265625 -0.62498474q-0.359375 0 -0.734375 0.125q-0.375 0.125 -0.765625 0.42185974q-0.390625 0.28125 -0.828125 0.734375q-0.4375 0.4375 -0.9375 1.078125l0 6.71875l-1.828125 0l0 -10.45311z" fill-rule="nonzero"/><path fill="#000000" d="m677.4453 287.5137q0.359375 0 0.671875 0.140625q0.3125 0.125 0.546875 0.375q0.234375 0.234375 0.375 0.5625q0.140625 0.3125 0.140625 0.671875q0 0.359375 -0.140625 0.671875q-0.140625 0.3125 -0.375 0.546875q-0.234375 0.234375 -0.546875 0.359375q-0.3125 0.140625 -0.671875 0.140625q-0.359375 0 -0.671875 -0.140625q-0.3125 -0.125 -0.546875 -0.359375q-0.234375 -0.234375 -0.375 -0.546875q-0.140625 -0.3125 -0.140625 -0.671875q0 -0.359375 0.140625 -0.671875q0.140625 -0.328125 0.375 -0.5625q0.234375 -0.25 0.546875 -0.375q0.3125 -0.140625 0.671875 -0.140625zm11.726257 0q0.359375 0 0.671875 0.140625q0.3125 0.125 0.546875 0.375q0.234375 0.234375 0.375 0.5625q0.140625 0.3125 0.140625 0.671875q0 0.359375 -0.140625 0.671875q-0.140625 0.3125 -0.375 0.546875q-0.234375 0.234375 -0.546875 0.359375q-0.3125 0.140625 -0.671875 0.140625q-0.359375 0 -0.671875 -0.140625q-0.3125 -0.125 -0.546875 -0.359375q-0.234375 -0.234375 -0.375 -0.546875q-0.140625 -0.3125 -0.140625 -0.671875q0 -0.359375 0.140625 -0.671875q0.140625 -0.328125 0.375 -0.5625q0.234375 -0.25 0.546875 -0.375q0.3125 -0.140625 0.671875 -0.140625zm11.726318 0q0.359375 0 0.671875 0.140625q0.3125 0.125 0.546875 0.375q0.234375 0.234375 0.375 0.5625q0.140625 0.3125 0.140625 0.671875q0 0.359375 -0.140625 0.671875q-0.140625 0.3125 -0.375 0.546875q-0.234375 0.234375 -0.546875 0.359375q-0.3125 0.140625 -0.671875 0.140625q-0.359375 0 -0.671875 -0.140625q-0.3125 -0.125 -0.546875 -0.359375q-0.234375 -0.234375 -0.375 -0.546875q-0.140625 -0.3125 -0.140625 -0.671875q0 -0.359375 0.140625 -0.671875q0.140625 -0.328125 0.375 -0.5625q0.234375 -0.25 0.546875 -0.375q0.3125 -0.140625 0.671875 -0.140625z" fill-rule="nonzero"/><path fill="#000000" d="m680.39844 451.06058l-5.140625 0l0 -19.34375l5.140625 0l0 1.453125l-3.40625 0l0 16.4375l3.40625 0l0 1.453125zm12.116882 -4.265625l0 -7.515625q0 -0.484375 -0.046875 -0.796875q-0.03125 -0.3125 -0.109375 -0.484375q-0.078125 -0.1875 -0.203125 -0.265625q-0.109375 -0.078125 -0.28125 -0.078125q-0.21875 0 -0.390625 0.125q-0.171875 0.125 -0.375 0.40625q-0.203125 0.28125 -0.453125 0.75q-0.25 0.46875 -0.578125 1.140625l0 6.71875l-1.65625 0l0 -7.3125q0 -0.578125 -0.046875 -0.921875q-0.03125 -0.359375 -0.109375 -0.546875q-0.078125 -0.203125 -0.203125 -0.28125q-0.125 -0.078125 -0.296875 -0.078125q-0.1875 0 -0.359375 0.109375q-0.15625 0.109375 -0.359375 0.375q-0.203125 0.265625 -0.453125 0.734375q-0.25 0.46875 -0.59375 1.203125l0 6.71875l-1.671875 0l0 -10.453125l1.390625 0l0.078125 1.984375q0.265625 -0.59375 0.515625 -1.0q0.265625 -0.421875 0.53125 -0.671875q0.28125 -0.265625 0.578125 -0.375q0.3125 -0.125 0.6875 -0.125q0.84375 0 1.28125 0.546875q0.4375 0.546875 0.4375 1.703125q0.25 -0.53125 0.484375 -0.953125q0.25 -0.421875 0.515625 -0.703125q0.28125 -0.296875 0.609375 -0.4375q0.34375 -0.15625 0.78125 -0.15625q1.953125 0 1.953125 3.03125l0 7.609375l-1.65625 0zm13.101318 -5.78125q0 0.390625 -0.015625 0.65625q0 0.25 -0.03125 0.484375l-7.34375 0q0 1.59375 0.890625 2.453125q0.90625 0.859375 2.59375 0.859375q0.453125 0 0.90625 -0.03125q0.46875 -0.03125 0.890625 -0.09375q0.4375 -0.0625 0.828125 -0.140625q0.390625 -0.078125 0.71875 -0.171875l0 1.484375q-0.734375 0.203125 -1.671875 0.328125q-0.9375 0.140625 -1.9375 0.140625q-1.34375 0 -2.3125 -0.359375q-0.96875 -0.375 -1.59375 -1.0625q-0.609375 -0.6875 -0.90625 -1.6875q-0.296875 -1.015625 -0.296875 -2.28125q0 -1.109375 0.3125 -2.09375q0.328125 -0.984375 0.9375 -1.71875q0.609375 -0.75 1.484375 -1.1875q0.890625 -0.4375 2.015625 -0.4375q1.09375 0 1.9375 0.34375q0.84375 0.34375 1.421875 0.96875q0.578125 0.625 0.875 1.53125q0.296875 0.90625 0.296875 2.015625zm-1.890625 -0.265625q0.03125 -0.6875 -0.140625 -1.265625q-0.15625 -0.578125 -0.515625 -1.0q-0.34375 -0.421875 -0.859375 -0.65625q-0.515625 -0.234375 -1.203125 -0.234375q-0.59375 0 -1.09375 0.234375q-0.484375 0.234375 -0.84375 0.65625q-0.34375 0.40625 -0.5625 1.0q-0.21875 0.578125 -0.28125 1.265625l5.5 0zm13.070068 3.1875q0 0.5625 -0.1875 1.0q-0.1875 0.4375 -0.515625 0.78125q-0.328125 0.328125 -0.75 0.578125q-0.421875 0.234375 -0.90625 0.390625q-0.484375 0.15625 -1.0 0.21875q-0.515625 0.078125 -1.0 0.078125q-1.0625 0 -1.953125 -0.09375q-0.890625 -0.09375 -1.75 -0.296875l0 -1.671875q0.921875 0.265625 1.828125 0.40625q0.90625 0.125 1.796875 0.125q1.3125 0 1.9375 -0.34375q0.625 -0.359375 0.625 -1.015625q0 -0.28125 -0.109375 -0.5q-0.09375 -0.234375 -0.359375 -0.4375q-0.25 -0.203125 -0.796875 -0.421875q-0.546875 -0.21875 -1.5 -0.5q-0.703125 -0.203125 -1.3125 -0.46875q-0.59375 -0.265625 -1.03125 -0.625q-0.4375 -0.375 -0.6875 -0.859375q-0.25 -0.5 -0.25 -1.15625q0 -0.4375 0.203125 -0.953125q0.203125 -0.53125 0.6875 -0.96875q0.5 -0.453125 1.328125 -0.75q0.828125 -0.296875 2.078125 -0.296875q0.625 0 1.375 0.0625q0.75 0.0625 1.5625 0.234375l0 1.609375q-0.859375 -0.203125 -1.625 -0.296875q-0.765625 -0.109375 -1.328125 -0.109375q-0.671875 0 -1.140625 0.109375q-0.46875 0.109375 -0.75 0.296875q-0.28125 0.171875 -0.40625 0.421875q-0.125 0.234375 -0.125 0.515625q0 0.28125 0.109375 0.515625q0.109375 0.234375 0.40625 0.453125q0.296875 0.203125 0.828125 0.421875q0.53125 0.203125 1.375 0.453125q0.9375 0.28125 1.5625 0.578125q0.640625 0.296875 1.03125 0.65625q0.40625 0.359375 0.578125 0.828125q0.171875 0.453125 0.171875 1.03125zm11.726318 0q0 0.5625 -0.1875 1.0q-0.1875 0.4375 -0.515625 0.78125q-0.328125 0.328125 -0.75 0.578125q-0.421875 0.234375 -0.90625 0.390625q-0.484375 0.15625 -1.0 0.21875q-0.515625 0.078125 -1.0 0.078125q-1.0625 0 -1.953125 -0.09375q-0.890625 -0.09375 -1.75 -0.296875l0 -1.671875q0.921875 0.265625 1.828125 0.40625q0.90625 0.125 1.796875 0.125q1.3125 0 1.9375 -0.34375q0.625 -0.359375 0.625 -1.015625q0 -0.28125 -0.109375 -0.5q-0.09375 -0.234375 -0.359375 -0.4375q-0.25 -0.203125 -0.796875 -0.421875q-0.546875 -0.21875 -1.5 -0.5q-0.703125 -0.203125 -1.3125 -0.46875q-0.59375 -0.265625 -1.03125 -0.625q-0.4375 -0.375 -0.6875 -0.859375q-0.25 -0.5 -0.25 -1.15625q0 -0.4375 0.203125 -0.953125q0.203125 -0.53125 0.6875 -0.96875q0.5 -0.453125 1.328125 -0.75q0.828125 -0.296875 2.078125 -0.296875q0.625 0 1.375 0.0625q0.75 0.0625 1.5625 0.234375l0 1.609375q-0.859375 -0.203125 -1.625 -0.296875q-0.765625 -0.109375 -1.328125 -0.109375q-0.671875 0 -1.140625 0.109375q-0.46875 0.109375 -0.75 0.296875q-0.28125 0.171875 -0.40625 0.421875q-0.125 0.234375 -0.125 0.515625q0 0.28125 0.109375 0.515625q0.109375 0.234375 0.40625 0.453125q0.296875 0.203125 0.828125 0.421875q0.53125 0.203125 1.375 0.453125q0.9375 0.28125 1.5625 0.578125q0.640625 0.296875 1.03125 0.65625q0.40625 0.359375 0.578125 0.828125q0.171875 0.453125 0.171875 1.03125zm10.163757 2.859375l-0.046875 -1.40625q-0.859375 0.84375 -1.734375 1.21875q-0.875 0.375 -1.84375 0.375q-0.90625 0 -1.546875 -0.21875q-0.625 -0.234375 -1.046875 -0.640625q-0.40625 -0.40625 -0.59375 -0.9375q-0.1875 -0.546875 -0.1875 -1.1875q0 -1.5625 1.171875 -2.453125q1.171875 -0.890625 3.453125 -0.890625l2.171875 0l0 -0.921875q0 -0.921875 -0.59375 -1.484375q-0.59375 -0.5625 -1.8125 -0.5625q-0.890625 0 -1.75 0.203125q-0.859375 0.203125 -1.765625 0.5625l0 -1.640625q0.34375 -0.125 0.765625 -0.234375q0.421875 -0.125 0.890625 -0.21875q0.46875 -0.09375 0.96875 -0.140625q0.515625 -0.0625 1.03125 -0.0625q0.953125 0 1.703125 0.203125q0.765625 0.203125 1.296875 0.640625q0.53125 0.421875 0.8125 1.078125q0.28125 0.640625 0.28125 1.515625l0 7.203125l-1.625 0zm-0.203125 -4.765625l-2.296875 0q-0.6875 0 -1.171875 0.140625q-0.484375 0.140625 -0.796875 0.390625q-0.3125 0.25 -0.46875 0.59375q-0.15625 0.34375 -0.15625 0.78125q0 0.3125 0.09375 0.59375q0.09375 0.265625 0.296875 0.484375q0.21875 0.203125 0.546875 0.328125q0.34375 0.125 0.8125 0.125q0.625 0 1.4375 -0.375q0.8125 -0.375 1.703125 -1.203125l0 -1.859375zm12.741943 -4.21875q0.28125 0.375 0.4375 0.859375q0.171875 0.484375 0.171875 1.046875q0 0.8125 -0.296875 1.484375q-0.296875 0.671875 -0.84375 1.15625q-0.53125 0.46875 -1.296875 0.734375q-0.75 0.265625 -1.65625 0.265625q-0.65625 0 -1.234375 -0.140625q-0.5625 -0.140625 -0.90625 -0.34375q-0.1875 0.28125 -0.328125 0.546875q-0.140625 0.265625 -0.140625 0.578125q0 0.40625 0.375 0.671875q0.390625 0.25 1.015625 0.265625l2.75 0.109375q0.78125 0.015625 1.4375 0.203125q0.671875 0.171875 1.140625 0.515625q0.46875 0.328125 0.734375 0.8125q0.265625 0.484375 0.265625 1.140625q0 0.6875 -0.296875 1.3125q-0.296875 0.625 -0.9375 1.09375q-0.625 0.484375 -1.59375 0.765625q-0.96875 0.28125 -2.296875 0.28125q-1.28125 0 -2.171875 -0.203125q-0.890625 -0.203125 -1.46875 -0.5625q-0.5625 -0.359375 -0.828125 -0.859375q-0.25 -0.484375 -0.25 -1.078125q0 -0.765625 0.34375 -1.34375q0.359375 -0.5625 1.09375 -1.09375q-0.265625 -0.125 -0.46875 -0.3125q-0.1875 -0.1875 -0.3125 -0.40625q-0.125 -0.234375 -0.1875 -0.484375q-0.0625 -0.25 -0.0625 -0.484375q0 -0.6875 0.3125 -1.25q0.3125 -0.5625 0.75 -1.0625q-0.1875 -0.234375 -0.34375 -0.453125q-0.15625 -0.234375 -0.265625 -0.5q-0.109375 -0.265625 -0.171875 -0.578125q-0.046875 -0.3125 -0.046875 -0.703125q0 -0.8125 0.296875 -1.484375q0.296875 -0.671875 0.828125 -1.140625q0.546875 -0.484375 1.296875 -0.75q0.75 -0.265625 1.671875 -0.265625q0.390625 0 0.734375 0.046875q0.359375 0.046875 0.625 0.140625l3.796875 0l0 1.46875l-1.671875 0zm-6.296875 10.5q0 0.734375 0.765625 1.0625q0.78125 0.34375 2.15625 0.34375q0.859375 0 1.4375 -0.15625q0.59375 -0.15625 0.953125 -0.40625q0.359375 -0.25 0.515625 -0.578125q0.15625 -0.328125 0.15625 -0.671875q0 -0.640625 -0.515625 -0.953125q-0.515625 -0.296875 -1.59375 -0.34375l-2.734375 -0.09375q-0.34375 0.234375 -0.5625 0.453125q-0.21875 0.21875 -0.34375 0.4375q-0.125 0.21875 -0.1875 0.4375q-0.046875 0.234375 -0.046875 0.46875zm0.546875 -8.5625q0 0.5 0.171875 0.921875q0.171875 0.421875 0.46875 0.71875q0.296875 0.28125 0.703125 0.453125q0.421875 0.15625 0.921875 0.15625q0.546875 0 0.96875 -0.1875q0.421875 -0.1875 0.703125 -0.5q0.28125 -0.3125 0.4375 -0.71875q0.15625 -0.40625 0.15625 -0.84375q0 -0.5 -0.171875 -0.90625q-0.171875 -0.421875 -0.46875 -0.703125q-0.296875 -0.296875 -0.71875 -0.453125q-0.40625 -0.171875 -0.90625 -0.171875q-0.546875 0 -0.96875 0.1875q-0.421875 0.1875 -0.703125 0.5q-0.28125 0.296875 -0.4375 0.703125q-0.15625 0.40625 -0.15625 0.84375zm18.773193 1.265625q0 0.390625 -0.015625 0.65625q0 0.25 -0.03125 0.484375l-7.34375 0q0 1.59375 0.890625 2.453125q0.90625 0.859375 2.59375 0.859375q0.453125 0 0.90625 -0.03125q0.46875 -0.03125 0.890625 -0.09375q0.4375 -0.0625 0.828125 -0.140625q0.390625 -0.078125 0.71875 -0.171875l0 1.484375q-0.734375 0.203125 -1.671875 0.328125q-0.9375 0.140625 -1.9375 0.140625q-1.34375 0 -2.3125 -0.359375q-0.96875 -0.375 -1.59375 -1.0625q-0.609375 -0.6875 -0.90625 -1.6875q-0.296875 -1.015625 -0.296875 -2.28125q0 -1.109375 0.3125 -2.09375q0.328125 -0.984375 0.9375 -1.71875q0.609375 -0.75 1.484375 -1.1875q0.890625 -0.4375 2.015625 -0.4375q1.09375 0 1.9375 0.34375q0.84375 0.34375 1.421875 0.96875q0.578125 0.625 0.875 1.53125q0.296875 0.90625 0.296875 2.015625zm-1.890625 -0.265625q0.03125 -0.6875 -0.140625 -1.265625q-0.15625 -0.578125 -0.515625 -1.0q-0.34375 -0.421875 -0.859375 -0.65625q-0.515625 -0.234375 -1.203125 -0.234375q-0.59375 0 -1.09375 0.234375q-0.484375 0.234375 -0.84375 0.65625q-0.34375 0.40625 -0.5625 1.0q-0.21875 0.578125 -0.28125 1.265625l5.5 0zm25.452576 0.625q0 1.3125 -0.359375 2.34375q-0.359375 1.015625 -1.03125 1.734375q-0.65625 0.703125 -1.609375 1.09375q-0.9375 0.375 -2.125 0.375q-0.9375 0 -1.90625 -0.171875q-0.96875 -0.1875 -1.90625 -0.5625l0 -14.109375l1.8125 0l0 4.046875l-0.09375 1.9375q0.78125 -1.046875 1.671875 -1.46875q0.890625 -0.4375 1.921875 -0.4375q0.890625 0 1.5625 0.375q0.6875 0.375 1.140625 1.0625q0.453125 0.671875 0.6875 1.640625q0.234375 0.953125 0.234375 2.140625zm-1.859375 0.09375q0 -0.828125 -0.125 -1.515625q-0.109375 -0.6875 -0.375 -1.171875q-0.265625 -0.5 -0.671875 -0.765625q-0.40625 -0.28125 -0.96875 -0.28125q-0.34375 0 -0.703125 0.109375q-0.34375 0.109375 -0.734375 0.375q-0.375 0.25 -0.796875 0.671875q-0.421875 0.421875 -0.890625 1.046875l0 5.0625q0.53125 0.21875 1.078125 0.34375q0.546875 0.109375 1.046875 0.109375q0.625 0 1.1875 -0.1875q0.578125 -0.203125 1.0 -0.671875q0.4375 -0.46875 0.6875 -1.234375q0.265625 -0.765625 0.265625 -1.890625zm13.741943 0.015625q0 1.21875 -0.34375 2.234375q-0.34375 1.015625 -0.984375 1.75q-0.640625 0.71875 -1.578125 1.125q-0.921875 0.390625 -2.09375 0.390625q-1.125 0 -2.015625 -0.34375q-0.890625 -0.359375 -1.515625 -1.03125q-0.625 -0.671875 -0.953125 -1.671875q-0.328125 -1.0 -0.328125 -2.3125q0 -1.21875 0.34375 -2.21875q0.34375 -1.0 0.984375 -1.71875q0.65625 -0.734375 1.578125 -1.125q0.9375 -0.40625 2.109375 -0.40625q1.125 0 2.015625 0.34375q0.890625 0.34375 1.5 1.015625q0.625 0.671875 0.953125 1.671875q0.328125 1.0 0.328125 2.296875zm-1.84375 0.078125q0 -0.96875 -0.21875 -1.6875q-0.21875 -0.71875 -0.609375 -1.203125q-0.390625 -0.484375 -0.96875 -0.734375q-0.5625 -0.25 -1.265625 -0.25q-0.8125 0 -1.390625 0.328125q-0.578125 0.3125 -0.953125 0.84375q-0.359375 0.53125 -0.53125 1.234375q-0.171875 0.703125 -0.171875 1.46875q0 0.96875 0.203125 1.703125q0.21875 0.734375 0.609375 1.21875q0.40625 0.484375 0.96875 0.734375q0.5625 0.234375 1.265625 0.234375q0.8125 0 1.390625 -0.3125q0.578125 -0.328125 0.953125 -0.859375q0.375 -0.53125 0.546875 -1.234375q0.171875 -0.703125 0.171875 -1.484375zm3.9450684 0.21875q0 -1.328125 0.359375 -2.359375q0.359375 -1.046875 1.03125 -1.75q0.671875 -0.71875 1.609375 -1.078125q0.953125 -0.375 2.109375 -0.375q0.5 0 0.984375 0.0625q0.484375 0.0625 0.953125 0.1875l0 -4.390625l1.828125 0l0 14.71875l-1.625 0l-0.0625 -1.984375q-0.765625 1.109375 -1.65625 1.640625q-0.875 0.53125 -1.90625 0.53125q-0.90625 0 -1.59375 -0.375q-0.671875 -0.375 -1.125 -1.046875q-0.453125 -0.6875 -0.6875 -1.640625q-0.21875 -0.96875 -0.21875 -2.140625zm1.84375 -0.109375q0 1.890625 0.5625 2.828125q0.5625 0.9375 1.578125 0.9375q0.6875 0 1.453125 -0.609375q0.765625 -0.625 1.609375 -1.828125l0 -4.859375q-0.453125 -0.203125 -1.0 -0.3125q-0.53125 -0.109375 -1.0625 -0.109375q-1.484375 0 -2.3125 0.953125q-0.828125 0.953125 -0.828125 3.0zm19.710693 -5.328125l-3.5625 9.34375q-0.546875 1.4375 -1.140625 2.46875q-0.59375 1.03125 -1.296875 1.6875q-0.6875 0.65625 -1.53125 0.96875q-0.828125 0.3125 -1.859375 0.3125q-0.265625 0 -0.484375 -0.015625q-0.21875 0 -0.484375 -0.015625l0 -1.65625q0.234375 0.03125 0.5 0.0625q0.28125 0.03125 0.578125 0.03125q0.5 0 0.921875 -0.15625q0.4375 -0.140625 0.828125 -0.46875q0.390625 -0.328125 0.734375 -0.859375q0.359375 -0.515625 0.6875 -1.25l-4.171875 -10.453125l2.0625 0l2.640625 6.90625l0.53125 1.625l0.609375 -1.65625l2.453125 -6.875l1.984375 0zm8.898132 14.71875l-5.140625 0l0 -1.453125l3.390625 0l0 -16.4375l-3.390625 0l0 -1.453125l5.140625 0l0 19.34375z" fill-rule="nonzero"/><path fill="#000000" fill-opacity="0.0" d="m507.24146 343.4908c38.251953 0 57.37799 -32.22046 76.50397 -64.44095c19.125977 -32.220474 38.251953 -64.44095 76.50391 -64.44095" fill-rule="evenodd"/><path stroke="#cccccc" stroke-width="3.0" stroke-linejoin="round" stroke-linecap="butt" stroke-dasharray="12.0,9.0" d="m507.24146 343.4908c38.251953 0 57.37799 -32.22046 76.50397 -64.44095c9.562988 -16.11023 19.125977 -32.220474 31.079712 -44.303146c5.9768677 -6.041336 12.551453 -11.07579 20.022522 -14.599899c1.8677979 -0.8810272 3.791565 -1.6676483 5.776062 -2.3520355c0.4961548 -0.1710968 0.99609375 -0.33580017 1.4998169 -0.49397278l0.31396484 -0.09617615" fill-rule="evenodd"/><path fill="#cccccc" stroke="#cccccc" stroke-width="3.0" stroke-linecap="butt" d="m643.15204 222.10805l12.757446 -6.8666687l-14.186584 -2.9401398z" fill-rule="evenodd"/><path fill="#000000" fill-opacity="0.0" d="m1019.33594 257.27298l0 0c23.876709 0 45.845337 18.65503 57.272705 48.634003c11.427368 29.978973 10.487061 66.49054 -2.451416 95.18637c-12.938477 28.6958 -35.80713 44.989563 -59.6192 42.47812l4.7979126 -93.02292z" fill-rule="evenodd"/><path fill="#000000" fill-opacity="0.0" d="m1019.33594 257.27298l0 0c23.876709 0 45.845337 18.65503 57.272705 48.634003c11.427368 29.978973 10.487061 66.49054 -2.451416 95.18637c-12.938477 28.6958 -35.80713 44.989563 -59.6192 42.47812" fill-rule="evenodd"/><path stroke="#cccccc" stroke-width="3.0" stroke-linejoin="round" stroke-linecap="butt" stroke-dasharray="12.0,9.0" d="m1019.33594 257.27298l0 0c23.876709 0 45.845337 18.65503 57.272705 48.634003c11.427368 29.978973 10.487061 66.49057 -2.451416 95.18637c-6.4692383 14.347931 -15.4210205 25.595306 -25.732056 32.941803c-5.1555176 3.6732178 -10.650757 6.3712463 -16.345337 7.9939575c-0.71191406 0.20288086 -1.4268799 0.38891602 -2.1446533 0.5579529c-0.35888672 0.08453369 -0.71850586 0.1647644 -1.0788574 0.24081421c-0.18005371 0.037963867 -0.36035156 0.074920654 -0.5407715 0.11077881l-0.28979492 0.05581665" fill-rule="evenodd"/><path fill="#cccccc" stroke="#cccccc" stroke-width="3.0" stroke-linecap="butt" d="m1027.8839 439.68015l-8.964172 3.703888l9.247742 2.9247131z" fill-rule="evenodd"/><path fill="#c00000" d="m574.60516 264.82983l10.347595 10.347595l10.347595 -10.347595l3.8717651 3.8717346l-10.347595 10.347595l10.347595 10.347595l-3.8717651 3.8717651l-10.347595 -10.347595l-10.347595 10.347595l-3.8717651 -3.8717651l10.347595 -10.347595l-10.347595 -10.347595z" fill-rule="evenodd"/><path fill="#000000" fill-opacity="0.0" d="m506.01312 343.84515c40.692932 0 61.039368 24.842499 81.3858 49.685028c20.346497 24.84253 40.692932 49.685028 81.385864 49.685028" fill-rule="evenodd"/><path stroke="#c00000" stroke-width="4.0" stroke-linejoin="round" stroke-linecap="butt" d="m506.01312 343.84515c40.692932 0 61.039368 24.842499 81.3858 49.685028c10.173279 12.421265 20.346497 24.84253 33.06299 34.158478c6.3582764 4.657959 13.352417 8.539612 21.300232 11.256744c0.99346924 0.33966064 2.001831 0.6611023 3.0257568 0.9635925l0.21704102 0.06286621" fill-rule="evenodd"/><path fill="#c00000" stroke="#c00000" stroke-width="4.0" stroke-linecap="butt" d="m644.11206 446.5182l18.878723 -4.0932007l-17.092957 -8.99942z" fill-rule="evenodd"/></g></svg>
