<svg version="1.1" viewBox="120.0 130.0 860.0 220.0" fill="none" stroke="none" stroke-linecap="square" stroke-miterlimit="10" xmlns:xlink="http://www.w3.org/1999/xlink" xmlns="http://www.w3.org/2000/svg"><clipPath id="gf8932d7e54_0_27.0"><path d="m0 0l1280.0 0l0 720.0l-1280.0 0l0 -720.0z" clip-rule="nonzero"/></clipPath><g clip-path="url(#gf8932d7e54_0_27.0)"><path fill="#0070c0" d="m139.42781 205.3412l307.02362 0l0 98.89763l-307.02362 0z" fill-rule="evenodd"/><path stroke="#12a5d6" stroke-width="2.0" stroke-miterlimit="800.0" stroke-linecap="butt" d="m139.42781 205.3412l307.02362 0l0 98.89763l-307.02362 0z" fill-rule="evenodd"/><path fill="#ffffff" d="m159.84969 243.92377q0 1.140625 -0.5 2.078125q-0.484375 0.9375 -1.34375 1.609375q-0.859375 0.671875 -2.03125 1.0625q-1.171875 0.375 -2.53125 0.375q-0.34375 0 -0.734375 -0.03125q-0.390625 -0.015625 -0.78125 -0.046875q-0.375 -0.015625 -0.75 -0.0625q-0.375 -0.03125 -0.65625 -0.078125l0 -1.859375q0.625 0.15625 1.4375 0.234375q0.8125 0.0625 1.65625 0.0625q0.9375 0 1.6875 -0.21875q0.75 -0.21875 1.265625 -0.640625q0.53125 -0.421875 0.8125 -1.0q0.28125 -0.59375 0.28125 -1.34375q0 -1.421875 -1.03125 -2.0625q-1.015625 -0.65625 -2.9375 -0.65625l-2.90625 0l0 -7.828125l8.25 0l0 1.78125l-6.328125 0l0 4.296875l1.328125 0q1.109375 0 2.140625 0.203125q1.046875 0.1875 1.859375 0.6875q0.828125 0.5 1.3125 1.34375q0.5 0.828125 0.5 2.09375zm13.4609375 4.90625l-9.625 0l0 -1.90625l3.9375 0l0 -11.171875l-3.671875 1.984375l-0.75 -1.734375l4.875 -2.5625l1.8125 0l0 13.484375l3.421875 0l0 1.90625zm13.3203125 0l-10.09375 0l0 -1.828125l3.96875 -3.9375q0.96875 -0.96875 1.578125 -1.671875q0.609375 -0.703125 0.953125 -1.28125q0.34375 -0.578125 0.453125 -1.09375q0.125 -0.515625 0.125 -1.109375q0 -0.5625 -0.15625 -1.0625q-0.15625 -0.515625 -0.46875 -0.90625q-0.3125 -0.390625 -0.828125 -0.609375q-0.5 -0.21875 -1.203125 -0.21875q-0.96875 0 -1.765625 0.4375q-0.796875 0.421875 -1.46875 1.109375l-1.125 -1.34375q0.875 -0.90625 2.0 -1.453125q1.125 -0.5625 2.625 -0.5625q1.03125 0 1.859375 0.3125q0.84375 0.296875 1.453125 0.875q0.609375 0.578125 0.9375 1.40625q0.34375 0.828125 0.34375 1.875q0 0.875 -0.234375 1.625q-0.234375 0.75 -0.71875 1.5q-0.46875 0.734375 -1.1875 1.53125q-0.71875 0.796875 -1.703125 1.75l-2.78125 2.703125l7.4375 0l0 1.953125zm14.0078125 0l-2.046875 0l-0.296875 -9.546875l-0.125 -3.671875l-0.71875 2.125l-2.265625 6.09375l-1.4375 0l-2.15625 -5.859375l-0.71875 -2.359375l-0.046875 3.828125l-0.265625 9.390625l-1.96875 0l0.75 -15.3125l2.46875 0l2.0625 5.765625l0.671875 1.9375l0.640625 -1.9375l2.171875 -5.765625l2.546875 0l0.734375 15.3125zm12.4765625 -4.578125q0 1.09375 -0.4375 1.953125q-0.421875 0.84375 -1.21875 1.4375q-0.78125 0.578125 -1.90625 0.890625q-1.109375 0.296875 -2.484375 0.296875l-4.0 0l0 -15.3125l4.375 0q5.125 0 5.125 3.71875q0 1.25 -0.59375 2.140625q-0.59375 0.890625 -1.921875 1.3125q0.609375 0.125 1.171875 0.40625q0.5625 0.28125 0.984375 0.734375q0.421875 0.4375 0.65625 1.046875q0.25 0.609375 0.25 1.375zm-2.71875 -6.734375q0 -0.46875 -0.140625 -0.875q-0.140625 -0.421875 -0.5 -0.71875q-0.34375 -0.296875 -0.9375 -0.46875q-0.59375 -0.1875 -1.515625 -0.1875l-2.15625 0l0 4.796875l2.09375 0q0.703125 0 1.28125 -0.15625q0.59375 -0.15625 1.0 -0.46875q0.421875 -0.3125 0.640625 -0.78125q0.234375 -0.484375 0.234375 -1.140625zm0.5 6.796875q0 -0.578125 -0.25 -1.046875q-0.234375 -0.46875 -0.703125 -0.796875q-0.46875 -0.328125 -1.140625 -0.5q-0.671875 -0.171875 -1.515625 -0.171875l-2.140625 0l0 5.265625l2.203125 0q1.796875 0 2.671875 -0.65625q0.875 -0.671875 0.875 -2.09375z" fill-rule="nonzero"/><path fill="#ffffff" d="m160.36531 271.73627q0 1.5625 -0.453125 2.734375q-0.4375 1.171875 -1.21875 1.953125q-0.765625 0.765625 -1.828125 1.15625q-1.046875 0.390625 -2.265625 0.390625q-0.5625 0 -1.125 -0.0625q-0.5625 -0.046875 -1.125 -0.203125l0 4.9375l-2.046875 0l0 -16.578125l1.8125 0l0.140625 1.96875q0.875 -1.203125 1.859375 -1.6875q1.0 -0.5 2.171875 -0.5q1.0 0 1.765625 0.421875q0.765625 0.421875 1.28125 1.203125q0.515625 0.765625 0.765625 1.84375q0.265625 1.078125 0.265625 2.421875zm-2.09375 0.09375q0 -0.921875 -0.140625 -1.6875q-0.125 -0.78125 -0.421875 -1.328125q-0.296875 -0.5625 -0.75 -0.875q-0.453125 -0.3125 -1.09375 -0.3125q-0.375 0 -0.78125 0.125q-0.390625 0.125 -0.828125 0.421875q-0.421875 0.28125 -0.90625 0.765625q-0.46875 0.46875 -1.0 1.171875l0 5.703125q0.5625 0.234375 1.171875 0.375q0.625 0.125 1.21875 0.125q1.65625 0 2.59375 -1.109375q0.9375 -1.125 0.9375 -3.375zm12.7890625 6.0l-0.046875 -1.578125q-0.96875 0.9375 -1.953125 1.375q-0.984375 0.421875 -2.078125 0.421875q-1.015625 0 -1.734375 -0.265625q-0.703125 -0.265625 -1.171875 -0.703125q-0.453125 -0.453125 -0.671875 -1.0625q-0.21875 -0.609375 -0.21875 -1.328125q0 -1.765625 1.3125 -2.765625q1.328125 -1.015625 3.90625 -1.015625l2.4375 0l0 -1.03125q0 -1.03125 -0.671875 -1.65625q-0.671875 -0.640625 -2.046875 -0.640625q-0.984375 0 -1.953125 0.234375q-0.96875 0.21875 -2.0 0.625l0 -1.84375q0.390625 -0.140625 0.859375 -0.265625q0.46875 -0.140625 1.0 -0.234375q0.53125 -0.109375 1.09375 -0.171875q0.578125 -0.078125 1.171875 -0.078125q1.0625 0 1.921875 0.234375q0.859375 0.234375 1.4375 0.71875q0.59375 0.484375 0.90625 1.21875q0.328125 0.71875 0.328125 1.703125l0 8.109375l-1.828125 0zm-0.21875 -5.359375l-2.59375 0q-0.765625 0 -1.3125 0.15625q-0.546875 0.15625 -0.90625 0.4375q-0.34375 0.28125 -0.515625 0.671875q-0.171875 0.390625 -0.171875 0.875q0 0.34375 0.09375 0.65625q0.109375 0.3125 0.34375 0.5625q0.234375 0.234375 0.609375 0.375q0.375 0.140625 0.921875 0.140625q0.703125 0 1.609375 -0.421875q0.90625 -0.4375 1.921875 -1.359375l0 -2.09375zm14.3203125 -4.75q0.328125 0.421875 0.515625 0.96875q0.1875 0.53125 0.1875 1.171875q0 0.90625 -0.34375 1.671875q-0.328125 0.75 -0.9375 1.296875q-0.609375 0.53125 -1.46875 0.828125q-0.84375 0.296875 -1.859375 0.296875q-0.734375 0 -1.390625 -0.15625q-0.640625 -0.15625 -1.015625 -0.390625q-0.21875 0.328125 -0.375 0.625q-0.15625 0.296875 -0.15625 0.65625q0 0.4375 0.421875 0.734375q0.4375 0.296875 1.140625 0.3125l3.09375 0.125q0.875 0.015625 1.625 0.21875q0.75 0.203125 1.28125 0.578125q0.53125 0.375 0.828125 0.9375q0.296875 0.546875 0.296875 1.265625q0 0.78125 -0.34375 1.484375q-0.328125 0.703125 -1.046875 1.234375q-0.703125 0.546875 -1.796875 0.859375q-1.09375 0.3125 -2.59375 0.3125q-1.421875 0 -2.421875 -0.234375q-1.0 -0.21875 -1.65625 -0.625q-0.640625 -0.40625 -0.9375 -0.96875q-0.28125 -0.546875 -0.28125 -1.21875q0 -0.859375 0.390625 -1.5q0.40625 -0.640625 1.234375 -1.25q-0.3125 -0.140625 -0.53125 -0.34375q-0.21875 -0.21875 -0.359375 -0.46875q-0.140625 -0.25 -0.21875 -0.53125q-0.0625 -0.28125 -0.0625 -0.546875q0 -0.765625 0.359375 -1.390625q0.359375 -0.640625 0.84375 -1.203125q-0.21875 -0.265625 -0.390625 -0.515625q-0.171875 -0.265625 -0.296875 -0.5625q-0.125 -0.296875 -0.1875 -0.640625q-0.0625 -0.359375 -0.0625 -0.796875q0 -0.921875 0.328125 -1.671875q0.34375 -0.75 0.9375 -1.28125q0.609375 -0.546875 1.453125 -0.84375q0.859375 -0.3125 1.890625 -0.3125q0.4375 0 0.828125 0.0625q0.40625 0.0625 0.703125 0.15625l4.265625 0l0 1.65625l-1.890625 0zm-7.078125 11.8125q0 0.828125 0.859375 1.203125q0.875 0.390625 2.421875 0.390625q0.984375 0 1.640625 -0.1875q0.65625 -0.171875 1.0625 -0.453125q0.40625 -0.28125 0.578125 -0.65625q0.1875 -0.375 0.1875 -0.75q0 -0.71875 -0.59375 -1.0625q-0.578125 -0.34375 -1.796875 -0.40625l-3.0625 -0.09375q-0.390625 0.25 -0.640625 0.5q-0.25 0.25 -0.390625 0.5q-0.140625 0.25 -0.203125 0.5q-0.0625 0.25 -0.0625 0.515625zm0.625 -9.625q0 0.5625 0.1875 1.03125q0.1875 0.46875 0.53125 0.796875q0.34375 0.328125 0.796875 0.515625q0.46875 0.171875 1.03125 0.171875q0.609375 0 1.078125 -0.203125q0.484375 -0.203125 0.796875 -0.546875q0.328125 -0.359375 0.5 -0.8125q0.171875 -0.46875 0.171875 -0.953125q0 -0.5625 -0.1875 -1.03125q-0.1875 -0.46875 -0.53125 -0.796875q-0.34375 -0.328125 -0.8125 -0.5q-0.453125 -0.1875 -1.015625 -0.1875q-0.609375 0 -1.09375 0.21875q-0.46875 0.203125 -0.796875 0.546875q-0.3125 0.34375 -0.484375 0.796875q-0.171875 0.453125 -0.171875 0.953125zm21.117188 1.421875q0 0.421875 -0.015625 0.71875q0 0.296875 -0.03125 0.546875l-8.265625 0q0 1.8125 1.0 2.78125q1.015625 0.96875 2.921875 0.96875q0.515625 0 1.03125 -0.046875q0.515625 -0.046875 0.984375 -0.109375q0.484375 -0.078125 0.921875 -0.15625q0.453125 -0.09375 0.828125 -0.203125l0 1.6875q-0.84375 0.234375 -1.890625 0.375q-1.046875 0.15625 -2.171875 0.15625q-1.515625 0 -2.609375 -0.40625q-1.078125 -0.421875 -1.78125 -1.203125q-0.6875 -0.78125 -1.03125 -1.90625q-0.328125 -1.140625 -0.328125 -2.5625q0 -1.25 0.359375 -2.34375q0.359375 -1.109375 1.03125 -1.953125q0.6875 -0.84375 1.6875 -1.328125q1.0 -0.5 2.265625 -0.5q1.234375 0 2.171875 0.390625q0.953125 0.390625 1.59375 1.109375q0.65625 0.703125 0.984375 1.71875q0.34375 1.0 0.34375 2.265625zm-2.125 -0.296875q0.046875 -0.78125 -0.140625 -1.4375q-0.1875 -0.65625 -0.59375 -1.125q-0.390625 -0.46875 -0.984375 -0.71875q-0.578125 -0.265625 -1.34375 -0.265625q-0.671875 0 -1.21875 0.265625q-0.546875 0.25 -0.953125 0.71875q-0.390625 0.46875 -0.640625 1.125q-0.25 0.65625 -0.3125 1.4375l6.1875 0zm12.9453125 6.796875l-0.046875 -1.578125q-0.96875 0.9375 -1.953125 1.375q-0.984375 0.421875 -2.078125 0.421875q-1.015625 0 -1.734375 -0.265625q-0.703125 -0.265625 -1.171875 -0.703125q-0.453125 -0.453125 -0.671875 -1.0625q-0.21875 -0.609375 -0.21875 -1.328125q0 -1.765625 1.3125 -2.765625q1.328125 -1.015625 3.90625 -1.015625l2.4375 0l0 -1.03125q0 -1.03125 -0.671875 -1.65625q-0.671875 -0.640625 -2.046875 -0.640625q-0.984375 0 -1.953125 0.234375q-0.96875 0.21875 -2.0 0.625l0 -1.84375q0.390625 -0.140625 0.859375 -0.265625q0.46875 -0.140625 1.0 -0.234375q0.53125 -0.109375 1.09375 -0.171875q0.578125 -0.078125 1.171875 -0.078125q1.0625 0 1.921875 0.234375q0.859375 0.234375 1.4375 0.71875q0.59375 0.484375 0.90625 1.21875q0.328125 0.71875 0.328125 1.703125l0 8.109375l-1.828125 0zm-0.21875 -5.359375l-2.59375 0q-0.765625 0 -1.3125 0.15625q-0.546875 0.15625 -0.90625 0.4375q-0.34375 0.28125 -0.515625 0.671875q-0.171875 0.390625 -0.171875 0.875q0 0.34375 0.09375 0.65625q0.109375 0.3125 0.34375 0.5625q0.234375 0.234375 0.609375 0.375q0.375 0.140625 0.921875 0.140625q0.703125 0 1.609375 -0.421875q0.90625 -0.4375 1.921875 -1.359375l0 -2.09375zm15.9140625 -0.734375q0 1.46875 -0.40625 2.625q-0.40625 1.140625 -1.15625 1.953125q-0.734375 0.796875 -1.8125 1.234375q-1.0625 0.421875 -2.390625 0.421875q-1.046875 0 -2.140625 -0.203125q-1.09375 -0.203125 -2.15625 -0.625l0 -15.875l2.046875 0l0 4.5625l-0.09375 2.171875q0.875 -1.171875 1.875 -1.65625q1.0 -0.5 2.15625 -0.5q1.0 0 1.765625 0.421875q0.765625 0.421875 1.28125 1.203125q0.515625 0.765625 0.765625 1.84375q0.265625 1.078125 0.265625 2.421875zm-2.09375 0.09375q0 -0.921875 -0.140625 -1.6875q-0.125 -0.78125 -0.421875 -1.328125q-0.296875 -0.5625 -0.75 -0.875q-0.453125 -0.3125 -1.09375 -0.3125q-0.375 0 -0.78125 0.125q-0.390625 0.125 -0.828125 0.421875q-0.421875 0.28125 -0.90625 0.765625q-0.46875 0.46875 -1.0 1.171875l0 5.703125q0.59375 0.234375 1.203125 0.375q0.625 0.125 1.1875 0.125q0.703125 0 1.34375 -0.21875q0.640625 -0.21875 1.125 -0.734375q0.484375 -0.53125 0.765625 -1.390625q0.296875 -0.859375 0.296875 -2.140625zm9.2421875 -8.890625l-3.484375 0l0 -1.671875l5.546875 0l0 14.859375l3.5 0l0 1.703125l-9.4375 0l0 -1.703125l3.875 0l0 -13.1875zm19.117188 8.390625q0 0.421875 -0.015625 0.71875q0 0.296875 -0.03125 0.546875l-8.265625 0q0 1.8125 1.0 2.78125q1.015625 0.96875 2.921875 0.96875q0.515625 0 1.03125 -0.046875q0.515625 -0.046875 0.984375 -0.109375q0.484375 -0.078125 0.921875 -0.15625q0.453125 -0.09375 0.828125 -0.203125l0 1.6875q-0.84375 0.234375 -1.890625 0.375q-1.046875 0.15625 -2.171875 0.15625q-1.515625 0 -2.609375 -0.40625q-1.078125 -0.421875 -1.78125 -1.203125q-0.6875 -0.78125 -1.03125 -1.90625q-0.328125 -1.140625 -0.328125 -2.5625q0 -1.25 0.359375 -2.34375q0.359375 -1.109375 1.03125 -1.953125q0.6875 -0.84375 1.6875 -1.328125q1.0 -0.5 2.265625 -0.5q1.234375 0 2.171875 0.390625q0.953125 0.390625 1.59375 1.109375q0.65625 0.703125 0.984375 1.71875q0.34375 1.0 0.34375 2.265625zm-2.125 -0.296875q0.046875 -0.78125 -0.140625 -1.4375q-0.1875 -0.65625 -0.59375 -1.125q-0.390625 -0.46875 -0.984375 -0.71875q-0.578125 -0.265625 -1.34375 -0.265625q-0.671875 0 -1.21875 0.265625q-0.546875 0.25 -0.953125 0.71875q-0.390625 0.46875 -0.640625 1.125q-0.25 0.65625 -0.3125 1.4375l6.1875 0zm26.968765 6.796875l0 -8.453125q0 -0.546875 -0.046875 -0.890625q-0.03125 -0.359375 -0.125 -0.5625q-0.078125 -0.203125 -0.21875 -0.28125q-0.140625 -0.09375 -0.328125 -0.09375q-0.234375 0 -0.4375 0.140625q-0.203125 0.140625 -0.4375 0.46875q-0.21875 0.3125 -0.5 0.828125q-0.265625 0.515625 -0.640625 1.28125l0 7.5625l-1.875 0l0 -8.234375q0 -0.640625 -0.046875 -1.03125q-0.03125 -0.40625 -0.125 -0.625q-0.078125 -0.21875 -0.21875 -0.296875q-0.140625 -0.09375 -0.34375 -0.09375q-0.203125 0 -0.390625 0.125q-0.1875 0.109375 -0.421875 0.421875q-0.234375 0.296875 -0.515625 0.828125q-0.28125 0.53125 -0.65625 1.34375l0 7.5625l-1.875 0l0 -11.765625l1.546875 0l0.09375 2.234375q0.3125 -0.671875 0.59375 -1.140625q0.296875 -0.46875 0.59375 -0.75q0.3125 -0.28125 0.65625 -0.421875q0.34375 -0.140625 0.765625 -0.140625q0.953125 0 1.4375 0.625q0.5 0.625 0.5 1.921875q0.28125 -0.609375 0.546875 -1.078125q0.265625 -0.484375 0.578125 -0.796875q0.3125 -0.328125 0.6875 -0.5q0.375 -0.171875 0.859375 -0.171875q2.21875 0 2.21875 3.421875l0 8.5625l-1.875 0zm12.3671875 0l-0.046875 -1.578125q-0.96875 0.9375 -1.953125 1.375q-0.984375 0.421875 -2.078125 0.421875q-1.015625 0 -1.734375 -0.265625q-0.703125 -0.265625 -1.171875 -0.703125q-0.453125 -0.453125 -0.671875 -1.0625q-0.21875 -0.609375 -0.21875 -1.328125q0 -1.765625 1.3125 -2.765625q1.328125 -1.015625 3.90625 -1.015625l2.4375 0l0 -1.03125q0 -1.03125 -0.671875 -1.65625q-0.671875 -0.640625 -2.046875 -0.640625q-0.984375 0 -1.953125 0.234375q-0.96875 0.21875 -2.0 0.625l0 -1.84375q0.390625 -0.140625 0.859375 -0.265625q0.46875 -0.140625 1.0 -0.234375q0.53125 -0.109375 1.09375 -0.171875q0.578125 -0.078125 1.171875 -0.078125q1.0625 0 1.921875 0.234375q0.859375 0.234375 1.4375 0.71875q0.59375 0.484375 0.90625 1.21875q0.328125 0.71875 0.328125 1.703125l0 8.109375l-1.828125 0zm-0.21875 -5.359375l-2.59375 0q-0.765625 0 -1.3125 0.15625q-0.546875 0.15625 -0.90625 0.4375q-0.34375 0.28125 -0.515625 0.671875q-0.171875 0.390625 -0.171875 0.875q0 0.34375 0.09375 0.65625q0.109375 0.3125 0.34375 0.5625q0.234375 0.234375 0.609375 0.375q0.375 0.140625 0.921875 0.140625q0.703125 0 1.609375 -0.421875q0.90625 -0.4375 1.921875 -1.359375l0 -2.09375zm15.9140625 -0.734375q0 1.5625 -0.453125 2.734375q-0.4375 1.171875 -1.21875 1.953125q-0.765625 0.765625 -1.828125 1.15625q-1.046875 0.390625 -2.265625 0.390625q-0.5625 0 -1.125 -0.0625q-0.5625 -0.046875 -1.125 -0.203125l0 4.9375l-2.046875 0l0 -16.578125l1.8125 0l0.140625 1.96875q0.875 -1.203125 1.859375 -1.6875q1.0 -0.5 2.171875 -0.5q1.0 0 1.765625 0.421875q0.765625 0.421875 1.28125 1.203125q0.515625 0.765625 0.765625 1.84375q0.265625 1.078125 0.265625 2.421875zm-2.09375 0.09375q0 -0.921875 -0.140625 -1.6875q-0.125 -0.78125 -0.421875 -1.328125q-0.296875 -0.5625 -0.75 -0.875q-0.453125 -0.3125 -1.09375 -0.3125q-0.375 0 -0.78125 0.125q-0.390625 0.125 -0.828125 0.421875q-0.421875 0.28125 -0.90625 0.765625q-0.46875 0.46875 -1.0 1.171875l0 5.703125q0.5625 0.234375 1.171875 0.375q0.625 0.125 1.21875 0.125q1.65625 0 2.59375 -1.109375q0.9375 -1.125 0.9375 -3.375z" fill-rule="nonzero"/><path fill="#ed7d31" d="m347.5013 206.55905l97.88977 0l0 96.44095l-97.88977 0z" fill-rule="evenodd"/><path fill="#000000" d="m364.73917 257.6789q0 -1.5 0.40625 -2.6562347q0.40625 -1.171875 1.15625 -1.96875q0.765625 -0.8125 1.828125 -1.21875q1.0625 -0.421875 2.359375 -0.421875q0.5625 0 1.109375 0.078125q0.546875 0.0625 1.078125 0.21875l0 -4.953125l2.046875 0l0 16.562485l-1.828125 0l-0.078125 -2.234375q-0.84375 1.25 -1.84375 1.859375q-1.0 0.59375 -2.15625 0.59375q-1.015625 0 -1.78125 -0.421875q-0.765625 -0.4375 -1.28125 -1.203125q-0.5 -0.765625 -0.765625 -1.84375q-0.25 -1.078125 -0.25 -2.390625zm2.078125 -0.125q0 2.125 0.625 3.1875q0.640625 1.046875 1.78125 1.046875q0.78125 0 1.640625 -0.6875q0.859375 -0.703125 1.8125 -2.0625l0 -5.4531097q-0.515625 -0.234375 -1.125 -0.359375q-0.609375 -0.125 -1.203125 -0.125q-1.65625 0 -2.59375 1.078125q-0.9375 1.078125 -0.9375 3.3749847zm21.773438 -0.328125q0 1.46875 -0.40625 2.625q-0.40625 1.140625 -1.15625 1.953125q-0.734375 0.796875 -1.8125 1.234375q-1.0625 0.421875 -2.390625 0.421875q-1.046875 0 -2.140625 -0.203125q-1.09375 -0.203125 -2.15625 -0.625l0 -15.874985l2.046875 0l0 4.5625l-0.09375 2.171875q0.875 -1.171875 1.875 -1.65625q1.0 -0.5 2.15625 -0.5q1.0 0 1.765625 0.421875q0.765625 0.421875 1.28125 1.203125q0.515625 0.765625 0.765625 1.84375q0.265625 1.078125 0.265625 2.4218597zm-2.09375 0.09375q0 -0.921875 -0.140625 -1.6874847q-0.125 -0.78125 -0.421875 -1.328125q-0.296875 -0.5625 -0.75 -0.875q-0.453125 -0.3125 -1.09375 -0.3125q-0.375 0 -0.78125 0.125q-0.390625 0.125 -0.828125 0.421875q-0.421875 0.28125 -0.90625 0.765625q-0.46875 0.46875 -1.0 1.171875l0 5.7031097q0.59375 0.234375 1.203125 0.375q0.625 0.125 1.1875 0.125q0.703125 0 1.34375 -0.21875q0.640625 -0.21875 1.125 -0.734375q0.484375 -0.53125 0.765625 -1.390625q0.296875 -0.859375 0.296875 -2.140625zm14.6796875 6.0l-1.828125 0l-0.0625 -1.90625q-0.53125 0.609375 -1.015625 1.015625q-0.46875 0.40625 -0.9375 0.65625q-0.46875 0.25 -0.9375 0.34375q-0.46875 0.109375 -1.0 0.109375q-1.8125 0 -2.75 -1.0625q-0.921875 -1.078125 -0.921875 -3.234375l0 -7.6874847l2.046875 0l0 7.5156097q0 2.71875 2.03125 2.71875q0.375 0 0.734375 -0.109375q0.359375 -0.125 0.75 -0.390625q0.390625 -0.28125 0.84375 -0.75q0.453125 -0.46875 1.015625 -1.1875l0 -7.7968597l2.03125 0l0 11.76561zm14.1796875 -14.656235q-1.59375 -0.34375 -2.765625 -0.34375q-2.75 0 -2.75 2.875l0 2.0625l5.15625 0l0 1.703125l-5.15625 0l0 8.35936l-2.078125 0l0 -8.35936l-3.78125 0l0 -1.703125l3.78125 0l0 -1.9375q0 -4.703125 4.90625 -4.703125q1.21875 0 2.6875 0.28125l0 1.765625zm-12.3125 2.890625l0 0zm25.367188 4.109375q0 1.7656097 -0.359375 3.2187347q-0.34375 1.4375 -1.0625 2.484375q-0.71875 1.03125 -1.78125 1.609375q-1.0625 0.5625 -2.484375 0.5625q-1.234375 0 -2.25 -0.46875q-1.0 -0.46875 -1.71875 -1.421875q-0.703125 -0.96875 -1.09375 -2.453125q-0.390625 -1.484375 -0.390625 -3.5312347q0 -1.75 0.359375 -3.203125q0.359375 -1.453125 1.0625 -2.484375q0.71875 -1.046875 1.78125 -1.609375q1.0625 -0.578125 2.484375 -0.578125q1.234375 0 2.234375 0.46875q1.015625 0.453125 1.71875 1.421875q0.71875 0.96875 1.109375 2.46875q0.390625 1.484375 0.390625 3.515625zm-2.0625 0.078125q0 -0.40625 -0.03125 -0.796875q-0.03125 -0.390625 -0.0625 -0.765625l-6.484375 4.8124847q0.171875 0.609375 0.4375 1.125q0.28125 0.515625 0.65625 0.890625q0.375 0.359375 0.859375 0.578125q0.5 0.203125 1.109375 0.203125q0.796875 0 1.453125 -0.390625q0.65625 -0.390625 1.109375 -1.140625q0.453125 -0.765625 0.703125 -1.890625q0.25 -1.140625 0.25 -2.6249847zm-7.015625 -0.140625q0 0.359375 0 0.71873474q0.015625 0.359375 0.046875 0.703125l6.484375 -4.7968597q-0.171875 -0.59375 -0.453125 -1.078125q-0.265625 -0.5 -0.640625 -0.859375q-0.375 -0.359375 -0.859375 -0.546875q-0.46875 -0.203125 -1.078125 -0.203125q-0.796875 0 -1.453125 0.390625q-0.640625 0.375 -1.09375 1.15625q-0.453125 0.765625 -0.703125 1.890625q-0.25 1.125 -0.25 2.625z" fill-rule="nonzero"/><path fill="#ffff00" d="m446.45145 205.3412l307.0236 0l0 98.89763l-307.0236 0z" fill-rule="evenodd"/><path stroke="#12a5d6" stroke-width="2.0" stroke-miterlimit="800.0" stroke-linecap="butt" d="m446.45145 205.3412l307.0236 0l0 98.89763l-307.0236 0z" fill-rule="evenodd"/><path fill="#000000" d="m552.89685 248.67377q-1.59375 -0.34375 -2.765625 -0.34375q-2.75 0 -2.75 2.875l0 2.0625l5.15625 0l0 1.703125l-5.15625 0l0 8.359375l-2.078125 0l0 -8.359375l-3.78125 0l0 -1.703125l3.78125 0l0 -1.9375q0 -4.703125 4.90625 -4.703125q1.21875 0 2.6875 0.28125l0 1.765625zm-12.3125 2.890625l0 0zm25.320312 5.78125q0 1.375 -0.390625 2.515625q-0.390625 1.140625 -1.125 1.96875q-0.71875 0.8125 -1.765625 1.265625q-1.03125 0.453125 -2.359375 0.453125q-1.265625 0 -2.265625 -0.390625q-1.0 -0.40625 -1.703125 -1.15625q-0.703125 -0.765625 -1.078125 -1.890625q-0.359375 -1.125 -0.359375 -2.59375q0 -1.375 0.390625 -2.5q0.390625 -1.140625 1.109375 -1.953125q0.734375 -0.8125 1.765625 -1.265625q1.046875 -0.453125 2.375 -0.453125q1.265625 0 2.265625 0.40625q1.0 0.390625 1.6875 1.140625q0.703125 0.75 1.078125 1.875q0.375 1.125 0.375 2.578125zm-2.09375 0.09375q0 -1.078125 -0.25 -1.890625q-0.234375 -0.828125 -0.6875 -1.359375q-0.4375 -0.546875 -1.078125 -0.828125q-0.625 -0.28125 -1.421875 -0.28125q-0.90625 0 -1.5625 0.359375q-0.640625 0.359375 -1.0625 0.96875q-0.421875 0.59375 -0.609375 1.390625q-0.1875 0.78125 -0.1875 1.640625q0 1.09375 0.234375 1.921875q0.234375 0.8125 0.671875 1.359375q0.453125 0.546875 1.078125 0.828125q0.640625 0.265625 1.4375 0.265625q0.921875 0 1.5625 -0.359375q0.65625 -0.359375 1.0625 -0.953125q0.421875 -0.59375 0.609375 -1.375q0.203125 -0.796875 0.203125 -1.6875zm15.2890625 -0.09375q0 1.375 -0.390625 2.515625q-0.390625 1.140625 -1.125 1.96875q-0.71875 0.8125 -1.765625 1.265625q-1.03125 0.453125 -2.359375 0.453125q-1.265625 0 -2.265625 -0.390625q-1.0 -0.40625 -1.703125 -1.15625q-0.703125 -0.765625 -1.078125 -1.890625q-0.359375 -1.125 -0.359375 -2.59375q0 -1.375 0.390625 -2.5q0.390625 -1.140625 1.109375 -1.953125q0.734375 -0.8125 1.765625 -1.265625q1.046875 -0.453125 2.375 -0.453125q1.265625 0 2.265625 0.40625q1.0 0.390625 1.6875 1.140625q0.703125 0.75 1.078125 1.875q0.375 1.125 0.375 2.578125zm-2.09375 0.09375q0 -1.078125 -0.25 -1.890625q-0.234375 -0.828125 -0.6875 -1.359375q-0.4375 -0.546875 -1.078125 -0.828125q-0.625 -0.28125 -1.421875 -0.28125q-0.90625 0 -1.5625 0.359375q-0.640625 0.359375 -1.0625 0.96875q-0.421875 0.59375 -0.609375 1.390625q-0.1875 0.78125 -0.1875 1.640625q0 1.09375 0.234375 1.921875q0.234375 0.8125 0.671875 1.359375q0.453125 0.546875 1.078125 0.828125q0.640625 0.265625 1.4375 0.265625q0.921875 0 1.5625 -0.359375q0.65625 -0.359375 1.0625 -0.953125q0.421875 -0.59375 0.609375 -1.375q0.203125 -0.796875 0.203125 -1.6875zm14.5234375 5.71875q-0.6875 0.1875 -1.4375 0.265625q-0.734375 0.078125 -1.5 0.078125q-2.203125 0 -3.296875 -1.0q-1.09375 -1.015625 -1.09375 -3.09375l0 -6.140625l-3.296875 0l0 -1.703125l3.296875 0l0 -3.234375l2.046875 -0.53125l0 3.765625l5.28125 0l0 1.703125l-5.28125 0l0 5.984375q0 1.265625 0.671875 1.890625q0.671875 0.625 1.984375 0.625q0.5625 0 1.21875 -0.078125q0.671875 -0.09375 1.40625 -0.28125l0 1.75zm13.7734375 -5.921875q0 1.5625 -0.453125 2.734375q-0.4375 1.171875 -1.21875 1.953125q-0.765625 0.765625 -1.828125 1.15625q-1.046875 0.390625 -2.265625 0.390625q-0.5625 0 -1.125 -0.0625q-0.5625 -0.046875 -1.125 -0.203125l0 4.9375l-2.046875 0l0 -16.578125l1.8125 0l0.140625 1.96875q0.875 -1.203125 1.859375 -1.6875q1.0 -0.5 2.171875 -0.5q1.0 0 1.765625 0.421875q0.765625 0.421875 1.28125 1.203125q0.515625 0.765625 0.765625 1.84375q0.265625 1.078125 0.265625 2.421875zm-2.09375 0.09375q0 -0.921875 -0.140625 -1.6875q-0.125 -0.78125 -0.421875 -1.328125q-0.296875 -0.5625 -0.75 -0.875q-0.453125 -0.3125 -1.09375 -0.3125q-0.375 0 -0.78125 0.125q-0.390625 0.125 -0.828125 0.421875q-0.421875 0.28125 -0.90625 0.765625q-0.46875 0.46875 -1.0 1.171875l0 5.703125q0.5625 0.234375 1.171875 0.375q0.625 0.125 1.21875 0.125q1.65625 0 2.59375 -1.109375q0.9375 -1.125 0.9375 -3.375zm5.7109375 -5.765625l1.859375 0l0.0625 2.171875q1.046875 -1.265625 2.046875 -1.828125q1.015625 -0.5625 2.046875 -0.5625q1.828125 0 2.765625 1.1875q0.953125 1.1875 0.890625 3.515625l-2.0625 0q0.03125 -1.546875 -0.453125 -2.234375q-0.484375 -0.703125 -1.421875 -0.703125q-0.421875 0 -0.84375 0.15625q-0.40625 0.140625 -0.84375 0.46875q-0.4375 0.3125 -0.9375 0.8125q-0.484375 0.5 -1.046875 1.21875l0 7.5625l-2.0625 0l0 -11.765625zm16.726562 1.6875l-3.484375 0l0 -1.6875l5.546875 0l0 10.0625l3.5 0l0 1.703125l-9.4375 0l0 -1.703125l3.875 0l0 -8.375zm0.703125 -6.625q0.34375 0 0.640625 0.125q0.296875 0.125 0.5 0.34375q0.21875 0.21875 0.34375 0.515625q0.125 0.28125 0.125 0.625q0 0.328125 -0.125 0.625q-0.125 0.28125 -0.34375 0.515625q-0.203125 0.21875 -0.5 0.34375q-0.296875 0.125 -0.640625 0.125q-0.328125 0 -0.625 -0.125q-0.296875 -0.125 -0.515625 -0.34375q-0.21875 -0.234375 -0.34375 -0.515625q-0.109375 -0.296875 -0.109375 -0.625q0 -0.34375 0.109375 -0.625q0.125 -0.296875 0.34375 -0.515625q0.21875 -0.21875 0.515625 -0.34375q0.296875 -0.125 0.625 -0.125zm8.4765625 4.9375l1.8125 0l0.09375 1.890625q0.515625 -0.609375 0.984375 -1.0q0.484375 -0.40625 0.9375 -0.65625q0.46875 -0.25 0.953125 -0.34375q0.484375 -0.109375 1.0 -0.109375q1.8125 0 2.734375 1.078125q0.9375 1.078125 0.9375 3.234375l0 7.671875l-2.03125 0l0 -7.515625q0 -1.375 -0.515625 -2.03125q-0.515625 -0.671875 -1.53125 -0.671875q-0.375 0 -0.734375 0.109375q-0.359375 0.109375 -0.75 0.390625q-0.390625 0.265625 -0.84375 0.734375q-0.4375 0.46875 -1.0 1.171875l0 7.8125l-2.046875 0l0 -11.765625zm22.679688 11.59375q-0.6875 0.1875 -1.4375 0.265625q-0.734375 0.078125 -1.5 0.078125q-2.203125 0 -3.296875 -1.0q-1.09375 -1.015625 -1.09375 -3.09375l0 -6.140625l-3.296875 0l0 -1.703125l3.296875 0l0 -3.234375l2.046875 -0.53125l0 3.765625l5.28125 0l0 1.703125l-5.28125 0l0 5.984375q0 1.265625 0.671875 1.890625q0.671875 0.625 1.984375 0.625q0.5625 0 1.21875 -0.078125q0.671875 -0.09375 1.40625 -0.28125l0 1.75z" fill-rule="nonzero"/><defs><linearGradient id="gf8932d7e54_0_27.1" gradientUnits="userSpaceOnUse" gradientTransform="matrix(14.542561691372411 0.0 0.0 14.542561691372411 0.0 0.0)" spreadMethod="pad" x1="48.48470843588489" y1="17.519564188128054" x2="58.76783338844007" y2="27.802727211123916"><stop offset="0.0" stop-color="#002060"/><stop offset="1.0" stop-color="#ffff00"/></linearGradient></defs><path fill="url(#gf8932d7e54_0_27.1)" d="m754.54065 205.3307l200.18903 0l0 98.89763l-200.18903 0z" fill-rule="evenodd"/><path stroke="#12a5d6" stroke-width="2.0" stroke-miterlimit="800.0" stroke-linecap="butt" d="m754.54065 205.3307l200.18903 0l0 98.89763l-200.18903 0z" fill-rule="evenodd"/><path fill="#ffffff" d="m815.8305 251.5539l2.3125 0l2.890625 7.78125l0.609375 1.890625l0.65625 -1.9375l2.859375 -7.734375l2.234375 0l-4.625 11.765625l-2.34375 0l-4.59375 -11.765625zm18.304688 1.6875l-3.484375 0l0 -1.6875l5.546875 0l0 10.0625l3.5 0l0 1.703125l-9.4375 0l0 -1.703125l3.875 0l0 -8.375zm0.703125 -6.625q0.34375 0 0.640625 0.125q0.296875 0.125 0.5 0.34375q0.21875 0.21875 0.34375 0.515625q0.125 0.28125 0.125 0.625q0 0.328125 -0.125 0.625q-0.125 0.28125 -0.34375 0.515625q-0.203125 0.21875 -0.5 0.34375q-0.296875 0.125 -0.640625 0.125q-0.328125 0 -0.625 -0.125q-0.296875 -0.125 -0.515625 -0.34375q-0.21875 -0.234375 -0.34375 -0.515625q-0.109375 -0.296875 -0.109375 -0.625q0 -0.34375 0.109375 -0.625q0.125 -0.296875 0.34375 -0.515625q0.21875 -0.21875 0.515625 -0.34375q0.296875 -0.125 0.625 -0.125zm17.617188 16.265625q-0.796875 0.3125 -1.640625 0.453125q-0.828125 0.15625 -1.71875 0.15625q-2.796875 0 -4.296875 -1.515625q-1.5 -1.515625 -1.5 -4.421875q0 -1.390625 0.421875 -2.53125q0.4375 -1.140625 1.21875 -1.9375q0.796875 -0.8125 1.875 -1.25q1.09375 -0.453125 2.40625 -0.453125q0.921875 0 1.71875 0.140625q0.796875 0.125 1.515625 0.421875l0 1.9375q-0.765625 -0.390625 -1.5625 -0.578125q-0.78125 -0.1875 -1.625 -0.1875q-0.78125 0 -1.484375 0.3125q-0.6875 0.296875 -1.21875 0.859375q-0.53125 0.5625 -0.84375 1.375q-0.296875 0.796875 -0.296875 1.8125q0 2.140625 1.03125 3.203125q1.046875 1.0625 2.890625 1.0625q0.828125 0 1.609375 -0.1875q0.78125 -0.1875 1.5 -0.5625l0 1.890625zm13.5390625 0.265625q-0.6875 0.1875 -1.4375 0.265625q-0.734375 0.078125 -1.5 0.078125q-2.203125 0 -3.296875 -1.0q-1.09375 -1.015625 -1.09375 -3.09375l0 -6.140625l-3.296875 0l0 -1.703125l3.296875 0l0 -3.234375l2.046875 -0.53125l0 3.765625l5.28125 0l0 1.703125l-5.28125 0l0 5.984375q0 1.265625 0.671875 1.890625q0.671875 0.625 1.984375 0.625q0.5625 0 1.21875 -0.078125q0.671875 -0.09375 1.40625 -0.28125l0 1.75zm7.7265625 -9.90625l-3.484375 0l0 -1.6875l5.546875 0l0 10.0625l3.5 0l0 1.703125l-9.4375 0l0 -1.703125l3.875 0l0 -8.375zm0.703125 -6.625q0.34375 0 0.640625 0.125q0.296875 0.125 0.5 0.34375q0.21875 0.21875 0.34375 0.515625q0.125 0.28125 0.125 0.625q0 0.328125 -0.125 0.625q-0.125 0.28125 -0.34375 0.515625q-0.203125 0.21875 -0.5 0.34375q-0.296875 0.125 -0.640625 0.125q-0.328125 0 -0.625 -0.125q-0.296875 -0.125 -0.515625 -0.34375q-0.21875 -0.234375 -0.34375 -0.515625q-0.109375 -0.296875 -0.109375 -0.625q0 -0.34375 0.109375 -0.625q0.125 -0.296875 0.34375 -0.515625q0.21875 -0.21875 0.515625 -0.34375q0.296875 -0.125 0.625 -0.125zm16.867126 16.703125l0 -8.453125q0 -0.546875 -0.046875 -0.890625q-0.03125 -0.359375 -0.125 -0.5625q-0.078125 -0.203125 -0.21875 -0.28125q-0.140625 -0.09375 -0.328125 -0.09375q-0.234375 0 -0.4375 0.140625q-0.203125 0.140625 -0.4375 0.46875q-0.21875 0.3125 -0.5 0.828125q-0.265625 0.515625 -0.640625 1.28125l0 7.5625l-1.875 0l0 -8.234375q0 -0.640625 -0.046875 -1.03125q-0.03125 -0.40625 -0.125 -0.625q-0.078125 -0.21875 -0.21875 -0.296875q-0.140625 -0.09375 -0.34375 -0.09375q-0.203125 0 -0.390625 0.125q-0.1875 0.109375 -0.421875 0.421875q-0.234375 0.296875 -0.515625 0.828125q-0.28125 0.53125 -0.65625 1.34375l0 7.5625l-1.874939 0l0 -11.765625l1.546814 0l0.09375 2.234375q0.3125 -0.671875 0.59375 -1.140625q0.296875 -0.46875 0.59375 -0.75q0.3125 -0.28125 0.65625 -0.421875q0.34375 -0.140625 0.765625 -0.140625q0.953125 0 1.4375 0.625q0.5 0.625 0.5 1.921875q0.28125 -0.609375 0.546875 -1.078125q0.265625 -0.484375 0.578125 -0.796875q0.3125 -0.328125 0.6875 -0.5q0.375 -0.171875 0.859375 -0.171875q2.21875 0 2.21875 3.421875l0 8.5625l-1.875 0z" fill-rule="nonzero"/><path fill="#000000" fill-opacity="0.0" d="m488.4672 209.24672l0 91.086624l-42.015747 0l0 -91.086624z" fill-rule="evenodd"/><path fill="#ff0000" d="m461.90656 226.99672q-0.265625 -0.65625 -0.390625 -1.359375q-0.125 -0.6875 -0.125 -1.453125q0 -1.109375 0.296875 -1.984375q0.296875 -0.875 0.890625 -1.484375q0.59375 -0.609375 1.46875 -0.9375q0.875 -0.3125 2.015625 -0.3125q1.109375 0 2.015625 0.34375q0.90625 0.34375 1.53125 0.984375q0.640625 0.640625 0.984375 1.53125q0.359375 0.90625 0.359375 2.0q0 0.90625 -0.109375 1.515625q-0.09375 0.625 -0.234375 1.109375l-2.15625 0q0.28125 -0.5625 0.4375 -1.21875q0.15625 -0.65625 0.15625 -1.25q0 -0.625 -0.21875 -1.125q-0.203125 -0.484375 -0.578125 -0.828125q-0.375 -0.328125 -0.90625 -0.515625q-0.53125 -0.171875 -1.171875 -0.171875q-0.65625 0 -1.1875 0.1875q-0.53125 0.203125 -0.90625 0.546875q-0.359375 0.359375 -0.5625 0.84375q-0.1875 0.5 -0.1875 1.09375q0 0.296875 0.03125 0.609375q0.046875 0.328125 0.125 0.65625q0.078125 0.328125 0.171875 0.640625q0.109375 0.3125 0.21875 0.578125l-1.96875 0zm10.625 11.085419q0.125 -0.40625 0.203125 -0.953125q0.09375 -0.546875 0.09375 -1.125q0 -0.390625 -0.109375 -0.734375q-0.09375 -0.328125 -0.328125 -0.578125q-0.21875 -0.25 -0.578125 -0.390625q-0.34375 -0.140625 -0.84375 -0.140625l-1.5 0l0 3.640625l-1.734375 0l0 -3.640625l-6.1875 0l0 -2.234375l6.1875 0l0 -2.6875l1.734375 0l0 2.6875l1.40625 0q0.984375 0 1.6875 0.28125q0.703125 0.28125 1.15625 0.796875q0.453125 0.53125 0.65625 1.265625q0.21875 0.75 0.21875 1.65625q0 0.609375 -0.078125 1.140625q-0.078125 0.546875 -0.1875 1.015625l-1.796875 0zm-1.734375 -9.578125l0 0zm-12.984375 10.257294l1.75 0l0 10.25l-1.75 0l0 -10.25zm6.453125 19.163528q-0.78125 0 -1.34375 -0.359375q-0.5625 -0.34375 -0.921875 -0.921875q-0.34375 -0.578125 -0.5 -1.3124847q-0.15625 -0.734375 -0.15625 -1.5q0 -1.015625 0.09375 -1.84375q0.09375 -0.8125 0.265625 -1.546875l2.015625 0q-0.359375 0.859375 -0.515625 1.703125q-0.15625 0.859375 -0.15625 1.609375q0 0.875 0.265625 1.3125q0.28125 0.4375 0.734375 0.4375q0.203125 0 0.375 -0.09375q0.171875 -0.09375 0.328125 -0.34375q0.171875 -0.25 0.328125 -0.71875q0.171875 -0.453125 0.390625 -1.1875q0.1875 -0.671875 0.421875 -1.1875q0.25 -0.515625 0.578125 -0.859375q0.328125 -0.328125 0.75 -0.5q0.4375 -0.171875 1.03125 -0.171875q0.5625 0 1.0625 0.25q0.5 0.265625 0.875 0.765625q0.375 0.5 0.59375 1.25q0.21875 0.765625 0.21875 1.78125q0 0.875 -0.09375 1.5468597q-0.078125 0.671875 -0.1875 1.1875l-1.828125 0q0.265625 -0.78125 0.359375 -1.4843597q0.109375 -0.703125 0.109375 -1.375q0 -0.6875 -0.25 -1.109375q-0.234375 -0.40625 -0.671875 -0.40625q-0.21875 0 -0.390625 0.078125q-0.15625 0.078125 -0.3125 0.3125q-0.140625 0.25 -0.3125 0.6875q-0.171875 0.4375 -0.375 1.140625q-0.21875 0.796875 -0.484375 1.3437347q-0.265625 0.546875 -0.59375 0.875q-0.328125 0.34375 -0.75 0.484375q-0.40625 0.15625 -0.953125 0.15625zm9.0625 8.069794q-0.296875 0 -0.5625 -0.109375q-0.265625 -0.109375 -0.46875 -0.3125q-0.1875 -0.1875 -0.296875 -0.453125q-0.109375 -0.265625 -0.109375 -0.578125q0 -0.3125 0.109375 -0.578125q0.109375 -0.265625 0.296875 -0.46875q0.203125 -0.1875 0.46875 -0.296875q0.265625 -0.109375 0.5625 -0.109375q0.3125 0 0.5625 0.109375q0.265625 0.109375 0.46875 0.296875q0.203125 0.203125 0.3125 0.46875q0.125 0.265625 0.125 0.578125q0 0.3125 -0.125 0.578125q-0.109375 0.265625 -0.3125 0.453125q-0.203125 0.203125 -0.46875 0.3125q-0.25 0.109375 -0.5625 0.109375zm-4.25 -2.46875l0 -2.609375l1.71875 0l0 4.890625l-7.515625 0l0 2.671875l-1.734375 0l0 -7.875l1.734375 0l0 2.921875l5.796875 0zm-7.53125 7.3666687l1.546875 0l5.796875 4.53125l0 -4.421875l1.90625 0l0 7.359375l-1.5625 0l-5.734375 -4.421875l0 4.5l-1.953125 0l0 -7.546875zm5.34375 18.226044q-0.234375 0 -0.609375 -0.015625q-0.359375 -0.015625 -0.671875 -0.03125l0 -6.09375q-0.609375 0 -1.078125 0.1875q-0.46875 0.1875 -0.78125 0.53125q-0.3125 0.34375 -0.484375 0.8125q-0.15625 0.484375 -0.15625 1.0625q0 0.671875 0.109375 1.4375q0.109375 0.78125 0.34375 1.609375l-1.765625 0q-0.109375 -0.359375 -0.1875 -0.78125q-0.078125 -0.40625 -0.140625 -0.84375q-0.0625 -0.4375 -0.09375 -0.890625q-0.03125 -0.453125 -0.03125 -0.859375q0 -1.0625 0.296875 -1.90625q0.296875 -0.828125 0.875 -1.421875q0.59375 -0.578125 1.453125 -0.890625q0.875 -0.3125 2.015625 -0.3125q1.125 0 2.046875 0.3125q0.9375 0.3125 1.59375 0.875q0.65625 0.5625 1.015625 1.375q0.359375 0.8125 0.359375 1.796875q0 0.984375 -0.3125 1.734375q-0.296875 0.765625 -0.84375 1.265625q-0.546875 0.515625 -1.3125 0.78125q-0.75 0.265625 -1.640625 0.265625zm0.3125 -2.265625q0.546875 0.015625 0.953125 -0.140625q0.40625 -0.140625 0.671875 -0.390625q0.265625 -0.25 0.390625 -0.578125q0.125 -0.328125 0.125 -0.71875q0 -0.828125 -0.5625 -1.375q-0.5625 -0.53125 -1.578125 -0.640625l0 3.84375z" fill-rule="nonzero"/><path fill="#000000" fill-opacity="0.0" d="m139.42783 157.72441l562.2677 0l0 46.866135l-562.2677 0z" fill-rule="evenodd"/><path fill="#ffffff" d="m160.77158 188.4844l-2.140625 0l-1.015625 -3.15625l-6.015625 0l-1.015625 3.15625l-2.046875 0l4.796875 -14.453125l2.703125 0l4.734375 14.453125zm-3.71875 -4.90625l-2.4375 -7.734375l-2.453125 7.734375l4.890625 0zm15.456512 -8.9375q-1.515625 -0.3125 -2.609375 -0.3125q-2.59375 0 -2.59375 2.71875l0 1.953125l4.859375 0l0 1.59375l-4.859375 0l0 7.890625l-1.96875 0l0 -7.890625l-3.5625 0l0 -1.59375l3.5625 0l0 -1.84375q0 -4.4375 4.625 -4.4375q1.15625 0 2.546875 0.265625l0 1.65625zm-11.625 2.734375l0 0zm23.175262 10.953125q-0.65625 0.171875 -1.359375 0.234375q-0.6875 0.078125 -1.40625 0.078125q-2.09375 0 -3.125 -0.9375q-1.015625 -0.953125 -1.015625 -2.90625l0 -5.796875l-3.109375 0l0 -1.625l3.109375 0l0 -3.046875l1.921875 -0.5l0 3.546875l4.984375 0l0 1.625l-4.984375 0l0 5.640625q0 1.1875 0.625 1.78125q0.640625 0.59375 1.875 0.59375q0.53125 0 1.15625 -0.078125q0.640625 -0.09375 1.328125 -0.265625l0 1.65625zm12.894012 -5.984375q0 0.40625 -0.015625 0.6875q-0.015625 0.28125 -0.03125 0.515625l-7.796875 0q0 1.703125 0.9375 2.625q0.953125 0.90625 2.75 0.90625q0.484375 0 0.96875 -0.03125q0.5 -0.046875 0.953125 -0.109375q0.453125 -0.0625 0.859375 -0.140625q0.421875 -0.09375 0.765625 -0.1875l0 1.578125q-0.78125 0.21875 -1.78125 0.359375q-0.984375 0.140625 -2.046875 0.140625q-1.421875 0 -2.453125 -0.390625q-1.03125 -0.390625 -1.6875 -1.125q-0.65625 -0.734375 -0.96875 -1.796875q-0.3125 -1.078125 -0.3125 -2.421875q0 -1.171875 0.328125 -2.21875q0.34375 -1.046875 0.984375 -1.828125q0.65625 -0.796875 1.59375 -1.265625q0.9375 -0.46875 2.140625 -0.46875q1.15625 0 2.046875 0.375q0.90625 0.359375 1.515625 1.03125q0.609375 0.671875 0.921875 1.625q0.328125 0.953125 0.328125 2.140625zm-2.0 -0.28125q0.03125 -0.734375 -0.15625 -1.34375q-0.171875 -0.625 -0.546875 -1.0625q-0.359375 -0.4375 -0.921875 -0.6875q-0.546875 -0.25 -1.28125 -0.25q-0.625 0 -1.15625 0.25q-0.515625 0.234375 -0.890625 0.6875q-0.375 0.4375 -0.609375 1.0625q-0.234375 0.609375 -0.28125 1.34375l5.84375 0zm5.5190125 -4.6875l1.765625 0l0.046875 2.046875q0.984375 -1.1875 1.9375 -1.71875q0.96875 -0.53125 1.9375 -0.53125q1.734375 0 2.625 1.125q0.890625 1.109375 0.8125 3.3125l-1.9375 0q0.03125 -1.453125 -0.4375 -2.109375q-0.453125 -0.65625 -1.328125 -0.65625q-0.390625 0 -0.796875 0.140625q-0.390625 0.125 -0.8125 0.4375q-0.40625 0.296875 -0.875 0.78125q-0.453125 0.46875 -0.984375 1.140625l0 7.140625l-1.953125 0l0 -11.109375zm33.694275 10.5625q-1.734375 0.71875 -3.625 0.71875q-3.078125 0 -4.71875 -1.828125q-1.640625 -1.828125 -1.640625 -5.40625q0 -1.75 0.453125 -3.140625q0.453125 -1.40625 1.296875 -2.390625q0.84375 -0.984375 2.03125 -1.515625q1.203125 -0.53125 2.6875 -0.53125q1.0 0 1.859375 0.171875q0.859375 0.171875 1.65625 0.53125l0 1.9375q-0.78125 -0.4375 -1.625 -0.65625q-0.828125 -0.234375 -1.828125 -0.234375q-1.015625 0 -1.84375 0.390625q-0.828125 0.375 -1.40625 1.109375q-0.5625 0.71875 -0.875 1.765625q-0.3125 1.046875 -0.3125 2.375q0 2.8125 1.140625 4.25q1.140625 1.421875 3.34375 1.421875q0.921875 0 1.765625 -0.21875q0.859375 -0.21875 1.640625 -0.609375l0 1.859375zm12.894012 -5.09375q0 1.296875 -0.375 2.375q-0.359375 1.078125 -1.046875 1.84375q-0.671875 0.765625 -1.65625 1.203125q-0.984375 0.421875 -2.234375 0.421875q-1.203125 0 -2.15625 -0.375q-0.9375 -0.375 -1.59375 -1.09375q-0.65625 -0.71875 -1.015625 -1.78125q-0.34375 -1.0625 -0.34375 -2.4375q0 -1.296875 0.359375 -2.359375q0.375 -1.078125 1.0625 -1.84375q0.6875 -0.765625 1.671875 -1.1875q0.984375 -0.4375 2.234375 -0.4375q1.1875 0 2.125 0.375q0.953125 0.375 1.609375 1.09375q0.65625 0.703125 1.0 1.765625q0.359375 1.0625 0.359375 2.4375zm-1.96875 0.09375q0 -1.03125 -0.234375 -1.796875q-0.21875 -0.78125 -0.640625 -1.296875q-0.421875 -0.515625 -1.03125 -0.765625q-0.59375 -0.265625 -1.328125 -0.265625q-0.875 0 -1.484375 0.34375q-0.609375 0.328125 -1.0 0.90625q-0.390625 0.5625 -0.578125 1.3125q-0.1875 0.734375 -0.1875 1.5625q0 1.015625 0.21875 1.796875q0.234375 0.78125 0.65625 1.296875q0.421875 0.5 1.015625 0.765625q0.59375 0.265625 1.359375 0.265625q0.859375 0 1.46875 -0.34375q0.609375 -0.34375 1.0 -0.90625q0.40625 -0.5625 0.578125 -1.296875q0.1875 -0.75 0.1875 -1.578125zm5.2065125 -5.5625l1.765625 0l0.046875 2.046875q0.984375 -1.1875 1.9375 -1.71875q0.96875 -0.53125 1.9375 -0.53125q1.734375 0 2.625 1.125q0.890625 1.109375 0.8125 3.3125l-1.9375 0q0.03125 -1.453125 -0.4375 -2.109375q-0.453125 -0.65625 -1.328125 -0.65625q-0.390625 0 -0.796875 0.140625q-0.390625 0.125 -0.8125 0.4375q-0.40625 0.296875 -0.875 0.78125q-0.453125 0.46875 -0.984375 1.140625l0 7.140625l-1.953125 0l0 -11.109375zm12.456512 0l1.765625 0l0.046875 2.046875q0.984375 -1.1875 1.9375 -1.71875q0.96875 -0.53125 1.9375 -0.53125q1.734375 0 2.625 1.125q0.890625 1.109375 0.8125 3.3125l-1.9375 0q0.03125 -1.453125 -0.4375 -2.109375q-0.453125 -0.65625 -1.328125 -0.65625q-0.390625 0 -0.796875 0.140625q-0.390625 0.125 -0.8125 0.4375q-0.40625 0.296875 -0.875 0.78125q-0.453125 0.46875 -0.984375 1.140625l0 7.140625l-1.953125 0l0 -11.109375zm20.940887 11.109375l-1.734375 0l-0.0625 -1.796875q-0.5 0.578125 -0.953125 0.96875q-0.4375 0.375 -0.890625 0.609375q-0.4375 0.234375 -0.890625 0.328125q-0.4375 0.09375 -0.9375 0.09375q-1.71875 0 -2.59375 -1.0q-0.875 -1.015625 -0.875 -3.046875l0 -7.265625l1.921875 0l0 7.109375q0 2.546875 1.9375 2.546875q0.34375 0 0.6875 -0.09375q0.34375 -0.109375 0.703125 -0.359375q0.375 -0.265625 0.796875 -0.703125q0.421875 -0.453125 0.953125 -1.125l0 -7.375l1.9375 0l0 11.109375zm13.019012 -5.75q0 1.484375 -0.421875 2.59375q-0.40625 1.09375 -1.140625 1.828125q-0.734375 0.734375 -1.734375 1.09375q-0.984375 0.359375 -2.15625 0.359375q-0.53125 0 -1.0625 -0.0625q-0.515625 -0.046875 -1.0625 -0.171875l0 4.640625l-1.921875 0l0 -15.640625l1.71875 0l0.125 1.859375q0.828125 -1.140625 1.765625 -1.59375q0.9375 -0.46875 2.03125 -0.46875q0.953125 0 1.671875 0.40625q0.71875 0.390625 1.203125 1.125q0.5 0.71875 0.734375 1.75q0.25 1.015625 0.25 2.28125zm-1.96875 0.078125q0 -0.859375 -0.140625 -1.59375q-0.125 -0.734375 -0.40625 -1.25q-0.265625 -0.515625 -0.703125 -0.8125q-0.421875 -0.296875 -1.015625 -0.296875q-0.375 0 -0.75 0.125q-0.375 0.109375 -0.78125 0.390625q-0.40625 0.265625 -0.859375 0.71875q-0.4375 0.4375 -0.953125 1.09375l0 5.390625q0.53125 0.21875 1.125 0.359375q0.59375 0.125 1.15625 0.125q1.546875 0 2.4375 -1.0625q0.890625 -1.0625 0.890625 -3.1875zm13.878387 5.515625q-0.65625 0.171875 -1.359375 0.234375q-0.6875 0.078125 -1.40625 0.078125q-2.09375 0 -3.125 -0.9375q-1.015625 -0.953125 -1.015625 -2.90625l0 -5.796875l-3.109375 0l0 -1.625l3.109375 0l0 -3.046875l1.921875 -0.5l0 3.546875l4.984375 0l0 1.625l-4.984375 0l0 5.640625q0 1.1875 0.625 1.78125q0.640625 0.59375 1.875 0.59375q0.53125 0 1.15625 -0.078125q0.640625 -0.09375 1.328125 -0.265625l0 1.65625zm7.2846375 -9.359375l-3.28125 0l0 -1.59375l5.234375 0l0 9.5l3.3125 0l0 1.609375l-8.90625 0l0 -1.609375l3.640625 0l0 -7.90625zm0.6875 -6.25q0.3125 0 0.59375 0.125q0.28125 0.109375 0.484375 0.328125q0.203125 0.203125 0.3125 0.484375q0.125 0.265625 0.125 0.578125q0 0.3125 -0.125 0.59375q-0.109375 0.265625 -0.3125 0.484375q-0.203125 0.203125 -0.484375 0.328125q-0.28125 0.109375 -0.59375 0.109375q-0.328125 0 -0.609375 -0.109375q-0.265625 -0.125 -0.484375 -0.328125q-0.203125 -0.21875 -0.3125 -0.484375q-0.109375 -0.28125 -0.109375 -0.59375q0 -0.3125 0.109375 -0.578125q0.109375 -0.28125 0.3125 -0.484375q0.21875 -0.21875 0.484375 -0.328125q0.28125 -0.125 0.609375 -0.125zm17.659637 10.125q0 1.296875 -0.375 2.375q-0.359375 1.078125 -1.046875 1.84375q-0.671875 0.765625 -1.65625 1.203125q-0.984375 0.421875 -2.234375 0.421875q-1.203125 0 -2.15625 -0.375q-0.9375 -0.375 -1.59375 -1.09375q-0.65625 -0.71875 -1.015625 -1.78125q-0.34375 -1.0625 -0.34375 -2.4375q0 -1.296875 0.359375 -2.359375q0.375 -1.078125 1.0625 -1.84375q0.6875 -0.765625 1.671875 -1.1875q0.984375 -0.4375 2.234375 -0.4375q1.1875 0 2.125 0.375q0.953125 0.375 1.609375 1.09375q0.65625 0.703125 1.0 1.765625q0.359375 1.0625 0.359375 2.4375zm-1.96875 0.09375q0 -1.03125 -0.234375 -1.796875q-0.21875 -0.78125 -0.640625 -1.296875q-0.421875 -0.515625 -1.03125 -0.765625q-0.59375 -0.265625 -1.328125 -0.265625q-0.875 0 -1.484375 0.34375q-0.609375 0.328125 -1.0 0.90625q-0.390625 0.5625 -0.578125 1.3125q-0.1875 0.734375 -0.1875 1.5625q0 1.015625 0.21875 1.796875q0.234375 0.78125 0.65625 1.296875q0.421875 0.5 1.015625 0.765625q0.59375 0.265625 1.359375 0.265625q0.859375 0 1.46875 -0.34375q0.609375 -0.34375 1.0 -0.90625q0.40625 -0.5625 0.578125 -1.296875q0.1875 -0.75 0.1875 -1.578125zm4.7533875 -5.5625l1.71875 0l0.078125 1.796875q0.484375 -0.578125 0.9375 -0.953125q0.453125 -0.390625 0.890625 -0.625q0.4375 -0.234375 0.890625 -0.328125q0.453125 -0.09375 0.9375 -0.09375q1.71875 0 2.59375 1.015625q0.890625 1.015625 0.890625 3.046875l0 7.25l-1.9375 0l0 -7.09375q0 -1.296875 -0.484375 -1.921875q-0.484375 -0.625 -1.4375 -0.625q-0.359375 0 -0.703125 0.109375q-0.328125 0.09375 -0.703125 0.359375q-0.359375 0.25 -0.796875 0.703125q-0.421875 0.4375 -0.953125 1.09375l0 7.375l-1.921875 0l0 -11.109375zm16.925262 -0.203125q0.34375 0 0.640625 0.140625q0.3125 0.140625 0.546875 0.375q0.234375 0.234375 0.375 0.546875q0.140625 0.3125 0.140625 0.640625q0 0.359375 -0.140625 0.671875q-0.140625 0.296875 -0.375 0.53125q-0.234375 0.234375 -0.546875 0.375q-0.296875 0.125 -0.640625 0.125q-0.359375 0 -0.671875 -0.125q-0.296875 -0.140625 -0.53125 -0.375q-0.234375 -0.234375 -0.375 -0.53125q-0.125 -0.3125 -0.125 -0.671875q0 -0.328125 0.125 -0.640625q0.140625 -0.3125 0.375 -0.546875q0.234375 -0.234375 0.53125 -0.375q0.3125 -0.140625 0.671875 -0.140625zm0 8.109375q0.34375 0 0.640625 0.140625q0.3125 0.140625 0.546875 0.375q0.234375 0.234375 0.375 0.546875q0.140625 0.296875 0.140625 0.640625q0 0.359375 -0.140625 0.671875q-0.140625 0.296875 -0.375 0.53125q-0.234375 0.234375 -0.546875 0.359375q-0.296875 0.140625 -0.640625 0.140625q-0.359375 0 -0.671875 -0.140625q-0.296875 -0.125 -0.53125 -0.359375q-0.234375 -0.234375 -0.375 -0.53125q-0.125 -0.3125 -0.125 -0.671875q0 -0.34375 0.125 -0.640625q0.140625 -0.3125 0.375 -0.546875q0.234375 -0.234375 0.53125 -0.375q0.3125 -0.140625 0.671875 -0.140625zm30.30365 -10.640625q-1.515625 -0.3125 -2.609375 -0.3125q-2.59375 0 -2.59375 2.71875l0 1.953125l4.859375 0l0 1.59375l-4.859375 0l0 7.890625l-1.96875 0l0 -7.890625l-3.5625 0l0 -1.59375l3.5625 0l0 -1.84375q0 -4.4375 4.625 -4.4375q1.15625 0 2.546875 0.265625l0 1.65625zm-11.625 2.734375l0 0zm23.894012 5.46875q0 1.296875 -0.375 2.375q-0.359375 1.078125 -1.046875 1.84375q-0.671875 0.765625 -1.65625 1.203125q-0.984375 0.421875 -2.234375 0.421875q-1.203125 0 -2.15625 -0.375q-0.9375 -0.375 -1.59375 -1.09375q-0.65625 -0.71875 -1.015625 -1.78125q-0.34375 -1.0625 -0.34375 -2.4375q0 -1.296875 0.359375 -2.359375q0.375 -1.078125 1.0625 -1.84375q0.6875 -0.765625 1.671875 -1.1875q0.984375 -0.4375 2.234375 -0.4375q1.1875 0 2.125 0.375q0.953125 0.375 1.609375 1.09375q0.65625 0.703125 1.0 1.765625q0.359375 1.0625 0.359375 2.4375zm-1.96875 0.09375q0 -1.03125 -0.234375 -1.796875q-0.21875 -0.78125 -0.640625 -1.296875q-0.421875 -0.515625 -1.03125 -0.765625q-0.59375 -0.265625 -1.328125 -0.265625q-0.875 0 -1.484375 0.34375q-0.609375 0.328125 -1.0 0.90625q-0.390625 0.5625 -0.578125 1.3125q-0.1875 0.734375 -0.1875 1.5625q0 1.015625 0.21875 1.796875q0.234375 0.78125 0.65625 1.296875q0.421875 0.5 1.015625 0.765625q0.59375 0.265625 1.359375 0.265625q0.859375 0 1.46875 -0.34375q0.609375 -0.34375 1.0 -0.90625q0.40625 -0.5625 0.578125 -1.296875q0.1875 -0.75 0.1875 -1.578125zm14.425262 -0.09375q0 1.296875 -0.375 2.375q-0.359375 1.078125 -1.046875 1.84375q-0.671875 0.765625 -1.65625 1.203125q-0.984375 0.421875 -2.234375 0.421875q-1.203125 0 -2.15625 -0.375q-0.9375 -0.375 -1.59375 -1.09375q-0.65625 -0.71875 -1.015625 -1.78125q-0.34375 -1.0625 -0.34375 -2.4375q0 -1.296875 0.359375 -2.359375q0.375 -1.078125 1.0625 -1.84375q0.6875 -0.765625 1.671875 -1.1875q0.984375 -0.4375 2.234375 -0.4375q1.1875 0 2.125 0.375q0.953125 0.375 1.609375 1.09375q0.65625 0.703125 1.0 1.765625q0.359375 1.0625 0.359375 2.4375zm-1.96875 0.09375q0 -1.03125 -0.234375 -1.796875q-0.21875 -0.78125 -0.640625 -1.296875q-0.421875 -0.515625 -1.03125 -0.765625q-0.59375 -0.265625 -1.328125 -0.265625q-0.875 0 -1.484375 0.34375q-0.609375 0.328125 -1.0 0.90625q-0.390625 0.5625 -0.578125 1.3125q-0.1875 0.734375 -0.1875 1.5625q0 1.015625 0.21875 1.796875q0.234375 0.78125 0.65625 1.296875q0.421875 0.5 1.015625 0.765625q0.59375 0.265625 1.359375 0.265625q0.859375 0 1.46875 -0.34375q0.609375 -0.34375 1.0 -0.90625q0.40625 -0.5625 0.578125 -1.296875q0.1875 -0.75 0.1875 -1.578125zm13.706512 5.390625q-0.65625 0.171875 -1.359375 0.234375q-0.6875 0.078125 -1.40625 0.078125q-2.09375 0 -3.125 -0.9375q-1.015625 -0.953125 -1.015625 -2.90625l0 -5.796875l-3.109375 0l0 -1.625l3.109375 0l0 -3.046875l1.921875 -0.5l0 3.546875l4.984375 0l0 1.625l-4.984375 0l0 5.640625q0 1.1875 0.625 1.78125q0.640625 0.59375 1.875 0.59375q0.53125 0 1.15625 -0.078125q0.640625 -0.09375 1.328125 -0.265625l0 1.65625zm13.003387 -5.59375q0 1.484375 -0.421875 2.59375q-0.40625 1.09375 -1.140625 1.828125q-0.734375 0.734375 -1.734375 1.09375q-0.984375 0.359375 -2.15625 0.359375q-0.53125 0 -1.0625 -0.0625q-0.515625 -0.046875 -1.0625 -0.171875l0 4.640625l-1.921875 0l0 -15.640625l1.71875 0l0.125 1.859375q0.828125 -1.140625 1.765625 -1.59375q0.9375 -0.46875 2.03125 -0.46875q0.953125 0 1.671875 0.40625q0.71875 0.390625 1.203125 1.125q0.5 0.71875 0.734375 1.75q0.25 1.015625 0.25 2.28125zm-1.96875 0.078125q0 -0.859375 -0.140625 -1.59375q-0.125 -0.734375 -0.40625 -1.25q-0.265625 -0.515625 -0.703125 -0.8125q-0.421875 -0.296875 -1.015625 -0.296875q-0.375 0 -0.75 0.125q-0.375 0.109375 -0.78125 0.390625q-0.40625 0.265625 -0.859375 0.71875q-0.4375 0.4375 -0.953125 1.09375l0 5.390625q0.53125 0.21875 1.125 0.359375q0.59375 0.125 1.15625 0.125q1.546875 0 2.4375 -1.0625q0.890625 -1.0625 0.890625 -3.1875zm5.3783875 -5.4375l1.765625 0l0.046875 2.046875q0.984375 -1.1875 1.9375 -1.71875q0.96875 -0.53125 1.9375 -0.53125q1.734375 0 2.625 1.125q0.890625 1.109375 0.8125 3.3125l-1.9375 0q0.03125 -1.453125 -0.4375 -2.109375q-0.453125 -0.65625 -1.328125 -0.65625q-0.390625 0 -0.796875 0.140625q-0.390625 0.125 -0.8125 0.4375q-0.40625 0.296875 -0.875 0.78125q-0.453125 0.46875 -0.984375 1.140625l0 7.140625l-1.953125 0l0 -11.109375zm15.784637 1.59375l-3.28125 0l0 -1.59375l5.234375 0l0 9.5l3.3125 0l0 1.609375l-8.90625 0l0 -1.609375l3.640625 0l0 -7.90625zm0.6875 -6.25q0.3125 0 0.59375 0.125q0.28125 0.109375 0.484375 0.328125q0.203125 0.203125 0.3125 0.484375q0.125 0.265625 0.125 0.578125q0 0.3125 -0.125 0.59375q-0.109375 0.265625 -0.3125 0.484375q-0.203125 0.203125 -0.484375 0.328125q-0.28125 0.109375 -0.59375 0.109375q-0.328125 0 -0.609375 -0.109375q-0.265625 -0.125 -0.484375 -0.328125q-0.203125 -0.21875 -0.3125 -0.484375q-0.109375 -0.28125 -0.109375 -0.59375q0 -0.3125 0.109375 -0.578125q0.109375 -0.28125 0.3125 -0.484375q0.21875 -0.21875 0.484375 -0.328125q0.28125 -0.125 0.609375 -0.125zm7.9877625 4.65625l1.71875 0l0.078125 1.796875q0.484375 -0.578125 0.9375 -0.953125q0.453125 -0.390625 0.890625 -0.625q0.4375 -0.234375 0.890625 -0.328125q0.453125 -0.09375 0.9375 -0.09375q1.71875 0 2.59375 1.015625q0.890625 1.015625 0.890625 3.046875l0 7.25l-1.9375 0l0 -7.09375q0 -1.296875 -0.484375 -1.921875q-0.484375 -0.625 -1.4375 -0.625q-0.359375 0 -0.703125 0.109375q-0.328125 0.09375 -0.703125 0.359375q-0.359375 0.25 -0.796875 0.703125q-0.421875 0.4375 -0.953125 1.09375l0 7.375l-1.921875 0l0 -11.109375zm21.409637 10.953125q-0.65625 0.171875 -1.359375 0.234375q-0.6875 0.078125 -1.40625 0.078125q-2.09375 0 -3.125 -0.9375q-1.015625 -0.953125 -1.015625 -2.90625l0 -5.796875l-3.109375 0l0 -1.625l3.109375 0l0 -3.046875l1.921875 -0.5l0 3.546875l4.984375 0l0 1.625l-4.984375 0l0 5.640625q0 1.1875 0.625 1.78125q0.640625 0.59375 1.875 0.59375q0.53125 0 1.15625 -0.078125q0.640625 -0.09375 1.328125 -0.265625l0 1.65625zm25.631775 -5.484375q0 1.296875 -0.375 2.375q-0.359375 1.078125 -1.046875 1.84375q-0.671875 0.765625 -1.65625 1.203125q-0.984375 0.421875 -2.234375 0.421875q-1.203125 0 -2.15625 -0.375q-0.9375 -0.375 -1.59375 -1.09375q-0.65625 -0.71875 -1.015625 -1.78125q-0.34375 -1.0625 -0.34375 -2.4375q0 -1.296875 0.359375 -2.359375q0.375 -1.078125 1.0625 -1.84375q0.6875 -0.765625 1.671875 -1.1875q0.984375 -0.4375 2.234375 -0.4375q1.1875 0 2.125 0.375q0.953125 0.375 1.609375 1.09375q0.65625 0.703125 1.0 1.765625q0.359375 1.0625 0.359375 2.4375zm-1.96875 0.09375q0 -1.03125 -0.234375 -1.796875q-0.21875 -0.78125 -0.640625 -1.296875q-0.421875 -0.515625 -1.03125 -0.765625q-0.59375 -0.265625 -1.328125 -0.265625q-0.875 0 -1.484375 0.34375q-0.609375 0.328125 -1.0 0.90625q-0.390625 0.5625 -0.578125 1.3125q-0.1875 0.734375 -0.1875 1.5625q0 1.015625 0.21875 1.796875q0.234375 0.78125 0.65625 1.296875q0.421875 0.5 1.015625 0.765625q0.59375 0.265625 1.359375 0.265625q0.859375 0 1.46875 -0.34375q0.609375 -0.34375 1.0 -0.90625q0.40625 -0.5625 0.578125 -1.296875q0.1875 -0.75 0.1875 -1.578125zm3.7221375 -5.5625l2.1875 0l2.71875 7.34375l0.59375 1.796875l0.609375 -1.84375l2.6875 -7.296875l2.125 0l-4.359375 11.109375l-2.21875 0l-4.34375 -11.109375zm22.878357 4.96875q0 0.40625 -0.015625 0.6875q-0.015625 0.28125 -0.03125 0.515625l-7.796875 0q0 1.703125 0.9375 2.625q0.953125 0.90625 2.75 0.90625q0.484375 0 0.96875 -0.03125q0.5 -0.046875 0.953125 -0.109375q0.453125 -0.0625 0.859375 -0.140625q0.421875 -0.09375 0.765625 -0.1875l0 1.578125q-0.78125 0.21875 -1.78125 0.359375q-0.984375 0.140625 -2.046875 0.140625q-1.421875 0 -2.453125 -0.390625q-1.03125 -0.390625 -1.6875 -1.125q-0.65625 -0.734375 -0.96875 -1.796875q-0.3125 -1.078125 -0.3125 -2.421875q0 -1.171875 0.328125 -2.21875q0.34375 -1.046875 0.984375 -1.828125q0.65625 -0.796875 1.59375 -1.265625q0.9375 -0.46875 2.140625 -0.46875q1.15625 0 2.046875 0.375q0.90625 0.359375 1.515625 1.03125q0.609375 0.671875 0.921875 1.625q0.328125 0.953125 0.328125 2.140625zm-2.0 -0.28125q0.03125 -0.734375 -0.15625 -1.34375q-0.171875 -0.625 -0.546875 -1.0625q-0.359375 -0.4375 -0.921875 -0.6875q-0.546875 -0.25 -1.28125 -0.25q-0.625 0 -1.15625 0.25q-0.515625 0.234375 -0.890625 0.6875q-0.375 0.4375 -0.609375 1.0625q-0.234375 0.609375 -0.28125 1.34375l5.84375 0zm5.519043 -4.6875l1.765625 0l0.046875 2.046875q0.984375 -1.1875 1.9375 -1.71875q0.96875 -0.53125 1.9375 -0.53125q1.734375 0 2.625 1.125q0.890625 1.109375 0.8125 3.3125l-1.9375 0q0.03125 -1.453125 -0.4375 -2.109375q-0.453125 -0.65625 -1.328125 -0.65625q-0.390625 0 -0.796875 0.140625q-0.390625 0.125 -0.8125 0.4375q-0.40625 0.296875 -0.875 0.78125q-0.453125 0.46875 -0.984375 1.140625l0 7.140625l-1.953125 0l0 -11.109375zm15.784607 -2.9375l-3.28125 0l0 -1.578125l5.234375 0l0 14.015625l3.3125 0l0 1.609375l-8.90625 0l0 -1.609375l3.640625 0l0 -12.4375zm15.815918 14.046875l-0.046875 -1.5q-0.90625 0.90625 -1.84375 1.3125q-0.9375 0.390625 -1.953125 0.390625q-0.953125 0 -1.640625 -0.234375q-0.671875 -0.25 -1.109375 -0.671875q-0.4375 -0.4375 -0.640625 -1.015625q-0.203125 -0.578125 -0.203125 -1.25q0 -1.671875 1.234375 -2.609375q1.25 -0.953125 3.6875 -0.953125l2.296875 0l0 -0.96875q0 -0.984375 -0.625 -1.578125q-0.625 -0.59375 -1.921875 -0.59375q-0.9375 0 -1.859375 0.21875q-0.90625 0.203125 -1.875 0.59375l0 -1.734375q0.359375 -0.140625 0.796875 -0.265625q0.453125 -0.125 0.953125 -0.21875q0.5 -0.109375 1.03125 -0.171875q0.546875 -0.0625 1.109375 -0.0625q1.0 0 1.8125 0.234375q0.8125 0.21875 1.359375 0.671875q0.5625 0.453125 0.859375 1.140625q0.296875 0.6875 0.296875 1.609375l0 7.65625l-1.71875 0zm-0.21875 -5.0625l-2.4375 0q-0.71875 0 -1.25 0.15625q-0.515625 0.140625 -0.84375 0.40625q-0.328125 0.265625 -0.5 0.640625q-0.15625 0.359375 -0.15625 0.828125q0 0.328125 0.09375 0.625q0.109375 0.28125 0.328125 0.515625q0.234375 0.21875 0.578125 0.359375q0.359375 0.125 0.859375 0.125q0.671875 0 1.53125 -0.40625q0.859375 -0.40625 1.796875 -1.28125l0 -1.96875zm15.034607 -0.6875q0 1.484375 -0.421875 2.59375q-0.40625 1.09375 -1.140625 1.828125q-0.734375 0.734375 -1.734375 1.09375q-0.984375 0.359375 -2.15625 0.359375q-0.53125 0 -1.0625 -0.0625q-0.515625 -0.046875 -1.0625 -0.171875l0 4.640625l-1.921875 0l0 -15.640625l1.71875 0l0.125 1.859375q0.828125 -1.140625 1.765625 -1.59375q0.9375 -0.46875 2.03125 -0.46875q0.953125 0 1.671875 0.40625q0.71875 0.390625 1.203125 1.125q0.5 0.71875 0.734375 1.75q0.25 1.015625 0.25 2.28125zm-1.96875 0.078125q0 -0.859375 -0.140625 -1.59375q-0.125 -0.734375 -0.40625 -1.25q-0.265625 -0.515625 -0.703125 -0.8125q-0.421875 -0.296875 -1.015625 -0.296875q-0.375 0 -0.75 0.125q-0.375 0.109375 -0.78125 0.390625q-0.40625 0.265625 -0.859375 0.71875q-0.4375 0.4375 -0.953125 1.09375l0 5.390625q0.53125 0.21875 1.125 0.359375q0.59375 0.125 1.15625 0.125q1.546875 0 2.4375 -1.0625q0.890625 -1.0625 0.890625 -3.1875zm13.722168 2.640625q0 0.59375 -0.203125 1.0625q-0.1875 0.453125 -0.53125 0.8125q-0.34375 0.359375 -0.796875 0.625q-0.453125 0.25 -0.96875 0.421875q-0.515625 0.15625 -1.0625 0.234375q-0.546875 0.078125 -1.0625 0.078125q-1.125 0 -2.078125 -0.109375q-0.9375 -0.09375 -1.84375 -0.3125l0 -1.765625q0.96875 0.265625 1.921875 0.421875q0.96875 0.140625 1.921875 0.140625q1.390625 0 2.046875 -0.375q0.671875 -0.375 0.671875 -1.078125q0 -0.296875 -0.109375 -0.53125q-0.109375 -0.25 -0.390625 -0.453125q-0.265625 -0.21875 -0.84375 -0.453125q-0.578125 -0.234375 -1.59375 -0.53125q-0.75 -0.21875 -1.390625 -0.5q-0.625 -0.28125 -1.09375 -0.671875q-0.46875 -0.390625 -0.734375 -0.90625q-0.265625 -0.515625 -0.265625 -1.234375q0 -0.46875 0.21875 -1.015625q0.21875 -0.546875 0.734375 -1.015625q0.515625 -0.484375 1.40625 -0.796875q0.890625 -0.328125 2.203125 -0.328125q0.65625 0 1.453125 0.078125q0.796875 0.078125 1.65625 0.25l0 1.71875q-0.90625 -0.21875 -1.71875 -0.328125q-0.8125 -0.109375 -1.40625 -0.109375q-0.71875 0 -1.21875 0.109375q-0.484375 0.109375 -0.796875 0.3125q-0.296875 0.1875 -0.4375 0.453125q-0.125 0.25 -0.125 0.546875q0 0.3125 0.109375 0.5625q0.125 0.234375 0.4375 0.46875q0.3125 0.21875 0.875 0.453125q0.578125 0.21875 1.484375 0.484375q0.984375 0.28125 1.65625 0.59375q0.671875 0.3125 1.09375 0.703125q0.421875 0.390625 0.59375 0.875q0.1875 0.484375 0.1875 1.109375zm15.0849 -8.078125l2.1875 0l2.71875 7.34375l0.59375 1.796875l0.609375 -1.84375l2.6875 -7.296875l2.125 0l-4.359375 11.109375l-2.21875 0l-4.34375 -11.109375zm17.268982 1.59375l-3.28125 0l0 -1.59375l5.234375 0l0 9.5l3.3125 0l0 1.609375l-8.90625 0l0 -1.609375l3.640625 0l0 -7.90625zm0.6875 -6.25q0.3125 0 0.59375 0.125q0.28125 0.109375 0.484375 0.328125q0.203125 0.203125 0.3125 0.484375q0.125 0.265625 0.125 0.578125q0 0.3125 -0.125 0.59375q-0.109375 0.265625 -0.3125 0.484375q-0.203125 0.203125 -0.484375 0.328125q-0.28125 0.109375 -0.59375 0.109375q-0.328125 0 -0.609375 -0.109375q-0.265625 -0.125 -0.484375 -0.328125q-0.203125 -0.21875 -0.3125 -0.484375q-0.109375 -0.28125 -0.109375 -0.59375q0 -0.3125 0.109375 -0.578125q0.109375 -0.28125 0.3125 -0.484375q0.21875 -0.21875 0.484375 -0.328125q0.28125 -0.125 0.609375 -0.125zm16.628418 15.359375q-0.765625 0.28125 -1.5625 0.421875q-0.78125 0.140625 -1.625 0.140625q-2.625 0 -4.046875 -1.421875q-1.421875 -1.4375 -1.421875 -4.171875q0 -1.328125 0.40625 -2.390625q0.40625 -1.078125 1.140625 -1.84375q0.75 -0.765625 1.78125 -1.171875q1.03125 -0.421875 2.265625 -0.421875q0.859375 0 1.609375 0.125q0.765625 0.125 1.453125 0.40625l0 1.828125q-0.71875 -0.375 -1.46875 -0.546875q-0.75 -0.171875 -1.546875 -0.171875q-0.734375 0 -1.40625 0.28125q-0.65625 0.28125 -1.15625 0.8125q-0.484375 0.53125 -0.78125 1.296875q-0.28125 0.765625 -0.28125 1.71875q0 2.015625 0.96875 3.015625q0.984375 1.0 2.71875 1.0q0.78125 0 1.515625 -0.171875q0.75 -0.171875 1.4375 -0.53125l0 1.796875zm12.768982 0.25q-0.65625 0.171875 -1.359375 0.234375q-0.6875 0.078125 -1.40625 0.078125q-2.09375 0 -3.125 -0.9375q-1.015625 -0.953125 -1.015625 -2.90625l0 -5.796875l-3.109375 0l0 -1.625l3.109375 0l0 -3.046875l1.921875 -0.5l0 3.546875l4.984375 0l0 1.625l-4.984375 0l0 5.640625q0 1.1875 0.625 1.78125q0.640625 0.59375 1.875 0.59375q0.53125 0 1.15625 -0.078125q0.640625 -0.09375 1.328125 -0.265625l0 1.65625zm7.284668 -9.359375l-3.28125 0l0 -1.59375l5.234375 0l0 9.5l3.3125 0l0 1.609375l-8.90625 0l0 -1.609375l3.640625 0l0 -7.90625zm0.6875 -6.25q0.3125 0 0.59375 0.125q0.28125 0.109375 0.484375 0.328125q0.203125 0.203125 0.3125 0.484375q0.125 0.265625 0.125 0.578125q0 0.3125 -0.125 0.59375q-0.109375 0.265625 -0.3125 0.484375q-0.203125 0.203125 -0.484375 0.328125q-0.28125 0.109375 -0.59375 0.109375q-0.328125 0 -0.609375 -0.109375q-0.265625 -0.125 -0.484375 -0.328125q-0.203125 -0.21875 -0.3125 -0.484375q-0.109375 -0.28125 -0.109375 -0.59375q0 -0.3125 0.109375 -0.578125q0.109375 -0.28125 0.3125 -0.484375q0.21875 -0.21875 0.484375 -0.328125q0.28125 -0.125 0.609375 -0.125zm15.909607 15.765625l0 -7.96875q0 -0.53125 -0.046875 -0.859375q-0.03125 -0.328125 -0.109375 -0.515625q-0.078125 -0.203125 -0.21875 -0.28125q-0.125 -0.078125 -0.3125 -0.078125q-0.21875 0 -0.40625 0.140625q-0.1875 0.125 -0.40625 0.421875q-0.21875 0.296875 -0.484375 0.796875q-0.25 0.484375 -0.59375 1.203125l0 7.140625l-1.765625 0l0 -7.765625q0 -0.609375 -0.046875 -0.984375q-0.03125 -0.375 -0.125 -0.578125q-0.078125 -0.21875 -0.21875 -0.296875q-0.125 -0.078125 -0.3125 -0.078125q-0.1875 0 -0.375 0.109375q-0.171875 0.109375 -0.390625 0.40625q-0.21875 0.28125 -0.484375 0.78125q-0.265625 0.5 -0.625 1.265625l0 7.140625l-1.765625 0l0 -11.109375l1.46875 0l0.09375 2.109375q0.28125 -0.625 0.546875 -1.0625q0.28125 -0.453125 0.5625 -0.71875q0.28125 -0.265625 0.609375 -0.390625q0.328125 -0.140625 0.734375 -0.140625q0.890625 0 1.359375 0.59375q0.46875 0.578125 0.46875 1.8125q0.265625 -0.578125 0.515625 -1.015625q0.25 -0.453125 0.546875 -0.75q0.296875 -0.3125 0.640625 -0.46875q0.359375 -0.171875 0.828125 -0.171875q2.078125 0 2.078125 3.21875l0 8.09375l-1.765625 0z" fill-rule="nonzero"/></g></svg>
