<svg version="1.1" viewBox="90.0 170.0 890.0 195.0" fill="none" stroke="none" stroke-linecap="square" stroke-miterlimit="10" xmlns:xlink="http://www.w3.org/1999/xlink" xmlns="http://www.w3.org/2000/svg"><clipPath id="gf8932d7e54_0_114.0"><path d="m0 0l1280.0 0l0 720.0l-1280.0 0l0 -720.0z" clip-rule="nonzero"/></clipPath><g clip-path="url(#gf8932d7e54_0_114.0)"><path fill="#0070c0" d="m139.42781 205.3412l307.02362 0l0 98.89763l-307.02362 0z" fill-rule="evenodd"/><path stroke="#12a5d6" stroke-width="2.0" stroke-miterlimit="800.0" stroke-linecap="butt" d="m139.42781 205.3412l307.02362 0l0 98.89763l-307.02362 0z" fill-rule="evenodd"/><path fill="#ffffff" d="m159.84969 243.92377q0 1.140625 -0.5 2.078125q-0.484375 0.9375 -1.34375 1.609375q-0.859375 0.671875 -2.03125 1.0625q-1.171875 0.375 -2.53125 0.375q-0.34375 0 -0.734375 -0.03125q-0.390625 -0.015625 -0.78125 -0.046875q-0.375 -0.015625 -0.75 -0.0625q-0.375 -0.03125 -0.65625 -0.078125l0 -1.859375q0.625 0.15625 1.4375 0.234375q0.8125 0.0625 1.65625 0.0625q0.9375 0 1.6875 -0.21875q0.75 -0.21875 1.265625 -0.640625q0.53125 -0.421875 0.8125 -1.0q0.28125 -0.59375 0.28125 -1.34375q0 -1.421875 -1.03125 -2.0625q-1.015625 -0.65625 -2.9375 -0.65625l-2.90625 0l0 -7.828125l8.25 0l0 1.78125l-6.328125 0l0 4.296875l1.328125 0q1.109375 0 2.140625 0.203125q1.046875 0.1875 1.859375 0.6875q0.828125 0.5 1.3125 1.34375q0.5 0.828125 0.5 2.09375zm13.4609375 4.90625l-9.625 0l0 -1.90625l3.9375 0l0 -11.171875l-3.671875 1.984375l-0.75 -1.734375l4.875 -2.5625l1.8125 0l0 13.484375l3.421875 0l0 1.90625zm13.3203125 0l-10.09375 0l0 -1.828125l3.96875 -3.9375q0.96875 -0.96875 1.578125 -1.671875q0.609375 -0.703125 0.953125 -1.28125q0.34375 -0.578125 0.453125 -1.09375q0.125 -0.515625 0.125 -1.109375q0 -0.5625 -0.15625 -1.0625q-0.15625 -0.515625 -0.46875 -0.90625q-0.3125 -0.390625 -0.828125 -0.609375q-0.5 -0.21875 -1.203125 -0.21875q-0.96875 0 -1.765625 0.4375q-0.796875 0.421875 -1.46875 1.109375l-1.125 -1.34375q0.875 -0.90625 2.0 -1.453125q1.125 -0.5625 2.625 -0.5625q1.03125 0 1.859375 0.3125q0.84375 0.296875 1.453125 0.875q0.609375 0.578125 0.9375 1.40625q0.34375 0.828125 0.34375 1.875q0 0.875 -0.234375 1.625q-0.234375 0.75 -0.71875 1.5q-0.46875 0.734375 -1.1875 1.53125q-0.71875 0.796875 -1.703125 1.75l-2.78125 2.703125l7.4375 0l0 1.953125zm14.0078125 0l-2.046875 0l-0.296875 -9.546875l-0.125 -3.671875l-0.71875 2.125l-2.265625 6.09375l-1.4375 0l-2.15625 -5.859375l-0.71875 -2.359375l-0.046875 3.828125l-0.265625 9.390625l-1.96875 0l0.75 -15.3125l2.46875 0l2.0625 5.765625l0.671875 1.9375l0.640625 -1.9375l2.171875 -5.765625l2.546875 0l0.734375 15.3125zm12.4765625 -4.578125q0 1.09375 -0.4375 1.953125q-0.421875 0.84375 -1.21875 1.4375q-0.78125 0.578125 -1.90625 0.890625q-1.109375 0.296875 -2.484375 0.296875l-4.0 0l0 -15.3125l4.375 0q5.125 0 5.125 3.71875q0 1.25 -0.59375 2.140625q-0.59375 0.890625 -1.921875 1.3125q0.609375 0.125 1.171875 0.40625q0.5625 0.28125 0.984375 0.734375q0.421875 0.4375 0.65625 1.046875q0.25 0.609375 0.25 1.375zm-2.71875 -6.734375q0 -0.46875 -0.140625 -0.875q-0.140625 -0.421875 -0.5 -0.71875q-0.34375 -0.296875 -0.9375 -0.46875q-0.59375 -0.1875 -1.515625 -0.1875l-2.15625 0l0 4.796875l2.09375 0q0.703125 0 1.28125 -0.15625q0.59375 -0.15625 1.0 -0.46875q0.421875 -0.3125 0.640625 -0.78125q0.234375 -0.484375 0.234375 -1.140625zm0.5 6.796875q0 -0.578125 -0.25 -1.046875q-0.234375 -0.46875 -0.703125 -0.796875q-0.46875 -0.328125 -1.140625 -0.5q-0.671875 -0.171875 -1.515625 -0.171875l-2.140625 0l0 5.265625l2.203125 0q1.796875 0 2.671875 -0.65625q0.875 -0.671875 0.875 -2.09375z" fill-rule="nonzero"/><path fill="#ffffff" d="m160.36531 271.73627q0 1.5625 -0.453125 2.734375q-0.4375 1.171875 -1.21875 1.953125q-0.765625 0.765625 -1.828125 1.15625q-1.046875 0.390625 -2.265625 0.390625q-0.5625 0 -1.125 -0.0625q-0.5625 -0.046875 -1.125 -0.203125l0 4.9375l-2.046875 0l0 -16.578125l1.8125 0l0.140625 1.96875q0.875 -1.203125 1.859375 -1.6875q1.0 -0.5 2.171875 -0.5q1.0 0 1.765625 0.421875q0.765625 0.421875 1.28125 1.203125q0.515625 0.765625 0.765625 1.84375q0.265625 1.078125 0.265625 2.421875zm-2.09375 0.09375q0 -0.921875 -0.140625 -1.6875q-0.125 -0.78125 -0.421875 -1.328125q-0.296875 -0.5625 -0.75 -0.875q-0.453125 -0.3125 -1.09375 -0.3125q-0.375 0 -0.78125 0.125q-0.390625 0.125 -0.828125 0.421875q-0.421875 0.28125 -0.90625 0.765625q-0.46875 0.46875 -1.0 1.171875l0 5.703125q0.5625 0.234375 1.171875 0.375q0.625 0.125 1.21875 0.125q1.65625 0 2.59375 -1.109375q0.9375 -1.125 0.9375 -3.375zm12.7890625 6.0l-0.046875 -1.578125q-0.96875 0.9375 -1.953125 1.375q-0.984375 0.421875 -2.078125 0.421875q-1.015625 0 -1.734375 -0.265625q-0.703125 -0.265625 -1.171875 -0.703125q-0.453125 -0.453125 -0.671875 -1.0625q-0.21875 -0.609375 -0.21875 -1.328125q0 -1.765625 1.3125 -2.765625q1.328125 -1.015625 3.90625 -1.015625l2.4375 0l0 -1.03125q0 -1.03125 -0.671875 -1.65625q-0.671875 -0.640625 -2.046875 -0.640625q-0.984375 0 -1.953125 0.234375q-0.96875 0.21875 -2.0 0.625l0 -1.84375q0.390625 -0.140625 0.859375 -0.265625q0.46875 -0.140625 1.0 -0.234375q0.53125 -0.109375 1.09375 -0.171875q0.578125 -0.078125 1.171875 -0.078125q1.0625 0 1.921875 0.234375q0.859375 0.234375 1.4375 0.71875q0.59375 0.484375 0.90625 1.21875q0.328125 0.71875 0.328125 1.703125l0 8.109375l-1.828125 0zm-0.21875 -5.359375l-2.59375 0q-0.765625 0 -1.3125 0.15625q-0.546875 0.15625 -0.90625 0.4375q-0.34375 0.28125 -0.515625 0.671875q-0.171875 0.390625 -0.171875 0.875q0 0.34375 0.09375 0.65625q0.109375 0.3125 0.34375 0.5625q0.234375 0.234375 0.609375 0.375q0.375 0.140625 0.921875 0.140625q0.703125 0 1.609375 -0.421875q0.90625 -0.4375 1.921875 -1.359375l0 -2.09375zm14.3203125 -4.75q0.328125 0.421875 0.515625 0.96875q0.1875 0.53125 0.1875 1.171875q0 0.90625 -0.34375 1.671875q-0.328125 0.75 -0.9375 1.296875q-0.609375 0.53125 -1.46875 0.828125q-0.84375 0.296875 -1.859375 0.296875q-0.734375 0 -1.390625 -0.15625q-0.640625 -0.15625 -1.015625 -0.390625q-0.21875 0.328125 -0.375 0.625q-0.15625 0.296875 -0.15625 0.65625q0 0.4375 0.421875 0.734375q0.4375 0.296875 1.140625 0.3125l3.09375 0.125q0.875 0.015625 1.625 0.21875q0.75 0.203125 1.28125 0.578125q0.53125 0.375 0.828125 0.9375q0.296875 0.546875 0.296875 1.265625q0 0.78125 -0.34375 1.484375q-0.328125 0.703125 -1.046875 1.234375q-0.703125 0.546875 -1.796875 0.859375q-1.09375 0.3125 -2.59375 0.3125q-1.421875 0 -2.421875 -0.234375q-1.0 -0.21875 -1.65625 -0.625q-0.640625 -0.40625 -0.9375 -0.96875q-0.28125 -0.546875 -0.28125 -1.21875q0 -0.859375 0.390625 -1.5q0.40625 -0.640625 1.234375 -1.25q-0.3125 -0.140625 -0.53125 -0.34375q-0.21875 -0.21875 -0.359375 -0.46875q-0.140625 -0.25 -0.21875 -0.53125q-0.0625 -0.28125 -0.0625 -0.546875q0 -0.765625 0.359375 -1.390625q0.359375 -0.640625 0.84375 -1.203125q-0.21875 -0.265625 -0.390625 -0.515625q-0.171875 -0.265625 -0.296875 -0.5625q-0.125 -0.296875 -0.1875 -0.640625q-0.0625 -0.359375 -0.0625 -0.796875q0 -0.921875 0.328125 -1.671875q0.34375 -0.75 0.9375 -1.28125q0.609375 -0.546875 1.453125 -0.84375q0.859375 -0.3125 1.890625 -0.3125q0.4375 0 0.828125 0.0625q0.40625 0.0625 0.703125 0.15625l4.265625 0l0 1.65625l-1.890625 0zm-7.078125 11.8125q0 0.828125 0.859375 1.203125q0.875 0.390625 2.421875 0.390625q0.984375 0 1.640625 -0.1875q0.65625 -0.171875 1.0625 -0.453125q0.40625 -0.28125 0.578125 -0.65625q0.1875 -0.375 0.1875 -0.75q0 -0.71875 -0.59375 -1.0625q-0.578125 -0.34375 -1.796875 -0.40625l-3.0625 -0.09375q-0.390625 0.25 -0.640625 0.5q-0.25 0.25 -0.390625 0.5q-0.140625 0.25 -0.203125 0.5q-0.0625 0.25 -0.0625 0.515625zm0.625 -9.625q0 0.5625 0.1875 1.03125q0.1875 0.46875 0.53125 0.796875q0.34375 0.328125 0.796875 0.515625q0.46875 0.171875 1.03125 0.171875q0.609375 0 1.078125 -0.203125q0.484375 -0.203125 0.796875 -0.546875q0.328125 -0.359375 0.5 -0.8125q0.171875 -0.46875 0.171875 -0.953125q0 -0.5625 -0.1875 -1.03125q-0.1875 -0.46875 -0.53125 -0.796875q-0.34375 -0.328125 -0.8125 -0.5q-0.453125 -0.1875 -1.015625 -0.1875q-0.609375 0 -1.09375 0.21875q-0.46875 0.203125 -0.796875 0.546875q-0.3125 0.34375 -0.484375 0.796875q-0.171875 0.453125 -0.171875 0.953125zm21.117188 1.421875q0 0.421875 -0.015625 0.71875q0 0.296875 -0.03125 0.546875l-8.265625 0q0 1.8125 1.0 2.78125q1.015625 0.96875 2.921875 0.96875q0.515625 0 1.03125 -0.046875q0.515625 -0.046875 0.984375 -0.109375q0.484375 -0.078125 0.921875 -0.15625q0.453125 -0.09375 0.828125 -0.203125l0 1.6875q-0.84375 0.234375 -1.890625 0.375q-1.046875 0.15625 -2.171875 0.15625q-1.515625 0 -2.609375 -0.40625q-1.078125 -0.421875 -1.78125 -1.203125q-0.6875 -0.78125 -1.03125 -1.90625q-0.328125 -1.140625 -0.328125 -2.5625q0 -1.25 0.359375 -2.34375q0.359375 -1.109375 1.03125 -1.953125q0.6875 -0.84375 1.6875 -1.328125q1.0 -0.5 2.265625 -0.5q1.234375 0 2.171875 0.390625q0.953125 0.390625 1.59375 1.109375q0.65625 0.703125 0.984375 1.71875q0.34375 1.0 0.34375 2.265625zm-2.125 -0.296875q0.046875 -0.78125 -0.140625 -1.4375q-0.1875 -0.65625 -0.59375 -1.125q-0.390625 -0.46875 -0.984375 -0.71875q-0.578125 -0.265625 -1.34375 -0.265625q-0.671875 0 -1.21875 0.265625q-0.546875 0.25 -0.953125 0.71875q-0.390625 0.46875 -0.640625 1.125q-0.25 0.65625 -0.3125 1.4375l6.1875 0zm12.9453125 6.796875l-0.046875 -1.578125q-0.96875 0.9375 -1.953125 1.375q-0.984375 0.421875 -2.078125 0.421875q-1.015625 0 -1.734375 -0.265625q-0.703125 -0.265625 -1.171875 -0.703125q-0.453125 -0.453125 -0.671875 -1.0625q-0.21875 -0.609375 -0.21875 -1.328125q0 -1.765625 1.3125 -2.765625q1.328125 -1.015625 3.90625 -1.015625l2.4375 0l0 -1.03125q0 -1.03125 -0.671875 -1.65625q-0.671875 -0.640625 -2.046875 -0.640625q-0.984375 0 -1.953125 0.234375q-0.96875 0.21875 -2.0 0.625l0 -1.84375q0.390625 -0.140625 0.859375 -0.265625q0.46875 -0.140625 1.0 -0.234375q0.53125 -0.109375 1.09375 -0.171875q0.578125 -0.078125 1.171875 -0.078125q1.0625 0 1.921875 0.234375q0.859375 0.234375 1.4375 0.71875q0.59375 0.484375 0.90625 1.21875q0.328125 0.71875 0.328125 1.703125l0 8.109375l-1.828125 0zm-0.21875 -5.359375l-2.59375 0q-0.765625 0 -1.3125 0.15625q-0.546875 0.15625 -0.90625 0.4375q-0.34375 0.28125 -0.515625 0.671875q-0.171875 0.390625 -0.171875 0.875q0 0.34375 0.09375 0.65625q0.109375 0.3125 0.34375 0.5625q0.234375 0.234375 0.609375 0.375q0.375 0.140625 0.921875 0.140625q0.703125 0 1.609375 -0.421875q0.90625 -0.4375 1.921875 -1.359375l0 -2.09375zm15.9140625 -0.734375q0 1.46875 -0.40625 2.625q-0.40625 1.140625 -1.15625 1.953125q-0.734375 0.796875 -1.8125 1.234375q-1.0625 0.421875 -2.390625 0.421875q-1.046875 0 -2.140625 -0.203125q-1.09375 -0.203125 -2.15625 -0.625l0 -15.875l2.046875 0l0 4.5625l-0.09375 2.171875q0.875 -1.171875 1.875 -1.65625q1.0 -0.5 2.15625 -0.5q1.0 0 1.765625 0.421875q0.765625 0.421875 1.28125 1.203125q0.515625 0.765625 0.765625 1.84375q0.265625 1.078125 0.265625 2.421875zm-2.09375 0.09375q0 -0.921875 -0.140625 -1.6875q-0.125 -0.78125 -0.421875 -1.328125q-0.296875 -0.5625 -0.75 -0.875q-0.453125 -0.3125 -1.09375 -0.3125q-0.375 0 -0.78125 0.125q-0.390625 0.125 -0.828125 0.421875q-0.421875 0.28125 -0.90625 0.765625q-0.46875 0.46875 -1.0 1.171875l0 5.703125q0.59375 0.234375 1.203125 0.375q0.625 0.125 1.1875 0.125q0.703125 0 1.34375 -0.21875q0.640625 -0.21875 1.125 -0.734375q0.484375 -0.53125 0.765625 -1.390625q0.296875 -0.859375 0.296875 -2.140625zm9.2421875 -8.890625l-3.484375 0l0 -1.671875l5.546875 0l0 14.859375l3.5 0l0 1.703125l-9.4375 0l0 -1.703125l3.875 0l0 -13.1875zm19.117188 8.390625q0 0.421875 -0.015625 0.71875q0 0.296875 -0.03125 0.546875l-8.265625 0q0 1.8125 1.0 2.78125q1.015625 0.96875 2.921875 0.96875q0.515625 0 1.03125 -0.046875q0.515625 -0.046875 0.984375 -0.109375q0.484375 -0.078125 0.921875 -0.15625q0.453125 -0.09375 0.828125 -0.203125l0 1.6875q-0.84375 0.234375 -1.890625 0.375q-1.046875 0.15625 -2.171875 0.15625q-1.515625 0 -2.609375 -0.40625q-1.078125 -0.421875 -1.78125 -1.203125q-0.6875 -0.78125 -1.03125 -1.90625q-0.328125 -1.140625 -0.328125 -2.5625q0 -1.25 0.359375 -2.34375q0.359375 -1.109375 1.03125 -1.953125q0.6875 -0.84375 1.6875 -1.328125q1.0 -0.5 2.265625 -0.5q1.234375 0 2.171875 0.390625q0.953125 0.390625 1.59375 1.109375q0.65625 0.703125 0.984375 1.71875q0.34375 1.0 0.34375 2.265625zm-2.125 -0.296875q0.046875 -0.78125 -0.140625 -1.4375q-0.1875 -0.65625 -0.59375 -1.125q-0.390625 -0.46875 -0.984375 -0.71875q-0.578125 -0.265625 -1.34375 -0.265625q-0.671875 0 -1.21875 0.265625q-0.546875 0.25 -0.953125 0.71875q-0.390625 0.46875 -0.640625 1.125q-0.25 0.65625 -0.3125 1.4375l6.1875 0zm26.968765 6.796875l0 -8.453125q0 -0.546875 -0.046875 -0.890625q-0.03125 -0.359375 -0.125 -0.5625q-0.078125 -0.203125 -0.21875 -0.28125q-0.140625 -0.09375 -0.328125 -0.09375q-0.234375 0 -0.4375 0.140625q-0.203125 0.140625 -0.4375 0.46875q-0.21875 0.3125 -0.5 0.828125q-0.265625 0.515625 -0.640625 1.28125l0 7.5625l-1.875 0l0 -8.234375q0 -0.640625 -0.046875 -1.03125q-0.03125 -0.40625 -0.125 -0.625q-0.078125 -0.21875 -0.21875 -0.296875q-0.140625 -0.09375 -0.34375 -0.09375q-0.203125 0 -0.390625 0.125q-0.1875 0.109375 -0.421875 0.421875q-0.234375 0.296875 -0.515625 0.828125q-0.28125 0.53125 -0.65625 1.34375l0 7.5625l-1.875 0l0 -11.765625l1.546875 0l0.09375 2.234375q0.3125 -0.671875 0.59375 -1.140625q0.296875 -0.46875 0.59375 -0.75q0.3125 -0.28125 0.65625 -0.421875q0.34375 -0.140625 0.765625 -0.140625q0.953125 0 1.4375 0.625q0.5 0.625 0.5 1.921875q0.28125 -0.609375 0.546875 -1.078125q0.265625 -0.484375 0.578125 -0.796875q0.3125 -0.328125 0.6875 -0.5q0.375 -0.171875 0.859375 -0.171875q2.21875 0 2.21875 3.421875l0 8.5625l-1.875 0zm12.3671875 0l-0.046875 -1.578125q-0.96875 0.9375 -1.953125 1.375q-0.984375 0.421875 -2.078125 0.421875q-1.015625 0 -1.734375 -0.265625q-0.703125 -0.265625 -1.171875 -0.703125q-0.453125 -0.453125 -0.671875 -1.0625q-0.21875 -0.609375 -0.21875 -1.328125q0 -1.765625 1.3125 -2.765625q1.328125 -1.015625 3.90625 -1.015625l2.4375 0l0 -1.03125q0 -1.03125 -0.671875 -1.65625q-0.671875 -0.640625 -2.046875 -0.640625q-0.984375 0 -1.953125 0.234375q-0.96875 0.21875 -2.0 0.625l0 -1.84375q0.390625 -0.140625 0.859375 -0.265625q0.46875 -0.140625 1.0 -0.234375q0.53125 -0.109375 1.09375 -0.171875q0.578125 -0.078125 1.171875 -0.078125q1.0625 0 1.921875 0.234375q0.859375 0.234375 1.4375 0.71875q0.59375 0.484375 0.90625 1.21875q0.328125 0.71875 0.328125 1.703125l0 8.109375l-1.828125 0zm-0.21875 -5.359375l-2.59375 0q-0.765625 0 -1.3125 0.15625q-0.546875 0.15625 -0.90625 0.4375q-0.34375 0.28125 -0.515625 0.671875q-0.171875 0.390625 -0.171875 0.875q0 0.34375 0.09375 0.65625q0.109375 0.3125 0.34375 0.5625q0.234375 0.234375 0.609375 0.375q0.375 0.140625 0.921875 0.140625q0.703125 0 1.609375 -0.421875q0.90625 -0.4375 1.921875 -1.359375l0 -2.09375zm15.9140625 -0.734375q0 1.5625 -0.453125 2.734375q-0.4375 1.171875 -1.21875 1.953125q-0.765625 0.765625 -1.828125 1.15625q-1.046875 0.390625 -2.265625 0.390625q-0.5625 0 -1.125 -0.0625q-0.5625 -0.046875 -1.125 -0.203125l0 4.9375l-2.046875 0l0 -16.578125l1.8125 0l0.140625 1.96875q0.875 -1.203125 1.859375 -1.6875q1.0 -0.5 2.171875 -0.5q1.0 0 1.765625 0.421875q0.765625 0.421875 1.28125 1.203125q0.515625 0.765625 0.765625 1.84375q0.265625 1.078125 0.265625 2.421875zm-2.09375 0.09375q0 -0.921875 -0.140625 -1.6875q-0.125 -0.78125 -0.421875 -1.328125q-0.296875 -0.5625 -0.75 -0.875q-0.453125 -0.3125 -1.09375 -0.3125q-0.375 0 -0.78125 0.125q-0.390625 0.125 -0.828125 0.421875q-0.421875 0.28125 -0.90625 0.765625q-0.46875 0.46875 -1.0 1.171875l0 5.703125q0.5625 0.234375 1.171875 0.375q0.625 0.125 1.21875 0.125q1.65625 0 2.59375 -1.109375q0.9375 -1.125 0.9375 -3.375z" fill-rule="nonzero"/><path fill="#ed7d31" d="m347.5013 206.55905l97.88977 0l0 96.44095l-97.88977 0z" fill-rule="evenodd"/><path fill="#000000" d="m364.73917 257.6789q0 -1.5 0.40625 -2.6562347q0.40625 -1.171875 1.15625 -1.96875q0.765625 -0.8125 1.828125 -1.21875q1.0625 -0.421875 2.359375 -0.421875q0.5625 0 1.109375 0.078125q0.546875 0.0625 1.078125 0.21875l0 -4.953125l2.046875 0l0 16.562485l-1.828125 0l-0.078125 -2.234375q-0.84375 1.25 -1.84375 1.859375q-1.0 0.59375 -2.15625 0.59375q-1.015625 0 -1.78125 -0.421875q-0.765625 -0.4375 -1.28125 -1.203125q-0.5 -0.765625 -0.765625 -1.84375q-0.25 -1.078125 -0.25 -2.390625zm2.078125 -0.125q0 2.125 0.625 3.1875q0.640625 1.046875 1.78125 1.046875q0.78125 0 1.640625 -0.6875q0.859375 -0.703125 1.8125 -2.0625l0 -5.4531097q-0.515625 -0.234375 -1.125 -0.359375q-0.609375 -0.125 -1.203125 -0.125q-1.65625 0 -2.59375 1.078125q-0.9375 1.078125 -0.9375 3.3749847zm21.773438 -0.328125q0 1.46875 -0.40625 2.625q-0.40625 1.140625 -1.15625 1.953125q-0.734375 0.796875 -1.8125 1.234375q-1.0625 0.421875 -2.390625 0.421875q-1.046875 0 -2.140625 -0.203125q-1.09375 -0.203125 -2.15625 -0.625l0 -15.874985l2.046875 0l0 4.5625l-0.09375 2.171875q0.875 -1.171875 1.875 -1.65625q1.0 -0.5 2.15625 -0.5q1.0 0 1.765625 0.421875q0.765625 0.421875 1.28125 1.203125q0.515625 0.765625 0.765625 1.84375q0.265625 1.078125 0.265625 2.4218597zm-2.09375 0.09375q0 -0.921875 -0.140625 -1.6874847q-0.125 -0.78125 -0.421875 -1.328125q-0.296875 -0.5625 -0.75 -0.875q-0.453125 -0.3125 -1.09375 -0.3125q-0.375 0 -0.78125 0.125q-0.390625 0.125 -0.828125 0.421875q-0.421875 0.28125 -0.90625 0.765625q-0.46875 0.46875 -1.0 1.171875l0 5.7031097q0.59375 0.234375 1.203125 0.375q0.625 0.125 1.1875 0.125q0.703125 0 1.34375 -0.21875q0.640625 -0.21875 1.125 -0.734375q0.484375 -0.53125 0.765625 -1.390625q0.296875 -0.859375 0.296875 -2.140625zm14.6796875 6.0l-1.828125 0l-0.0625 -1.90625q-0.53125 0.609375 -1.015625 1.015625q-0.46875 0.40625 -0.9375 0.65625q-0.46875 0.25 -0.9375 0.34375q-0.46875 0.109375 -1.0 0.109375q-1.8125 0 -2.75 -1.0625q-0.921875 -1.078125 -0.921875 -3.234375l0 -7.6874847l2.046875 0l0 7.5156097q0 2.71875 2.03125 2.71875q0.375 0 0.734375 -0.109375q0.359375 -0.125 0.75 -0.390625q0.390625 -0.28125 0.84375 -0.75q0.453125 -0.46875 1.015625 -1.1875l0 -7.7968597l2.03125 0l0 11.76561zm14.1796875 -14.656235q-1.59375 -0.34375 -2.765625 -0.34375q-2.75 0 -2.75 2.875l0 2.0625l5.15625 0l0 1.703125l-5.15625 0l0 8.35936l-2.078125 0l0 -8.35936l-3.78125 0l0 -1.703125l3.78125 0l0 -1.9375q0 -4.703125 4.90625 -4.703125q1.21875 0 2.6875 0.28125l0 1.765625zm-12.3125 2.890625l0 0zm25.367188 4.109375q0 1.7656097 -0.359375 3.2187347q-0.34375 1.4375 -1.0625 2.484375q-0.71875 1.03125 -1.78125 1.609375q-1.0625 0.5625 -2.484375 0.5625q-1.234375 0 -2.25 -0.46875q-1.0 -0.46875 -1.71875 -1.421875q-0.703125 -0.96875 -1.09375 -2.453125q-0.390625 -1.484375 -0.390625 -3.5312347q0 -1.75 0.359375 -3.203125q0.359375 -1.453125 1.0625 -2.484375q0.71875 -1.046875 1.78125 -1.609375q1.0625 -0.578125 2.484375 -0.578125q1.234375 0 2.234375 0.46875q1.015625 0.453125 1.71875 1.421875q0.71875 0.96875 1.109375 2.46875q0.390625 1.484375 0.390625 3.515625zm-2.0625 0.078125q0 -0.40625 -0.03125 -0.796875q-0.03125 -0.390625 -0.0625 -0.765625l-6.484375 4.8124847q0.171875 0.609375 0.4375 1.125q0.28125 0.515625 0.65625 0.890625q0.375 0.359375 0.859375 0.578125q0.5 0.203125 1.109375 0.203125q0.796875 0 1.453125 -0.390625q0.65625 -0.390625 1.109375 -1.140625q0.453125 -0.765625 0.703125 -1.890625q0.25 -1.140625 0.25 -2.6249847zm-7.015625 -0.140625q0 0.359375 0 0.71873474q0.015625 0.359375 0.046875 0.703125l6.484375 -4.7968597q-0.171875 -0.59375 -0.453125 -1.078125q-0.265625 -0.5 -0.640625 -0.859375q-0.375 -0.359375 -0.859375 -0.546875q-0.46875 -0.203125 -1.078125 -0.203125q-0.796875 0 -1.453125 0.390625q-0.640625 0.375 -1.09375 1.15625q-0.453125 0.765625 -0.703125 1.890625q-0.25 1.125 -0.25 2.625z" fill-rule="nonzero"/><path fill="#ffff00" d="m603.9895 205.3307l307.02362 0l0 98.89763l-307.02362 0z" fill-rule="evenodd"/><path stroke="#12a5d6" stroke-width="2.0" stroke-miterlimit="800.0" stroke-linecap="butt" d="m603.9895 205.3307l307.02362 0l0 98.89763l-307.02362 0z" fill-rule="evenodd"/><path fill="#000000" d="m796.4388 255.5539q0 2.0625 -0.484375 3.5625q-0.484375 1.5 -1.3125 2.484375q-0.828125 0.984375 -1.9375 1.46875q-1.09375 0.46875 -2.328125 0.46875q-1.484375 0 -2.578125 -0.53125q-1.09375 -0.546875 -1.8125 -1.546875q-0.71875 -1.015625 -1.078125 -2.453125q-0.34375 -1.453125 -0.34375 -3.265625q0 -2.046875 0.46875 -3.546875q0.484375 -1.5 1.3125 -2.46875q0.828125 -0.984375 1.921875 -1.453125q1.109375 -0.484375 2.34375 -0.484375q1.46875 0 2.5625 0.546875q1.109375 0.53125 1.828125 1.53125q0.734375 1.0 1.078125 2.453125q0.359375 1.4375 0.359375 3.234375zm-2.15625 0.15625q0 -1.34375 -0.21875 -2.453125q-0.203125 -1.125 -0.65625 -1.9375q-0.453125 -0.8125 -1.171875 -1.25q-0.71875 -0.453125 -1.75 -0.453125q-0.984375 0 -1.6875 0.484375q-0.703125 0.46875 -1.171875 1.28125q-0.453125 0.8125 -0.671875 1.90625q-0.21875 1.09375 -0.21875 2.328125q0 1.359375 0.203125 2.484375q0.21875 1.109375 0.65625 1.921875q0.453125 0.796875 1.171875 1.25q0.71875 0.4375 1.71875 0.4375q0.984375 0 1.703125 -0.46875q0.71875 -0.484375 1.171875 -1.296875q0.46875 -0.8125 0.6875 -1.890625q0.234375 -1.09375 0.234375 -2.34375zm14.4921875 3.453125q0 1.09375 -0.453125 1.921875q-0.4375 0.8125 -1.234375 1.359375q-0.796875 0.546875 -1.921875 0.828125q-1.109375 0.265625 -2.46875 0.265625q-0.609375 0 -1.21875 -0.046875q-0.59375 -0.046875 -1.15625 -0.125q-0.546875 -0.078125 -1.046875 -0.171875q-0.484375 -0.09375 -0.890625 -0.1875l0 -2.015625q0.890625 0.328125 1.984375 0.515625q1.09375 0.1875 2.484375 0.1875q1.015625 0 1.71875 -0.15625q0.703125 -0.171875 1.15625 -0.46875q0.453125 -0.3125 0.65625 -0.75q0.203125 -0.453125 0.203125 -1.03125q0 -0.625 -0.34375 -1.0625q-0.34375 -0.4375 -0.90625 -0.78125q-0.5625 -0.34375 -1.28125 -0.625q-0.71875 -0.296875 -1.46875 -0.59375q-0.75 -0.3125 -1.46875 -0.671875q-0.71875 -0.359375 -1.28125 -0.84375q-0.5625 -0.484375 -0.921875 -1.140625q-0.34375 -0.65625 -0.34375 -1.5625q0 -0.78125 0.328125 -1.546875q0.328125 -0.765625 1.015625 -1.34375q0.703125 -0.59375 1.78125 -0.953125q1.09375 -0.375 2.59375 -0.375q0.375 0 0.828125 0.046875q0.453125 0.03125 0.90625 0.09375q0.46875 0.0625 0.921875 0.140625q0.453125 0.078125 0.84375 0.171875l0 1.875q-0.90625 -0.25 -1.8125 -0.375q-0.890625 -0.140625 -1.734375 -0.140625q-1.796875 0 -2.640625 0.59375q-0.84375 0.59375 -0.84375 1.609375q0 0.609375 0.34375 1.0625q0.34375 0.4375 0.90625 0.796875q0.5625 0.34375 1.28125 0.640625q0.71875 0.28125 1.46875 0.59375q0.75 0.296875 1.46875 0.671875q0.734375 0.359375 1.296875 0.859375q0.5625 0.484375 0.90625 1.15625q0.34375 0.671875 0.34375 1.578125zm14.5859375 4.15625l-2.265625 0l-1.078125 -3.34375l-6.375 0l-1.078125 3.34375l-2.15625 0l5.078125 -15.3125l2.859375 0l5.015625 15.3125zm-3.9375 -5.203125l-2.59375 -8.1875l-2.578125 8.1875l5.171875 0zm6.4140625 -6.5625l1.859375 0l0.0625 2.171875q1.046875 -1.265625 2.046875 -1.828125q1.015625 -0.5625 2.046875 -0.5625q1.828125 0 2.765625 1.1875q0.953125 1.1875 0.890625 3.515625l-2.0625 0q0.03125 -1.546875 -0.453125 -2.234375q-0.484375 -0.703125 -1.421875 -0.703125q-0.421875 0 -0.84375 0.15625q-0.40625 0.140625 -0.84375 0.46875q-0.4375 0.3125 -0.9375 0.8125q-0.484375 0.5 -1.046875 1.21875l0 7.5625l-2.0625 0l0 -11.765625zm13.1953125 0l1.859375 0l0.0625 2.171875q1.046875 -1.265625 2.046875 -1.828125q1.015625 -0.5625 2.046875 -0.5625q1.828125 0 2.765625 1.1875q0.953125 1.1875 0.890625 3.515625l-2.0625 0q0.03125 -1.546875 -0.453125 -2.234375q-0.484375 -0.703125 -1.421875 -0.703125q-0.421875 0 -0.84375 0.15625q-0.40625 0.140625 -0.84375 0.46875q-0.4375 0.3125 -0.9375 0.8125q-0.484375 0.5 -1.046875 1.21875l0 7.5625l-2.0625 0l0 -11.765625zm20.273438 11.765625l-0.046875 -1.578125q-0.96875 0.9375 -1.953125 1.375q-0.984375 0.421875 -2.078125 0.421875q-1.015625 0 -1.734375 -0.265625q-0.703125 -0.265625 -1.171875 -0.703125q-0.453125 -0.453125 -0.671875 -1.0625q-0.21875 -0.609375 -0.21875 -1.328125q0 -1.765625 1.3125 -2.765625q1.328125 -1.015625 3.90625 -1.015625l2.4375 0l0 -1.03125q0 -1.03125 -0.671875 -1.65625q-0.671875 -0.640625 -2.046875 -0.640625q-0.984375 0 -1.953125 0.234375q-0.96875 0.21875 -2.0 0.625l0 -1.84375q0.390625 -0.140625 0.859375 -0.265625q0.46875 -0.140625 1.0 -0.234375q0.53125 -0.109375 1.09375 -0.171875q0.578125 -0.078125 1.171875 -0.078125q1.0625 0 1.921875 0.234375q0.859375 0.234375 1.4375 0.71875q0.59375 0.484375 0.90625 1.21875q0.328125 0.71875 0.328125 1.703125l0 8.109375l-1.828125 0zm-0.21875 -5.359375l-2.59375 0q-0.765625 0 -1.3125 0.15625q-0.546875 0.15625 -0.90625 0.4375q-0.34375 0.28125 -0.515625 0.671875q-0.171875 0.390625 -0.171875 0.875q0 0.34375 0.09375 0.65625q0.109375 0.3125 0.34375 0.5625q0.234375 0.234375 0.609375 0.375q0.375 0.140625 0.921875 0.140625q0.703125 0 1.609375 -0.421875q0.90625 -0.4375 1.921875 -1.359375l0 -2.09375zm16.320312 -6.40625l-4.015625 10.515625q-0.609375 1.609375 -1.28125 2.765625q-0.65625 1.171875 -1.453125 1.90625q-0.78125 0.75 -1.71875 1.09375q-0.9375 0.359375 -2.09375 0.359375q-0.296875 0 -0.546875 -0.015625q-0.25 0 -0.546875 -0.03125l0 -1.84375q0.265625 0.03125 0.5625 0.0625q0.3125 0.03125 0.65625 0.03125q0.5625 0 1.046875 -0.171875q0.484375 -0.15625 0.90625 -0.53125q0.4375 -0.375 0.828125 -0.96875q0.40625 -0.578125 0.78125 -1.40625l-4.6875 -11.765625l2.3125 0l2.984375 7.78125l0.59375 1.828125l0.671875 -1.875l2.765625 -7.734375l2.234375 0z" fill-rule="nonzero"/><path fill="#ed7d31" d="m603.9895 205.3307l152.22046 0l0 98.89763l-152.22046 0z" fill-rule="evenodd"/><path stroke="#12a5d6" stroke-width="2.0" stroke-miterlimit="800.0" stroke-linecap="butt" d="m603.9895 205.3307l152.22046 0l0 98.89763l-152.22046 0z" fill-rule="evenodd"/><path fill="#000000" d="m672.24426 227.04259q0 1.265625 -0.359375 2.296875q-0.359375 1.015625 -1.0625 1.734375q-0.6875 0.71875 -1.6875 1.125q-1.0 0.390625 -2.296875 0.390625q-1.4375 0 -2.4375 -0.375q-0.984375 -0.390625 -1.609375 -1.0625q-0.625 -0.6875 -0.921875 -1.640625q-0.28125 -0.96875 -0.28125 -2.15625l0 -10.296875l2.078125 0l0 10.125q0 0.90625 0.171875 1.59375q0.171875 0.671875 0.5625 1.140625q0.390625 0.453125 1.0 0.6875q0.609375 0.234375 1.5 0.234375q1.671875 0 2.453125 -0.953125q0.796875 -0.96875 0.796875 -2.71875l0 -10.109375l2.09375 0l0 9.984375zm14.3359375 5.328125l-2.265625 0l-1.078125 -3.34375l-6.375 0l-1.078125 3.34375l-2.15625 0l5.078125 -15.3125l2.859375 0l5.015625 15.3125zm-3.9375 -5.203125l-2.59375 -8.1875l-2.578125 8.1875l5.171875 0zm15.1015625 -8.328125l-6.515625 0l0 4.96875l6.171875 0l0 1.734375l-6.171875 0l0 6.828125l-2.125 0l0 -15.3125l8.640625 0l0 1.78125z" fill-rule="nonzero"/><path fill="#000000" fill-opacity="0.0" d="m644.3989 206.55905l0 99.33859l-40.409424 0l0 -99.33859z" fill-rule="evenodd"/><path fill="#c00000" d="m618.759 222.12155l1.125 -0.046875q-0.28125 -0.265625 -0.53125 -0.5625q-0.234375 -0.296875 -0.421875 -0.65625q-0.171875 -0.359375 -0.265625 -0.78125q-0.09375 -0.40625 -0.09375 -0.90625q0 -0.671875 0.1875 -1.171875q0.1875 -0.484375 0.53125 -0.828125q0.359375 -0.34375 0.84375 -0.515625q0.5 -0.171875 1.09375 -0.171875q0.609375 0 1.125 0.25q0.515625 0.265625 0.875 0.796875q0.375 0.53125 0.578125 1.3125q0.21875 0.796875 0.21875 1.859375l0 1.125l0.515625 0q0.34375 0 0.609375 -0.09375q0.265625 -0.09375 0.4375 -0.296875q0.1875 -0.203125 0.28125 -0.53125q0.109375 -0.328125 0.109375 -0.8125q0 -0.765625 -0.171875 -1.515625q-0.171875 -0.734375 -0.484375 -1.421875l1.65625 0q0.25 0.609375 0.40625 1.421875q0.15625 0.8125 0.15625 1.6875q0 0.953125 -0.1875 1.625q-0.171875 0.6875 -0.546875 1.125q-0.359375 0.453125 -0.90625 0.65625q-0.546875 0.21875 -1.265625 0.21875l-5.875 0l0 -1.765625zm3.796875 -0.296875l0 -1.25q0 -0.53125 -0.109375 -0.90625q-0.09375 -0.359375 -0.28125 -0.59375q-0.171875 -0.21875 -0.40625 -0.328125q-0.21875 -0.09375 -0.484375 -0.09375q-0.53125 0 -0.8125 0.328125q-0.265625 0.34375 -0.265625 0.921875q0 0.4375 0.3125 0.90625q0.3125 0.46875 0.890625 1.015625l1.15625 0zm1.453125 9.964584q0.484375 0.015625 0.8125 -0.046875q0.34375 -0.0625 0.5625 -0.203125q0.234375 -0.125 0.328125 -0.328125q0.109375 -0.203125 0.109375 -0.46875q0 -0.46875 -0.390625 -0.953125q-0.375 -0.484375 -1.234375 -1.0625l-5.4375 0l0 -2.125l8.59375 0l0 1.875l-1.25 0.078125q0.328125 0.21875 0.59375 0.484375q0.265625 0.265625 0.453125 0.578125q0.1875 0.328125 0.28125 0.71875q0.109375 0.40625 0.109375 0.890625q0 0.640625 -0.234375 1.140625q-0.21875 0.515625 -0.65625 0.859375q-0.4375 0.34375 -1.109375 0.5q-0.65625 0.171875 -1.53125 0.140625l0 -2.078125zm0 9.527084q0.484375 0.015625 0.8125 -0.046875q0.34375 -0.0625 0.5625 -0.203125q0.234375 -0.125 0.328125 -0.328125q0.109375 -0.203125 0.109375 -0.46875q0 -0.46875 -0.390625 -0.953125q-0.375 -0.484375 -1.234375 -1.0625l-5.4375 0l0 -2.125l8.59375 0l0 1.875l-1.25 0.078125q0.328125 0.21875 0.59375 0.484375q0.265625 0.265625 0.453125 0.578125q0.1875 0.328125 0.28125 0.71875q0.109375 0.40625 0.109375 0.890625q0 0.640625 -0.234375 1.140625q-0.21875 0.515625 -0.65625 0.859375q-0.4375 0.34375 -1.109375 0.5q-0.65625 0.171875 -1.53125 0.140625l0 -2.078125zm-5.25 9.386459l1.125 -0.046875q-0.28125 -0.265625 -0.53125 -0.5625q-0.234375 -0.296875 -0.421875 -0.65625q-0.171875 -0.359375 -0.265625 -0.78125q-0.09375 -0.40625 -0.09375 -0.90625q0 -0.671875 0.1875 -1.171875q0.1875 -0.484375 0.53125 -0.828125q0.359375 -0.34375 0.84375 -0.515625q0.5 -0.171875 1.09375 -0.171875q0.609375 0 1.125 0.25q0.515625 0.265625 0.875 0.796875q0.375 0.53125 0.578125 1.3125q0.21875 0.796875 0.21875 1.859375l0 1.125l0.515625 0q0.34375 0 0.609375 -0.09375q0.265625 -0.09375 0.4375 -0.296875q0.1875 -0.203125 0.28125 -0.53125q0.109375 -0.328125 0.109375 -0.8125q0 -0.765625 -0.171875 -1.515625q-0.171875 -0.734375 -0.484375 -1.421875l1.65625 0q0.25 0.609375 0.40625 1.421875q0.15625 0.8125 0.15625 1.6875q0 0.953125 -0.1875 1.625q-0.171875 0.6875 -0.546875 1.125q-0.359375 0.453125 -0.90625 0.65625q-0.546875 0.21875 -1.265625 0.21875l-5.875 0l0 -1.765625zm3.796875 -0.296875l0 -1.25q0 -0.53125 -0.109375 -0.90625q-0.09375 -0.359375 -0.28125 -0.59375q-0.171875 -0.21875 -0.40625 -0.328125q-0.21875 -0.09375 -0.484375 -0.09375q-0.53125 0 -0.8125 0.328125q-0.265625 0.34375 -0.265625 0.921875q0 0.4375 0.3125 0.90625q0.3125 0.46875 0.890625 1.015625l1.15625 0zm-2.859375 9.605209q-1.109375 -0.453125 -1.953125 -0.9375q-0.84375 -0.484375 -1.40625 -1.078125q-0.5625 -0.578125 -0.84375 -1.296875q-0.28125 -0.703125 -0.28125 -1.59375q0 -0.203125 0.015625 -0.453125q0.015625 -0.25 0.0625 -0.515625l1.75 0q-0.015625 0.09375 -0.03125 0.21875q-0.03125 0.140625 -0.03125 0.28125q-0.015625 0.140625 -0.015625 0.28125q-0.015625 0.15625 -0.015625 0.296875q0 0.34375 0.140625 0.640625q0.125 0.3125 0.375 0.5625q0.234375 0.265625 0.578125 0.46875q0.328125 0.21875 0.71875 0.390625l8.59375 -3.421875l0 2.3125l-4.875 1.78125l-1.5625 0.53125l1.5 0.53125l4.9375 1.796875l0 2.21875l-7.65625 -3.015625zm-4.296875 5.7614746l15.703125 0l0 4.453125l-1.609375 0l0 -2.546875l-12.484375 0l0 2.546875l-1.609375 0l0 -4.453125zm8.9375 16.02707q-1.359375 0 -2.4375 -0.296875q-1.078125 -0.296875 -1.828125 -0.875q-0.734375 -0.5625 -1.125 -1.390625q-0.375 -0.8125 -0.375 -1.875q0 -0.90625 0.3125 -1.6875q0.328125 -0.765625 1.015625 -1.328125q0.6875 -0.546875 1.765625 -0.859375q1.078125 -0.3125 2.5625 -0.3125q1.375 0 2.4375 0.296875q1.078125 0.296875 1.8125 0.859375q0.75 0.578125 1.140625 1.40625q0.390625 0.828125 0.390625 1.875q0 0.90625 -0.328125 1.671875q-0.3125 0.78125 -1.0 1.328125q-0.6875 0.5625 -1.765625 0.875q-1.078125 0.3125 -2.578125 0.3125zm-0.03125 -6.546875q-0.171875 0 -0.328125 0q-0.140625 0 -0.296875 0.015625l3.0 4.140625q0.828125 -0.296875 1.234375 -0.78125q0.40625 -0.484375 0.40625 -1.140625q0 -0.46875 -0.25 -0.875q-0.234375 -0.40625 -0.734375 -0.71875q-0.5 -0.296875 -1.25 -0.46875q-0.75 -0.171875 -1.78125 -0.171875zm-0.03125 4.46875q0.140625 0 0.28125 -0.015625q0.15625 0 0.28125 0l-2.96875 -4.125q-0.828125 0.265625 -1.234375 0.75q-0.390625 0.5 -0.390625 1.15625q0 0.46875 0.25 0.875q0.25 0.421875 0.734375 0.71875q0.5 0.296875 1.25 0.46875q0.765625 0.171875 1.796875 0.171875zm-8.875 4.7614746l1.609375 0l0 2.53125l12.484375 0l0 -2.53125l1.609375 0l0 4.4375l-15.703125 0l0 -4.4375z" fill-rule="nonzero"/><path fill="#000000" fill-opacity="0.0" d="m366.27823 295.44882l0 22.551178" fill-rule="evenodd"/><path stroke="#c00000" stroke-width="2.0" stroke-linejoin="round" stroke-linecap="butt" d="m366.27823 307.44882l0 10.551178" fill-rule="evenodd"/><path fill="#c00000" stroke="#c00000" stroke-width="2.0" stroke-linecap="butt" d="m369.58167 307.44882l-3.3034363 -9.076202l-3.3034668 9.076202z" fill-rule="evenodd"/><path fill="#000000" fill-opacity="0.0" d="m366.27823 316.7874l256.03146 0" fill-rule="evenodd"/><path stroke="#c00000" stroke-width="2.0" stroke-linejoin="round" stroke-linecap="butt" d="m366.27823 316.7874l256.03146 0" fill-rule="evenodd"/><path fill="#000000" fill-opacity="0.0" d="m621.53516 295.44882l0 22.551178" fill-rule="evenodd"/><path stroke="#c00000" stroke-width="2.0" stroke-linejoin="round" stroke-linecap="butt" d="m621.53516 295.44882l0 22.551178" fill-rule="evenodd"/></g></svg>
