<svg version="1.1" viewBox="230.0 160.0 850.0 420.0" fill="none" stroke="none" stroke-linecap="square" stroke-miterlimit="10" xmlns:xlink="http://www.w3.org/1999/xlink" xmlns="http://www.w3.org/2000/svg"><clipPath id="gf8932d7e54_0_72.0"><path d="m0 0l1280.0 0l0 720.0l-1280.0 0l0 -720.0z" clip-rule="nonzero"/></clipPath><g clip-path="url(#gf8932d7e54_0_72.0)"><path shape-rendering="crispEdges" fill="#5b9bd5" d="m342.87665 210.4567l348.43042 0l0 44.089233l-348.43042 0l0 -44.089233z" fill-rule="nonzero"/><path shape-rendering="crispEdges" fill="#5b9bd5" d="m342.87665 254.54593l174.21521 0l0 42.398956l-174.21521 0l0 -42.398956z" fill-rule="nonzero"/><path shape-rendering="crispEdges" fill="#5b9bd5" d="m517.09186 254.54593l174.21521 0l0 42.398956l-174.21521 0l0 -42.398956z" fill-rule="nonzero"/><path shape-rendering="crispEdges" fill="#5b9bd5" d="m342.87665 296.9449l174.21521 0l0 42.398956l-174.21521 0l0 -42.398956z" fill-rule="nonzero"/><path shape-rendering="crispEdges" fill="#5b9bd5" d="m517.09186 296.9449l174.21521 0l0 42.398956l-174.21521 0l0 -42.398956z" fill-rule="nonzero"/><path shape-rendering="crispEdges" fill="#5b9bd5" d="m342.87665 339.34384l348.43042 0l0 44.089233l-348.43042 0l0 -44.089233z" fill-rule="nonzero"/><path shape-rendering="crispEdges" fill="#70ad47" d="m342.87665 383.43307l348.43042 0l0 44.089233l-348.43042 0l0 -44.089233z" fill-rule="nonzero"/><path shape-rendering="crispEdges" fill="#70ad47" d="m342.87665 427.5223l348.43042 0l0 42.398956l-348.43042 0l0 -42.398956z" fill-rule="nonzero"/><path shape-rendering="crispEdges" fill="#70ad47" d="m342.87665 469.92126l348.43042 0l0 42.398926l-348.43042 0l0 -42.398926z" fill-rule="nonzero"/><path stroke="#000000" stroke-width="2.0" stroke-linecap="butt" d="m342.87665 209.4567l0 303.8635" fill-rule="nonzero"/><path stroke="#000000" stroke-width="2.0" stroke-linecap="butt" d="m517.09186 253.54593l0 86.79791" fill-rule="nonzero"/><path stroke="#000000" stroke-width="2.0" stroke-linecap="butt" d="m691.30707 209.4567l0 303.8635" fill-rule="nonzero"/><path stroke="#000000" stroke-width="2.0" stroke-linecap="butt" d="m341.87665 210.4567l350.43042 0" fill-rule="nonzero"/><path stroke="#000000" stroke-width="2.0" stroke-linecap="butt" d="m341.87665 254.54593l350.43042 0" fill-rule="nonzero"/><path stroke="#000000" stroke-width="2.0" stroke-linecap="butt" d="m341.87665 296.9449l350.43042 0" fill-rule="nonzero"/><path stroke="#000000" stroke-width="2.0" stroke-linecap="butt" d="m341.87665 339.34384l350.43042 0" fill-rule="nonzero"/><path stroke="#000000" stroke-width="2.0" stroke-linecap="butt" d="m341.87665 383.43307l350.43042 0" fill-rule="nonzero"/><path stroke="#000000" stroke-width="2.0" stroke-linecap="butt" d="m341.87665 427.5223l350.43042 0" fill-rule="nonzero"/><path stroke="#000000" stroke-width="2.0" stroke-linecap="butt" d="m341.87665 469.92126l350.43042 0" fill-rule="nonzero"/><path stroke="#000000" stroke-width="2.0" stroke-linecap="butt" d="m341.87665 512.3202l350.43042 0" fill-rule="nonzero"/><path fill="#000000" d="m506.78406 235.86194q0.375 0 0.703125 0.140625q0.328125 0.140625 0.5625 0.390625q0.25 0.234375 0.390625 0.5625q0.140625 0.328125 0.140625 0.703125q0 0.359375 -0.140625 0.6875q-0.140625 0.3125 -0.390625 0.5625q-0.234375 0.234375 -0.5625 0.375q-0.328125 0.140625 -0.703125 0.140625q-0.375 0 -0.6875 -0.140625q-0.3125 -0.140625 -0.5625 -0.375q-0.234375 -0.25 -0.375 -0.5625q-0.125 -0.328125 -0.125 -0.6875q0 -0.375 0.125 -0.703125q0.140625 -0.328125 0.375 -0.5625q0.25 -0.25 0.5625 -0.390625q0.3125 -0.140625 0.6875 -0.140625zm10.257263 0q0.375 0 0.703125 0.140625q0.328125 0.140625 0.5625 0.390625q0.25 0.234375 0.390625 0.5625q0.140625 0.328125 0.140625 0.703125q0 0.359375 -0.140625 0.6875q-0.140625 0.3125 -0.390625 0.5625q-0.234375 0.234375 -0.5625 0.375q-0.328125 0.140625 -0.703125 0.140625q-0.375 0 -0.6875 -0.140625q-0.3125 -0.140625 -0.5625 -0.375q-0.234375 -0.25 -0.375 -0.5625q-0.125 -0.328125 -0.125 -0.6875q0 -0.375 0.125 -0.703125q0.140625 -0.328125 0.375 -0.5625q0.25 -0.25 0.5625 -0.390625q0.3125 -0.140625 0.6875 -0.140625zm10.257324 0q0.375 0 0.703125 0.140625q0.328125 0.140625 0.5625 0.390625q0.25 0.234375 0.390625 0.5625q0.140625 0.328125 0.140625 0.703125q0 0.359375 -0.140625 0.6875q-0.140625 0.3125 -0.390625 0.5625q-0.234375 0.234375 -0.5625 0.375q-0.328125 0.140625 -0.703125 0.140625q-0.375 0 -0.6875 -0.140625q-0.3125 -0.140625 -0.5625 -0.375q-0.234375 -0.25 -0.375 -0.5625q-0.125 -0.328125 -0.125 -0.6875q0 -0.375 0.125 -0.703125q0.140625 -0.328125 0.375 -0.5625q0.25 -0.25 0.5625 -0.390625q0.3125 -0.140625 0.6875 -0.140625z" fill-rule="nonzero"/><path fill="#000000" d="m587.46246 279.74664q0 0.78125 -0.359375 1.34375q-0.34375 0.5625 -0.921875 0.921875q-0.578125 0.34375 -1.3125 0.5q-0.734375 0.15625 -1.5 0.15625q-1.015625 0 -1.84375 -0.09375q-0.8125 -0.09375 -1.546875 -0.265625l0 -2.015625q0.859375 0.359375 1.703125 0.515625q0.859375 0.15625 1.609375 0.15625q0.875 0 1.3125 -0.265625q0.4375 -0.28125 0.4375 -0.734375q0 -0.203125 -0.09375 -0.375q-0.09375 -0.171875 -0.34375 -0.328125q-0.25 -0.171875 -0.71875 -0.328125q-0.453125 -0.171875 -1.1875 -0.390625q-0.671875 -0.1875 -1.1875 -0.421875q-0.515625 -0.25 -0.859375 -0.578125q-0.328125 -0.328125 -0.5 -0.75q-0.171875 -0.4375 -0.171875 -1.03125q0 -0.5625 0.25 -1.0625q0.265625 -0.5 0.765625 -0.875q0.5 -0.375 1.25 -0.59375q0.765625 -0.21875 1.78125 -0.21875q0.875 0 1.546875 0.09375q0.671875 0.078125 1.1875 0.1875l0 1.828125q-0.78125 -0.265625 -1.484375 -0.359375q-0.703125 -0.109375 -1.375 -0.109375q-0.6875 0 -1.109375 0.25q-0.40625 0.234375 -0.40625 0.671875q0 0.21875 0.078125 0.390625q0.078125 0.15625 0.3125 0.3125q0.25 0.140625 0.6875 0.3125q0.4375 0.171875 1.140625 0.375q0.796875 0.21875 1.34375 0.484375q0.546875 0.265625 0.875 0.59375q0.34375 0.328125 0.484375 0.75q0.15625 0.40625 0.15625 0.953125zm10.679199 -2.625q0 0.234375 -0.015625 0.609375q-0.015625 0.359375 -0.03125 0.671875l-6.09375 0q0 0.609375 0.1875 1.078125q0.1875 0.46875 0.53125 0.78125q0.34375 0.3125 0.8125 0.484375q0.484375 0.15625 1.0625 0.15625q0.671875 0 1.4375 -0.109375q0.78125 -0.109375 1.609375 -0.34375l0 1.765625q-0.359375 0.109375 -0.78125 0.1875q-0.40625 0.078125 -0.84375 0.140625q-0.4375 0.0625 -0.890625 0.09375q-0.453125 0.03125 -0.859375 0.03125q-1.0625 0 -1.90625 -0.296875q-0.828125 -0.296875 -1.421875 -0.875q-0.578125 -0.59375 -0.890625 -1.453125q-0.3125 -0.875 -0.3125 -2.015625q0 -1.125 0.3125 -2.046875q0.3125 -0.9375 0.875 -1.59375q0.5625 -0.65625 1.375 -1.015625q0.8125 -0.359375 1.796875 -0.359375q0.984375 0 1.734375 0.3125q0.765625 0.296875 1.265625 0.84375q0.515625 0.546875 0.78125 1.3125q0.265625 0.75 0.265625 1.640625zm-2.265625 -0.3125q0.015625 -0.546875 -0.140625 -0.953125q-0.140625 -0.40625 -0.390625 -0.671875q-0.25 -0.265625 -0.578125 -0.390625q-0.328125 -0.125 -0.71875 -0.125q-0.828125 0 -1.375 0.5625q-0.53125 0.5625 -0.640625 1.578125l3.84375 0zm9.976013 9.265625l0 -3.03125l0.109375 -1.8125q-0.265625 0.328125 -0.546875 0.59375q-0.28125 0.265625 -0.625 0.453125q-0.34375 0.1875 -0.75 0.28125q-0.390625 0.109375 -0.859375 0.109375q-0.828125 0 -1.46875 -0.328125q-0.625 -0.328125 -1.0625 -0.921875q-0.4375 -0.609375 -0.671875 -1.46875q-0.21875 -0.875 -0.21875 -1.9375q0 -1.109375 0.296875 -2.015625q0.3125 -0.921875 0.90625 -1.578125q0.59375 -0.65625 1.484375 -1.015625q0.890625 -0.359375 2.09375 -0.359375q0.21875 0 0.484375 0.03125q0.28125 0.03125 0.546875 0.078125q0.28125 0.03125 0.53125 0.09375q0.25 0.046875 0.453125 0.125l1.53125 -0.34375l0 13.046875l-2.234375 0zm-3.75 -8.171875q0 0.765625 0.09375 1.3125q0.109375 0.546875 0.3125 0.890625q0.203125 0.34375 0.5 0.515625q0.3125 0.15625 0.6875 0.15625q0.5625 0 1.078125 -0.453125q0.515625 -0.46875 1.078125 -1.25l0 -4.046875q-0.265625 -0.109375 -0.65625 -0.171875q-0.375 -0.0625 -0.765625 -0.0625q-0.546875 0 -0.96875 0.21875q-0.421875 0.21875 -0.734375 0.625q-0.296875 0.390625 -0.46875 0.96875q-0.15625 0.578125 -0.15625 1.296875zm14.007324 4.5625l0 -6.03125q0 -1.515625 -1.125 -1.515625q-0.5625 0 -1.078125 0.453125q-0.515625 0.453125 -1.09375 1.234375l0 5.859375l-2.21875 0l0 -9.25l1.921875 0l0.0625 1.359375q0.28125 -0.359375 0.578125 -0.640625q0.3125 -0.296875 0.65625 -0.5q0.359375 -0.203125 0.765625 -0.3125q0.421875 -0.109375 0.921875 -0.109375q0.71875 0 1.234375 0.234375q0.53125 0.234375 0.890625 0.65625q0.359375 0.421875 0.53125 1.015625q0.1875 0.59375 0.1875 1.328125l0 6.21875l-2.234375 0zm13.069763 -4.703125q0 1.09375 -0.3125 2.0q-0.296875 0.90625 -0.890625 1.5625q-0.578125 0.640625 -1.421875 1.0q-0.84375 0.34375 -1.9375 0.34375q-1.015625 0 -1.828125 -0.296875q-0.8125 -0.296875 -1.390625 -0.890625q-0.5625 -0.59375 -0.859375 -1.484375q-0.296875 -0.90625 -0.296875 -2.109375q0 -1.09375 0.3125 -2.0q0.3125 -0.90625 0.890625 -1.53125q0.59375 -0.640625 1.4375 -0.984375q0.859375 -0.359375 1.921875 -0.359375q1.046875 0 1.84375 0.3125q0.8125 0.296875 1.375 0.90625q0.578125 0.59375 0.859375 1.484375q0.296875 0.890625 0.296875 2.046875zm-2.3125 0.0625q0 -1.4375 -0.546875 -2.15625q-0.53125 -0.734375 -1.59375 -0.734375q-0.578125 0 -0.984375 0.234375q-0.40625 0.21875 -0.671875 0.625q-0.265625 0.390625 -0.390625 0.921875q-0.125 0.515625 -0.125 1.125q0 1.453125 0.578125 2.1875q0.59375 0.71875 1.59375 0.71875q0.5625 0 0.96875 -0.21875q0.40625 -0.21875 0.65625 -0.609375q0.265625 -0.40625 0.390625 -0.9375q0.125 -0.546875 0.125 -1.15625z" fill-rule="nonzero"/><path fill="#000000" d="m395.73633 328.47372l0 -3.03125l0.109375 -1.8125q-0.265625 0.328125 -0.546875 0.59375q-0.28125 0.265625 -0.625 0.453125q-0.34375 0.1875 -0.75 0.28125q-0.390625 0.109375 -0.859375 0.109375q-0.828125 0 -1.46875 -0.328125q-0.625 -0.328125 -1.0625 -0.921875q-0.4375 -0.609375 -0.671875 -1.46875q-0.21875 -0.875 -0.21875 -1.9375q0 -1.109375 0.296875 -2.015625q0.3125 -0.921875 0.90625 -1.578125q0.59375 -0.65625 1.484375 -1.015625q0.890625 -0.359375 2.09375 -0.359375q0.21875 0 0.484375 0.03125q0.28125 0.03125 0.546875 0.078125q0.28125 0.03125 0.53125 0.09375q0.25 0.046875 0.453125 0.125l1.53125 -0.34375l0 13.046875l-2.234375 0zm-3.75 -8.171875q0 0.765625 0.09375 1.3125q0.109375 0.546875 0.3125 0.890625q0.203125 0.34375 0.5 0.515625q0.3125 0.15625 0.6875 0.15625q0.5625 0 1.078125 -0.453125q0.515625 -0.46875 1.078125 -1.25l0 -4.046875q-0.265625 -0.109375 -0.65625 -0.171875q-0.375 -0.0625 -0.765625 -0.0625q-0.546875 0 -0.96875 0.21875q-0.421875 0.21875 -0.734375 0.625q-0.296875 0.390625 -0.46875 0.96875q-0.15625 0.578125 -0.15625 1.296875zm15.976044 4.203125q-0.65625 0.265625 -1.359375 0.390625q-0.6875 0.125 -1.453125 0.125q-1.109375 0 -1.984375 -0.296875q-0.875 -0.296875 -1.484375 -0.890625q-0.609375 -0.59375 -0.9375 -1.46875q-0.3125 -0.875 -0.3125 -2.015625q0 -1.109375 0.34375 -2.015625q0.34375 -0.90625 0.984375 -1.53125q0.640625 -0.640625 1.53125 -0.984375q0.90625 -0.359375 2.0 -0.359375q0.90625 0 1.515625 0.109375q0.625 0.09375 1.109375 0.234375l0 2.15625q-0.5625 -0.28125 -1.21875 -0.4375q-0.65625 -0.15625 -1.25 -0.15625q-0.625 0 -1.125 0.21875q-0.484375 0.203125 -0.828125 0.578125q-0.328125 0.375 -0.515625 0.90625q-0.171875 0.53125 -0.171875 1.171875q0 0.65625 0.1875 1.1875q0.203125 0.53125 0.546875 0.90625q0.359375 0.359375 0.84375 0.5625q0.5 0.1875 1.09375 0.1875q0.296875 0 0.609375 -0.03125q0.328125 -0.046875 0.65625 -0.125q0.328125 -0.078125 0.640625 -0.171875q0.3125 -0.109375 0.578125 -0.21875l0 1.96875zm11.101044 -4.34375q0 1.09375 -0.3125 2.0q-0.296875 0.90625 -0.890625 1.5625q-0.578125 0.640625 -1.421875 1.0q-0.84375 0.34375 -1.9375 0.34375q-1.015625 0 -1.828125 -0.296875q-0.8125 -0.296875 -1.390625 -0.890625q-0.5625 -0.59375 -0.859375 -1.484375q-0.296875 -0.90625 -0.296875 -2.109375q0 -1.09375 0.3125 -2.0q0.3125 -0.90625 0.890625 -1.53125q0.59375 -0.640625 1.4375 -0.984375q0.859375 -0.359375 1.921875 -0.359375q1.046875 0 1.84375 0.3125q0.8125 0.296875 1.375 0.90625q0.578125 0.59375 0.859375 1.484375q0.296875 0.890625 0.296875 2.046875zm-2.3125 0.0625q0 -1.4375 -0.546875 -2.15625q-0.53125 -0.734375 -1.59375 -0.734375q-0.578125 0 -0.984375 0.234375q-0.40625 0.21875 -0.671875 0.625q-0.265625 0.390625 -0.390625 0.921875q-0.125 0.515625 -0.125 1.125q0 1.453125 0.578125 2.1875q0.59375 0.71875 1.59375 0.71875q0.5625 0 0.96875 -0.21875q0.40625 -0.21875 0.65625 -0.609375q0.265625 -0.40625 0.390625 -0.9375q0.125 -0.546875 0.125 -1.15625zm9.757294 4.640625l0 -6.03125q0 -1.515625 -1.125 -1.515625q-0.5625 0 -1.078125 0.453125q-0.515625 0.453125 -1.09375 1.234375l0 5.859375l-2.21875 0l0 -9.25l1.921875 0l0.0625 1.359375q0.28125 -0.359375 0.578125 -0.640625q0.3125 -0.296875 0.65625 -0.5q0.359375 -0.203125 0.765625 -0.3125q0.421875 -0.109375 0.921875 -0.109375q0.71875 0 1.234375 0.234375q0.53125 0.234375 0.890625 0.65625q0.359375 0.421875 0.53125 1.015625q0.1875 0.59375 0.1875 1.328125l0 6.21875l-2.234375 0zm12.382294 -0.09375q-0.609375 0.140625 -1.21875 0.21875q-0.609375 0.078125 -1.15625 0.078125q-0.90625 0 -1.578125 -0.1875q-0.65625 -0.1875 -1.09375 -0.578125q-0.421875 -0.390625 -0.625 -1.0q-0.203125 -0.609375 -0.203125 -1.4375l0 -4.53125l-2.5 0l0 -1.71875l2.5 0l0 -2.375l2.265625 -0.59375l0 2.96875l3.609375 0l0 1.71875l-3.609375 0l0 4.359375q0 0.796875 0.359375 1.203125q0.375 0.40625 1.234375 0.40625q0.546875 0 1.0625 -0.09375q0.515625 -0.09375 0.953125 -0.21875l0 1.78125zm10.679169 -5.25q0 0.234375 -0.015625 0.609375q-0.015625 0.359375 -0.03125 0.671875l-6.09375 0q0 0.609375 0.1875 1.078125q0.1875 0.46875 0.53125 0.78125q0.34375 0.3125 0.8125 0.484375q0.484375 0.15625 1.0625 0.15625q0.671875 0 1.4375 -0.109375q0.78125 -0.109375 1.609375 -0.34375l0 1.765625q-0.359375 0.109375 -0.78125 0.1875q-0.40625 0.078125 -0.84375 0.140625q-0.4375 0.0625 -0.890625 0.09375q-0.453125 0.03125 -0.859375 0.03125q-1.0625 0 -1.90625 -0.296875q-0.828125 -0.296875 -1.421875 -0.875q-0.578125 -0.59375 -0.890625 -1.453125q-0.3125 -0.875 -0.3125 -2.015625q0 -1.125 0.3125 -2.046875q0.3125 -0.9375 0.875 -1.59375q0.5625 -0.65625 1.375 -1.015625q0.8125 -0.359375 1.796875 -0.359375q0.984375 0 1.734375 0.3125q0.765625 0.296875 1.265625 0.84375q0.515625 0.546875 0.78125 1.3125q0.265625 0.75 0.265625 1.640625zm-2.265625 -0.3125q0.015625 -0.546875 -0.140625 -0.953125q-0.140625 -0.40625 -0.390625 -0.671875q-0.25 -0.265625 -0.578125 -0.390625q-0.328125 -0.125 -0.71875 -0.125q-0.828125 0 -1.375 0.5625q-0.53125 0.5625 -0.640625 1.578125l3.84375 0zm10.413544 5.65625l-2.109375 -3.109375l-2.125 3.109375l-2.6875 0l3.46875 -4.671875l-3.28125 -4.578125l2.703125 0l2.078125 3.03125l2.046875 -3.03125l2.5 0l-3.1875 4.5625l3.359375 4.6875l-2.765625 0zm11.944794 -0.09375q-0.609375 0.140625 -1.21875 0.21875q-0.609375 0.078125 -1.15625 0.078125q-0.90625 0 -1.578125 -0.1875q-0.65625 -0.1875 -1.09375 -0.578125q-0.421875 -0.390625 -0.625 -1.0q-0.203125 -0.609375 -0.203125 -1.4375l0 -4.53125l-2.5 0l0 -1.71875l2.5 0l0 -2.375l2.265625 -0.59375l0 2.96875l3.609375 0l0 1.71875l-3.609375 0l0 4.359375q0 0.796875 0.359375 1.203125q0.375 0.40625 1.234375 0.40625q0.546875 0 1.0625 -0.09375q0.515625 -0.09375 0.953125 -0.21875l0 1.78125z" fill-rule="nonzero"/><path fill="#000000" d="m534.051 328.47372l0 -3.03125l0.109375 -1.8125q-0.265625 0.328125 -0.546875 0.59375q-0.28125 0.265625 -0.625 0.453125q-0.34375 0.1875 -0.75 0.28125q-0.390625 0.109375 -0.859375 0.109375q-0.828125 0 -1.46875 -0.328125q-0.625 -0.328125 -1.0625 -0.921875q-0.4375 -0.609375 -0.671875 -1.46875q-0.21875 -0.875 -0.21875 -1.9375q0 -1.109375 0.296875 -2.015625q0.3125 -0.921875 0.90625 -1.578125q0.59375 -0.65625 1.484375 -1.015625q0.890625 -0.359375 2.09375 -0.359375q0.21875 0 0.484375 0.03125q0.28125 0.03125 0.546875 0.078125q0.28125 0.03125 0.53125 0.09375q0.25 0.046875 0.453125 0.125l1.53125 -0.34375l0 13.046875l-2.234375 0zm-3.75 -8.171875q0 0.765625 0.09375 1.3125q0.109375 0.546875 0.3125 0.890625q0.203125 0.34375 0.5 0.515625q0.3125 0.15625 0.6875 0.15625q0.5625 0 1.078125 -0.453125q0.515625 -0.46875 1.078125 -1.25l0 -4.046875q-0.265625 -0.109375 -0.65625 -0.171875q-0.375 -0.0625 -0.765625 -0.0625q-0.546875 0 -0.96875 0.21875q-0.421875 0.21875 -0.734375 0.625q-0.296875 0.390625 -0.46875 0.96875q-0.15625 0.578125 -0.15625 1.296875zm11.476013 -6.578125l-2.609375 0l0 -1.734375l4.890625 0l0 11.140625l2.671875 0l0 1.734375l-7.875 0l0 -1.734375l2.921875 0l0 -9.40625zm12.726074 -0.640625q0 0.296875 -0.109375 0.5625q-0.109375 0.265625 -0.3125 0.46875q-0.1875 0.1875 -0.453125 0.296875q-0.265625 0.109375 -0.578125 0.109375q-0.3125 0 -0.578125 -0.109375q-0.265625 -0.109375 -0.46875 -0.296875q-0.1875 -0.203125 -0.296875 -0.46875q-0.109375 -0.265625 -0.109375 -0.5625q0 -0.3125 0.109375 -0.5625q0.109375 -0.265625 0.296875 -0.46875q0.203125 -0.203125 0.46875 -0.3125q0.265625 -0.125 0.578125 -0.125q0.3125 0 0.578125 0.125q0.265625 0.109375 0.453125 0.3125q0.203125 0.203125 0.3125 0.46875q0.109375 0.25 0.109375 0.5625zm-2.46875 4.25l-2.609375 0l0 -1.71875l4.890625 0l0 7.515625l2.671875 0l0 1.734375l-7.875 0l0 -1.734375l2.921875 0l0 -5.796875zm13.804138 7.53125l0 -6.296875q0 -0.359375 -0.015625 -0.609375q-0.015625 -0.265625 -0.078125 -0.4375q-0.046875 -0.171875 -0.15625 -0.25q-0.109375 -0.09375 -0.28125 -0.09375q-0.28125 0 -0.5625 0.390625q-0.265625 0.375 -0.625 1.296875l0 6.0l-1.890625 0l0 -6.296875q0 -0.359375 -0.03125 -0.609375q-0.015625 -0.265625 -0.078125 -0.4375q-0.046875 -0.171875 -0.15625 -0.25q-0.109375 -0.09375 -0.28125 -0.09375q-0.25 0 -0.546875 0.390625q-0.28125 0.375 -0.640625 1.296875l0 6.0l-1.921875 0l0 -9.25l1.65625 0l0.03125 1.34375q0.203125 -0.40625 0.40625 -0.703125q0.203125 -0.296875 0.421875 -0.484375q0.234375 -0.1875 0.484375 -0.265625q0.265625 -0.078125 0.59375 -0.078125q0.78125 0 1.1875 0.40625q0.40625 0.40625 0.453125 1.125q0.21875 -0.40625 0.421875 -0.703125q0.21875 -0.296875 0.453125 -0.484375q0.234375 -0.1875 0.5 -0.265625q0.28125 -0.078125 0.609375 -0.078125q1.0 0 1.484375 0.703125q0.484375 0.703125 0.484375 2.09375l0 6.640625l-1.921875 0zm9.179199 -11.78125q0 0.296875 -0.109375 0.5625q-0.109375 0.265625 -0.3125 0.46875q-0.1875 0.1875 -0.453125 0.296875q-0.265625 0.109375 -0.578125 0.109375q-0.3125 0 -0.578125 -0.109375q-0.265625 -0.109375 -0.46875 -0.296875q-0.1875 -0.203125 -0.296875 -0.46875q-0.109375 -0.265625 -0.109375 -0.5625q0 -0.3125 0.109375 -0.5625q0.109375 -0.265625 0.296875 -0.46875q0.203125 -0.203125 0.46875 -0.3125q0.265625 -0.125 0.578125 -0.125q0.3125 0 0.578125 0.125q0.265625 0.109375 0.453125 0.3125q0.203125 0.203125 0.3125 0.46875q0.109375 0.25 0.109375 0.5625zm-2.46875 4.25l-2.609375 0l0 -1.71875l4.890625 0l0 7.515625l2.671875 0l0 1.734375l-7.875 0l0 -1.734375l2.921875 0l0 -5.796875zm14.913513 7.4375q-0.609375 0.140625 -1.21875 0.21875q-0.609375 0.078125 -1.15625 0.078125q-0.90625 0 -1.578125 -0.1875q-0.65625 -0.1875 -1.09375 -0.578125q-0.421875 -0.390625 -0.625 -1.0q-0.203125 -0.609375 -0.203125 -1.4375l0 -4.53125l-2.5 0l0 -1.71875l2.5 0l0 -2.375l2.265625 -0.59375l0 2.96875l3.609375 0l0 1.71875l-3.609375 0l0 4.359375q0 0.796875 0.359375 1.203125q0.375 0.40625 1.234375 0.40625q0.546875 0 1.0625 -0.09375q0.515625 -0.09375 0.953125 -0.21875l0 1.78125zm4.163574 2.046875l-2.15625 0l6.359375 -14.828125l2.171875 0l-6.375 14.828125zm15.241638 -1.953125l0 -6.296875q0 -0.359375 -0.015625 -0.609375q-0.015625 -0.265625 -0.078125 -0.4375q-0.046875 -0.171875 -0.15625 -0.25q-0.109375 -0.09375 -0.28125 -0.09375q-0.28125 0 -0.5625 0.390625q-0.265625 0.375 -0.625 1.296875l0 6.0l-1.890625 0l0 -6.296875q0 -0.359375 -0.03125 -0.609375q-0.015625 -0.265625 -0.078125 -0.4375q-0.046875 -0.171875 -0.15625 -0.25q-0.109375 -0.09375 -0.28125 -0.09375q-0.25 0 -0.546875 0.390625q-0.28125 0.375 -0.640625 1.296875l0 6.0l-1.921875 0l0 -9.25l1.65625 0l0.03125 1.34375q0.203125 -0.40625 0.40625 -0.703125q0.203125 -0.296875 0.421875 -0.484375q0.234375 -0.1875 0.484375 -0.265625q0.265625 -0.078125 0.59375 -0.078125q0.78125 0 1.1875 0.40625q0.40625 0.40625 0.453125 1.125q0.21875 -0.40625 0.421875 -0.703125q0.21875 -0.296875 0.453125 -0.484375q0.234375 -0.1875 0.5 -0.265625q0.28125 -0.078125 0.609375 -0.078125q1.0 0 1.484375 0.703125q0.484375 0.703125 0.484375 2.09375l0 6.640625l-1.921875 0zm11.366699 -2.71875q0 0.78125 -0.359375 1.34375q-0.34375 0.5625 -0.921875 0.921875q-0.578125 0.34375 -1.3125 0.5q-0.734375 0.15625 -1.5 0.15625q-1.015625 0 -1.84375 -0.09375q-0.8125 -0.09375 -1.546875 -0.265625l0 -2.015625q0.859375 0.359375 1.703125 0.515625q0.859375 0.15625 1.609375 0.15625q0.875 0 1.3125 -0.265625q0.4375 -0.28125 0.4375 -0.734375q0 -0.203125 -0.09375 -0.375q-0.09375 -0.171875 -0.34375 -0.328125q-0.25 -0.171875 -0.71875 -0.328125q-0.453125 -0.171875 -1.1875 -0.390625q-0.671875 -0.1875 -1.1875 -0.421875q-0.515625 -0.25 -0.859375 -0.578125q-0.328125 -0.328125 -0.5 -0.75q-0.171875 -0.4375 -0.171875 -1.03125q0 -0.5625 0.25 -1.0625q0.265625 -0.5 0.765625 -0.875q0.5 -0.375 1.25 -0.59375q0.765625 -0.21875 1.78125 -0.21875q0.875 0 1.546875 0.09375q0.671875 0.078125 1.1875 0.1875l0 1.828125q-0.78125 -0.265625 -1.484375 -0.359375q-0.703125 -0.109375 -1.375 -0.109375q-0.6875 0 -1.109375 0.25q-0.40625 0.234375 -0.40625 0.671875q0 0.21875 0.078125 0.390625q0.078125 0.15625 0.3125 0.3125q0.25 0.140625 0.6875 0.3125q0.4375 0.171875 1.140625 0.375q0.796875 0.21875 1.34375 0.484375q0.546875 0.265625 0.875 0.59375q0.34375 0.328125 0.484375 0.75q0.15625 0.40625 0.15625 0.953125zm9.554138 -4.921875q0.265625 0.328125 0.359375 0.6875q0.109375 0.34375 0.109375 0.703125q0 0.78125 -0.265625 1.375q-0.265625 0.578125 -0.765625 0.984375q-0.484375 0.40625 -1.171875 0.609375q-0.671875 0.203125 -1.484375 0.203125q-0.484375 0 -0.890625 -0.09375q-0.40625 -0.09375 -0.625 -0.21875q-0.15625 0.140625 -0.265625 0.328125q-0.109375 0.1875 -0.109375 0.4375q0 0.140625 0.078125 0.28125q0.078125 0.140625 0.21875 0.265625q0.140625 0.109375 0.328125 0.1875q0.203125 0.0625 0.4375 0.078125l2.203125 0.078125q0.734375 0.015625 1.328125 0.1875q0.609375 0.171875 1.03125 0.484375q0.421875 0.3125 0.65625 0.75q0.234375 0.4375 0.234375 1.0q0 0.65625 -0.296875 1.21875q-0.28125 0.578125 -0.875 1.0q-0.578125 0.421875 -1.453125 0.671875q-0.875 0.25 -2.03125 0.25q-1.125 0 -1.9375 -0.1875q-0.796875 -0.171875 -1.3125 -0.5q-0.515625 -0.3125 -0.765625 -0.75q-0.25 -0.4375 -0.25 -0.96875q0 -0.3125 0.078125 -0.59375q0.09375 -0.265625 0.25 -0.53125q0.171875 -0.25 0.40625 -0.484375q0.25 -0.234375 0.59375 -0.46875q-0.453125 -0.25 -0.6875 -0.65625q-0.21875 -0.40625 -0.21875 -0.859375q0 -0.3125 0.078125 -0.578125q0.078125 -0.265625 0.203125 -0.5q0.140625 -0.25 0.3125 -0.484375q0.171875 -0.234375 0.359375 -0.453125q-0.328125 -0.328125 -0.5625 -0.796875q-0.21875 -0.484375 -0.21875 -1.203125q0 -0.78125 0.28125 -1.390625q0.28125 -0.609375 0.765625 -1.015625q0.5 -0.421875 1.171875 -0.625q0.6875 -0.21875 1.484375 -0.21875q0.40625 0 0.78125 0.046875q0.390625 0.03125 0.6875 0.140625l3.21875 0l0 1.609375l-1.46875 0zm-5.234375 8.875q0 0.53125 0.53125 0.78125q0.546875 0.265625 1.53125 0.265625q0.640625 0 1.0625 -0.125q0.4375 -0.109375 0.703125 -0.3125q0.28125 -0.1875 0.390625 -0.453125q0.125 -0.25 0.125 -0.515625q0 -0.25 -0.109375 -0.421875q-0.109375 -0.15625 -0.328125 -0.28125q-0.203125 -0.109375 -0.484375 -0.171875q-0.265625 -0.046875 -0.609375 -0.078125l-1.953125 -0.03125q-0.265625 0.1875 -0.4375 0.34375q-0.171875 0.171875 -0.265625 0.328125q-0.09375 0.15625 -0.125 0.3125q-0.03125 0.171875 -0.03125 0.359375zm0.375 -7.421875q0 0.734375 0.421875 1.171875q0.4375 0.421875 1.21875 0.421875q0.40625 0 0.703125 -0.125q0.3125 -0.140625 0.515625 -0.359375q0.203125 -0.234375 0.296875 -0.53125q0.109375 -0.3125 0.109375 -0.640625q0 -0.765625 -0.4375 -1.203125q-0.4375 -0.4375 -1.203125 -0.4375q-0.40625 0 -0.71875 0.140625q-0.3125 0.140625 -0.515625 0.375q-0.1875 0.21875 -0.296875 0.53125q-0.09375 0.3125 -0.09375 0.65625zm15.663574 5.828125q-0.65625 0.265625 -1.359375 0.390625q-0.6875 0.125 -1.453125 0.125q-1.109375 0 -1.984375 -0.296875q-0.875 -0.296875 -1.484375 -0.890625q-0.609375 -0.59375 -0.9375 -1.46875q-0.3125 -0.875 -0.3125 -2.015625q0 -1.109375 0.34375 -2.015625q0.34375 -0.90625 0.984375 -1.53125q0.640625 -0.640625 1.53125 -0.984375q0.90625 -0.359375 2.0 -0.359375q0.90625 0 1.515625 0.109375q0.625 0.09375 1.109375 0.234375l0 2.15625q-0.5625 -0.28125 -1.21875 -0.4375q-0.65625 -0.15625 -1.25 -0.15625q-0.625 0 -1.125 0.21875q-0.484375 0.203125 -0.828125 0.578125q-0.328125 0.375 -0.515625 0.90625q-0.171875 0.53125 -0.171875 1.171875q0 0.65625 0.1875 1.1875q0.203125 0.53125 0.546875 0.90625q0.359375 0.359375 0.84375 0.5625q0.5 0.1875 1.09375 0.1875q0.296875 0 0.609375 -0.03125q0.328125 -0.046875 0.65625 -0.125q0.328125 -0.078125 0.640625 -0.171875q0.3125 -0.109375 0.578125 -0.21875l0 1.96875zm11.101074 -4.34375q0 1.09375 -0.3125 2.0q-0.296875 0.90625 -0.890625 1.5625q-0.578125 0.640625 -1.421875 1.0q-0.84375 0.34375 -1.9375 0.34375q-1.015686 0 -1.828186 -0.296875q-0.8125 -0.296875 -1.390625 -0.890625q-0.5625 -0.59375 -0.859375 -1.484375q-0.296875 -0.90625 -0.296875 -2.109375q0 -1.09375 0.3125 -2.0q0.3125 -0.90625 0.890625 -1.53125q0.59375 -0.640625 1.4375 -0.984375q0.859375 -0.359375 1.921936 -0.359375q1.046875 0 1.84375 0.3125q0.8125 0.296875 1.375 0.90625q0.578125 0.59375 0.859375 1.484375q0.296875 0.890625 0.296875 2.046875zm-2.3125 0.0625q0 -1.4375 -0.546875 -2.15625q-0.53125 -0.734375 -1.59375 -0.734375q-0.57818604 0 -0.98443604 0.234375q-0.40625 0.21875 -0.671875 0.625q-0.265625 0.390625 -0.390625 0.921875q-0.125 0.515625 -0.125 1.125q0 1.453125 0.578125 2.1875q0.59375 0.71875 1.593811 0.71875q0.5625 0 0.96875 -0.21875q0.40625 -0.21875 0.65625 -0.609375q0.265625 -0.40625 0.390625 -0.9375q0.125 -0.546875 0.125 -1.15625zm6.444763 -4.609375l0 6.03125q0 0.75 0.28125 1.140625q0.28125 0.390625 0.859375 0.390625q0.5625 0 1.0625 -0.453125q0.515625 -0.46875 1.09375 -1.25l0 -5.859375l2.21875 0l0 9.25l-1.921875 0l-0.046875 -1.359375q-0.296875 0.34375 -0.59375 0.640625q-0.296875 0.296875 -0.65625 0.5q-0.34375 0.203125 -0.765625 0.3125q-0.40625 0.109375 -0.90625 0.109375q-0.71875 0 -1.25 -0.21875q-0.53125 -0.234375 -0.890625 -0.65625q-0.34375 -0.4375 -0.53125 -1.03125q-0.171875 -0.609375 -0.171875 -1.34375l0 -6.203125l2.21875 0zm13.569824 9.25l0 -6.03125q0 -1.515625 -1.125 -1.515625q-0.5625 0 -1.078125 0.453125q-0.515625 0.453125 -1.09375 1.234375l0 5.859375l-2.21875 0l0 -9.25l1.921875 0l0.0625 1.359375q0.28125 -0.359375 0.578125 -0.640625q0.3125 -0.296875 0.65625 -0.5q0.359375 -0.203125 0.765625 -0.3125q0.421875 -0.109375 0.921875 -0.109375q0.71875 0 1.234375 0.234375q0.53125 0.234375 0.890625 0.65625q0.359375 0.421875 0.53125 1.015625q0.1875 0.59375 0.1875 1.328125l0 6.21875l-2.234375 0zm12.382263 -0.09375q-0.609375 0.140625 -1.21875 0.21875q-0.609375 0.078125 -1.15625 0.078125q-0.90625 0 -1.578125 -0.1875q-0.65625 -0.1875 -1.09375 -0.578125q-0.421875 -0.390625 -0.625 -1.0q-0.203125 -0.609375 -0.203125 -1.4375l0 -4.53125l-2.5 0l0 -1.71875l2.5 0l0 -2.375l2.265625 -0.59375l0 2.96875l3.609375 0l0 1.71875l-3.609375 0l0 4.359375q0 0.796875 0.359375 1.203125q0.375 0.40625 1.234375 0.40625q0.546875 0 1.0625 -0.09375q0.515625 -0.09375 0.953125 -0.21875l0 1.78125z" fill-rule="nonzero"/><path fill="#000000" d="m506.78406 364.74908q0.375 0 0.703125 0.140625q0.328125 0.140625 0.5625 0.390625q0.25 0.234375 0.390625 0.5625q0.140625 0.328125 0.140625 0.703125q0 0.359375 -0.140625 0.6875q-0.140625 0.3125 -0.390625 0.5625q-0.234375 0.234375 -0.5625 0.375q-0.328125 0.140625 -0.703125 0.140625q-0.375 0 -0.6875 -0.140625q-0.3125 -0.140625 -0.5625 -0.375q-0.234375 -0.25 -0.375 -0.5625q-0.125 -0.328125 -0.125 -0.6875q0 -0.375 0.125 -0.703125q0.140625 -0.328125 0.375 -0.5625q0.25 -0.25 0.5625 -0.390625q0.3125 -0.140625 0.6875 -0.140625zm10.257263 0q0.375 0 0.703125 0.140625q0.328125 0.140625 0.5625 0.390625q0.25 0.234375 0.390625 0.5625q0.140625 0.328125 0.140625 0.703125q0 0.359375 -0.140625 0.6875q-0.140625 0.3125 -0.390625 0.5625q-0.234375 0.234375 -0.5625 0.375q-0.328125 0.140625 -0.703125 0.140625q-0.375 0 -0.6875 -0.140625q-0.3125 -0.140625 -0.5625 -0.375q-0.234375 -0.25 -0.375 -0.5625q-0.125 -0.328125 -0.125 -0.6875q0 -0.375 0.125 -0.703125q0.140625 -0.328125 0.375 -0.5625q0.25 -0.25 0.5625 -0.390625q0.3125 -0.140625 0.6875 -0.140625zm10.257324 0q0.375 0 0.703125 0.140625q0.328125 0.140625 0.5625 0.390625q0.25 0.234375 0.390625 0.5625q0.140625 0.328125 0.140625 0.703125q0 0.359375 -0.140625 0.6875q-0.140625 0.3125 -0.390625 0.5625q-0.234375 0.234375 -0.5625 0.375q-0.328125 0.140625 -0.703125 0.140625q-0.375 0 -0.6875 -0.140625q-0.3125 -0.140625 -0.5625 -0.375q-0.234375 -0.25 -0.375 -0.5625q-0.125 -0.328125 -0.125 -0.6875q0 -0.375 0.125 -0.703125q0.140625 -0.328125 0.375 -0.5625q0.25 -0.25 0.5625 -0.390625q0.3125 -0.140625 0.6875 -0.140625z" fill-rule="nonzero"/><path fill="#000000" d="m506.78406 408.83832q0.375 0 0.703125 0.140625q0.328125 0.140625 0.5625 0.390625q0.25 0.234375 0.390625 0.5625q0.140625 0.328125 0.140625 0.703125q0 0.359375 -0.140625 0.6875q-0.140625 0.3125 -0.390625 0.5625q-0.234375 0.234375 -0.5625 0.375q-0.328125 0.140625 -0.703125 0.140625q-0.375 0 -0.6875 -0.140625q-0.3125 -0.140625 -0.5625 -0.375q-0.234375 -0.25 -0.375 -0.5625q-0.125 -0.328125 -0.125 -0.6875q0 -0.375 0.125 -0.703125q0.140625 -0.328125 0.375 -0.5625q0.25 -0.25 0.5625 -0.390625q0.3125 -0.140625 0.6875 -0.140625zm10.257263 0q0.375 0 0.703125 0.140625q0.328125 0.140625 0.5625 0.390625q0.25 0.234375 0.390625 0.5625q0.140625 0.328125 0.140625 0.703125q0 0.359375 -0.140625 0.6875q-0.140625 0.3125 -0.390625 0.5625q-0.234375 0.234375 -0.5625 0.375q-0.328125 0.140625 -0.703125 0.140625q-0.375 0 -0.6875 -0.140625q-0.3125 -0.140625 -0.5625 -0.375q-0.234375 -0.25 -0.375 -0.5625q-0.125 -0.328125 -0.125 -0.6875q0 -0.375 0.125 -0.703125q0.140625 -0.328125 0.375 -0.5625q0.25 -0.25 0.5625 -0.390625q0.3125 -0.140625 0.6875 -0.140625zm10.257324 0q0.375 0 0.703125 0.140625q0.328125 0.140625 0.5625 0.390625q0.25 0.234375 0.390625 0.5625q0.140625 0.328125 0.140625 0.703125q0 0.359375 -0.140625 0.6875q-0.140625 0.3125 -0.390625 0.5625q-0.234375 0.234375 -0.5625 0.375q-0.328125 0.140625 -0.703125 0.140625q-0.375 0 -0.6875 -0.140625q-0.3125 -0.140625 -0.5625 -0.375q-0.234375 -0.25 -0.375 -0.5625q-0.125 -0.328125 -0.125 -0.6875q0 -0.375 0.125 -0.703125q0.140625 -0.328125 0.375 -0.5625q0.25 -0.25 0.5625 -0.390625q0.3125 -0.140625 0.6875 -0.140625z" fill-rule="nonzero"/><path fill="#000000" d="m477.6528 443.66052q0 0.296875 -0.109375 0.5625q-0.109375 0.265625 -0.3125 0.46875q-0.1875 0.1875 -0.453125 0.296875q-0.265625 0.109375 -0.578125 0.109375q-0.3125 0 -0.578125 -0.109375q-0.265625 -0.109375 -0.46875 -0.296875q-0.1875 -0.203125 -0.296875 -0.46875q-0.109375 -0.265625 -0.109375 -0.5625q0 -0.3125 0.109375 -0.5625q0.109375 -0.265625 0.296875 -0.46875q0.203125 -0.203125 0.46875 -0.3125q0.265625 -0.125 0.578125 -0.125q0.3125 0 0.578125 0.125q0.265625 0.109375 0.453125 0.3125q0.203125 0.203125 0.3125 0.46875q0.109375 0.25 0.109375 0.5625zm-2.46875 4.25l-2.609375 0l0 -1.71875l4.890625 0l0 7.515625l2.671875 0l0 1.734375l-7.875 0l0 -1.734375l2.921875 0l0 -5.796875zm13.007294 7.53125l-3.421875 -4.625l0 4.625l-2.21875 0l0 -12.875l2.21875 0l0 7.53125l3.234375 -3.90625l2.78125 0l-3.75 4.21875l4.0625 5.03125l-2.90625 0zm11.054169 0l0 -6.296875q0 -0.359375 -0.015625 -0.609375q-0.015625 -0.265625 -0.078125 -0.4375q-0.046875 -0.171875 -0.15625 -0.25q-0.109375 -0.09375 -0.28125 -0.09375q-0.28125 0 -0.5625 0.390625q-0.265625 0.375 -0.625 1.296875l0 6.0l-1.890625 0l0 -6.296875q0 -0.359375 -0.03125 -0.609375q-0.015625 -0.265625 -0.078125 -0.4375q-0.046875 -0.171875 -0.15625 -0.25q-0.109375 -0.09375 -0.28125 -0.09375q-0.25 0 -0.546875 0.390625q-0.28125 0.375 -0.640625 1.296875l0 6.0l-1.921875 0l0 -9.25l1.65625 0l0.03125 1.34375q0.203125 -0.40625 0.40625 -0.703125q0.203125 -0.296875 0.421875 -0.484375q0.234375 -0.1875 0.484375 -0.265625q0.265625 -0.078125 0.59375 -0.078125q0.78125 0 1.1875 0.40625q0.40625 0.40625 0.453125 1.125q0.21875 -0.40625 0.421875 -0.703125q0.21875 -0.296875 0.453125 -0.484375q0.234375 -0.1875 0.5 -0.265625q0.28125 -0.078125 0.609375 -0.078125q1.0 0 1.484375 0.703125q0.484375 0.703125 0.484375 2.09375l0 6.640625l-1.921875 0zm9.241669 3.609375l0 -3.03125l0.109375 -1.8125q-0.265625 0.328125 -0.546875 0.59375q-0.28125 0.265625 -0.625 0.453125q-0.34375 0.1875 -0.75 0.28125q-0.390625 0.109375 -0.859375 0.109375q-0.828125 0 -1.46875 -0.328125q-0.625 -0.328125 -1.0625 -0.921875q-0.4375 -0.609375 -0.671875 -1.46875q-0.21875 -0.875 -0.21875 -1.9375q0 -1.109375 0.296875 -2.015625q0.3125 -0.921875 0.90625 -1.578125q0.59375 -0.65625 1.484375 -1.015625q0.890625 -0.359375 2.09375 -0.359375q0.21875 0 0.484375 0.03125q0.28125 0.03125 0.546875 0.078125q0.28125 0.03125 0.53125 0.09375q0.25 0.046875 0.453125 0.125l1.53125 -0.34375l0 13.046875l-2.234375 0zm-3.75 -8.171875q0 0.765625 0.09375 1.3125q0.109375 0.546875 0.3125 0.890625q0.203125 0.34375 0.5 0.515625q0.3125 0.15625 0.6875 0.15625q0.5625 0 1.078125 -0.453125q0.515625 -0.46875 1.078125 -1.25l0 -4.046875q-0.265625 -0.109375 -0.65625 -0.171875q-0.375 -0.0625 -0.765625 -0.0625q-0.546875 0 -0.96875 0.21875q-0.421875 0.21875 -0.734375 0.625q-0.296875 0.390625 -0.46875 0.96875q-0.15625 0.578125 -0.15625 1.296875zm7.2260437 8.296875l0 -1.75l10.2499695 0l0 1.75l-10.2499695 0zm19.851044 -8.53125q0 1.28125 -0.359375 2.21875q-0.359375 0.921875 -1.0 1.546875q-0.640625 0.609375 -1.515625 0.90625q-0.875 0.28125 -1.90625 0.28125q-1.015625 0 -1.890625 -0.15625q-0.859375 -0.140625 -1.65625 -0.390625l0 -12.484375l2.21875 0l0 3.03125l-0.09375 1.8125q0.515625 -0.640625 1.171875 -1.03125q0.671875 -0.390625 1.609375 -0.390625q0.828125 0 1.453125 0.328125q0.640625 0.328125 1.078125 0.9375q0.4375 0.59375 0.65625 1.46875q0.234375 0.859375 0.234375 1.921875zm-2.328125 0.09375q0 -0.765625 -0.109375 -1.296875q-0.109375 -0.546875 -0.328125 -0.890625q-0.203125 -0.34375 -0.5 -0.5q-0.28125 -0.15625 -0.671875 -0.15625q-0.5625 0 -1.078125 0.453125q-0.515625 0.453125 -1.09375 1.234375l0 4.046875q0.265625 0.09375 0.65625 0.171875q0.390625 0.0625 0.78125 0.0625q0.53125 0 0.96875 -0.21875q0.4375 -0.21875 0.734375 -0.625q0.3125 -0.40625 0.46875 -0.984375q0.171875 -0.578125 0.171875 -1.296875zm10.054138 4.703125l-0.046875 -1.21875q-0.296875 0.3125 -0.625 0.578125q-0.3125 0.265625 -0.703125 0.453125q-0.375 0.1875 -0.828125 0.28125q-0.4375 0.109375 -0.984375 0.109375q-0.703125 0 -1.25 -0.203125q-0.53125 -0.203125 -0.90625 -0.578125q-0.359375 -0.375 -0.546875 -0.90625q-0.171875 -0.53125 -0.171875 -1.171875q0 -0.65625 0.265625 -1.203125q0.28125 -0.5625 0.84375 -0.953125q0.578125 -0.40625 1.421875 -0.625q0.859375 -0.234375 2.0 -0.234375l1.21875 0l0 -0.5625q0 -0.359375 -0.109375 -0.640625q-0.09375 -0.28125 -0.3125 -0.484375q-0.21875 -0.203125 -0.578125 -0.3125q-0.359375 -0.109375 -0.875 -0.109375q-0.828125 0 -1.625 0.1875q-0.796875 0.1875 -1.53125 0.53125l0 -1.78125q0.65625 -0.265625 1.53125 -0.4375q0.875 -0.171875 1.8125 -0.171875q1.015625 0 1.75 0.203125q0.75 0.1875 1.21875 0.578125q0.484375 0.390625 0.703125 0.984375q0.234375 0.578125 0.234375 1.359375l0 6.328125l-1.90625 0zm-0.3125 -4.09375l-1.359375 0q-0.5625 0 -0.953125 0.109375q-0.390625 0.109375 -0.640625 0.3125q-0.25 0.1875 -0.359375 0.4375q-0.109375 0.25 -0.109375 0.53125q0 0.5625 0.359375 0.859375q0.359375 0.296875 1.0 0.296875q0.453125 0 0.953125 -0.328125q0.515625 -0.34375 1.109375 -0.96875l0 -1.25zm12.413574 1.375q0 0.78125 -0.359375 1.34375q-0.34375 0.5625 -0.921875 0.921875q-0.578125 0.34375 -1.3125 0.5q-0.734375 0.15625 -1.5 0.15625q-1.015625 0 -1.84375 -0.09375q-0.8125 -0.09375 -1.546875 -0.265625l0 -2.015625q0.859375 0.359375 1.703125 0.515625q0.859375 0.15625 1.609375 0.15625q0.875 0 1.3125 -0.265625q0.4375 -0.28125 0.4375 -0.734375q0 -0.203125 -0.09375 -0.375q-0.09375 -0.171875 -0.34375 -0.328125q-0.25 -0.171875 -0.71875 -0.328125q-0.453125 -0.171875 -1.1875 -0.390625q-0.671875 -0.1875 -1.1875 -0.421875q-0.515625 -0.25 -0.859375 -0.578125q-0.328125 -0.328125 -0.5 -0.75q-0.171875 -0.4375 -0.171875 -1.03125q0 -0.5625 0.25 -1.0625q0.265625 -0.5 0.765625 -0.875q0.5 -0.375 1.25 -0.59375q0.765625 -0.21875 1.78125 -0.21875q0.875 0 1.546875 0.09375q0.671875 0.078125 1.1875 0.1875l0 1.828125q-0.78125 -0.265625 -1.484375 -0.359375q-0.703125 -0.109375 -1.375 -0.109375q-0.6875 0 -1.109375 0.25q-0.40625 0.234375 -0.40625 0.671875q0 0.21875 0.078125 0.390625q0.078125 0.15625 0.3125 0.3125q0.25 0.140625 0.6875 0.3125q0.4375 0.171875 1.140625 0.375q0.796875 0.21875 1.34375 0.484375q0.546875 0.265625 0.875 0.59375q0.34375 0.328125 0.484375 0.75q0.15625 0.40625 0.15625 0.953125zm10.679138 -2.625q0 0.234375 -0.015625 0.609375q-0.015625 0.359375 -0.03125 0.671875l-6.09375 0q0 0.609375 0.1875 1.078125q0.1875 0.46875 0.53125 0.78125q0.34375 0.3125 0.8125 0.484375q0.484375 0.15625 1.0625 0.15625q0.671875 0 1.4375 -0.109375q0.78125 -0.109375 1.609375 -0.34375l0 1.765625q-0.359375 0.109375 -0.78125 0.1875q-0.40625 0.078125 -0.84375 0.140625q-0.4375 0.0625 -0.890625 0.09375q-0.453125 0.03125 -0.859375 0.03125q-1.0625 0 -1.90625 -0.296875q-0.828125 -0.296875 -1.421875 -0.875q-0.578125 -0.59375 -0.890625 -1.453125q-0.3125 -0.875 -0.3125 -2.015625q0 -1.125 0.3125 -2.046875q0.3125 -0.9375 0.875 -1.59375q0.5625 -0.65625 1.375 -1.015625q0.8125 -0.359375 1.796875 -0.359375q0.984375 0 1.734375 0.3125q0.765625 0.296875 1.265625 0.84375q0.515625 0.546875 0.78125 1.3125q0.265625 0.75 0.265625 1.640625zm-2.265625 -0.3125q0.015625 -0.546875 -0.140625 -0.953125q-0.140625 -0.40625 -0.390625 -0.671875q-0.25 -0.265625 -0.578125 -0.390625q-0.328125 -0.125 -0.71875 -0.125q-0.828125 0 -1.375 0.5625q-0.53125 0.5625 -0.640625 1.578125l3.84375 0z" fill-rule="nonzero"/><path fill="#000000" d="m506.78406 494.48135q0.375 0 0.703125 0.140625q0.328125 0.140625 0.5625 0.390625q0.25 0.234375 0.390625 0.5625q0.140625 0.328125 0.140625 0.703125q0 0.359375 -0.140625 0.6875q-0.140625 0.3125 -0.390625 0.5625q-0.234375 0.234375 -0.5625 0.375q-0.328125 0.140625 -0.703125 0.140625q-0.375 0 -0.6875 -0.140625q-0.3125 -0.140625 -0.5625 -0.375q-0.234375 -0.25 -0.375 -0.5625q-0.125 -0.328125 -0.125 -0.6875q0 -0.375 0.125 -0.703125q0.140625 -0.328125 0.375 -0.5625q0.25 -0.25 0.5625 -0.390625q0.3125 -0.140625 0.6875 -0.140625zm10.257263 0q0.375 0 0.703125 0.140625q0.328125 0.140625 0.5625 0.390625q0.25 0.234375 0.390625 0.5625q0.140625 0.328125 0.140625 0.703125q0 0.359375 -0.140625 0.6875q-0.140625 0.3125 -0.390625 0.5625q-0.234375 0.234375 -0.5625 0.375q-0.328125 0.140625 -0.703125 0.140625q-0.375 0 -0.6875 -0.140625q-0.3125 -0.140625 -0.5625 -0.375q-0.234375 -0.25 -0.375 -0.5625q-0.125 -0.328125 -0.125 -0.6875q0 -0.375 0.125 -0.703125q0.140625 -0.328125 0.375 -0.5625q0.25 -0.25 0.5625 -0.390625q0.3125 -0.140625 0.6875 -0.140625zm10.257324 0q0.375 0 0.703125 0.140625q0.328125 0.140625 0.5625 0.390625q0.25 0.234375 0.390625 0.5625q0.140625 0.328125 0.140625 0.703125q0 0.359375 -0.140625 0.6875q-0.140625 0.3125 -0.390625 0.5625q-0.234375 0.234375 -0.5625 0.375q-0.328125 0.140625 -0.703125 0.140625q-0.375 0 -0.6875 -0.140625q-0.3125 -0.140625 -0.5625 -0.375q-0.234375 -0.25 -0.375 -0.5625q-0.125 -0.328125 -0.125 -0.6875q0 -0.375 0.125 -0.703125q0.140625 -0.328125 0.375 -0.5625q0.25 -0.25 0.5625 -0.390625q0.3125 -0.140625 0.6875 -0.140625z" fill-rule="nonzero"/><path fill="#000000" fill-opacity="0.0" d="m240.26247 207.6798l102.61418 0l0 46.866135l-102.61418 0z" fill-rule="evenodd"/><path fill="#ffffff" d="m260.49686 228.40854q0 0.875 -0.328125 1.75q-0.328125 0.875 -1.03125 1.5625q-0.6875 0.671875 -1.78125 1.109375q-1.078125 0.421875 -2.5781403 0.421875l-1.796875 0l0 5.1875l-1.96875 0l0 -14.453125l4.0625 0q1.0781403 0 2.0625153 0.234375q0.984375 0.234375 1.734375 0.765625q0.75 0.53125 1.1875 1.375q0.4375 0.84375 0.4375 2.046875zm-2.046875 0.09375q0 -1.40625 -0.90625 -2.140625q-0.90625 -0.75 -2.5468903 -0.75l-2.015625 0l0 5.953125l1.828125 0q1.7500153 0 2.6875153 -0.75q0.953125 -0.765625 0.953125 -2.3125zm14.706512 4.296875q0 1.296875 -0.375 2.375q-0.359375 1.078125 -1.046875 1.84375q-0.671875 0.765625 -1.65625 1.203125q-0.984375 0.421875 -2.234375 0.421875q-1.203125 0 -2.15625 -0.375q-0.9375 -0.375 -1.59375 -1.09375q-0.65625 -0.71875 -1.015625 -1.78125q-0.34375 -1.0625 -0.34375 -2.4375q0 -1.296875 0.359375 -2.359375q0.375 -1.078125 1.0625 -1.84375q0.6875 -0.765625 1.671875 -1.1875q0.984375 -0.4375 2.234375 -0.4375q1.1875 0 2.125 0.375q0.953125 0.375 1.609375 1.09375q0.65625 0.703125 1.0 1.765625q0.359375 1.0625 0.359375 2.4375zm-1.96875 0.09375q0 -1.03125 -0.234375 -1.796875q-0.21875 -0.78125 -0.640625 -1.296875q-0.421875 -0.515625 -1.03125 -0.765625q-0.59375 -0.265625 -1.328125 -0.265625q-0.875 0 -1.484375 0.34375q-0.609375 0.328125 -1.0 0.90625q-0.390625 0.5625 -0.578125 1.3125q-0.1875 0.734375 -0.1875 1.5625q0 1.015625 0.21875 1.796875q0.234375 0.78125 0.65625 1.296875q0.421875 0.5 1.015625 0.765625q0.59375 0.265625 1.359375 0.265625q0.859375 0 1.46875 -0.34375q0.609375 -0.34375 1.0 -0.90625q0.40625 -0.5625 0.578125 -1.296875q0.1875 -0.75 0.1875 -1.578125zm5.2065125 -5.5625l1.765625 0l0.046875 2.046875q0.984375 -1.1875 1.9375 -1.71875q0.96875 -0.53125 1.9375 -0.53125q1.734375 0 2.625 1.125q0.890625 1.109375 0.8125 3.3125l-1.9375 0q0.03125 -1.453125 -0.4375 -2.109375q-0.453125 -0.65625 -1.328125 -0.65625q-0.390625 0 -0.796875 0.140625q-0.390625 0.125 -0.8125 0.4375q-0.40625 0.296875 -0.875 0.78125q-0.453125 0.46875 -0.984375 1.140625l0 7.140625l-1.953125 0l0 -11.109375zm20.956512 10.953125q-0.65625 0.171875 -1.359375 0.234375q-0.6875 0.078125 -1.40625 0.078125q-2.09375 0 -3.125 -0.9375q-1.015625 -0.953125 -1.015625 -2.90625l0 -5.796875l-3.109375 0l0 -1.625l3.109375 0l0 -3.046875l1.921875 -0.5l0 3.546875l4.984375 0l0 1.625l-4.984375 0l0 5.640625q0 1.1875 0.625 1.78125q0.640625 0.59375 1.875 0.59375q0.53125 0 1.15625 -0.078125q0.640625 -0.09375 1.328125 -0.265625l0 1.65625zm26.538025 0.15625l-2.140625 0l-1.015625 -3.15625l-6.015625 0l-1.015625 3.15625l-2.046875 0l4.796875 -14.453125l2.703125 0l4.734375 14.453125zm-3.71875 -4.90625l-2.4375 -7.734375l-2.453125 7.734375l4.890625 0z" fill-rule="nonzero"/><path fill="#000000" fill-opacity="0.0" d="m240.26247 380.65616l102.61418 0l0 46.86615l-102.61418 0z" fill-rule="evenodd"/><path fill="#ffffff" d="m260.49686 401.38492q0 0.875 -0.328125 1.75q-0.328125 0.875 -1.03125 1.5625q-0.6875 0.671875 -1.78125 1.109375q-1.078125 0.421875 -2.5781403 0.421875l-1.796875 0l0 5.1875l-1.96875 0l0 -14.453125l4.0625 0q1.0781403 0 2.0625153 0.234375q0.984375 0.234375 1.734375 0.765625q0.75 0.53125 1.1875 1.375q0.4375 0.84375 0.4375 2.046875zm-2.046875 0.09375q0 -1.40625 -0.90625 -2.140625q-0.90625 -0.75 -2.5468903 -0.75l-2.015625 0l0 5.953125l1.828125 0q1.7500153 0 2.6875153 -0.75q0.953125 -0.765625 0.953125 -2.3125zm14.706512 4.296875q0 1.296875 -0.375 2.375q-0.359375 1.078125 -1.046875 1.84375q-0.671875 0.765625 -1.65625 1.203125q-0.984375 0.421875 -2.234375 0.421875q-1.203125 0 -2.15625 -0.375q-0.9375 -0.375 -1.59375 -1.09375q-0.65625 -0.71875 -1.015625 -1.78125q-0.34375 -1.0625 -0.34375 -2.4375q0 -1.296875 0.359375 -2.359375q0.375 -1.078125 1.0625 -1.84375q0.6875 -0.765625 1.671875 -1.1875q0.984375 -0.4375 2.234375 -0.4375q1.1875 0 2.125 0.375q0.953125 0.375 1.609375 1.09375q0.65625 0.703125 1.0 1.765625q0.359375 1.0625 0.359375 2.4375zm-1.96875 0.09375q0 -1.03125 -0.234375 -1.796875q-0.21875 -0.78125 -0.640625 -1.296875q-0.421875 -0.515625 -1.03125 -0.765625q-0.59375 -0.265625 -1.328125 -0.265625q-0.875 0 -1.484375 0.34375q-0.609375 0.328125 -1.0 0.90625q-0.390625 0.5625 -0.578125 1.3125q-0.1875 0.734375 -0.1875 1.5625q0 1.015625 0.21875 1.796875q0.234375 0.78125 0.65625 1.296875q0.421875 0.5 1.015625 0.765625q0.59375 0.265625 1.359375 0.265625q0.859375 0 1.46875 -0.34375q0.609375 -0.34375 1.0 -0.90625q0.40625 -0.5625 0.578125 -1.296875q0.1875 -0.75 0.1875 -1.578125zm5.2065125 -5.5625l1.765625 0l0.046875 2.046875q0.984375 -1.1875 1.9375 -1.71875q0.96875 -0.53125 1.9375 -0.53125q1.734375 0 2.625 1.125q0.890625 1.109375 0.8125 3.3125l-1.9375 0q0.03125 -1.453125 -0.4375 -2.109375q-0.453125 -0.65625 -1.328125 -0.65625q-0.390625 0 -0.796875 0.140625q-0.390625 0.125 -0.8125 0.4375q-0.40625 0.296875 -0.875 0.78125q-0.453125 0.46875 -0.984375 1.140625l0 7.140625l-1.953125 0l0 -11.109375zm20.956512 10.953125q-0.65625 0.171875 -1.359375 0.234375q-0.6875 0.078125 -1.40625 0.078125q-2.09375 0 -3.125 -0.9375q-1.015625 -0.953125 -1.015625 -2.90625l0 -5.796875l-3.109375 0l0 -1.625l3.109375 0l0 -3.046875l1.921875 -0.5l0 3.546875l4.984375 0l0 1.625l-4.984375 0l0 5.640625q0 1.1875 0.625 1.78125q0.640625 0.59375 1.875 0.59375q0.53125 0 1.15625 -0.078125q0.640625 -0.09375 1.328125 -0.265625l0 1.65625zm25.42865 -4.171875q0 1.046875 -0.40625 1.84375q-0.390625 0.796875 -1.140625 1.359375q-0.75 0.546875 -1.8125 0.84375q-1.046875 0.28125 -2.34375 0.28125l-3.78125 0l0 -14.453125l4.140625 0q4.828125 0 4.828125 3.515625q0 1.171875 -0.5625 2.015625q-0.546875 0.828125 -1.8125 1.25q0.578125 0.109375 1.109375 0.375q0.53125 0.265625 0.921875 0.6875q0.40625 0.421875 0.625 1.0q0.234375 0.5625 0.234375 1.28125zm-2.5625 -6.34375q0 -0.453125 -0.140625 -0.84375q-0.125 -0.390625 -0.453125 -0.671875q-0.328125 -0.28125 -0.90625 -0.4375q-0.5625 -0.171875 -1.421875 -0.171875l-2.03125 0l0 4.515625l1.96875 0q0.671875 0 1.21875 -0.140625q0.546875 -0.140625 0.9375 -0.4375q0.390625 -0.296875 0.609375 -0.75q0.21875 -0.453125 0.21875 -1.0625zm0.484375 6.40625q0 -0.546875 -0.234375 -0.984375q-0.234375 -0.453125 -0.6875 -0.75q-0.4375 -0.3125 -1.078125 -0.46875q-0.625 -0.171875 -1.421875 -0.171875l-2.015625 0l0 4.984375l2.078125 0q1.6875 0 2.515625 -0.625q0.84375 -0.640625 0.84375 -1.984375z" fill-rule="nonzero"/><path fill="#000000" fill-opacity="0.0" d="m736.5617 207.6798l257.9212 0l0 46.866135l-257.9212 0z" fill-rule="evenodd"/><path fill="#ffffff" d="m755.9836 225.65854l-6.140625 0l0 4.6875l5.8125 0l0 1.65625l-5.8125 0l0 6.4375l-2.015625 0l0 -14.453125l8.15625 0l0 1.671875zm10.940857 12.78125l-0.046875 -1.5q-0.90625 0.90625 -1.84375 1.3125q-0.9375 0.390625 -1.953125 0.390625q-0.953125 0 -1.640625 -0.234375q-0.671875 -0.25 -1.109375 -0.671875q-0.4375 -0.4375 -0.640625 -1.015625q-0.203125 -0.578125 -0.203125 -1.25q0 -1.671875 1.234375 -2.609375q1.25 -0.953125 3.6875 -0.953125l2.296875 0l0 -0.96875q0 -0.984375 -0.625 -1.578125q-0.625 -0.59375 -1.921875 -0.59375q-0.9375 0 -1.859375 0.21875q-0.90625 0.203125 -1.875 0.59375l0 -1.734375q0.359375 -0.140625 0.796875 -0.265625q0.453125 -0.125 0.953125 -0.21875q0.5 -0.109375 1.03125 -0.171875q0.546875 -0.0625 1.109375 -0.0625q1.0 0 1.8125 0.234375q0.8125 0.21875 1.359375 0.671875q0.5625 0.453125 0.859375 1.140625q0.296875 0.6875 0.296875 1.609375l0 7.65625l-1.71875 0zm-0.21875 -5.0625l-2.4375 0q-0.71875 0 -1.25 0.15625q-0.515625 0.140625 -0.84375 0.40625q-0.328125 0.265625 -0.5 0.640625q-0.15625 0.359375 -0.15625 0.828125q0 0.328125 0.09375 0.625q0.109375 0.28125 0.328125 0.515625q0.234375 0.21875 0.578125 0.359375q0.359375 0.125 0.859375 0.125q0.671875 0 1.53125 -0.40625q0.859375 -0.40625 1.796875 -1.28125l0 -1.96875zm15.534668 5.0625l-2.65625 0l-5.171875 -5.953125l0 5.953125l-1.921875 0l0 -15.625l1.921875 0l0 9.59375l4.984375 -5.078125l2.546875 0l-5.203125 5.125l5.5 5.984375zm11.847107 -6.140625q0 0.40625 -0.015625 0.6875q-0.015625 0.28125 -0.03125 0.515625l-7.796875 0q0 1.703125 0.9375 2.625q0.953125 0.90625 2.75 0.90625q0.484375 0 0.96875 -0.03125q0.5 -0.046875 0.953125 -0.109375q0.453125 -0.0625 0.859375 -0.140625q0.421875 -0.09375 0.765625 -0.1875l0 1.578125q-0.78125 0.21875 -1.78125 0.359375q-0.984375 0.140625 -2.046875 0.140625q-1.421875 0 -2.453125 -0.390625q-1.03125 -0.390625 -1.6875 -1.125q-0.65625 -0.734375 -0.96875 -1.796875q-0.3125 -1.078125 -0.3125 -2.421875q0 -1.171875 0.328125 -2.21875q0.34375 -1.046875 0.984375 -1.828125q0.65625 -0.796875 1.59375 -1.265625q0.9375 -0.46875 2.140625 -0.46875q1.15625 0 2.046875 0.375q0.90625 0.359375 1.515625 1.03125q0.609375 0.671875 0.921875 1.625q0.328125 0.953125 0.328125 2.140625zm-2.0 -0.28125q0.03125 -0.734375 -0.15625 -1.34375q-0.171875 -0.625 -0.546875 -1.0625q-0.359375 -0.4375 -0.921875 -0.6875q-0.546875 -0.25 -1.28125 -0.25q-0.625 0 -1.15625 0.25q-0.515625 0.234375 -0.890625 0.6875q-0.375 0.4375 -0.609375 1.0625q-0.234375 0.609375 -0.28125 1.34375l5.84375 0zm26.99115 -3.609375q0 0.875 -0.328125 1.75q-0.328125 0.875 -1.03125 1.5625q-0.6875 0.671875 -1.78125 1.109375q-1.078125 0.421875 -2.578125 0.421875l-1.796875 0l0 5.1875l-1.96875 0l0 -14.453125l4.0625 0q1.078125 0 2.0625 0.234375q0.984375 0.234375 1.734375 0.765625q0.75 0.53125 1.1875 1.375q0.4375 0.84375 0.4375 2.046875zm-2.046875 0.09375q0 -1.40625 -0.90625 -2.140625q-0.90625 -0.75 -2.546875 -0.75l-2.015625 0l0 5.953125l1.828125 0q1.75 0 2.6875 -0.75q0.953125 -0.765625 0.953125 -2.3125zm14.706543 4.296875q0 1.296875 -0.375 2.375q-0.359375 1.078125 -1.046875 1.84375q-0.671875 0.765625 -1.65625 1.203125q-0.984375 0.421875 -2.234375 0.421875q-1.203125 0 -2.15625 -0.375q-0.9375 -0.375 -1.59375 -1.09375q-0.65625 -0.71875 -1.015625 -1.78125q-0.34375 -1.0625 -0.34375 -2.4375q0 -1.296875 0.359375 -2.359375q0.375 -1.078125 1.0625 -1.84375q0.6875 -0.765625 1.671875 -1.1875q0.984375 -0.4375 2.234375 -0.4375q1.1875 0 2.125 0.375q0.953125 0.375 1.609375 1.09375q0.65625 0.703125 1.0 1.765625q0.359375 1.0625 0.359375 2.4375zm-1.96875 0.09375q0 -1.03125 -0.234375 -1.796875q-0.21875 -0.78125 -0.640625 -1.296875q-0.421875 -0.515625 -1.03125 -0.765625q-0.59375 -0.265625 -1.328125 -0.265625q-0.875 0 -1.484375 0.34375q-0.609375 0.328125 -1.0 0.90625q-0.390625 0.5625 -0.578125 1.3125q-0.1875 0.734375 -0.1875 1.5625q0 1.015625 0.21875 1.796875q0.234375 0.78125 0.65625 1.296875q0.421875 0.5 1.015625 0.765625q0.59375 0.265625 1.359375 0.265625q0.859375 0 1.46875 -0.34375q0.609375 -0.34375 1.0 -0.90625q0.40625 -0.5625 0.578125 -1.296875q0.1875 -0.75 0.1875 -1.578125zm5.206482 -5.5625l1.765625 0l0.046875 2.046875q0.984375 -1.1875 1.9375 -1.71875q0.96875 -0.53125 1.9375 -0.53125q1.734375 0 2.625 1.125q0.890625 1.109375 0.8125 3.3125l-1.9375 0q0.03125 -1.453125 -0.4375 -2.109375q-0.453125 -0.65625 -1.328125 -0.65625q-0.390625 0 -0.796875 0.140625q-0.390625 0.125 -0.8125 0.4375q-0.40625 0.296875 -0.875 0.78125q-0.453125 0.46875 -0.984375 1.140625l0 7.140625l-1.953125 0l0 -11.109375zm20.956543 10.953125q-0.65625 0.171875 -1.359375 0.234375q-0.6875 0.078125 -1.40625 0.078125q-2.09375 0 -3.125 -0.9375q-1.015625 -0.953125 -1.015625 -2.90625l0 -5.796875l-3.109375 0l0 -1.625l3.109375 0l0 -3.046875l1.921875 -0.5l0 3.546875l4.984375 0l0 1.625l-4.984375 0l0 5.640625q0 1.1875 0.625 1.78125q0.640625 0.59375 1.875 0.59375q0.53125 0 1.15625 -0.078125q0.640625 -0.09375 1.328125 -0.265625l0 1.65625zm22.61615 4.796875q-5.109375 -4.71875 -5.109375 -10.4375q0 -1.34375 0.265625 -2.671875q0.28125 -1.328125 0.875 -2.671875q0.609375 -1.34375 1.59375 -2.671875q1.0 -1.34375 2.421875 -2.65625l1.109375 1.140625q-4.296875 4.234375 -4.296875 9.390625q0 2.5625 1.078125 4.9375q1.09375 2.359375 3.21875 4.46875l-1.15625 1.171875zm16.378357 -4.640625l-2.140625 0l-1.015625 -3.15625l-6.015625 0l-1.015625 3.15625l-2.046875 0l4.796875 -14.453125l2.703125 0l4.734375 14.453125zm-3.71875 -4.90625l-2.4375 -7.734375l-2.453125 7.734375l4.890625 0zm15.362793 -0.28125l-4.359375 0l0 4.515625l-1.890625 0l0 -4.515625l-4.359375 0l0 -1.6875l4.359375 0l0 -4.46875l1.890625 0l0 4.46875l4.359375 0l0 1.6875zm12.409607 -2.03125q0 1.65625 -0.34375 3.03125q-0.328125 1.359375 -1.0 2.34375q-0.671875 0.96875 -1.671875 1.515625q-1.0 0.53125 -2.34375 0.53125q-1.171875 0 -2.125 -0.4375q-0.953125 -0.4375 -1.625 -1.34375q-0.671875 -0.90625 -1.046875 -2.3125q-0.359375 -1.40625 -0.359375 -3.328125q0 -1.671875 0.328125 -3.03125q0.34375 -1.375 1.015625 -2.34375q0.671875 -0.984375 1.671875 -1.515625q1.015625 -0.546875 2.359375 -0.546875q1.15625 0 2.109375 0.4375q0.953125 0.4375 1.625 1.359375q0.671875 0.90625 1.03125 2.3125q0.375 1.390625 0.375 3.328125zm-1.953125 0.0625q0 -0.375 -0.03125 -0.75q-0.015625 -0.375 -0.046875 -0.71875l-6.125 4.546875q0.171875 0.578125 0.421875 1.0625q0.25 0.484375 0.609375 0.828125q0.359375 0.34375 0.8125 0.546875q0.46875 0.1875 1.0625 0.1875q0.75 0 1.359375 -0.359375q0.609375 -0.359375 1.046875 -1.078125q0.4375 -0.734375 0.65625 -1.796875q0.234375 -1.0625 0.234375 -2.46875zm-6.609375 -0.140625q0 0.34375 0 0.6875q0.015625 0.34375 0.046875 0.671875l6.109375 -4.53125q-0.15625 -0.5625 -0.421875 -1.015625q-0.25 -0.46875 -0.609375 -0.8125q-0.34375 -0.34375 -0.796875 -0.53125q-0.453125 -0.1875 -1.015625 -0.1875q-0.765625 0 -1.375 0.375q-0.609375 0.359375 -1.046875 1.09375q-0.421875 0.71875 -0.65625 1.796875q-0.234375 1.0625 -0.234375 2.453125zm21.315918 7.296875l-2.5625 0l-2.984375 -4.234375l-2.96875 4.234375l-2.484375 0l4.296875 -5.578125l-4.109375 -5.53125l2.46875 0l2.921875 4.265625l2.859375 -4.265625l2.390625 0l-4.171875 5.578125l4.34375 5.53125zm12.550232 -3.203125l-2.46875 0l0 3.203125l-1.96875 0l0 -3.203125l-6.96875 0l0 -1.6875l6.171875 -9.5625l2.765625 0l0 9.5625l2.46875 0l0 1.6875zm-4.4375 -9.390625l-5.03125 7.703125l5.03125 0l0 -7.703125zm16.175293 8.96875q0 0.921875 -0.375 1.640625q-0.375 0.703125 -1.0625 1.1875q-0.671875 0.484375 -1.59375 0.75q-0.90625 0.25 -1.984375 0.25q-1.1875 0 -2.09375 -0.265625q-0.890625 -0.265625 -1.5 -0.734375q-0.609375 -0.484375 -0.921875 -1.140625q-0.3125 -0.65625 -0.3125 -1.4375q0 -1.328125 0.734375 -2.28125q0.75 -0.96875 2.296875 -1.75q-1.40625 -0.71875 -2.0625 -1.59375q-0.65625 -0.890625 -0.65625 -2.03125q0 -0.6875 0.28125 -1.34375q0.296875 -0.65625 0.875 -1.15625q0.578125 -0.515625 1.453125 -0.8125q0.875 -0.3125 2.0625 -0.3125q1.109375 0 1.953125 0.234375q0.859375 0.234375 1.421875 0.6875q0.578125 0.4375 0.859375 1.078125q0.296875 0.625 0.296875 1.390625q0 1.265625 -0.703125 2.15625q-0.703125 0.875 -2.0 1.546875q0.640625 0.3125 1.1875 0.703125q0.5625 0.390625 0.96875 0.875q0.421875 0.46875 0.640625 1.0625q0.234375 0.578125 0.234375 1.296875zm-2.296875 -7.484375q0 -0.984375 -0.6875 -1.453125q-0.6875 -0.484375 -1.9375 -0.484375q-1.25 0 -1.9375 0.46875q-0.6875 0.46875 -0.6875 1.421875q0 0.4375 0.15625 0.8125q0.171875 0.359375 0.515625 0.6875q0.359375 0.3125 0.875 0.625q0.515625 0.296875 1.234375 0.625q1.25 -0.59375 1.859375 -1.21875q0.609375 -0.640625 0.609375 -1.484375zm0.203125 7.625q0 -0.40625 -0.140625 -0.796875q-0.125 -0.390625 -0.46875 -0.765625q-0.34375 -0.375 -0.921875 -0.75q-0.578125 -0.375 -1.453125 -0.78125q-0.75 0.375 -1.265625 0.734375q-0.515625 0.359375 -0.84375 0.734375q-0.3125 0.359375 -0.453125 0.765625q-0.125 0.390625 -0.125 0.84375q0 0.484375 0.21875 0.875q0.21875 0.375 0.59375 0.640625q0.375 0.265625 0.890625 0.40625q0.53125 0.125 1.140625 0.125q0.578125 0 1.09375 -0.109375q0.53125 -0.125 0.90625 -0.375q0.390625 -0.25 0.609375 -0.625q0.21875 -0.390625 0.21875 -0.921875zm7.425232 -12.984375q5.109375 4.71875 5.109375 10.5q0 1.203125 -0.25 2.484375q-0.234375 1.28125 -0.828125 2.625q-0.578125 1.34375 -1.578125 2.71875q-0.984375 1.390625 -2.484375 2.78125l-1.125 -1.140625q2.15625 -2.125 3.21875 -4.453125q1.0625 -2.328125 1.0625 -4.859375q0 -5.265625 -4.28125 -9.46875l1.15625 -1.1875z" fill-rule="nonzero"/><path shape-rendering="crispEdges" fill="#cc4125" d="m691.30707 254.54593l174.21527 0l0 42.398956l-174.21527 0l0 -42.398956z" fill-rule="nonzero"/><path shape-rendering="crispEdges" fill="#cc4125" d="m865.52234 254.54593l174.21521 0l0 42.398956l-174.21521 0l0 -42.398956z" fill-rule="nonzero"/><path shape-rendering="crispEdges" fill="#cc4125" d="m691.30707 296.9449l348.43048 0l0 42.398956l-348.43048 0l0 -42.398956z" fill-rule="nonzero"/><path shape-rendering="crispEdges" fill="#cc4125" d="m691.30707 339.34384l348.43048 0l0 44.089233l-348.43048 0l0 -44.089233z" fill-rule="nonzero"/><path shape-rendering="crispEdges" fill="#cc4125" d="m691.30707 383.43307l348.43048 0l0 44.089233l-348.43048 0l0 -44.089233z" fill-rule="nonzero"/><path shape-rendering="crispEdges" fill="#cc4125" d="m691.30707 427.5223l174.21527 0l0 42.398956l-174.21527 0l0 -42.398956z" fill-rule="nonzero"/><path shape-rendering="crispEdges" fill="#cc4125" d="m865.52234 427.5223l174.21521 0l0 42.398956l-174.21521 0l0 -42.398956z" fill-rule="nonzero"/><path stroke="#000000" stroke-width="2.0" stroke-linecap="butt" d="m691.30707 253.54593l0 217.37534" fill-rule="nonzero"/><path stroke="#000000" stroke-width="2.0" stroke-linecap="butt" d="m865.52234 253.54593l0 44.398956" fill-rule="nonzero"/><path stroke="#000000" stroke-width="2.0" stroke-linecap="butt" d="m865.52234 426.5223l0 44.398956" fill-rule="nonzero"/><path stroke="#000000" stroke-width="2.0" stroke-linecap="butt" d="m1039.7375 253.54593l0 217.37534" fill-rule="nonzero"/><path stroke="#000000" stroke-width="2.0" stroke-linecap="butt" d="m690.30707 254.54593l350.43048 0" fill-rule="nonzero"/><path stroke="#000000" stroke-width="2.0" stroke-linecap="butt" d="m690.30707 296.9449l350.43048 0" fill-rule="nonzero"/><path stroke="#000000" stroke-width="2.0" stroke-linecap="butt" d="m690.30707 339.34384l350.43048 0" fill-rule="nonzero"/><path stroke="#000000" stroke-width="2.0" stroke-linecap="butt" d="m690.30707 383.43307l350.43048 0" fill-rule="nonzero"/><path stroke="#000000" stroke-width="2.0" stroke-linecap="butt" d="m690.30707 427.5223l350.43048 0" fill-rule="nonzero"/><path stroke="#000000" stroke-width="2.0" stroke-linecap="butt" d="m690.30707 469.92126l350.43048 0" fill-rule="nonzero"/><path fill="#000000" d="m923.4481 270.68414q0 0.296875 -0.109375 0.5625q-0.109375 0.265625 -0.3125 0.46875q-0.1875 0.1875 -0.453125 0.296875q-0.265625 0.109375 -0.578125 0.109375q-0.3125 0 -0.578125 -0.109375q-0.265625 -0.109375 -0.46875 -0.296875q-0.1875 -0.203125 -0.296875 -0.46875q-0.109375 -0.265625 -0.109375 -0.5625q0 -0.3125 0.109375 -0.5625q0.109375 -0.265625 0.296875 -0.46875q0.203125 -0.203125 0.46875 -0.3125q0.265625 -0.125 0.578125 -0.125q0.3125 0 0.578125 0.125q0.265625 0.109375 0.453125 0.3125q0.203125 0.203125 0.3125 0.46875q0.109375 0.25 0.109375 0.5625zm-2.46875 4.25l-2.609375 0l0 -1.71875l4.890625 0l0 7.515625l2.671875 0l0 1.734375l-7.875 0l0 -1.734375l2.921875 0l0 -5.796875zm15.601074 2.828125q0 1.09375 -0.3125 2.0q-0.296875 0.90625 -0.890625 1.5625q-0.578125 0.640625 -1.421875 1.0q-0.84375 0.34375 -1.9375 0.34375q-1.015625 0 -1.828125 -0.296875q-0.8125 -0.296875 -1.390625 -0.890625q-0.5625 -0.59375 -0.859375 -1.484375q-0.296875 -0.90625 -0.296875 -2.109375q0 -1.09375 0.3125 -2.0q0.3125 -0.90625 0.890625 -1.53125q0.59375 -0.640625 1.4375 -0.984375q0.859375 -0.359375 1.921875 -0.359375q1.046875 0 1.84375 0.3125q0.8125 0.296875 1.375 0.90625q0.578125 0.59375 0.859375 1.484375q0.296875 0.890625 0.296875 2.046875zm-2.3125 0.0625q0 -1.4375 -0.546875 -2.15625q-0.53125 -0.734375 -1.59375 -0.734375q-0.578125 0 -0.984375 0.234375q-0.40625 0.21875 -0.671875 0.625q-0.265625 0.390625 -0.390625 0.921875q-0.125 0.515625 -0.125 1.125q0 1.453125 0.578125 2.1875q0.59375 0.71875 1.59375 0.71875q0.5625 0 0.96875 -0.21875q0.40625 -0.21875 0.65625 -0.609375q0.265625 -0.40625 0.390625 -0.9375q0.125 -0.546875 0.125 -1.15625zm2.9760132 8.375l0 -1.75l10.25 0l0 1.75l-10.25 0zm19.851074 -8.53125q0 1.28125 -0.359375 2.21875q-0.359375 0.921875 -1.0 1.546875q-0.640625 0.609375 -1.515625 0.90625q-0.875 0.28125 -1.90625 0.28125q-1.015625 0 -1.890625 -0.15625q-0.859375 -0.140625 -1.65625 -0.390625l0 -12.484375l2.21875 0l0 3.03125l-0.09375 1.8125q0.515625 -0.640625 1.171875 -1.03125q0.671875 -0.390625 1.609375 -0.390625q0.828125 0 1.453125 0.328125q0.640625 0.328125 1.078125 0.9375q0.4375 0.59375 0.65625 1.46875q0.234375 0.859375 0.234375 1.921875zm-2.328125 0.09375q0 -0.765625 -0.109375 -1.296875q-0.109375 -0.546875 -0.328125 -0.890625q-0.203125 -0.34375 -0.5 -0.5q-0.28125 -0.15625 -0.671875 -0.15625q-0.5625 0 -1.078125 0.453125q-0.515625 0.453125 -1.09375 1.234375l0 4.046875q0.265625 0.09375 0.65625 0.171875q0.390625 0.0625 0.78125 0.0625q0.53125 0 0.96875 -0.21875q0.4375 -0.21875 0.734375 -0.625q0.3125 -0.40625 0.46875 -0.984375q0.171875 -0.578125 0.171875 -1.296875zm9.710388 -7.078125q0 0.296875 -0.109375 0.5625q-0.109375 0.265625 -0.3125 0.46875q-0.1875 0.1875 -0.453125 0.296875q-0.265625 0.109375 -0.578125 0.109375q-0.3125 0 -0.578125 -0.109375q-0.265625 -0.109375 -0.46875 -0.296875q-0.1875 -0.203125 -0.296875 -0.46875q-0.109375 -0.265625 -0.109375 -0.5625q0 -0.3125 0.109375 -0.5625q0.109375 -0.265625 0.296875 -0.46875q0.203125 -0.203125 0.46875 -0.3125q0.265625 -0.125 0.578125 -0.125q0.3125 0 0.578125 0.125q0.265625 0.109375 0.453125 0.3125q0.203125 0.203125 0.3125 0.46875q0.109375 0.25 0.109375 0.5625zm-2.46875 4.25l-2.609375 0l0 -1.71875l4.890625 0l0 7.515625l2.671875 0l0 1.734375l-7.875 0l0 -1.734375l2.921875 0l0 -5.796875zm14.913574 7.4375q-0.609375 0.140625 -1.21875 0.21875q-0.609375 0.078125 -1.15625 0.078125q-0.90625 0 -1.578125 -0.1875q-0.65625 -0.1875 -1.09375 -0.578125q-0.421875 -0.390625 -0.625 -1.0q-0.203125 -0.609375 -0.203125 -1.4375l0 -4.53125l-2.5 0l0 -1.71875l2.5 0l0 -2.375l2.265625 -0.59375l0 2.96875l3.609375 0l0 1.71875l-3.609375 0l0 4.359375q0 0.796875 0.359375 1.203125q0.375 0.40625 1.234375 0.40625q0.546875 0 1.0625 -0.09375q0.515625 -0.09375 0.953125 -0.21875l0 1.78125zm10.257263 -2.625q0 0.78125 -0.359375 1.34375q-0.34375 0.5625 -0.921875 0.921875q-0.578125 0.34375 -1.3125 0.5q-0.734375 0.15625 -1.5 0.15625q-1.015625 0 -1.84375 -0.09375q-0.8125 -0.09375 -1.546875 -0.265625l0 -2.015625q0.859375 0.359375 1.703125 0.515625q0.859375 0.15625 1.609375 0.15625q0.875 0 1.3125 -0.265625q0.4375 -0.28125 0.4375 -0.734375q0 -0.203125 -0.09375 -0.375q-0.09375 -0.171875 -0.34375 -0.328125q-0.25 -0.171875 -0.71875 -0.328125q-0.453125 -0.171875 -1.1875 -0.390625q-0.671875 -0.1875 -1.1875 -0.421875q-0.515625 -0.25 -0.859375 -0.578125q-0.328125 -0.328125 -0.5 -0.75q-0.171875 -0.4375 -0.171875 -1.03125q0 -0.5625 0.25 -1.0625q0.265625 -0.5 0.765625 -0.875q0.5 -0.375 1.25 -0.59375q0.765625 -0.21875 1.78125 -0.21875q0.875 0 1.546875 0.09375q0.671875 0.078125 1.1875 0.1875l0 1.828125q-0.78125 -0.265625 -1.484375 -0.359375q-0.703125 -0.109375 -1.375 -0.109375q-0.6875 0 -1.109375 0.25q-0.40625 0.234375 -0.40625 0.671875q0 0.21875 0.078125 0.390625q0.078125 0.15625 0.3125 0.3125q0.25 0.140625 0.6875 0.3125q0.4375 0.171875 1.140625 0.375q0.796875 0.21875 1.34375 0.484375q0.546875 0.265625 0.875 0.59375q0.34375 0.328125 0.484375 0.75q0.15625 0.40625 0.15625 0.953125z" fill-rule="nonzero"/><path fill="#000000" d="m810.6973 313.0831q0 0.296875 -0.109375 0.5625q-0.109375 0.265625 -0.3125 0.46875q-0.1875 0.1875 -0.453125 0.296875q-0.265625 0.109375 -0.578125 0.109375q-0.3125 0 -0.578125 -0.109375q-0.265625 -0.109375 -0.46875 -0.296875q-0.1875 -0.203125 -0.296875 -0.46875q-0.109375 -0.265625 -0.109375 -0.5625q0 -0.3125 0.109375 -0.5625q0.109375 -0.265625 0.296875 -0.46875q0.203125 -0.203125 0.46875 -0.3125q0.265625 -0.125 0.578125 -0.125q0.3125 0 0.578125 0.125q0.265625 0.109375 0.453125 0.3125q0.203125 0.203125 0.3125 0.46875q0.109375 0.25 0.109375 0.5625zm-2.46875 4.25l-2.609375 0l0 -1.71875l4.890625 0l0 7.515625l2.671875 0l0 1.734375l-7.875 0l0 -1.734375l2.921875 0l0 -5.796875zm15.601013 2.828125q0 1.09375 -0.3125 2.0q-0.296875 0.90625 -0.890625 1.5625q-0.578125 0.640625 -1.421875 1.0q-0.84375 0.34375 -1.9375 0.34375q-1.015625 0 -1.828125 -0.296875q-0.8125 -0.296875 -1.390625 -0.890625q-0.5625 -0.59375 -0.859375 -1.484375q-0.296875 -0.90625 -0.296875 -2.109375q0 -1.09375 0.3125 -2.0q0.3125 -0.90625 0.890625 -1.53125q0.59375 -0.640625 1.4375 -0.984375q0.859375 -0.359375 1.921875 -0.359375q1.046875 0 1.84375 0.3125q0.8125 0.296875 1.375 0.90625q0.578125 0.59375 0.859375 1.484375q0.296875 0.890625 0.296875 2.046875zm-2.3125 0.0625q0 -1.4375 -0.546875 -2.15625q-0.53125 -0.734375 -1.59375 -0.734375q-0.578125 0 -0.984375 0.234375q-0.40625 0.21875 -0.671875 0.625q-0.265625 0.390625 -0.390625 0.921875q-0.125 0.515625 -0.125 1.125q0 1.453125 0.578125 2.1875q0.59375 0.71875 1.59375 0.71875q0.5625 0 0.96875 -0.21875q0.40625 -0.21875 0.65625 -0.609375q0.265625 -0.40625 0.390625 -0.9375q0.125 -0.546875 0.125 -1.15625zm2.9760742 8.375l0 -1.75l10.25 0l0 1.75l-10.25 0zm14.507263 -14.875l-2.609375 0l0 -1.734375l4.890625 0l0 11.140625l2.671875 0l0 1.734375l-7.875 0l0 -1.734375l2.921875 0l0 -9.40625zm15.601074 6.4375q0 1.09375 -0.3125 2.0q-0.296875 0.90625 -0.890625 1.5625q-0.578125 0.640625 -1.421875 1.0q-0.84375 0.34375 -1.9375 0.34375q-1.015625 0 -1.828125 -0.296875q-0.8125 -0.296875 -1.390625 -0.890625q-0.5625 -0.59375 -0.859375 -1.484375q-0.296875 -0.90625 -0.296875 -2.109375q0 -1.09375 0.3125 -2.0q0.3125 -0.90625 0.890625 -1.53125q0.59375 -0.640625 1.4375 -0.984375q0.859375 -0.359375 1.921875 -0.359375q1.046875 0 1.84375 0.3125q0.8125 0.296875 1.375 0.90625q0.578125 0.59375 0.859375 1.484375q0.296875 0.890625 0.296875 2.046875zm-2.3125 0.0625q0 -1.4375 -0.546875 -2.15625q-0.53125 -0.734375 -1.59375 -0.734375q-0.578125 0 -0.984375 0.234375q-0.40625 0.21875 -0.671875 0.625q-0.265625 0.390625 -0.390625 0.921875q-0.125 0.515625 -0.125 1.125q0 1.453125 0.578125 2.1875q0.59375 0.71875 1.59375 0.71875q0.5625 0 0.96875 -0.21875q0.40625 -0.21875 0.65625 -0.609375q0.265625 -0.40625 0.390625 -0.9375q0.125 -0.546875 0.125 -1.15625zm11.726013 4.28125q-0.65625 0.265625 -1.359375 0.390625q-0.6875 0.125 -1.453125 0.125q-1.109375 0 -1.984375 -0.296875q-0.875 -0.296875 -1.484375 -0.890625q-0.609375 -0.59375 -0.9375 -1.46875q-0.3125 -0.875 -0.3125 -2.015625q0 -1.109375 0.34375 -2.015625q0.34375 -0.90625 0.984375 -1.53125q0.640625 -0.640625 1.53125 -0.984375q0.90625 -0.359375 2.0 -0.359375q0.90625 0 1.515625 0.109375q0.625 0.09375 1.109375 0.234375l0 2.15625q-0.5625 -0.28125 -1.21875 -0.4375q-0.65625 -0.15625 -1.25 -0.15625q-0.625 0 -1.125 0.21875q-0.484375 0.203125 -0.828125 0.578125q-0.328125 0.375 -0.515625 0.90625q-0.171875 0.53125 -0.171875 1.171875q0 0.65625 0.1875 1.1875q0.203125 0.53125 0.546875 0.90625q0.359375 0.359375 0.84375 0.5625q0.5 0.1875 1.09375 0.1875q0.296875 0 0.609375 -0.03125q0.328125 -0.046875 0.65625 -0.125q0.328125 -0.078125 0.640625 -0.171875q0.3125 -0.109375 0.578125 -0.21875l0 1.96875zm8.507324 0.359375l-3.421875 -4.625l0 4.625l-2.21875 0l0 -12.875l2.21875 0l0 7.53125l3.234375 -3.90625l2.78125 0l-3.75 4.21875l4.0625 5.03125l-2.90625 0zm3.2572632 3.734375l0 -1.75l10.25 0l0 1.75l-10.25 0zm17.351074 -3.734375l-0.0625 -1.359375q-0.296875 0.34375 -0.609375 0.640625q-0.296875 0.296875 -0.65625 0.5q-0.359375 0.203125 -0.765625 0.3125q-0.40625 0.109375 -0.890625 0.109375q-0.828125 0 -1.46875 -0.328125q-0.625 -0.328125 -1.0625 -0.921875q-0.4375 -0.609375 -0.671875 -1.46875q-0.21875 -0.875 -0.21875 -1.9375q0 -1.28125 0.359375 -2.203125q0.359375 -0.9375 1.0 -1.546875q0.640625 -0.625 1.515625 -0.921875q0.875 -0.296875 1.90625 -0.296875q0.34375 0 0.6875 0.046875q0.359375 0.046875 0.625 0.125l0 -3.625l2.234375 0l0 12.875l-1.921875 0zm-4.0625 -4.5625q0 0.765625 0.09375 1.3125q0.109375 0.546875 0.3125 0.890625q0.203125 0.34375 0.5 0.515625q0.3125 0.15625 0.6875 0.15625q0.5625 0 1.078125 -0.453125q0.515625 -0.46875 1.078125 -1.25l0 -4.046875q-0.265625 -0.109375 -0.65625 -0.171875q-0.375 -0.0625 -0.765625 -0.0625q-0.546875 0 -0.96875 0.21875q-0.421875 0.21875 -0.734375 0.625q-0.296875 0.390625 -0.46875 0.96875q-0.15625 0.578125 -0.15625 1.296875zm14.288513 4.5625l-0.046875 -1.21875q-0.296875 0.3125 -0.625 0.578125q-0.3125 0.265625 -0.703125 0.453125q-0.375 0.1875 -0.828125 0.28125q-0.4375 0.109375 -0.984375 0.109375q-0.703125 0 -1.25 -0.203125q-0.53125 -0.203125 -0.90625 -0.578125q-0.359375 -0.375 -0.546875 -0.90625q-0.171875 -0.53125 -0.171875 -1.171875q0 -0.65625 0.265625 -1.203125q0.28125 -0.5625 0.84375 -0.953125q0.578125 -0.40625 1.421875 -0.625q0.859375 -0.234375 2.0 -0.234375l1.21875 0l0 -0.5625q0 -0.359375 -0.109375 -0.640625q-0.09375 -0.28125 -0.3125 -0.484375q-0.21875 -0.203125 -0.578125 -0.3125q-0.359375 -0.109375 -0.875 -0.109375q-0.828125 0 -1.625 0.1875q-0.796875 0.1875 -1.53125 0.53125l0 -1.78125q0.65625 -0.265625 1.53125 -0.4375q0.875 -0.171875 1.8125 -0.171875q1.015625 0 1.75 0.203125q0.75 0.1875 1.21875 0.578125q0.484375 0.390625 0.703125 0.984375q0.234375 0.578125 0.234375 1.359375l0 6.328125l-1.90625 0zm-0.3125 -4.09375l-1.359375 0q-0.5625 0 -0.953125 0.109375q-0.390625 0.109375 -0.640625 0.3125q-0.25 0.1875 -0.359375 0.4375q-0.109375 0.25 -0.109375 0.53125q0 0.5625 0.359375 0.859375q0.359375 0.296875 1.0 0.296875q0.453125 0 0.953125 -0.328125q0.515625 -0.34375 1.109375 -0.96875l0 -1.25zm12.413574 4.0q-0.609375 0.140625 -1.21875 0.21875q-0.609375 0.078125 -1.15625 0.078125q-0.90625 0 -1.578125 -0.1875q-0.65625 -0.1875 -1.09375 -0.578125q-0.421875 -0.390625 -0.625 -1.0q-0.203125 -0.609375 -0.203125 -1.4375l0 -4.53125l-2.5 0l0 -1.71875l2.5 0l0 -2.375l2.265625 -0.59375l0 2.96875l3.609375 0l0 1.71875l-3.609375 0l0 4.359375q0 0.796875 0.359375 1.203125q0.375 0.40625 1.234375 0.40625q0.546875 0 1.0625 -0.09375q0.515625 -0.09375 0.953125 -0.21875l0 1.78125zm8.413513 0.09375l-0.046875 -1.21875q-0.296875 0.3125 -0.625 0.578125q-0.3125 0.265625 -0.703125 0.453125q-0.375 0.1875 -0.828125 0.28125q-0.4375 0.109375 -0.984375 0.109375q-0.703125 0 -1.25 -0.203125q-0.53125 -0.203125 -0.90625 -0.578125q-0.359375 -0.375 -0.546875 -0.90625q-0.171875 -0.53125 -0.171875 -1.171875q0 -0.65625 0.265625 -1.203125q0.28125 -0.5625 0.84375 -0.953125q0.578125 -0.40625 1.421875 -0.625q0.859375 -0.234375 2.0 -0.234375l1.21875 0l0 -0.5625q0 -0.359375 -0.109375 -0.640625q-0.09375 -0.28125 -0.3125 -0.484375q-0.21875 -0.203125 -0.578125 -0.3125q-0.359375 -0.109375 -0.875 -0.109375q-0.828125 0 -1.625 0.1875q-0.796875 0.1875 -1.53125 0.53125l0 -1.78125q0.65625 -0.265625 1.53125 -0.4375q0.875 -0.171875 1.8125 -0.171875q1.015625 0 1.75 0.203125q0.75 0.1875 1.21875 0.578125q0.484375 0.390625 0.703125 0.984375q0.234375 0.578125 0.234375 1.359375l0 6.328125l-1.90625 0zm-0.3125 -4.09375l-1.359375 0q-0.5625 0 -0.953125 0.109375q-0.390625 0.109375 -0.640625 0.3125q-0.25 0.1875 -0.359375 0.4375q-0.109375 0.25 -0.109375 0.53125q0 0.5625 0.359375 0.859375q0.359375 0.296875 1.0 0.296875q0.453125 0 0.953125 -0.328125q0.515625 -0.34375 1.109375 -0.96875l0 -1.25z" fill-rule="nonzero"/><path fill="#000000" d="m855.2145 364.74908q0.375 0 0.703125 0.140625q0.328125 0.140625 0.5625 0.390625q0.25 0.234375 0.390625 0.5625q0.140625 0.328125 0.140625 0.703125q0 0.359375 -0.140625 0.6875q-0.140625 0.3125 -0.390625 0.5625q-0.234375 0.234375 -0.5625 0.375q-0.328125 0.140625 -0.703125 0.140625q-0.375 0 -0.6875 -0.140625q-0.3125 -0.140625 -0.5625 -0.375q-0.234375 -0.25 -0.375 -0.5625q-0.125 -0.328125 -0.125 -0.6875q0 -0.375 0.125 -0.703125q0.140625 -0.328125 0.375 -0.5625q0.25 -0.25 0.5625 -0.390625q0.3125 -0.140625 0.6875 -0.140625zm10.257324 0q0.375 0 0.703125 0.140625q0.328125 0.140625 0.5625 0.390625q0.25 0.234375 0.390625 0.5625q0.140625 0.328125 0.140625 0.703125q0 0.359375 -0.140625 0.6875q-0.140625 0.3125 -0.390625 0.5625q-0.234375 0.234375 -0.5625 0.375q-0.328125 0.140625 -0.703125 0.140625q-0.375 0 -0.6875 -0.140625q-0.3125 -0.140625 -0.5625 -0.375q-0.234375 -0.25 -0.375 -0.5625q-0.125 -0.328125 -0.125 -0.6875q0 -0.375 0.125 -0.703125q0.140625 -0.328125 0.375 -0.5625q0.25 -0.25 0.5625 -0.390625q0.3125 -0.140625 0.6875 -0.140625zm10.257263 0q0.375 0 0.703125 0.140625q0.328125 0.140625 0.5625 0.390625q0.25 0.234375 0.390625 0.5625q0.140625 0.328125 0.140625 0.703125q0 0.359375 -0.140625 0.6875q-0.140625 0.3125 -0.390625 0.5625q-0.234375 0.234375 -0.5625 0.375q-0.328125 0.140625 -0.703125 0.140625q-0.375 0 -0.6875 -0.140625q-0.3125 -0.140625 -0.5625 -0.375q-0.234375 -0.25 -0.375 -0.5625q-0.125 -0.328125 -0.125 -0.6875q0 -0.375 0.125 -0.703125q0.140625 -0.328125 0.375 -0.5625q0.25 -0.25 0.5625 -0.390625q0.3125 -0.140625 0.6875 -0.140625z" fill-rule="nonzero"/><path fill="#000000" d="m855.2145 408.83832q0.375 0 0.703125 0.140625q0.328125 0.140625 0.5625 0.390625q0.25 0.234375 0.390625 0.5625q0.140625 0.328125 0.140625 0.703125q0 0.359375 -0.140625 0.6875q-0.140625 0.3125 -0.390625 0.5625q-0.234375 0.234375 -0.5625 0.375q-0.328125 0.140625 -0.703125 0.140625q-0.375 0 -0.6875 -0.140625q-0.3125 -0.140625 -0.5625 -0.375q-0.234375 -0.25 -0.375 -0.5625q-0.125 -0.328125 -0.125 -0.6875q0 -0.375 0.125 -0.703125q0.140625 -0.328125 0.375 -0.5625q0.25 -0.25 0.5625 -0.390625q0.3125 -0.140625 0.6875 -0.140625zm10.257324 0q0.375 0 0.703125 0.140625q0.328125 0.140625 0.5625 0.390625q0.25 0.234375 0.390625 0.5625q0.140625 0.328125 0.140625 0.703125q0 0.359375 -0.140625 0.6875q-0.140625 0.3125 -0.390625 0.5625q-0.234375 0.234375 -0.5625 0.375q-0.328125 0.140625 -0.703125 0.140625q-0.375 0 -0.6875 -0.140625q-0.3125 -0.140625 -0.5625 -0.375q-0.234375 -0.25 -0.375 -0.5625q-0.125 -0.328125 -0.125 -0.6875q0 -0.375 0.125 -0.703125q0.140625 -0.328125 0.375 -0.5625q0.25 -0.25 0.5625 -0.390625q0.3125 -0.140625 0.6875 -0.140625zm10.257263 0q0.375 0 0.703125 0.140625q0.328125 0.140625 0.5625 0.390625q0.25 0.234375 0.390625 0.5625q0.140625 0.328125 0.140625 0.703125q0 0.359375 -0.140625 0.6875q-0.140625 0.3125 -0.390625 0.5625q-0.234375 0.234375 -0.5625 0.375q-0.328125 0.140625 -0.703125 0.140625q-0.375 0 -0.6875 -0.140625q-0.3125 -0.140625 -0.5625 -0.375q-0.234375 -0.25 -0.375 -0.5625q-0.125 -0.328125 -0.125 -0.6875q0 -0.375 0.125 -0.703125q0.140625 -0.328125 0.375 -0.5625q0.25 -0.25 0.5625 -0.390625q0.3125 -0.140625 0.6875 -0.140625z" fill-rule="nonzero"/><path fill="#000000" d="m908.0622 443.66052q0 0.296875 -0.109375 0.5625q-0.109375 0.265625 -0.3125 0.46875q-0.1875 0.1875 -0.453125 0.296875q-0.265625 0.109375 -0.578125 0.109375q-0.3125 0 -0.578125 -0.109375q-0.265625 -0.109375 -0.46875 -0.296875q-0.1875 -0.203125 -0.296875 -0.46875q-0.109375 -0.265625 -0.109375 -0.5625q0 -0.3125 0.109375 -0.5625q0.109375 -0.265625 0.296875 -0.46875q0.203125 -0.203125 0.46875 -0.3125q0.265625 -0.125 0.578125 -0.125q0.3125 0 0.578125 0.125q0.265625 0.109375 0.453125 0.3125q0.203125 0.203125 0.3125 0.46875q0.109375 0.25 0.109375 0.5625zm-2.46875 4.25l-2.609375 0l0 -1.71875l4.890625 0l0 7.515625l2.671875 0l0 1.734375l-7.875 0l0 -1.734375l2.921875 0l0 -5.796875zm15.601074 2.734375q0 1.28125 -0.359375 2.21875q-0.359375 0.921875 -1.0 1.546875q-0.640625 0.609375 -1.515625 0.90625q-0.875 0.28125 -1.90625 0.28125q-0.34375 0 -0.703125 -0.046875q-0.34375 -0.03125 -0.625 -0.109375l0 3.609375l-2.21875 0l0 -12.859375l1.921875 0l0.0625 1.359375q0.28125 -0.359375 0.578125 -0.640625q0.3125 -0.296875 0.65625 -0.5q0.359375 -0.203125 0.765625 -0.3125q0.421875 -0.109375 0.921875 -0.109375q0.828125 0 1.453125 0.328125q0.640625 0.328125 1.078125 0.9375q0.4375 0.59375 0.65625 1.46875q0.234375 0.859375 0.234375 1.921875zm-2.328125 0.09375q0 -0.765625 -0.109375 -1.296875q-0.109375 -0.546875 -0.328125 -0.890625q-0.203125 -0.34375 -0.5 -0.5q-0.28125 -0.15625 -0.671875 -0.15625q-0.5625 0 -1.078125 0.453125q-0.515625 0.453125 -1.09375 1.234375l0 4.046875q0.265625 0.09375 0.65625 0.171875q0.390625 0.0625 0.78125 0.0625q0.53125 0 0.96875 -0.21875q0.4375 -0.21875 0.734375 -0.625q0.3125 -0.40625 0.46875 -0.984375q0.171875 -0.578125 0.171875 -1.296875zm2.9916382 8.4375l0 -1.75l10.25 0l0 1.75l-10.25 0zm19.163574 -6.453125q0 0.78125 -0.359375 1.34375q-0.34375 0.5625 -0.921875 0.921875q-0.578125 0.34375 -1.3125 0.5q-0.734375 0.15625 -1.5 0.15625q-1.015625 0 -1.84375 -0.09375q-0.8125 -0.09375 -1.546875 -0.265625l0 -2.015625q0.859375 0.359375 1.703125 0.515625q0.859375 0.15625 1.609375 0.15625q0.875 0 1.3125 -0.265625q0.4375 -0.28125 0.4375 -0.734375q0 -0.203125 -0.09375 -0.375q-0.09375 -0.171875 -0.34375 -0.328125q-0.25 -0.171875 -0.71875 -0.328125q-0.453125 -0.171875 -1.1875 -0.390625q-0.671875 -0.1875 -1.1875 -0.421875q-0.515625 -0.25 -0.859375 -0.578125q-0.328125 -0.328125 -0.5 -0.75q-0.171875 -0.4375 -0.171875 -1.03125q0 -0.5625 0.25 -1.0625q0.265625 -0.5 0.765625 -0.875q0.5 -0.375 1.25 -0.59375q0.765625 -0.21875 1.78125 -0.21875q0.875 0 1.546875 0.09375q0.671875 0.078125 1.1875 0.1875l0 1.828125q-0.78125 -0.265625 -1.484375 -0.359375q-0.703125 -0.109375 -1.375 -0.109375q-0.6875 0 -1.109375 0.25q-0.40625 0.234375 -0.40625 0.671875q0 0.21875 0.078125 0.390625q0.078125 0.15625 0.3125 0.3125q0.25 0.140625 0.6875 0.3125q0.4375 0.171875 1.140625 0.375q0.796875 0.21875 1.34375 0.484375q0.546875 0.265625 0.875 0.59375q0.34375 0.328125 0.484375 0.75q0.15625 0.40625 0.15625 0.953125zm8.569763 -2.9375q0.015625 -0.515625 -0.046875 -0.875q-0.0625 -0.375 -0.21875 -0.609375q-0.140625 -0.234375 -0.359375 -0.34375q-0.21875 -0.109375 -0.515625 -0.109375q-0.484375 0 -1.015625 0.40625q-0.515625 0.40625 -1.140625 1.328125l0 5.859375l-2.28125 0l0 -9.25l2.015625 0l0.078125 1.34375q0.234375 -0.359375 0.515625 -0.640625q0.28125 -0.28125 0.625 -0.484375q0.359375 -0.203125 0.78125 -0.3125q0.4375 -0.109375 0.953125 -0.109375q0.703125 0 1.234375 0.25q0.546875 0.234375 0.90625 0.703125q0.375 0.46875 0.546875 1.1875q0.1875 0.71875 0.15625 1.65625l-2.234375 0zm9.757324 -6.125q0 0.296875 -0.109375 0.5625q-0.109375 0.265625 -0.3125 0.46875q-0.1875 0.1875 -0.453125 0.296875q-0.265625 0.109375 -0.578125 0.109375q-0.3125 0 -0.578125 -0.109375q-0.265625 -0.109375 -0.46875 -0.296875q-0.1875 -0.203125 -0.296875 -0.46875q-0.109375 -0.265625 -0.109375 -0.5625q0 -0.3125 0.109375 -0.5625q0.109375 -0.265625 0.296875 -0.46875q0.203125 -0.203125 0.46875 -0.3125q0.265625 -0.125 0.578125 -0.125q0.3125 0 0.578125 0.125q0.265625 0.109375 0.453125 0.3125q0.203125 0.203125 0.3125 0.46875q0.109375 0.25 0.109375 0.5625zm-2.46875 4.25l-2.609375 0l0 -1.71875l4.890625 0l0 7.515625l2.671875 0l0 1.734375l-7.875 0l0 -1.734375l2.921875 0l0 -5.796875zm14.210388 -0.109375q0.265625 0.328125 0.359375 0.6875q0.109375 0.34375 0.109375 0.703125q0 0.78125 -0.265625 1.375q-0.265625 0.578125 -0.765625 0.984375q-0.484375 0.40625 -1.171875 0.609375q-0.671875 0.203125 -1.484375 0.203125q-0.484375 0 -0.890625 -0.09375q-0.40625 -0.09375 -0.625 -0.21875q-0.15625 0.140625 -0.265625 0.328125q-0.109375 0.1875 -0.109375 0.4375q0 0.140625 0.078125 0.28125q0.078125 0.140625 0.21875 0.265625q0.140625 0.109375 0.328125 0.1875q0.203125 0.0625 0.4375 0.078125l2.203125 0.078125q0.734375 0.015625 1.328125 0.1875q0.609375 0.171875 1.03125 0.484375q0.421875 0.3125 0.65625 0.75q0.234375 0.4375 0.234375 1.0q0 0.65625 -0.296875 1.21875q-0.28125 0.578125 -0.875 1.0q-0.578125 0.421875 -1.453125 0.671875q-0.875 0.25 -2.03125 0.25q-1.125 0 -1.9375 -0.1875q-0.796875 -0.171875 -1.3125 -0.5q-0.515625 -0.3125 -0.765625 -0.75q-0.25 -0.4375 -0.25 -0.96875q0 -0.3125 0.078125 -0.59375q0.09375 -0.265625 0.25 -0.53125q0.171875 -0.25 0.40625 -0.484375q0.25 -0.234375 0.59375 -0.46875q-0.453125 -0.25 -0.6875 -0.65625q-0.21875 -0.40625 -0.21875 -0.859375q0 -0.3125 0.078125 -0.578125q0.078125 -0.265625 0.203125 -0.5q0.140625 -0.25 0.3125 -0.484375q0.171875 -0.234375 0.359375 -0.453125q-0.328125 -0.328125 -0.5625 -0.796875q-0.21875 -0.484375 -0.21875 -1.203125q0 -0.78125 0.28125 -1.390625q0.28125 -0.609375 0.765625 -1.015625q0.5 -0.421875 1.171875 -0.625q0.6875 -0.21875 1.484375 -0.21875q0.40625 0 0.78125 0.046875q0.390625 0.03125 0.6875 0.140625l3.21875 0l0 1.609375l-1.46875 0zm-5.234375 8.875q0 0.53125 0.53125 0.78125q0.546875 0.265625 1.53125 0.265625q0.640625 0 1.0625 -0.125q0.4375 -0.109375 0.703125 -0.3125q0.28125 -0.1875 0.390625 -0.453125q0.125 -0.25 0.125 -0.515625q0 -0.25 -0.109375 -0.421875q-0.109375 -0.15625 -0.328125 -0.28125q-0.203125 -0.109375 -0.484375 -0.171875q-0.265625 -0.046875 -0.609375 -0.078125l-1.953125 -0.03125q-0.265625 0.1875 -0.4375 0.34375q-0.171875 0.171875 -0.265625 0.328125q-0.09375 0.15625 -0.125 0.3125q-0.03125 0.171875 -0.03125 0.359375zm0.375 -7.421875q0 0.734375 0.421875 1.171875q0.4375 0.421875 1.21875 0.421875q0.40625 0 0.703125 -0.125q0.3125 -0.140625 0.515625 -0.359375q0.203125 -0.234375 0.296875 -0.53125q0.109375 -0.3125 0.109375 -0.640625q0 -0.765625 -0.4375 -1.203125q-0.4375 -0.4375 -1.203125 -0.4375q-0.40625 0 -0.71875 0.140625q-0.3125 0.140625 -0.515625 0.375q-0.1875 0.21875 -0.296875 0.53125q-0.09375 0.3125 -0.09375 0.65625zm13.694824 6.1875l0 -6.03125q0 -1.515625 -1.125 -1.515625q-0.5625 0 -1.078125 0.453125q-0.515625 0.453125 -1.09375 1.234375l0 5.859375l-2.21875 0l0 -12.875l2.21875 0l0 3.171875l-0.109375 1.671875q0.28125 -0.328125 0.578125 -0.59375q0.296875 -0.28125 0.625 -0.453125q0.34375 -0.1875 0.734375 -0.28125q0.390625 -0.09375 0.859375 -0.09375q0.71875 0 1.234375 0.234375q0.53125 0.234375 0.890625 0.65625q0.359375 0.421875 0.53125 1.015625q0.1875 0.59375 0.1875 1.328125l0 6.21875l-2.234375 0zm12.382263 -0.09375q-0.609375 0.140625 -1.21875 0.21875q-0.609375 0.078125 -1.15625 0.078125q-0.90625 0 -1.578125 -0.1875q-0.65625 -0.1875 -1.09375 -0.578125q-0.421875 -0.390625 -0.625 -1.0q-0.203125 -0.609375 -0.203125 -1.4375l0 -4.53125l-2.5 0l0 -1.71875l2.5 0l0 -2.375l2.265625 -0.59375l0 2.96875l3.609375 0l0 1.71875l-3.609375 0l0 4.359375q0 0.796875 0.359375 1.203125q0.375 0.40625 1.234375 0.40625q0.546875 0 1.0625 -0.09375q0.515625 -0.09375 0.953125 -0.21875l0 1.78125zm10.257324 -2.625q0 0.78125 -0.359375 1.34375q-0.34375 0.5625 -0.921875 0.921875q-0.578125 0.34375 -1.3125 0.5q-0.734375 0.15625 -1.5 0.15625q-1.015625 0 -1.84375 -0.09375q-0.8125 -0.09375 -1.546875 -0.265625l0 -2.015625q0.859375 0.359375 1.703125 0.515625q0.859375 0.15625 1.609375 0.15625q0.875 0 1.3125 -0.265625q0.4375 -0.28125 0.4375 -0.734375q0 -0.203125 -0.09375 -0.375q-0.09375 -0.171875 -0.34375 -0.328125q-0.25 -0.171875 -0.71875 -0.328125q-0.453125 -0.171875 -1.1875 -0.390625q-0.671875 -0.1875 -1.1875 -0.421875q-0.515625 -0.25 -0.859375 -0.578125q-0.328125 -0.328125 -0.5 -0.75q-0.171875 -0.4375 -0.171875 -1.03125q0 -0.5625 0.25 -1.0625q0.265625 -0.5 0.765625 -0.875q0.5 -0.375 1.25 -0.59375q0.765625 -0.21875 1.78125 -0.21875q0.875 0 1.546875 0.09375q0.671875 0.078125 1.1875 0.1875l0 1.828125q-0.78125 -0.265625 -1.484375 -0.359375q-0.703125 -0.109375 -1.375 -0.109375q-0.6875 0 -1.109375 0.25q-0.40625 0.234375 -0.40625 0.671875q0 0.21875 0.078125 0.390625q0.078125 0.15625 0.3125 0.3125q0.25 0.140625 0.6875 0.3125q0.4375 0.171875 1.140625 0.375q0.796875 0.21875 1.34375 0.484375q0.546875 0.265625 0.875 0.59375q0.34375 0.328125 0.484375 0.75q0.15625 0.40625 0.15625 0.953125z" fill-rule="nonzero"/></g></svg>
